<?xml version="1.0" encoding="UTF-8" standalone="no"?>
<!-- Created with Inkscape (http://www.inkscape.org/) -->
<svg version="1.1" id="svg2" width="305.33334" height="136" viewBox="0 0 305.33334 136" sodipodi:docname="american_family_insurance_logo.ai" xmlns:inkscape="http://www.inkscape.org/namespaces/inkscape" xmlns:sodipodi="http://sodipodi.sourceforge.net/DTD/sodipodi-0.dtd" xmlns="http://www.w3.org/2000/svg" xmlns:svg="http://www.w3.org/2000/svg">
  <defs id="defs6">
    <clipPath clipPathUnits="userSpaceOnUse" id="clipPath16">
      <path d="M 0,102 H 229 V 0 H 0 Z" id="path14"/>
    </clipPath>
  </defs>
  <sodipodi:namedview id="namedview4" pagecolor="#ffffff" bordercolor="#000000" borderopacity="0.25" inkscape:showpageshadow="2" inkscape:pageopacity="0.0" inkscape:pagecheckerboard="0" inkscape:deskcolor="#d1d1d1"/>
  <g id="g8" inkscape:groupmode="layer" inkscape:label="american_family_insurance_logo" transform="matrix(1.3333333,0,0,-1.3333333,0,136)">
    <g id="g10">
      <g id="g12" clip-path="url(#clipPath16)">
        <g id="g18" transform="translate(208.3047,29.0771)">
          <path d="m 0,0 c 1.846,0 3.393,-1.458 3.393,-3.365 0,-1.943 -1.547,-3.399 -3.393,-3.399 -1.852,0 -3.405,1.456 -3.405,3.399 C -3.405,-1.458 -1.852,0 0,0 m 0,-6.266 c 1.565,0 2.774,1.248 2.774,2.901 0,1.619 -1.209,2.867 -2.774,2.867 -1.582,0 -2.793,-1.248 -2.793,-2.867 0,-1.653 1.211,-2.901 2.793,-2.901 m -1.318,4.861 h 1.529 c 0.938,0 1.38,-0.366 1.38,-1.126 0,-0.717 -0.452,-1.014 -1.039,-1.076 L 1.685,-5.352 H 1.021 l -1.074,1.698 h -0.65 v -1.698 h -0.615 z m 0.615,-1.751 h 0.641 c 0.541,0 1.041,0.027 1.041,0.65 0,0.526 -0.453,0.607 -0.87,0.607 h -0.812 z" style="fill:#003da7;fill-opacity:1;fill-rule:nonzero;stroke:none" id="path20"/>
        </g>
        <g id="g22" transform="translate(205.6152,66.4375)">
          <path d="m 0,0 h -78.84 l -52.997,13.249 -56.475,-15.354 1.44,-5.364 55.035,14.962 52.255,-13.063 H 0 Z" style="fill:#dc0032;fill-opacity:1;fill-rule:nonzero;stroke:none" id="path24"/>
        </g>
        <g id="g26" transform="translate(63.1914,51.915)">
          <path d="m 0,0 h -5.097 v -2.285 h 4.051 v -2.92 h -4.051 v -2.687 h 5.076 v -2.918 h -8.75 V 2.92 H 0 Z" style="fill:#003da7;fill-opacity:1;fill-rule:nonzero;stroke:none" id="path28"/>
        </g>
        <path d="m 79.792,41.104 h 3.674 v 13.73 h -3.674 z" style="fill:#003da7;fill-opacity:1;fill-rule:nonzero;stroke:none" id="path30"/>
        <path d="m 175.133,41.104 h 3.672 v 13.73 h -3.672 z" style="fill:#003da7;fill-opacity:1;fill-rule:nonzero;stroke:none" id="path32"/>
        <g id="g34" transform="translate(136.9111,41.1055)">
          <path d="M 0,0 H -3.674 V 13.729 H 5.097 V 10.81 H 0 V 8.524 H 4.051 V 5.604 H 0 Z" style="fill:#003da7;fill-opacity:1;fill-rule:nonzero;stroke:none" id="path36"/>
        </g>
        <g id="g38" transform="translate(182.4883,41.1055)">
          <path d="M 0,0 H 8.75 V 3.483 H 3.674 V 13.729 H 0 Z" style="fill:#003da7;fill-opacity:1;fill-rule:nonzero;stroke:none" id="path40"/>
        </g>
        <g id="g42" transform="translate(119.8359,54.835)">
          <path d="M 0,0 V -7.454 L -3.69,0 h -4.125 v -13.73 h 3.578 v 7.455 l 3.69,-7.455 H 3.58 V 0 Z" style="fill:#003da7;fill-opacity:1;fill-rule:nonzero;stroke:none" id="path44"/>
        </g>
        <g id="g46" transform="translate(30.0439,54.835)">
          <path d="M 0,0 4.636,-13.73 H 0.867 l -0.918,2.724 H -3.874 L -4.795,-13.73 H -8.281 L -3.645,0 Z m -0.933,-8.086 -1.032,3.054 -1.027,-3.054 z" style="fill:#003da7;fill-opacity:1;fill-rule:nonzero;stroke:none" id="path48"/>
        </g>
        <g id="g50" transform="translate(105.6865,54.835)">
          <path d="M 0,0 4.638,-13.73 H 0.867 l -0.919,2.724 h -3.821 l -0.92,-2.724 H -8.279 L -3.644,0 Z m -0.935,-8.086 -1.029,3.054 -1.027,-3.054 z" style="fill:#003da7;fill-opacity:1;fill-rule:nonzero;stroke:none" id="path52"/>
        </g>
        <g id="g54" transform="translate(150.5791,54.835)">
          <path d="M 0,0 4.637,-13.73 H 0.869 l -0.92,2.724 H -3.872 L -4.793,-13.73 H -8.279 L -3.643,0 Z m -0.931,-8.086 -1.032,3.054 -1.028,-3.054 z" style="fill:#003da7;fill-opacity:1;fill-rule:nonzero;stroke:none" id="path56"/>
        </g>
        <g id="g58" transform="translate(71.6689,45.6143)">
          <path d="M 0,0 1.693,-4.51 H 5.23 l -2.1,5.59 c 1.408,0.776 2.1,1.914 2.1,3.807 0,1.409 -0.468,2.691 -1.457,3.449 C 2.888,9.051 1.742,9.221 0.701,9.221 h -6.06 V -4.51 h 3.674 V 0 Z m -1.685,3.392 v 2.756 h 1.5 c 0.346,0 0.73,0 1.042,-0.186 C 1.221,5.728 1.43,5.266 1.43,4.781 1.43,3.539 0.476,3.392 -0.322,3.392 Z" style="fill:#003da7;fill-opacity:1;fill-rule:nonzero;stroke:none" id="path60"/>
        </g>
        <g id="g62" transform="translate(198.8701,54.835)">
          <path d="M 0,0 -2.651,-5.034 -5.298,0 h -3.608 l 4.419,-8.395 v -5.335 h 3.675 v 5.335 L 3.605,0 Z" style="fill:#003da7;fill-opacity:1;fill-rule:nonzero;stroke:none" id="path64"/>
        </g>
        <g id="g66" transform="translate(47.6582,41.1055)">
          <path d="M 0,0 V 6.2 L -2.429,0 H -5.081 L -7.513,6.2 V 0 h -3.561 v 13.729 h 4.091 l 3.226,-8.238 3.229,8.238 H 3.563 V 0 Z" style="fill:#003da7;fill-opacity:1;fill-rule:nonzero;stroke:none" id="path68"/>
        </g>
        <g id="g70" transform="translate(167.8916,41.1055)">
          <path d="M 0,0 V 6.202 L -2.432,0 H -5.083 L -7.514,6.202 V 0 h -3.562 v 13.729 h 4.091 l 3.228,-8.237 3.227,8.237 H 3.562 V 0 Z" style="fill:#003da7;fill-opacity:1;fill-rule:nonzero;stroke:none" id="path72"/>
        </g>
        <g id="g74" transform="translate(94.7148,50.9609)">
          <path d="m 0,0 c -0.538,0.542 -1.223,0.868 -1.953,0.868 -1.696,0 -3.13,-1.766 -3.13,-3.859 0,-2.092 1.434,-3.859 3.13,-3.859 0.734,0 1.418,0.329 1.958,0.872 L 1.926,-8.32 c -1.122,-1.185 -2.612,-1.915 -4.254,-1.915 -3.477,0 -6.294,3.243 -6.294,7.244 0,4 2.817,7.244 6.294,7.244 1.642,0 3.132,-0.729 4.254,-1.916 z" style="fill:#003da7;fill-opacity:1;fill-rule:nonzero;stroke:none" id="path76"/>
        </g>
        <path d="M 21.763,38.348 H 202.395 V 22.314 H 21.763 Z m 87.98,-9.509 1.719,-2.852 h 3.624 l -2.13,3.534 c 1.426,0.492 2.13,1.211 2.13,2.409 0,0.891 -0.476,1.702 -1.479,2.182 -0.898,0.451 -2.06,0.564 -3.117,0.564 h -6.862 v -8.689 h 3.675 v 2.852 z m -0.292,2.146 c 0.812,0 1.78,0.092 1.78,0.88 0,0.304 -0.212,0.597 -0.581,0.743 -0.319,0.12 -0.705,0.12 -1.058,0.12 h -2.289 V 30.985 Z M 36.584,25.987 h 3.672 v 8.688 h -3.672 z m 90.775,6.06 h -0.025 l -1.099,-2.943 h 2.225 z m -6.251,-6.06 h 3.923 l 0.395,0.998 h 3.846 l 0.392,-0.998 h 3.924 l -3.977,8.689 h -4.525 z m 45.173,3.383 c -0.302,-1.046 -0.995,-1.496 -2.158,-1.496 -1.349,0 -2.277,0.693 -2.277,2.457 0,1.766 0.958,2.459 2.461,2.459 1.424,0 1.868,-0.901 1.974,-1.521 h 4.159 c -0.483,3.443 -3.911,3.71 -6.133,3.71 -2.239,0 -6.384,-0.145 -6.384,-4.648 0,-4.5 4.145,-4.646 6.384,-4.646 2.248,0 3.663,0.351 4.563,0.984 0.917,0.633 1.334,1.559 1.57,2.701 z m 10.878,-3.383 h 10.414 v 2.117 h -6.725 v 1.169 h 6.282 v 2.117 h -6.282 v 1.168 h 6.725 v 2.118 h -10.414 z m -128.993,0 h 3.529 v 4.304 h 0.03 l 3.922,-4.304 h 4.042 v 8.689 h -3.532 v -4.255 h -0.038 l -3.739,4.255 h -4.214 z m 91.795,0 h 3.531 v 4.304 h 0.028 l 3.922,-4.304 h 4.042 v 8.689 h -3.532 v -4.255 h -0.038 l -3.739,4.255 h -4.214 z M 84.68,29.285 c 0,-2.763 2.167,-3.6 5.963,-3.6 3.792,0 5.959,0.837 5.959,3.6 v 5.391 h -3.687 v -5.258 c 0,-1.118 -1.07,-1.471 -2.272,-1.471 -1.205,0 -2.275,0.353 -2.275,1.471 v 5.258 H 84.68 Z M 73.328,29.092 c 0.498,-0.077 0.668,-0.329 0.668,-0.586 0,-0.413 -0.314,-0.704 -1.466,-0.704 -0.576,0 -0.981,0.06 -1.257,0.181 -0.259,0.134 -0.378,0.329 -0.39,0.621 h -4.448 c 0.013,-2.554 3.113,-2.919 5.953,-2.919 4.145,0 6.003,0.996 6.003,3.113 0,1.473 -1.152,2.275 -3.009,2.531 l -4.409,0.609 c -0.366,0.047 -0.483,0.208 -0.483,0.45 0,0.365 0.379,0.622 1.478,0.622 0.406,0 0.824,-0.05 1.15,-0.185 0.341,-0.121 0.564,-0.34 0.564,-0.691 h 4.29 c -0.131,1.836 -1.845,2.845 -6.004,2.845 -3.035,0 -5.405,-0.609 -5.405,-2.859 0,-1.217 0.749,-2.191 2.553,-2.444 z" style="fill:#003da7;fill-opacity:1;fill-rule:nonzero;stroke:none" id="path78"/>
      </g>
    </g>
  </g>
</svg>