<?xml version="1.0" encoding="UTF-8" standalone="no"?>
<!-- Generator: Adobe Illustrator 28.2.0, SVG Export Plug-In . SVG Version: 6.00 Build 0)  -->

<svg
   version="1.1"
   id="Layer_1"
   x="0px"
   y="0px"
   viewBox="0 0 2466.8 1177.3"
   xml:space="preserve"
   sodipodi:docname="IMAGEGRAPHICS-WhiteText-QRAttached.svg"
   width="2466.8"
   height="1177.3"
   inkscape:version="1.3.2 (091e20ef0f, 2023-11-25, custom)"
   xmlns:inkscape="http://www.inkscape.org/namespaces/inkscape"
   xmlns:sodipodi="http://sodipodi.sourceforge.net/DTD/sodipodi-0.dtd"
   xmlns="http://www.w3.org/2000/svg"
   xmlns:svg="http://www.w3.org/2000/svg"><defs
   id="defs185" /><sodipodi:namedview
   id="namedview185"
   pagecolor="#505050"
   bordercolor="#eeeeee"
   borderopacity="1"
   inkscape:showpageshadow="0"
   inkscape:pageopacity="0"
   inkscape:pagecheckerboard="0"
   inkscape:deskcolor="#505050"
   inkscape:zoom="0.19593693"
   inkscape:cx="2018.5067"
   inkscape:cy="609.89014"
   inkscape:window-width="1348"
   inkscape:window-height="719"
   inkscape:window-x="0"
   inkscape:window-y="0"
   inkscape:window-maximized="1"
   inkscape:current-layer="Layer_1" />
<style
   type="text/css"
   id="style1">
	.st0{fill:#010101;}
	.st1{fill:#010000;}
	.st2{fill:#FFFFFF;}
	.st3{fill:#FDFDFD;}
	.st4{fill:#FCFDFD;}
	.st5{fill:#FCFCFC;}
	.st6{fill:#FEFEFE;}
	.st7{fill:#FDFDFC;}
	.st8{fill:#FDFEFE;}
	.st9{fill:#2A4BA3;}
	.st10{fill:#FF3E35;}
</style>










































































































<path
   class="st9"
   d="m 2461.2,293.7 -9.9,-1.3 -9.9,-13.8 -9.5,-1.7 -2.2,-2.6 -4.8,-0.9 -5.2,-5.2 -6.1,-0.4 -2.6,7.4 -4.3,3 -1.3,5.2 -11.7,-0.9 -1.7,-3.9 -14.3,-0.4 -0.9,-5.2 -8.2,0.4 -7.4,-9.9 -78.7,-0.9 -4.8,5.6 -6.1,0.9 -2.6,4.3 -0.9,3.5 -13.8,1.3 v -3.5 l -3,-3.9 -0.9,-6.5 -4.3,-6.5 -19.9,0.4 -1.7,4.8 -4.3,0.9 -0.4,10.8 -3.9,4.8 v 3.9 l -8.6,-0.4 -3,-3.9 -11.7,-0.4 -4.3,-5.6 h -9.9 v 3.5 h -3.9 l -1.3,-2.2 -13.8,-0.9 -2.2,3.9 h -6.9 l -3,-3.5 h -12.5 v 3 l -9.9,0.4 -3.5,5.2 h -19 l -7.3,-9.5 -13.8,-2.2 -3.5,-3.9 -6.1,0.4 -0.9,4.8 -6.1,2.2 -0.4,2.6 -5.2,0.9 -1.3,4.8 -7.8,2.2 0.9,6.5 -6.1,3.5 -0.9,3.5 h -48.4 l -3.9,9.1 -9.1,-9.5 -31.6,0.4 -6.9,11.7 v 3.9 l -3.5,5.6 -0.4,3 h -15.6 l -0.4,-3 -5.6,-7.8 -3.5,-2.2 -1.3,-10.4 -12.5,-0.9 -0.4,7.8 -6.5,6.9 -5.6,-0.4 -3,-5.6 h -3.9 l -4.3,6.9 -1.3,8.6 -8.2,0.9 -5.6,13.8 -11.2,0.9 -6.1,-11.2 -3.5,-0.4 -0.9,-3.5 -36.7,-0.4 -1.7,4.8 -5.2,1.3 -4.3,4.8 0.4,13 -3.5,5.6 h -13.4 l -1.7,-3.5 -4.8,-0.9 -3,-4.3 -8.2,-0.9 -4.8,13.8 -3.9,3 1.3,4.3 1.3,3.5 -4.8,9.9 h -10.4 l -2.6,-3.5 -5.2,-2.2 -0.4,-3 -19.9,-1.3 -1.7,-3.5 -5.2,-0.9 -3.5,-3 -8.6,-2.6 -3,-3.5 -7.8,-0.4 -3.9,6.5 -0.9,16.9 -27.2,0.4 -0.4,5.2 -5.2,-0.9 v -3.5 l -9.1,-0.9 v -3.9 l -21.2,-0.4 -2.6,5.2 -5.2,1.3 -0.4,3.5 -45.4,0.4 -2.6,-4.3 -4.8,-0.4 -2.2,-6 -19.5,0.4 -2.6,3.9 -5.6,1.7 -2.2,3.5 -3.5,2.6 v 8.2 l -3.9,4.8 -3.9,0.4 -2.2,3.5 -2.6,2.6 -1.3,3.9 -7.3,-0.4 -0.9,-5.2 h -16 l -2.6,5.2 -3.5,-0.9 -1.3,-3.9 h -14.7 l -8.2,14.7 h -2.2 l -2.2,-4.8 h -10.8 l -1.7,4.8 h -7.3 l -1.7,5.6 h -9.9 l -4.3,-5.6 -33.3,0.4 -4.8,-5.2 -2.2,-2.2 -0.4,-13 -6.1,-8.6 -9.1,-1.3 -0.9,-9.9 2.6,-3.9 0.4,-19 -6.5,-11.7 h -6.5 l -2.2,-4.8 h -21.2 l -6.9,9.5 -1.3,14.3 -8.6,0.4 -3,5.6 h -33.7 l -3.9,-5.6 h -13 l -3,5.2 -5.2,1.7 -1.7,4.3 h -2.2 l -2.2,-6.1 h -20.3 l -6.5,-0.9 -2.6,6.9 -8.6,-0.9 -3.9,4.8 -10.4,0.4 -0.9,3.9 -8.2,1.3 -0.4,4.8 -3.9,0.9 v 13.8 l -15.1,-0.4 v -4.3 l -20.3,-1.7 -1.3,-1.7 -5.2,2.6 -21.2,0.9 -2.6,5.2 -14.3,-0.4 -9.5,15.1 -5.6,-0.4 -5.6,-5.6 h -9.1 l -4.3,-3.9 h -5.6 l -5.6,9.5 -20.7,0.4 -6.1,6.9 v 8.2 l 4.8,9.9 -3.9,12.5 -3,3.5 v 4.3 h -5.6 l -3,-5.6 -4.3,-1.3 -1.7,-6.5 -4.8,-6.5 -27.7,-1.3 -1.3,10.8 -19,-1.7 -6.1,7.8 v 13.4 4.3 l -1.3,5.2 h -57.9 l -3.5,5.6 h -14.3 l -2.2,5.6 -41.1,-0.9 -4.8,14.7 -2.2,0.9 -0.4,6.5 -6.9,8.6 -0.9,9.5 h -8.2 l -0.9,-3.5 -7.8,-10.8 13.4,-13.4 0.4,-6.1 5.2,-9.1 0.9,1.7 7.3,-9.5 5.2,3 7.8,0.4 2.2,-8.6 8.2,-8.2 0.9,-15.1 4.3,-6.5 v -9.1 l -4.3,-3.5 4.3,-7.8 11.7,-0.4 3,-3.9 3.9,-2.6 3,-4.3 3.9,-1.3 2.6,-3.5 h 3 l 1.3,-3.9 h 14.4 l 1.7,-4.3 9.5,-0.9 0.9,-3.5 3.9,-2.6 8.6,-14.3 4.3,0.9 2.2,-9.1 5.6,-6.5 2.2,-0.4 1.7,-3.9 7.8,0.4 1.7,5.2 h 6.1 l 3.9,-6.1 7.4,-0.4 2.2,-3.9 4.8,-0.9 0.4,-8.6 3,-4.3 2.6,-16 5.2,-3 0.9,-3 3,-1.7 1.7,-7.8 8.2,-0.4 2.6,-5.6 2.2,-0.4 1.3,-4.8 h 7.8 v -3 l 8.6,-0.9 3.5,-4.3 3,-2.2 1.3,-7.3 5.6,-8.6 0.9,-24.2 -4.3,-3.9 -0.4,-7.3 h -6.1 l -2.2,-4.3 -6.1,-1.3 -4.8,-7.3 0.4,-10.4 -6.1,-11.7 -5.6,-0.4 -1.3,-7.8 -7.3,-1.3 -3.5,-5.2 -14.7,-0.9 -3.5,-4.8 h -4.8 l -4.3,5.6 h -4.8 l -0.9,8.2 -4.3,6.5 -3.9,0.4 -3.9,7.4 -3.9,2.6 -1.3,4.3 -3,-3.5 -3,-3 -1.3,-4.8 -15.6,0.9 -2.2,5.6 h -4.3 l -5.2,8.2 0.4,11.7 3.9,5.2 -0.4,13.8 -4.8,1.3 -4.8,7.3 h -18.2 l -4.8,-6.5 -7.3,-1.7 -4.3,-5.2 -6.1,-0.4 -2.6,5.6 -3,0.4 -3.5,7.8 -53.2,10.8 -8.2,7.4 -2.6,4.3 -21.2,-1.3 -2.6,1.7 -2.6,-0.4 -2.6,-0.4 -3.5,-5.2 -12.5,-0.4 -2.6,6 -5.2,-0.4 -5.6,5.2 -0.9,7.8 -5.6,7.3 -0.9,9.5 h -11.7 l -6.1,6.1 -1.3,4.3 -35.9,-0.9 -2.2,6.1 -3.5,0.4 -4.8,6.1 -0.9,10.4 -5.6,3.9 -3.9,1.7 -4.8,1.3 -7.8,0.9 -1.3,9.2 -3,2.2 -3,3 -3.5,-1.3 -3.9,-12.1 -4.8,-2.2 -2.2,-3.9 -9.1,-0.4 -2.6,5.6 -3.9,0.4 -1.7,14.3 h -9.1 l -3.9,-5.2 -1.7,-2.6 -2.6,-3.5 -2.2,0.4 -0.4,5.2 -5.6,0.9 -4.3,8.2 -4.8,1.3 -3.9,6.5 v 7.3 l -5.6,7.3 -2.2,3.5 -5.6,-0.4 -3,-5.2 -4.3,-1.7 -9.1,-1.7 -2.2,-5.6 h -9.8 l -1.7,4.3 -3.9,0.9 v 20.7 l 4.8,6.9 2.6,0.9 v 5.2 l -11.7,0.4 V 419 l -6.1,-3.5 -0.9,-3.9 -3.9,-0.4 -2.6,-3.9 -3.9,-0.9 -1.3,-4.3 -15.6,0.4 -16.4,19.5 v 6.9 l 2.2,2.6 0.9,14.7 h -7.3 l -2.6,-4.8 h -4.3 l -2.2,5.6 h -8.6 l -2.6,5.6 -7.3,-0.9 -7.8,-15.1 -4.3,-0.9 -2.2,-3.9 h -10.4 v 8.6 l -3.5,3 1.7,3.5 -3.5,8.2 -13,1.3 -11.2,11.2 v 5.2 l -3.9,8.6 -16,-1.3 -3.9,1.7 H 322 l -1.7,5.2 -14.7,-0.4 -0.4,3.9 -7.8,1.3 -3,4.8 h -2.2 l -1.7,3.9 -5.2,0.4 -2.6,5.6 -1.3,4.3 h -4.3 l -5.6,8.6 v 3.9 l -6.5,12.5 -25.1,1.3 -4.3,4.8 h -3.5 l -5.2,6.5 -0.9,3.5 -6.9,-4.3 -5.6,-0.9 -16,-0.4 -2.2,3.9 -6.1,0.4 -13,22 -0.4,6.1 -4.3,7.3 -4.2,-1 -3,4.3 -3.9,3.5 -0.9,2.2 -3.9,2.6 -6.1,8.2 -15.6,0.4 -2.2,3.5 h -3.9 l -5.6,5.6 -0.4,9.1 -8.2,6.5 -5.6,-0.4 -5.2,5.6 -0.4,4.8 h -19 l -4.8,9.1 -4.3,0.9 -1.7,5.2 -40.2,-1.3 -8.2,14.7 -3.9,0.9 -3,5.2 -3,-0.4 -0.9,5.6 -6.1,0.4 -1.7,1.7 -4.3,6.1 -1.3,10.8 2.6,1.7 v 3.9 l 3,3.9 1.3,3.9 11.2,14.7 h 9.5 l 3,4.3 16,0.9 1.7,4.3 15.6,0.9 1.3,-4.8 h 7.3 l 0.4,-3.9 4.8,-1.3 1.3,-7.3 5.2,-7.8 2.6,0.4 3,-3.5 10.4,-1.3 6.5,-9.5 2.2,-0.9 2.6,-9.9 3,-3.5 12.1,-1.3 2.6,4.8 5.6,-0.9 2.6,-3.5 4.8,-0.4 3.5,-6.5 2.2,-6.1 16,-1.7 -0.9,-4.3 6.9,-0.9 3,-5.6 3.5,-3.9 2.6,-0.4 4.3,-3.9 3.5,-1.3 v -6.5 l 6.5,-8.6 19,-0.4 3,7.4 5.2,-6.1 4.8,-0.4 4.8,1.3 1.3,-5.2 8.6,-1.7 3,-3.9 3.5,-1.7 1.7,-4.3 h 4.3 l 4.3,1.3 1.7,-5.6 5.6,-0.9 3,-4.3 12.5,-0.4 2.2,-4.8 3.9,-0.4 1.7,-4.8 h 6.5 l 1.3,-3.5 12.5,-1.7 -0.4,-3.9 26.8,-0.4 2.2,-4.8 h 3.9 l 1.7,-4.8 3,-0.4 0.4,-3.5 4.8,-5.6 13.8,-0.4 0.9,-4.8 9.9,-0.4 2.6,-4.3 3.9,-5.6 3.5,-0.4 1.7,-3.9 h 7.8 l 2.6,-4.8 12.5,-0.9 2.2,-4.8 6.1,-2.2 1.7,-3.5 h 14.3 l 5.2,-9.1 3.9,-0.9 2.2,-13.8 3.9,-0.9 1.7,-4.8 h 5.6 l 3,3.5 19.5,1.3 7.3,-9.1 3.5,-7.8 1.7,-3 0.4,-3.9 3.9,-2.2 1.7,-3 5.2,-0.9 6.1,3.9 9.5,1.7 3.5,5.2 h 2.2 l 2.2,-4.8 10.8,-1.7 1.7,-3 5.2,-1.7 1.3,-4.3 h 6.1 l 0.9,-3.5 4.3,-1.7 0.9,-8.2 1.7,-1.7 1.3,-4.3 4.8,-4.3 3.5,-0.4 1.3,-5.2 6.9,-0.9 v -4.3 h 4.3 l 3.5,1.7 5.2,-2.2 3,3.9 6.1,-0.4 1.7,-2.2 5.2,-0.9 4.8,5.2 3,-4.3 8.2,-3.5 2.6,-9.1 3.9,-6.9 7.8,-1.3 0.9,3.5 5.6,1.7 1.7,4.3 14.7,-0.4 8.2,-13 -1.7,-8.6 3.9,-1.7 0.9,3 25.1,-0.4 c 0,0 2.2,-3.9 3.9,-4.3 1.7,-0.4 5.6,-3.5 5.6,-3.5 l 5.6,0.9 1.7,3 3.5,2.2 0.9,7.3 -10.8,12.5 -0.9,6.5 -6.9,12.1 h -6.1 l -6.9,9.5 -4.3,0.9 -1.7,4.8 -7.8,1.7 -1.3,21.2 -6.1,8.2 v 8.6 l -38,1.7 -1.7,2.2 -7.8,2.2 -2.6,3.9 -3,2.6 -0.9,4.3 -5.6,-0.4 -10.8,13.4 -0.4,13.8 -2.6,3.9 v 7.8 l -6.5,5.2 v 2.6 l -8.3,2.1 -7.3,9.1 -4.3,3.5 v 6.1 l -8.6,11.2 -0.4,5.2 5.6,3.9 0.9,16.9 2.6,4.8 2.2,11.7 -2.6,29.8 6.5,9.5 3.5,2.6 v 15.1 l 6.1,3.9 1.7,3.5 6.9,0.4 3,-4.3 15.6,-1.3 1.7,-3 13.8,-0.4 8.2,4.3 25.9,-6.1 9.9,-13.8 h 14.3 l 5.2,-8.2 h 3 l 2.6,2.6 12.5,0.9 1.3,-4.3 h 8.6 l 1.3,8.2 16,0.9 3.9,-4.8 2.6,-0.4 1.3,-3.9 5.6,-3 1.7,-2.6 23.8,-0.9 1.7,-4.3 h 3.9 l 2.2,-3.9 34.1,-0.4 3,-5.2 13,-0.4 1.7,-4.8 4.3,-0.4 1.3,-3 18.6,-1.7 1.7,-3.9 4.8,-1.3 1.3,-3.5 2.6,-1.7 2.2,-3.9 24.2,-0.9 1.7,-4.3 24.2,-0.4 3,-5.2 h 3.9 l 0.9,-3.5 22.9,-0.4 1.3,3 -7.3,13 -2.6,0.9 -3.9,8.6 -5.2,2.2 -1.3,3.9 h -4.3 l -2.6,3 -6.1,0.9 -4.3,6.5 -1.3,8.6 3.9,7.3 5.2,2.2 1.7,3.5 2.2,0.9 v 4.8 l -2.2,2.6 -1.3,6.5 -6.5,7.8 v 5.2 l 3,3.5 0.9,21.2 5.6,5.6 39.8,9.9 14.7,3.9 37.6,-3 6.1,-3.5 h 5.2 l 1.7,4.8 12.5,-0.4 1.3,-3.9 22.5,-1.7 3,-9.9 -4.3,-10.4 -5.2,-1.7 -1.3,-15.6 4.8,-1.7 4.3,4.8 36.7,1.3 2.6,-4.8 8.6,0.4 5.6,-1.3 3.5,3.9 4.8,2.6 1.7,4.3 20.7,-0.9 6.5,-12.1 1.7,-11.7 49.3,-0.4 3,-5.2 4.3,-1.3 8.2,-11.7 0.9,-3 7.8,0.4 1.7,-3.5 h 4.3 l 2.2,3 h 9.9 l 13.4,-18.6 12.1,0.4 4.8,5.2 4.8,-0.4 1.3,-5.6 h 4.3 l 0.4,-4.3 4.3,-0.9 2.6,-3.9 2.2,-0.9 3.5,-4.8 c 0,0 4.3,2.6 4.3,0 0,-2.6 0.4,-4.8 0.4,-4.8 l 4.8,-0.4 0.9,3.5 5.6,1.3 1.7,5.2 h 12.5 l 3.9,-7.3 3.5,0.4 1.7,-3.5 6.1,-0.4 1.3,-3.5 h 4.3 v -3.9 l 11.2,-2.2 2.6,6.1 4.3,-0.4 1.7,-5.2 5.2,-0.9 3,-3.9 1.7,-0.4 2.2,-3.9 3,-1.3 6.1,-9.1 h 25.1 l 1.3,-3.9 42.4,-0.9 0.9,-5.2 5.2,-1.7 0.9,-2.6 8.6,-1.7 0.4,-6.1 16.9,2.2 4.8,-9.1 2.2,-1.3 6.5,-0.9 4.8,1.7 h 9.1 l 3.5,-4.3 3.5,1.3 2.6,3.5 3,-0.4 2.2,-1.7 1.7,1.3 h 5.2 l 2.6,-4.8 h 6.1 l 3.9,-5.2 4.3,-0.4 2.6,5.6 13.8,-0.9 1.7,-4.3 3.5,-0.4 2.2,-4.3 19.5,-0.4 3.5,-4.3 14.7,-1.7 1.7,-3 1.7,3.9 5.2,-0.4 3.5,-2.2 c 0,0 -0.4,2.6 0.9,2.6 1.3,0 10.4,0 10.4,0 l 2.2,-3.9 3,-0.9 3,-4.8 4.8,-0.4 14.7,-19.9 6.5,-0.4 1.3,-4.3 3.5,1.3 v 2.6 l 4.3,0.9 3.5,3.9 17.7,0.4 1.7,-3.9 7.3,0.4 2.2,3.5 6.9,0.9 1.3,5.6 3,3.9 11.7,0.9 3.5,-4.8 24.6,-0.9 0.9,-4.3 5.2,-2.2 1.3,-18.2 7.3,-0.4 1.7,3 4.8,3 1.3,3 h 3.5 l 3,5.6 6.1,0.4 3,-4.8 2.2,-0.4 3.5,6.5 3.9,-0.4 3.5,-4.8 9.5,-0.4 1.3,4.3 71.3,-0.4 4.3,2.2 0.9,-5.6 2.2,-3.9 0.4,-18.6 8.2,-13.4 19,0.4 5.2,5.6 6.1,-6.1 32.8,0.9 6.5,6.9 0.9,4.8 3,4.3 0.9,7.4 26.4,0.9 0.9,-4.3 5.6,-7.8 v -6.1 l 3,-4.3 1.3,-3.5 3.9,-0.4 2.6,-3.9 3.9,-0.4 0.9,-3.9 h 6.5 l 3.5,-3.9 9.5,-0.9 3.9,5.6 3.9,-5.6 13.4,-0.9 5.2,-6.9 0.9,-6.5 7.8,-1.3 2.2,5.2 h 13.4 5.2 l 3.9,0.4 2.6,13 2.6,1.7 0.9,7.8 14.3,1.3 3.9,-8.2 1.7,-5.2 h 4.3 l 1.3,12.5 -2.6,4.3 v 10.4 l 1.3,3.5 0.4,8.2 24.6,-0.4 12.1,-19.5 9.5,0.9 2.6,-4.8 3,-4.3 -0.4,-32.9 1.7,-3 16.4,-0.4 2.6,3.5 14.3,0.9 1.7,3.5 6.1,2.6 0.4,3.9 6.9,0.4 2.6,5.6 h 3.9 l 2.2,-4.3 3.9,-2.6 0.4,-6.5 5.6,-6.1 16.9,-1.3 3,-4.8 6.1,-0.4 v 4.8 l 4.8,2.2 1.3,3.9 11.7,-0.4 5.2,-4.8 6.1,-0.9 1.7,-3.5 9.9,-1.3 3.9,-5.2 6.5,0.4 4.3,-4.3 6.1,-0.9 v -4.3 l 3.9,-2.6 1.7,-2.2 21.2,0.4 v 7.8 l -2.6,3 0.4,6.5 1.7,6.1 4.3,4.3 10.4,0.4 5.2,-4.8 2.6,-9.1 -2.6,-4.8 -3.9,-5.6 -2.2,-3.9 -3.9,-2.2 v -6 l 1.7,-4.8 0.4,-12.1 2.2,-3.5 3,-1.3 3.5,0.9 v 1.7 l -2.6,2.6 -0.4,16.4 6.1,3.9 0.4,3 h 14.7 l 2.6,-5.2 V 397 l 2.6,-3.9 v -25.5 l -2.2,-2.2 v -3 l 1.7,-3 0.9,-6.1 4.8,-3.5 1.7,-3 h 3.5 l 0.4,-4.8 7.8,-0.9 2.6,-4.3 4.3,-0.4 6.5,-12.1 0.9,-25.1 z m -1401.7,166 -6.5,2.6 -6.9,-9.9 1.3,-6.9 6.1,0.4 h 6.9 l 0.4,8.2 z"
   id="path150" />
<g
   id="g172"
   transform="translate(-73.7,-203)">
	<path
   class="st2"
   d="m 152.9,1257.4 c 6.2,-1.5 13.5,-2.4 22.3,-2.4 12.3,0 22.7,2.7 29.6,9.1 6.6,5.9 9.9,14.8 9.9,25.4 0,11.3 -3,19 -8.2,25.2 -7.4,9.1 -19.7,13.7 -31.6,13.7 -2.6,0 -4.6,0 -6.8,-0.2 v 50.5 h -15.3 v -121.3 z m 15.3,59.1 c 1.8,0.4 3.4,0.5 6,0.5 15.1,0 25.3,-9.1 25.3,-26.5 0,-12.6 -5.8,-24 -22.7,-24 -3.6,0 -6.6,0.4 -8.6,0.9 z"
   id="path151" />
	<path
   class="st2"
   d="m 262.1,1257.4 c 6.6,-1.6 14.5,-2.4 22.1,-2.4 13.3,0 23.3,2.6 30.2,8.8 6.6,6.2 9.4,14.5 9.4,24.2 0,15.7 -8,26 -21.5,31.7 v 0.4 c 9.9,2.7 15.1,11.5 18.1,27.6 3,17 5.8,27.4 7.6,31.3 h -15.5 c -2,-3.7 -4.6,-15.4 -7.2,-30.6 -3,-16.8 -8.8,-23.2 -21.9,-23.2 h -6 v 53.8 h -15.3 z m 15.4,56.9 h 6.4 c 14.7,0 24.5,-9.9 24.5,-24.7 0,-14.3 -6.4,-23.1 -22.9,-23.2 -3,0 -6,0.2 -8,0.7 z"
   id="path152" />
	<path
   class="st2"
   d="m 422.3,1320.3 h -33.6 v 46.3 h 38.2 v 12.3 h -53.5 v -123.3 h 51.1 v 12.3 h -35.8 v 40.6 h 33.6 z"
   id="path153" />
	<path
   class="st2"
   d="m 554.8,1325.8 c -1,-16.3 -2,-34.4 -1.4,-48.3 h -0.8 c -3,13.7 -6.6,28.4 -10.7,42.8 l -16.5,57.8 h -9.7 L 500,1322.7 c -4.4,-15.7 -8.4,-30.9 -10.9,-45.2 h -0.6 c 0,14.5 -0.8,31.7 -1.6,49.2 l -2.6,52.1 h -13.7 l 8,-123.3 h 16.5 l 15.7,56.4 c 4.6,16.3 8,28.4 10.7,42.4 h 0.6 c 2.6,-14.1 5.6,-25.8 9.9,-42.4 l 15.1,-56.4 h 17.1 l 7.8,123.3 h -14.3 z"
   id="path154" />
	<path
   class="st2"
   d="m 638,1255.6 v 123.3 h -15.3 v -123.3 z"
   id="path155" />
	<path
   class="st2"
   d="m 741,1320.3 h -33.6 v 46.3 h 38.2 v 12.3 h -53.5 v -123.3 h 51.1 v 12.3 h -35.8 v 40.6 H 741 Z"
   id="path156" />
	<path
   class="st2"
   d="m 792.4,1257.4 c 6.6,-1.6 14.5,-2.4 22.1,-2.4 13.3,0 23.3,2.6 30.2,8.8 6.6,6.2 9.4,14.5 9.4,24.2 0,15.7 -8,26 -21.5,31.7 v 0.4 c 9.9,2.7 15.1,11.5 18.1,27.6 3,17 5.8,27.4 7.6,31.3 h -15.5 c -2,-3.7 -4.6,-15.4 -7.2,-30.6 -3,-16.8 -8.8,-23.2 -21.9,-23.2 h -6 v 53.8 h -15.3 z m 15.3,56.9 h 6.4 c 14.7,0 24.5,-9.9 24.5,-24.7 0,-14.3 -6.4,-23.1 -22.9,-23.2 -3,0 -6,0.2 -8,0.7 z"
   id="path157" />
	<path
   class="st2"
   d="m 980.8,1341.9 -9,37 h -14.7 l 30.6,-123.3 h 16.9 l 29.8,123.3 h -15.1 l -9,-37 z m 27.7,-11.3 -7,-31.3 c -2,-8.8 -3.8,-19 -5.4,-28.2 h -0.8 c -1.6,9.3 -3.6,19.9 -5.4,28.2 l -7,31.3 z"
   id="path158" />
	<path
   class="st2"
   d="m 1081.1,1257.4 c 6.2,-1.5 13.5,-2.4 22.3,-2.4 12.3,0 22.7,2.7 29.6,9.1 6.6,5.9 9.9,14.8 9.9,25.4 0,11.3 -3,19 -8.2,25.2 -7.4,9.1 -19.7,13.7 -31.6,13.7 -2.6,0 -4.6,0 -6.8,-0.2 v 50.5 H 1081 v -121.3 z m 15.3,59.1 c 1.8,0.4 3.4,0.5 6,0.5 15.1,0 25.3,-9.1 25.3,-26.5 0,-12.6 -5.8,-24 -22.7,-24 -3.6,0 -6.6,0.4 -8.6,0.9 z"
   id="path159" />
	<path
   class="st2"
   d="m 1190.3,1257.4 c 6.2,-1.5 13.5,-2.4 22.3,-2.4 12.3,0 22.7,2.7 29.6,9.1 6.6,5.9 9.9,14.8 9.9,25.4 0,11.3 -3,19 -8.2,25.2 -7.4,9.1 -19.7,13.7 -31.6,13.7 -2.6,0 -4.6,0 -6.8,-0.2 v 50.5 h -15.3 v -121.3 z m 15.3,59.1 c 1.8,0.4 3.4,0.5 6,0.5 15.1,0 25.3,-9.1 25.3,-26.5 0,-12.6 -5.8,-24 -22.7,-24 -3.6,0 -6.6,0.4 -8.6,0.9 z"
   id="path160" />
	<path
   class="st2"
   d="m 1299.5,1255.6 h 15.3 V 1367 h 37.8 v 11.9 h -53.1 z"
   id="path161" />
	<path
   class="st2"
   d="m 1413.2,1255.6 v 123.3 h -15.3 v -123.3 z"
   id="path162" />
	<path
   class="st2"
   d="m 1525.8,1376.7 c -4.2,2 -10.7,3.3 -19.1,3.3 -26.3,0 -45,-19.4 -45,-61.3 0,-48.7 26.3,-64.2 47.4,-64.2 8.2,0 13.9,1.5 16.7,3.1 l -3.4,11.9 c -3.2,-1.3 -6.6,-2.6 -13.5,-2.6 -14.3,0 -31,12.8 -31,50.5 0,37.7 15.1,50.1 31.4,50.1 5.8,0 10.9,-1.3 14.1,-2.7 z"
   id="path163" />
	<path
   class="st2"
   d="m 1588.6,1341.9 -9,37 H 1565 l 30.6,-123.3 h 16.9 l 29.8,123.3 h -15.1 l -9,-37 z m 27.7,-11.3 -7,-31.3 c -2,-8.8 -3.8,-19 -5.4,-28.2 h -0.8 c -1.6,9.3 -3.6,19.9 -5.4,28.2 l -7,31.3 z"
   id="path164" />
	<path
   class="st2"
   d="m 1692.7,1268.2 h -24.5 v -12.6 h 64.3 v 12.6 H 1708 v 110.7 h -15.3 z"
   id="path165" />
	<path
   class="st2"
   d="m 1841.3,1316.3 c 0,46.3 -17.3,64 -38.8,64 -22.3,0 -37.2,-21.8 -37.2,-63.3 0,-40.8 15.9,-62.9 39.4,-62.9 22.9,0 36.6,22.9 36.6,62.2 z m -60.1,0.9 c 0,25.4 5.4,50.7 22.3,50.7 17.3,0 21.9,-26.9 21.9,-51 0,-23.1 -4.6,-50.3 -22.1,-50.3 -16.7,-0.1 -22.1,25.6 -22.1,50.6 z"
   id="path166" />
	<path
   class="st2"
   d="m 1889.5,1257.4 c 6.6,-1.6 14.5,-2.4 22.1,-2.4 13.3,0 23.3,2.6 30.2,8.8 6.6,6.2 9.4,14.5 9.4,24.2 0,15.7 -8,26 -21.5,31.7 v 0.4 c 9.9,2.7 15.1,11.5 18.1,27.6 3,17 5.8,27.4 7.6,31.3 h -15.5 c -2,-3.7 -4.6,-15.4 -7.2,-30.6 -3,-16.8 -8.8,-23.2 -21.9,-23.2 h -6 v 53.8 h -15.3 z m 15.3,56.9 h 6.4 c 14.7,0 24.5,-9.9 24.5,-24.7 0,-14.3 -6.4,-23.1 -22.9,-23.2 -3,0 -6,0.2 -8,0.7 z"
   id="path167" />
	<path
   class="st2"
   d="m 1997.7,1362.6 c 4.6,2.7 12.5,4.9 19.3,4.9 13.9,0 22.3,-8.4 22.3,-20.9 0,-11.3 -7.2,-18.3 -17.7,-25.6 -10.5,-6.8 -25.3,-18.3 -25.3,-34.2 0,-18.7 14.1,-32.4 35.4,-32.4 8.4,0 15.7,2.4 18.9,4.6 l -3.8,12.1 c -3.4,-2.2 -9,-4.2 -15.9,-4.2 -13.1,0 -19.3,9.1 -19.3,17.6 0,12.3 7,17 19.7,25.4 16.1,10.4 23.3,21.8 23.3,35.5 0,21.2 -16.3,34.6 -37.6,34.6 -9.2,0 -18.9,-2.7 -22.7,-5.3 z"
   id="path168" />
	<path
   class="st2"
   d="m 2178.8,1255.6 v 123.3 h -15.3 v -123.3 z"
   id="path169" />
	<path
   class="st2"
   d="m 2232.9,1378.9 v -123.3 h 14.5 l 24.7,57.8 c 5.6,13.2 12.5,29.6 17.1,43 h 0.4 c -1.2,-19.4 -1.8,-35.3 -1.8,-56.7 v -44.1 h 13.7 v 123.3 H 2287 l -25.5,-59.3 c -5.4,-12.4 -11.1,-26.5 -15.9,-41.9 h -0.4 c 1.2,16.5 1.6,32.2 1.6,58.5 v 42.6 h -13.9 z"
   id="path170" />
	<path
   class="st2"
   d="m 2413.8,1376.7 c -4.2,2 -10.7,3.3 -19.1,3.3 -26.3,0 -45,-19.4 -45,-61.3 0,-48.7 26.3,-64.2 47.4,-64.2 8.2,0 13.9,1.5 16.7,3.1 l -3.4,11.9 c -3.2,-1.3 -6.6,-2.6 -13.5,-2.6 -14.3,0 -31,12.8 -31,50.5 0,37.7 15.1,50.1 31.4,50.1 5.8,0 10.9,-1.3 14.1,-2.7 z"
   id="path171" />
	<path
   class="st2"
   d="m 2467.1,1380.3 c -5.6,0 -9.9,-4.2 -9.9,-10.6 0,-6.2 4.6,-10.8 10.1,-10.8 6.2,0 10.1,4.4 10.1,10.8 0,6.4 -3.8,10.6 -10.1,10.6 z"
   id="path172" />
</g>
<g
   id="g177"
   transform="translate(-73.7,-203)">
	<path
   class="st2"
   d="m 180.4,205.4 v 280.3 h -32 V 205.4 Z"
   id="path173" />
	<path
   class="st2"
   d="m 409.1,365.1 c -2.1,-37 -4.2,-78.2 -2.9,-109.8 h -1.7 c -6.2,31.2 -13.7,64.5 -22.5,97.3 L 347.5,484 H 327.1 L 294.3,358 c -9.1,-35.8 -17.5,-70.3 -22.9,-102.7 h -1.2 c 0,32.8 -1.7,71.9 -3.3,111.9 l -5.4,118.5 h -28.7 l 16.6,-280.3 h 34.5 l 32.8,128.1 c 9.6,37 16.6,64.5 22.5,96.5 h 1.2 c 5.4,-32 11.6,-58.6 20.8,-96.5 l 31.6,-128.1 h 35.8 l 16.2,280.3 h -29.9 z"
   id="path174" />
	<path
   class="st2"
   d="m 527.6,401.7 -18.7,84 h -30.8 l 64,-280.3 h 35.3 l 62.4,280.3 h -31.6 l -18.7,-84 z m 57.8,-25.8 -14.6,-71.1 c -4.2,-20 -7.9,-43.2 -11.2,-64 h -1.7 c -3.3,21.2 -7.5,45.3 -11.2,64 l -14.6,71.1 z"
   id="path175" />
	<path
   class="st2"
   d="m 812.8,478.6 c -12.1,5 -32,9.6 -49.9,9.6 -24.5,0 -47.4,-6.7 -66.1,-27.4 C 676.4,439.2 662.7,400.5 663.1,349.4 663.5,240.5 719.2,203 768.7,203 c 17.5,0 31.2,3.3 39.9,7.9 l -7.1,27.4 c -7.5,-3.7 -17.5,-6.7 -32.4,-6.7 -34.9,0 -72.8,27.9 -72.8,114.8 0,86.5 32.8,114.3 66.5,114.3 10.8,0 17,-2.1 19.5,-3.3 v -91.5 h -36.2 v -26.6 h 66.5 v 139.3 z"
   id="path176" />
	<path
   class="st2"
   d="m 966.7,352.6 h -70.3 v 105.2 h 79.8 v 27.9 H 864.4 V 205.4 h 106.9 v 27.9 h -74.8 v 92.3 h 70.3 v 27 z"
   id="path177" />
</g>
<g
   id="g185"
   transform="translate(-73.7,-203)">
	<path
   class="st10"
   d="m 548,1165.2 c -22.3,7 -57.7,15.6 -92.7,15.6 -37.8,0 -67.6,-9.9 -86.4,-30.4 -18.6,-19.3 -25.5,-50.2 -18.9,-85.5 9.7,-51.8 39.3,-96.6 80.5,-126.7 36.4,-25.9 82.6,-40.3 131,-40.3 36,0 61.6,7 71.3,12.3 l -27.5,50.2 c -11.3,-5.8 -32.1,-11.5 -56.9,-11.5 -27.7,0 -53.6,7.8 -75,22.2 -28,18.9 -50.3,51.8 -57.5,89.6 -8.8,46.5 14.3,69.9 58,69.9 14,0 23.9,-2.1 31.4,-4.9 l 22.4,-58.4 H 484.4 L 503,1020 h 101.2 z"
   id="path178" />
	<path
   class="st10"
   d="m 709.4,906.1 c 19.5,-4.5 48.2,-7 75.9,-7 26.5,0 53.1,3.7 70.1,16 16.1,10.7 25.4,28 20.3,53.9 -8.2,41.1 -40.6,66.6 -78.8,78.1 l -0.2,1.2 c 15,7.4 18.8,25.5 16.3,50.6 -2.5,31.3 -7.7,67.4 -5.1,79 H 747 c -1,-7.4 0.8,-31.3 5.1,-65.4 3.8,-33.7 -5.7,-44 -29.2,-44 h -18.1 l -42.1,109.4 h -58.4 z m 13.2,118 H 747 c 32.2,0 59.6,-19.3 65,-46.5 4.4,-22.2 -12.2,-32.1 -36.2,-32.1 -11.2,0 -18.4,0.8 -23.6,2.1 z"
   id="path179" />
	<path
   class="st10"
   d="m 946.6,1106 -47.1,72 H 836.2 L 1028,900.8 h 76.6 l -24.9,277.2 h -62.1 l 9,-72 z m 86.7,-45.3 6.8,-59.6 c 1.9,-15.2 5.2,-37.4 7.4,-54.3 h -1.2 c -10.5,16.9 -22.7,38.2 -33.4,54.3 l -39.4,59.6 z"
   id="path180" />
	<path
   class="st10"
   d="m 1228.5,906.1 c 18.8,-4.5 47,-7 73.9,-7 25.3,0 53,4.1 70.2,18.5 16.4,12.3 23.4,32.1 17.7,58.8 -7.4,34.5 -29.1,61.3 -54.1,77.7 -26.4,17.7 -60.7,25.9 -94.6,25.9 -9.9,0 -17.9,-1.2 -24,-1.7 l -39.8,99.5 h -58 z m 8.4,123.8 c 6.3,1.2 12.4,2.1 22.7,2.1 35.5,0 63.8,-22.6 69.7,-50.6 5.6,-26.3 -11.6,-35 -34.8,-35 -11.2,0 -19.6,0.8 -24.7,1.6 z"
   id="path181" />
	<path
   class="st10"
   d="m 1531.4,900.8 -43.9,107.7 h 100.8 l 44.2,-107.7 h 60 L 1578.8,1178 h -59.2 l 47.3,-116.8 h -101.1 l -47,116.8 h -59.2 l 112.2,-277.2 z"
   id="path182" />
	<path
   class="st10"
   d="M 1816.3,900.8 1701.8,1178 h -59.2 l 114.1,-277.2 z"
   id="path183" />
	<path
   class="st10"
   d="m 1976.1,1170.5 c -16.3,6.6 -42.2,11.9 -75.5,11.9 -73.6,0 -112.6,-44.4 -96.2,-117.6 14.1,-62.9 53.1,-111.4 101.6,-139.4 33.4,-19.7 69.5,-29.2 108.9,-29.2 30.2,0 51.4,7 58.6,11.5 l -27.6,48.1 c -6.9,-4.1 -24.4,-9 -48.4,-9 -24,0 -48.4,7.4 -68.6,21.4 -27.5,19.3 -50,51 -58.7,89.6 -10,44.4 8.4,74 57,74 19.8,0 39.9,-3.3 54.8,-9 z"
   id="path184" />
	<path
   class="st10"
   d="m 2046.4,1113.8 c 14.2,9.9 35.5,17.7 61.4,17.7 22.6,0 46.1,-10.7 51.1,-32.1 3.7,-16 -5.9,-25.9 -28.3,-39.5 -25.7,-15.6 -48.6,-37.8 -40.4,-73.6 12.9,-55.9 69.6,-90.1 130.5,-90.1 33.5,0 51.7,7.4 62.2,13.6 l -30.2,49.3 c -7.9,-4.9 -25.6,-12.3 -48.9,-11.9 -27.7,0 -45.3,13.6 -48.9,28.8 -3.8,16.4 10.8,26.3 31.3,39.5 29.7,17.7 45.5,40.3 37.7,73.6 -14.5,61.7 -72.9,93.3 -134.2,93.3 -38.1,-0.4 -63.8,-10.3 -74.4,-19.7 z"
   id="path185" />
</g>
</svg>
