<?xml version="1.0" encoding="UTF-8"?>
<svg version="1.1" xmlns="http://www.w3.org/2000/svg" width="1052" height="777">
<path d="M0 0 C33.103125 -0.061875 66.20625 -0.12375 100.3125 -0.1875 C110.73755127 -0.21481201 121.16260254 -0.24212402 131.90356445 -0.27026367 C144.70349121 -0.28381348 144.70349121 -0.28381348 150.70915222 -0.28633118 C154.87420008 -0.2891089 159.03913144 -0.3002821 163.20414734 -0.31672668 C168.53861241 -0.33750526 173.87291129 -0.34343671 179.20741308 -0.33921683 C181.15158503 -0.34009751 183.09576359 -0.34592611 185.03990042 -0.35764539 C201.0091637 -0.44933378 216.81120442 0.84372038 232.125 5.6875 C233.35500732 6.06986816 233.35500732 6.06986816 234.60986328 6.45996094 C256.9145696 13.663912 276.10543283 26.57219144 290.8125 44.875 C291.23233154 45.39094727 291.65216309 45.90689453 292.0847168 46.43847656 C296.60821071 52.29980554 299.37006241 58.25868733 303 65 C303.33 43.55 303.66 22.1 304 0 C355.81 0 407.62 0 461 0 C466.445 20.9446875 466.445 20.9446875 472 42.3125 C478.95360806 69.05311445 485.92796065 95.78757214 493.00390625 122.49609375 C493.56532446 124.61659543 494.12671591 126.73710419 494.68807983 128.85762024 C497.10560533 137.98738969 499.5259263 147.11638373 501.95752048 156.24241734 C502.95197724 159.97838937 503.94254871 163.71538389 504.93217278 167.45263863 C505.39177258 169.1845391 505.85314594 170.91597003 506.31640816 172.64689445 C506.94661775 175.00204105 507.5708224 177.35870038 508.19360352 179.71582031 C508.37880051 180.40174916 508.5639975 181.08767801 508.75480652 181.79439259 C509.60280509 185.02890221 510 187.61778953 510 191 C510.66 191 511.32 191 512 191 C512.12507431 189.84313187 512.25014862 188.68626373 512.37901306 187.49433899 C512.90984934 183.27114327 513.8427739 179.20044401 514.93579102 175.09057617 C515.13194756 174.33645069 515.3281041 173.58232521 515.53020477 172.80534744 C516.18323604 170.29992046 516.84353852 167.79647114 517.50390625 165.29296875 C517.9758013 163.48896683 518.44726113 161.68485102 518.9183197 159.88063049 C520.19459466 154.99778638 521.47729758 150.11665179 522.76126099 145.23582458 C523.83187922 141.16264315 524.89868792 137.08846841 525.96539497 133.01426125 C529.63285555 119.00668035 533.31476156 105.00291261 537 91 C537.2880526 89.90531654 537.57610519 88.81063309 537.87288666 87.6827774 C539.8923408 80.0083645 541.91259897 72.33416359 543.93359375 64.66015625 C544.18879351 63.69111296 544.44399326 62.72206966 544.70692635 61.72366142 C550.12685908 41.14617496 555.56545416 20.57363782 561 0 C612.81 0 664.62 0 718 0 C718.33 78.54 718.66 157.08 719 238 C722.96 227.77 726.92 217.54 731 207 C733.54849108 200.58298433 736.09920673 194.16823561 738.67617798 187.76281738 C740.7995901 182.48322845 742.91517548 177.20050195 745.03125 171.91796875 C745.72877129 170.17696396 745.72877129 170.17696396 746.44038391 168.40078735 C752.59889213 153.01982367 758.71289629 137.62114685 764.82976151 122.22358704 C766.13887696 118.92849783 767.44836377 115.63355626 768.75784779 112.33861351 C775.38920917 95.6523507 782.01553753 78.96410564 788.63218689 62.27200317 C791.16553094 55.88123167 793.70057128 49.49113347 796.23604298 43.10120583 C798.31464196 37.86223532 800.39090908 32.62234842 802.46547985 27.38178158 C803.74519018 24.15065967 805.02703605 20.92038827 806.30949211 17.6903553 C806.9061358 16.18632065 807.50186917 14.68192452 808.09665108 13.17715263 C808.9062989 11.12911346 809.71909324 9.08235176 810.53271484 7.03588867 C811.21519791 5.31362312 811.21519791 5.31362312 811.91146851 3.55656433 C813 1 813 1 814 0 C815.40411317 -0.0954693 816.81299809 -0.12188529 818.22035217 -0.12025452 C819.58550713 -0.12231651 819.58550713 -0.12231651 820.97824097 -0.12442017 C821.98452545 -0.12082489 822.99080994 -0.11722961 824.02758789 -0.11352539 C825.08111954 -0.11367142 826.13465118 -0.11381744 827.22010803 -0.1139679 C830.720978 -0.11326826 834.22179552 -0.10547348 837.72265625 -0.09765625 C840.14261343 -0.09579225 842.56257099 -0.09436826 844.98252869 -0.09336853 C851.36615024 -0.08954192 857.74974921 -0.07971041 864.13336182 -0.06866455 C870.64163914 -0.05845351 877.1499201 -0.05387157 883.65820312 -0.04882812 C896.43881175 -0.03808827 909.21940467 -0.02120112 922 0 C925.26184924 7.00997326 928.28648102 14.05991428 931.046875 21.28125 C931.41490738 22.23540298 931.78293976 23.18955597 932.16212463 24.17262268 C932.95037261 26.21670906 933.73725012 28.26132437 934.52285767 30.306427 C936.64167285 35.8205314 938.77223272 41.33009516 940.90234375 46.83984375 C941.33439621 47.95789902 941.76644867 49.07595428 942.21159363 50.22789001 C946.19508206 60.52607803 950.24187311 70.79849965 954.3125 81.0625 C955.71119948 84.59104204 957.10962068 88.11969426 958.5078125 91.6484375 C958.86449509 92.54856064 959.22117767 93.44868378 959.58866882 94.37608337 C964.31229272 106.30376758 968.99881745 118.24604845 973.6875 130.1875 C974.14984039 131.36490753 974.61218079 132.54231506 975.08853149 133.75540161 C977.44910388 139.76700355 979.80935995 145.77872959 982.16943359 151.79052734 C986.32106219 162.36546405 990.47563649 172.93924344 994.6300354 183.51309204 C996.9201487 189.34201221 999.21006418 195.1710101 1001.5 201 C1002.41666572 203.3333337 1003.33333239 205.66666704 1004.25 208 C1009.74999999 221.99999998 1009.74999999 221.99999998 1011.12466431 225.49917603 C1012.04242226 227.83526682 1012.96020796 230.17134671 1013.87802124 232.50741577 C1016.15321746 238.29847144 1018.42794971 244.08970846 1020.70166016 249.88134766 C1025.02255683 260.88612986 1029.34854811 271.88884939 1033.68963623 282.88568115 C1035.50379664 287.4814135 1037.31576669 292.07800849 1039.12723923 296.67480087 C1040.36876798 299.82479418 1041.61160234 302.97425957 1042.85742188 306.12255859 C1044.2282923 309.58833109 1045.59506299 313.05569368 1046.9609375 316.5234375 C1047.37225922 317.56011566 1047.78358093 318.59679382 1048.20736694 319.66488647 C1048.5777005 320.60740265 1048.94803406 321.54991882 1049.32958984 322.52099609 C1049.65406097 323.34248138 1049.9785321 324.16396667 1050.31283569 325.01034546 C1051 327 1051 327 1051 329 C1036.6554342 329.37787858 1022.31166534 329.65679359 1007.96310234 329.82899475 C1001.2966299 329.91065794 994.63392787 330.0235198 987.96923828 330.20703125 C932.3222362 331.6992233 932.3222362 331.6992233 909.78092957 315.00280762 C905.29755368 311.77390909 900.46682059 309.20708036 895.625 306.5625 C893.78345561 305.51600785 891.94341715 304.46685747 890.10546875 303.4140625 C881.43916951 298.52374175 872.62218713 293.91258286 863.82470703 289.26416016 C852.49418605 283.27640488 841.22951769 277.17546789 830 271 C831.4453408 263.70331411 833.64593122 256.87211828 836.140625 249.87109375 C836.54528992 248.72318863 836.94995483 247.57528351 837.36688232 246.39259338 C838.22181285 243.97042378 839.07922167 241.54912766 839.93896484 239.12866211 C841.23668918 235.47497603 842.52725022 231.81882634 843.81640625 228.16210938 C848.09026435 216.06181825 852.41549791 203.98641847 857 192 C871.01979368 198.62545676 885.01499687 205.30144245 899 212 C896.76548194 203.51662817 894.23446307 195.14031023 891.61328125 186.76953125 C891.18822253 185.40788542 890.76327283 184.04620556 890.33842468 182.68449402 C889.44966379 179.83750989 888.55945432 176.99098393 887.66821289 174.14477539 C886.55051486 170.57491197 885.43664241 167.00386878 884.32382393 163.43248177 C879.06400781 146.5592547 873.67811644 129.73832154 868 113 C858.45983064 140.92419437 848.99596259 168.87374235 839.5652504 196.83505249 C828.72970572 228.96142506 817.88467834 261.08441539 806.95959473 293.18048096 C806.02430795 295.92857742 805.08974894 298.67692055 804.15527344 301.42529297 C802.80379471 305.39865921 801.44910585 309.3709131 800.09106445 313.34204102 C799.62152969 314.71606655 799.15291003 316.09040521 798.68530273 317.46508789 C798.07167721 319.26805534 797.45395851 321.06962825 796.8359375 322.87109375 C796.50126465 323.85005615 796.1665918 324.82901855 795.82177734 325.83764648 C795 328 795 328 794 329 C791.67233633 329.09761313 789.37437374 329.12997979 787.04624939 329.12025452 C786.31213837 329.12111053 785.57802734 329.12196655 784.82167053 329.12284851 C782.33543528 329.12451361 779.84926628 329.11896409 777.36303711 329.11352539 C775.5606998 329.1132193 773.75836238 329.11335213 771.95602512 329.11389065 C767.11204345 329.1141172 762.26808628 329.10830468 757.42411041 329.10128021 C752.88531921 329.09560202 748.34653408 329.09531801 743.80773926 329.09460449 C730.51765624 329.08934886 717.22757781 329.07538782 703.9375 329.0625 C674.258125 329.041875 644.57875 329.02125 614 329 C613.67 260.69 613.34 192.38 613 122 C603.1 156.155 603.1 156.155 593 191 C589.15763751 204.15896142 585.31422016 217.31746315 581.45506668 230.47148514 C579.20150468 238.15369437 576.95019139 245.83656298 574.69921875 253.51953125 C574.33290753 254.76963265 574.33290753 254.76963265 573.95919609 256.04498863 C570.80726403 266.80316339 567.66925683 277.56525565 564.55154037 288.33339691 C563.96790775 290.34915338 563.38391815 292.3648061 562.79983521 294.38043213 C561.04751529 300.42866861 559.29865609 306.47787666 557.55566406 312.52880859 C556.95520246 314.60387713 556.35462467 316.67891205 555.75390625 318.75390625 C555.48536331 319.69119064 555.21682037 320.62847504 554.94013977 321.59416199 C554.69636093 322.43393082 554.45258209 323.27369965 554.20141602 324.13891602 C553.99178726 324.8664357 553.78215851 325.59395538 553.56617737 326.34352112 C553 328 553 328 552 329 C549.44410112 329.09506052 546.91532028 329.12556761 544.35913086 329.11352539 C543.15922264 329.11374443 543.15922264 329.11374443 541.93507385 329.1139679 C539.27830335 329.11326855 536.62160207 329.10547518 533.96484375 329.09765625 C532.12781309 329.09579215 530.29078194 329.09436821 528.45375061 329.09336853 C523.60890338 329.08954275 518.76408592 329.07971196 513.91925049 329.06866455 C508.97937422 329.05845172 504.03949315 329.05387119 499.09960938 329.04882812 C489.39972647 329.03808974 479.69986571 329.0210126 470 329 C468.18625906 324.25617364 466.48955748 319.54219321 465.04907227 314.66918945 C464.69263138 313.46831696 464.33619049 312.26744446 463.96894836 311.03018188 C463.58467804 309.72457471 463.20050033 308.41894028 462.81640625 307.11328125 C462.405134 305.72278695 461.99364438 304.33235693 461.58195496 302.94198608 C460.47050721 299.18508468 459.36303106 295.42702347 458.2565155 291.66866684 C457.55823712 289.29802761 456.8588312 286.92772391 456.15905762 284.55752563 C448.53736989 258.74038129 441.00353887 232.89807834 433.54125977 207.03442383 C425.44550757 178.99738884 417.20851131 151.00550919 409 123 C408.67 190.98 408.34 258.96 408 329 C373.68 329 339.36 329 304 329 C303.505 248.315 303.505 248.315 303 166 C300.36 170.62 297.72 175.24 295 180 C275.12558533 207.29310114 244.24128002 221.98372356 211.48632812 227.35717773 C192.07992525 230.24992002 172.63863084 230.24916034 153.0625 230.125 C139.1715625 230.063125 139.1715625 230.063125 125 230 C125 203.6 125 177.2 125 150 C148.0625 149.6875 148.0625 149.6875 155.24243164 149.61206055 C178.92588328 149.53084038 178.92588328 149.53084038 199.80078125 139.5078125 C205.88745415 133.1945885 208.20447245 125.03925614 208.4375 116.4375 C208.12889906 108.04554537 206.68641152 100.65854332 200.70703125 94.4609375 C180.00806306 76.74603108 122.1902727 85.18194437 110 85 C110 165.52 110 246.04 110 329 C73.7 329 37.4 329 0 329 C0 220.43 0 111.86 0 0 Z " fill="#1E376D" transform="translate(0,0)"/>
<path d="M0 0 C3.63 0 7.26 0 11 0 C11 139.59 11 279.18 11 423 C7.37 423 3.74 423 0 423 C0 283.41 0 143.82 0 0 Z " fill="#5C6770" transform="translate(306,353)"/>
<path d="M0 0 C4.95 0 9.9 0 15 0 C15.38857178 1.59505371 15.77714355 3.19010742 16.17749023 4.83349609 C17.61566131 10.73431649 19.05698069 16.63436406 20.49926758 22.53417969 C21.12382963 25.0909349 21.74753019 27.64790071 22.37036133 30.20507812 C23.26418903 33.87425152 24.16108164 37.54266385 25.05859375 41.2109375 C25.3377916 42.35992523 25.61698944 43.50891296 25.90464783 44.69271851 C26.16484207 45.7536673 26.42503632 46.81461609 26.69311523 47.90771484 C26.92183823 48.84481293 27.15056122 49.78191101 27.38621521 50.74740601 C27.92395535 53.01152957 27.92395535 53.01152957 29 55 C33.95 36.85 38.9 18.7 44 0 C49.61 0 55.22 0 61 0 C66.34665667 18.24153451 71.17936094 36.6142694 76 55 C79.9041581 41.29932699 83.46287432 27.51960335 86.96459961 13.71166992 C87.34618702 12.21402883 87.72777864 10.71638881 88.109375 9.21875 C88.28523636 8.52050613 88.46109772 7.82226227 88.64228821 7.1028595 C89.88716469 2.22567063 89.88716469 2.22567063 91 0 C95.95 0 100.9 0 106 0 C99.98724084 23.76056518 93.64346711 47.40806356 87 71 C80.07 71 73.14 71 66 71 C64.46940677 65.30762653 62.93924381 59.6151409 61.41015625 53.92236328 C60.8905489 51.98837698 60.37069583 50.05445668 59.85058594 48.12060547 C59.10025444 45.33057973 58.35082588 42.54031275 57.6015625 39.75 C57.3712735 38.89446533 57.1409845 38.03893066 56.90371704 37.1574707 C55.55127725 32.11681193 54.25135883 27.06672635 53 22 C50.70552129 27.84370443 48.89760571 33.68171704 47.30078125 39.75 C46.94091377 41.09807739 46.94091377 41.09807739 46.57377625 42.47338867 C45.81623778 45.31460243 45.06428156 48.15725819 44.3125 51 C43.79659372 52.93890051 43.28032124 54.87770362 42.76367188 56.81640625 C41.50419333 61.54298866 40.25229108 66.27148494 39 71 C32.07 71 25.14 71 18 71 C13.55991133 55.21164 9.26906836 39.39128085 5.17840576 23.50881958 C4.72620186 21.75319846 4.27279217 19.99788748 3.81817627 18.2428894 C3.17692424 15.76448226 2.54074798 13.28483122 1.90625 10.8046875 C1.71288055 10.05904037 1.51951111 9.31339325 1.32028198 8.54515076 C0.57591656 5.61320594 0 3.0386274 0 0 Z " fill="#0063A8" transform="translate(389,636)"/>
<path d="M0 0 C7.26 0 14.52 0 22 0 C23.82337891 4.96353516 23.82337891 4.96353516 25.68359375 10.02734375 C26.857815 13.21793741 28.03298639 16.40817957 29.20825195 19.59838867 C30.02695662 21.82230599 30.84466705 24.04658958 31.66137695 26.27124023 C32.83285897 29.46173492 34.00786538 32.65091185 35.18359375 35.83984375 C35.55028671 36.84087631 35.91697968 37.84190887 36.29478455 38.87327576 C36.6350618 39.79415482 36.97533905 40.71503387 37.32592773 41.66381836 C37.6257103 42.47878281 37.92549286 43.29374725 38.23435974 44.13340759 C38.85168159 45.98030355 38.85168159 45.98030355 40 47 C45.61 31.49 51.22 15.98 57 0 C64.59 0 72.18 0 80 0 C80 22.77 80 45.54 80 69 C75.38 69 70.76 69 66 69 C66 51.84 66 34.68 66 17 C60.16384984 32.6157993 60.16384984 32.6157993 54.33251953 48.23339844 C53.5994584 50.19212262 52.86623384 52.15078566 52.1328125 54.109375 C51.75439209 55.12531738 51.37597168 56.14125977 50.98608398 57.18798828 C50.62087646 58.16203613 50.25566895 59.13608398 49.87939453 60.13964844 C49.56406769 60.98348083 49.24874084 61.82731323 48.92385864 62.69671631 C48.0616203 64.84637365 47.03580709 66.92838582 46 69 C41.71 69 37.42 69 33 69 C26.73 52.5 20.46 36 14 19 C14 35.5 14 52 14 69 C9.38 69 4.76 69 0 69 C0 46.23 0 23.46 0 0 Z " fill="#5C6770" transform="translate(337,449)"/>
<path d="M0 0 C7.26 0 14.52 0 22 0 C26.56456445 12.10877514 31.1113978 24.22397922 35.5625 36.375 C36.08166992 37.78193115 36.08166992 37.78193115 36.61132812 39.21728516 C36.92650391 40.08144043 37.24167969 40.9455957 37.56640625 41.8359375 C37.84427979 42.59438965 38.12215332 43.3528418 38.40844727 44.13427734 C39 46 39 46 39 48 C39.66 48 40.32 48 41 48 C41.09603516 47.20634033 41.19207031 46.41268066 41.29101562 45.5949707 C42.19196419 41.02662787 43.72805644 36.83898988 45.34375 32.48046875 C45.83748108 31.13170403 45.83748108 31.13170403 46.34118652 29.75569153 C47.03468528 27.86460869 47.73074003 25.97446144 48.42919922 24.08520508 C49.50199589 21.18209889 50.56606077 18.27590285 51.62890625 15.36914062 C52.30417778 13.53106266 52.97994168 11.69316549 53.65625 9.85546875 C53.97605835 8.98262741 54.2958667 8.10978607 54.62536621 7.210495 C54.92237427 6.40908585 55.21938232 5.6076767 55.52539062 4.78198242 C55.7866272 4.07393967 56.04786377 3.36589691 56.3170166 2.63639832 C57 1 57 1 58 0 C65.26 0 72.52 0 80 0 C80 22.77 80 45.54 80 69 C75.38 69 70.76 69 66 69 C66 51.84 66 34.68 66 17 C60.53658758 31.86700724 60.53658758 31.86700724 55.08081055 46.73681641 C54.39138846 48.60849982 53.70170843 50.48008825 53.01171875 52.3515625 C52.6600061 53.31408936 52.30829346 54.27661621 51.94592285 55.26831055 C50.19751424 60.00059632 48.38131862 64.55009407 46 69 C42.04 69 38.08 69 34 69 C31.14785914 62.71585696 28.54658771 56.38882408 26.109375 49.93359375 C25.79887207 49.11701294 25.48836914 48.30043213 25.16845703 47.45910645 C24.02621054 44.45295187 22.88835165 41.44513161 21.75 38.4375 C19.1925 31.693125 16.635 24.94875 14 18 C14 34.83 14 51.66 14 69 C9.38 69 4.76 69 0 69 C0 46.23 0 23.46 0 0 Z " fill="#5C6770" transform="translate(814,449)"/>
<path d="M0 0 C7.92 0 15.84 0 24 0 C25.60875 3.238125 27.2175 6.47625 28.875 9.8125 C32.9429406 17.97334162 37.09157531 26.0842312 41.38623047 34.12817383 C45.05854235 41.02745238 48.49929703 47.99859406 52 55 C52 36.85 52 18.7 52 0 C56.62 0 61.24 0 66 0 C66 23.43 66 46.86 66 71 C58.41 71 50.82 71 43 71 C32.88482682 53.38002092 24.03191318 35.19863103 15 17 C15 34.82 15 52.64 15 71 C10.05 71 5.1 71 0 71 C0 47.57 0 24.14 0 0 Z " fill="#0063A8" transform="translate(523,636)"/>
<path d="M0 0 C7.59 0 15.18 0 23 0 C24.36253906 2.73667969 25.72507812 5.47335937 27.12890625 8.29296875 C28.47224125 10.98747126 29.81628802 13.68161762 31.16040039 16.37573242 C32.08334299 18.22659955 33.00556287 20.07782726 33.92700195 21.92944336 C35.26316443 24.61410658 36.60205317 27.29739613 37.94140625 29.98046875 C38.54342613 31.19225044 38.54342613 31.19225044 39.15760803 32.42851257 C42.63018123 39.37431487 46.31239838 46.151597 50 53 C50 35.51 50 18.02 50 0 C54.62 0 59.24 0 64 0 C64 22.77 64 45.54 64 69 C56.41 69 48.82 69 41 69 C34.90594176 57.52883155 28.95185353 46.01010589 23.20019531 34.36328125 C22.72549805 33.40550781 22.25080078 32.44773437 21.76171875 31.4609375 C21.34881592 30.62353027 20.93591309 29.78612305 20.51049805 28.92333984 C18.43178512 24.90030629 16.19915541 20.95847975 14 17 C14 34.16 14 51.32 14 69 C9.38 69 4.76 69 0 69 C0 46.23 0 23.46 0 0 Z " fill="#5C6770" transform="translate(923,449)"/>
<path d="M0 0 C7.59 0 15.18 0 23 0 C32.13916588 17.26286889 41.06667241 34.6296408 50 52 C50 34.84 50 17.68 50 0 C54.62 0 59.24 0 64 0 C64 22.44 64 44.88 64 68 C56.41 68 48.82 68 41 68 C31.82321053 50.41688614 22.83104876 32.76022028 14 15 C14 32.49 14 49.98 14 68 C9.38 68 4.76 68 0 68 C0 45.56 0 23.12 0 0 Z " fill="#5C6770" transform="translate(737,356)"/>
<path d="M0 0 C7.59 0 15.18 0 23 0 C24.45792969 2.92746094 25.91585937 5.85492187 27.41796875 8.87109375 C28.84399237 11.7309577 30.27071782 14.59047048 31.69750977 17.44995117 C32.68261805 19.42517157 33.66700553 21.40075163 34.65063477 23.37670898 C36.07114657 26.22997218 37.49431468 29.08189736 38.91796875 31.93359375 C39.35151169 32.80584091 39.78505463 33.67808807 40.23173523 34.57676697 C40.65179337 35.41695877 41.0718515 36.25715057 41.50463867 37.12280273 C41.86659836 37.84894272 42.22855804 38.5750827 42.60148621 39.32322693 C44.65673795 43.25700474 46.84456219 47.12021194 49 51 C49 34.17 49 17.34 49 0 C53.62 0 58.24 0 63 0 C63 22.44 63 44.88 63 68 C55.41 68 47.82 68 40 68 C38.62585938 65.24011719 37.25171875 62.48023438 35.8359375 59.63671875 C34.48600783 56.92903408 33.13537091 54.2217033 31.78466797 51.5144043 C30.85489341 49.64986332 29.92584075 47.78496217 28.99755859 45.91967773 C27.65397253 43.22021231 26.30769221 40.52210448 24.9609375 37.82421875 C24.55442963 37.00604172 24.14792175 36.18786469 23.72909546 35.34489441 C20.62573052 29.13757848 17.32937524 23.10385461 14 17 C14 33.83 14 50.66 14 68 C9.38 68 4.76 68 0 68 C0 45.56 0 23.12 0 0 Z " fill="#5C6770" transform="translate(859,543)"/>
<path d="M0 0 C2.03259391 -0.00436908 4.06300461 -0.04073379 6.09521484 -0.07861328 C13.5574143 -0.1008002 18.93570007 0.09344524 25.16943359 4.37060547 C29.54280312 10.07879411 29.55876343 15.36266837 29.16943359 22.37060547 C24.54943359 22.37060547 19.92943359 22.37060547 15.16943359 22.37060547 C14.17943359 19.40060547 13.18943359 16.43060547 12.16943359 13.37060547 C8.89838112 13.31673635 5.62821263 13.2769954 2.35693359 13.24560547 C0.9637793 13.22046875 0.9637793 13.22046875 -0.45751953 13.19482422 C-1.35019531 13.18837891 -2.24287109 13.18193359 -3.16259766 13.17529297 C-3.98477783 13.16481934 -4.80695801 13.1543457 -5.65405273 13.14355469 C-8.12478232 13.23064412 -8.12478232 13.23064412 -10.83056641 15.37060547 C-11.19554675 18.26668946 -11.19554675 18.26668946 -11.01806641 21.49560547 C-10.99099609 22.59130859 -10.96392578 23.68701172 -10.93603516 24.81591797 C-10.90123047 25.65896484 -10.86642578 26.50201172 -10.83056641 27.37060547 C-9.99396484 27.44577393 -9.15736328 27.52094238 -8.29541016 27.59838867 C-5.15599158 27.8858645 -2.01772778 28.18341228 1.12011719 28.48754883 C2.47163237 28.61651757 3.82352424 28.74160591 5.17578125 28.86254883 C23.38647838 30.49787751 23.38647838 30.49787751 28.10693359 35.37060547 C30.65747417 40.17162302 30.46020997 44.75584529 30.54443359 50.05810547 C30.58181641 50.93144531 30.61919922 51.80478516 30.65771484 52.70458984 C30.7432217 59.0653497 29.45993157 63.55265452 25.16943359 68.37060547 C14.45634282 74.6367529 -4.09684741 73.9651281 -15.92041016 70.98388672 C-20.40711512 69.54336999 -22.75822221 67.91411293 -25.14306641 63.87060547 C-27.52218509 58.74928976 -27.10839178 53.92711299 -26.83056641 48.37060547 C-22.21056641 48.37060547 -17.59056641 48.37060547 -12.83056641 48.37060547 C-12.17056641 51.34060547 -11.51056641 54.31060547 -10.83056641 57.37060547 C-2.65621788 60.2770405 6.02921863 60.55590698 14.16943359 57.37060547 C15.33926704 55.03093857 15.33555769 53.5366902 15.35693359 50.93310547 C15.37111328 50.15064453 15.38529297 49.36818359 15.39990234 48.56201172 C15.31029423 46.0785456 15.31029423 46.0785456 13.16943359 43.37060547 C9.38630306 41.82628407 5.08152371 42.10769187 1.04443359 41.93310547 C-16.02293576 41.01279726 -16.02293576 41.01279726 -21.26806641 37.30810547 C-26.45836205 31.35825436 -27.36507295 24.7597434 -27.11572266 17.01904297 C-26.5547159 11.80859667 -25.26218959 7.84092117 -21.51806641 3.99560547 C-14.6225629 -0.17376874 -7.84522562 -0.00188723 0 0 Z " fill="#0063A8" transform="translate(882.83056640625,635.62939453125)"/>
<path d="M0 0 C9.3740625 -0.061875 9.3740625 -0.061875 18.9375 -0.125 C20.89163818 -0.14320801 22.84577637 -0.16141602 24.85913086 -0.18017578 C26.43603238 -0.18602582 28.01293695 -0.19112016 29.58984375 -0.1953125 C30.78389832 -0.2106604 30.78389832 -0.2106604 32.0020752 -0.22631836 C38.78426451 -0.22839147 45.52391305 -0.00194264 50.9375 4.375 C56.56125614 11.53250782 56.6325246 19.62290774 55.76171875 28.40234375 C55.05856984 32.67095478 54.25067393 35.23616923 50.875 38.0625 C49.92625 38.701875 48.9775 39.34125 48 40 C48.78375 40.556875 49.5675 41.11375 50.375 41.6875 C53.70961746 44.62513919 54.85030588 46.79637975 55.15478516 51.27856445 C55.19682122 53.95950283 55.1742582 56.63171727 55.125 59.3125 C55.11597656 60.24384766 55.10695313 61.17519531 55.09765625 62.13476562 C55.07418422 64.42328823 55.03831609 66.71167779 55 69 C50.38 69 45.76 69 41 69 C40.94392578 67.22882813 40.94392578 67.22882813 40.88671875 65.421875 C40.82104851 63.86455212 40.75460153 62.30726186 40.6875 60.75 C40.65366211 59.58404297 40.65366211 59.58404297 40.61914062 58.39453125 C40.4594456 54.9973826 40.2926468 52.56230624 38.70703125 49.515625 C35.74310782 46.88404081 32.29377045 46.8652459 28.453125 46.68359375 C27.31085449 46.62643188 27.31085449 46.62643188 26.14550781 46.56811523 C25.18999023 46.52501221 24.23447266 46.48190918 23.25 46.4375 C20.1975 46.293125 17.145 46.14875 14 46 C14 53.59 14 61.18 14 69 C9.38 69 4.76 69 0 69 C0 46.23 0 23.46 0 0 Z M14 12 C14 19.26 14 26.52 14 34 C17.75076665 34.10784952 21.49843949 34.18724988 25.25 34.25 C26.84521484 34.30027344 26.84521484 34.30027344 28.47265625 34.3515625 C30.00986328 34.37089844 30.00986328 34.37089844 31.578125 34.390625 C32.52075195 34.41157227 33.46337891 34.43251953 34.43457031 34.45410156 C37.76236141 33.86505594 38.91465859 32.59935506 41 30 C42.51827413 24.71221769 42.68811784 18.88748699 40 14 C36.54990442 12.25991305 33.75508774 11.75760629 29.91796875 11.8046875 C29.0777417 11.80968262 28.23751465 11.81467773 27.37182617 11.81982422 C25.79558472 11.84713623 25.79558472 11.84713623 24.1875 11.875 C19.1446875 11.936875 19.1446875 11.936875 14 12 Z " fill="#5C6770" transform="translate(752,449)"/>
<path d="M0 0 C1.30195312 -0.020625 2.60390625 -0.04125 3.9453125 -0.0625 C11.89396853 -0.09494349 17.53682172 0.04575216 23.9375 5.0625 C28.06436379 10.41213825 27.82069853 15.79194849 27.625 22.25 C23.005 22.25 18.385 22.25 13.625 22.25 C13.356875 21.13625 13.08875 20.0225 12.8125 18.875 C11.96690981 15.03159049 11.96690981 15.03159049 8.625 13.25 C6.58172345 12.94384605 6.58172345 12.94384605 4.3515625 12.984375 C3.5265625 12.98179687 2.7015625 12.97921875 1.8515625 12.9765625 C0.99304687 12.98429687 0.13453125 12.99203125 -0.75 13 C-1.60078125 12.99226563 -2.4515625 12.98453125 -3.328125 12.9765625 C-9.71000016 12.82729814 -9.71000016 12.82729814 -15.375 15.25 C-17.79805094 21.6141579 -17.67747342 28.00716588 -17.625 34.75 C-17.63273438 35.74386719 -17.64046875 36.73773438 -17.6484375 37.76171875 C-17.6330937 43.56934749 -17.36387808 48.76170353 -15.375 54.25 C-12.49459081 56.1794607 -10.13630867 56.50595106 -6.71484375 56.515625 C-5.83892578 56.51820313 -4.96300781 56.52078125 -4.06054688 56.5234375 C-2.70026367 56.51183594 -2.70026367 56.51183594 -1.3125 56.5 C-0.40177734 56.50773437 0.50894531 56.51546875 1.44726562 56.5234375 C2.32189453 56.52085937 3.19652344 56.51828125 4.09765625 56.515625 C5.29273804 56.51224121 5.29273804 56.51224121 6.51196289 56.50878906 C8.92625352 56.37375896 8.92625352 56.37375896 11.625 54.25 C12.42592254 51.60308332 12.42592254 51.60308332 12.8125 48.625 C13.080625 46.85125 13.34875 45.0775 13.625 43.25 C8.015 43.25 2.405 43.25 -3.375 43.25 C-3.375 39.62 -3.375 35.99 -3.375 32.25 C6.855 32.25 17.085 32.25 27.625 32.25 C27.686875 35.88 27.74875 39.51 27.8125 43.25 C27.85346802 44.94189453 27.85346802 44.94189453 27.89526367 46.66796875 C27.95434993 53.87522181 27.56679359 60.14477343 22.375 65.625 C14.91384213 70.03386601 7.19704822 69.58452046 -1.25 69.5625 C-2.47847656 69.57861328 -3.70695313 69.59472656 -4.97265625 69.61132812 C-20.42596175 69.61960964 -20.42596175 69.61960964 -25.95239258 64.90405273 C-33.41306351 56.51665693 -32.55618093 45.48402544 -32.5625 34.9375 C-32.57474609 33.87337891 -32.58699219 32.80925781 -32.59960938 31.71289062 C-32.63423875 12.79371116 -32.63423875 12.79371116 -26.796875 5.6171875 C-19.65929751 -1.24586778 -9.115508 0.03588783 0 0 Z " fill="#5C6770" transform="translate(1024.375,448.75)"/>
<path d="M0 0 C6.765 -0.061875 13.53 -0.12375 20.5 -0.1875 C22.61986328 -0.21481201 24.73972656 -0.24212402 26.92382812 -0.27026367 C28.62629631 -0.27903521 30.32877084 -0.28667756 32.03125 -0.29296875 C33.3301416 -0.3159906 33.3301416 -0.3159906 34.65527344 -0.33947754 C40.71494249 -0.34205685 46.80170294 0.17212841 51.56237793 4.38142395 C56.24466317 9.67985678 56.20330069 14.58025088 56.25 21.375 C56.270625 22.1175 56.29125 22.86 56.3125 23.625 C56.3553872 29.69353929 55.02111215 33.80564966 50.8125 38.375 C49.9153125 39.179375 49.9153125 39.179375 49 40 C49.804375 40.598125 50.60875 41.19625 51.4375 41.8125 C54 44 54 44 55 47 C55.08143855 48.62719482 55.1075302 50.25751719 55.09765625 51.88671875 C55.09443359 52.82451172 55.09121094 53.76230469 55.08789062 54.72851562 C55.07532227 56.19321289 55.07532227 56.19321289 55.0625 57.6875 C55.05798828 58.67556641 55.05347656 59.66363281 55.04882812 60.68164062 C55.0370432 63.12111958 55.01910783 65.56056741 55 68 C50.38 68 45.76 68 41 68 C40.97421875 66.73542969 40.9484375 65.47085938 40.921875 64.16796875 C40.86559734 62.50777782 40.80824993 60.8476229 40.75 59.1875 C40.73582031 58.35412109 40.72164063 57.52074219 40.70703125 56.66210938 C40.67480469 55.85966797 40.64257812 55.05722656 40.609375 54.23046875 C40.58842773 53.49207764 40.56748047 52.75368652 40.54589844 51.99291992 C40.13486476 49.85328184 40.13486476 49.85328184 38.28710938 48.26757812 C35.6078213 46.78264391 33.84761024 46.57696541 30.796875 46.48828125 C29.91354492 46.45516846 29.03021484 46.42205566 28.12011719 46.38793945 C27.00797852 46.36304443 25.89583984 46.33814941 24.75 46.3125 C21.2025 46.209375 17.655 46.10625 14 46 C14 53.26 14 60.52 14 68 C9.38 68 4.76 68 0 68 C0 45.56 0 23.12 0 0 Z M14 12 C14 19.26 14 26.52 14 34 C17.526875 34.061875 21.05375 34.12375 24.6875 34.1875 C25.79053467 34.21481201 26.89356934 34.24212402 28.0300293 34.27026367 C35.05912865 34.43224702 35.05912865 34.43224702 41 31 C41.99387773 28.01836682 42.26369622 25.75006754 42.375 22.625 C42.42398438 21.68914062 42.47296875 20.75328125 42.5234375 19.7890625 C42.14928691 16.85172627 42.14928691 16.85172627 40.21484375 14.16796875 C35.35677394 10.89187064 30.90076986 11.46064445 25.1875 11.6875 C24.11306641 11.71005859 23.03863281 11.73261719 21.93164062 11.75585938 C19.28716112 11.81462559 16.64340067 11.90430167 14 12 Z " fill="#5C6770" transform="translate(396,356)"/>
<path d="M0 0 C0.92039062 -0.01160156 1.84078125 -0.02320313 2.7890625 -0.03515625 C10.36084001 -0.00316282 17.36835724 1.21146814 23.9375 5.125 C31.20501817 13.05320164 30.18147632 24.63397406 30.1875 34.6875 C30.19974609 35.75162109 30.21199219 36.81574219 30.22460938 37.91210938 C30.25999702 57.24555895 30.25999702 57.24555895 24 64.375 C15.72301476 71.6425968 3.38823886 70.94163121 -7 70.375 C-13.49431403 69.7255686 -19.00862259 68.87941376 -24 64.375 C-30.05418494 56.34832255 -29.2151309 46.93907381 -29.24023438 37.37255859 C-29.24991256 35.14512384 -29.28097115 32.91862406 -29.3125 30.69140625 C-29.37958343 21.68288955 -29.29041739 13.06135204 -23.9375 5.4375 C-16.7798583 0.41192179 -8.50849995 -0.10725 0 0 Z M-13 15.375 C-15.76903086 21.86840367 -15.3303364 28.37414096 -15.3125 35.3125 C-15.32861328 36.56224609 -15.34472656 37.81199219 -15.36132812 39.09960938 C-15.42276985 48.1833175 -15.42276985 48.1833175 -12 56.375 C-4.07076228 59.46605877 4.00907701 59.08378745 12 56.375 C15.23755908 53.45075308 15.47842571 50.60249687 16 46.375 C16.16762065 42.37430572 16.18508225 38.37880191 16.1875 34.375 C16.20586914 32.77398438 16.20586914 32.77398438 16.22460938 31.140625 C16.32281288 22.35022368 16.32281288 22.35022368 12.625 14.5625 C6.13183526 9.817495 -6.62169815 11.12279877 -13 15.375 Z " fill="#5C6770" transform="translate(823,541.625)"/>
<path d="M0 0 C4.21641112 5.08877204 4.13134239 10.9523457 4.1484375 17.2421875 C4.1550943 18.10256622 4.1617511 18.96294495 4.16860962 19.84939575 C4.17869903 21.66308466 4.18342779 23.47681041 4.18310547 25.29052734 C4.18747571 28.04717933 4.22382544 30.80222481 4.26171875 33.55859375 C4.26758852 35.32811958 4.27155684 37.09765294 4.2734375 38.8671875 C4.28780853 39.68202606 4.30217957 40.49686462 4.31698608 41.33639526 C4.25960233 48.61849744 2.10138406 53.79457575 -2.9375 59.0625 C-9.78285128 63.53830661 -17.12701203 63.52728847 -25.0625 63.5 C-25.99191406 63.51611328 -26.92132812 63.53222656 -27.87890625 63.54882812 C-35.50848416 63.55414861 -42.76898738 62.58773227 -49.125 58.125 C-55.0146958 49.73664538 -54.65907252 39.83013312 -54.57861328 29.97387695 C-54.56250601 27.6258761 -54.57854133 25.27958987 -54.59765625 22.93164062 C-54.62264704 5.55106516 -54.62264704 5.55106516 -48.875 -1.75 C-36.98310779 -10.87633589 -11.15517087 -9.24285587 0 0 Z M-37.87109375 8.578125 C-41.73835586 13.30605375 -40.41197353 20.58117142 -40.42773438 26.38378906 C-40.43743464 28.54791785 -40.46846767 30.71109419 -40.5 32.875 C-40.50653127 34.25780688 -40.51178126 35.64062053 -40.515625 37.0234375 C-40.5249707 38.27688965 -40.53431641 39.5303418 -40.54394531 40.82177734 C-40.159975 44.44740391 -39.37661767 46.30572796 -37.1875 49.1875 C-33.30345374 51.41560972 -29.66935412 51.48560471 -25.25 51.5 C-24.06535156 51.51675781 -22.88070312 51.53351563 -21.66015625 51.55078125 C-17.80171685 51.14714248 -15.44038606 50.285067 -12.1875 48.1875 C-9.72679551 44.65391156 -9.84891536 40.90948581 -9.81640625 36.75390625 C-9.80737778 36.03895493 -9.7983493 35.3240036 -9.78904724 34.58738708 C-9.77457324 33.07872691 -9.76566509 31.57000436 -9.76196289 30.0612793 C-9.75005422 27.76047639 -9.70083984 25.4623476 -9.65039062 23.16210938 C-9.6409266 21.69272136 -9.63369146 20.22331695 -9.62890625 18.75390625 C-9.60937393 18.07042618 -9.58984161 17.38694611 -9.56971741 16.68275452 C-9.6057484 12.84475237 -10.10650804 11.28785395 -12.54760742 8.26318359 C-18.61303183 3.49408729 -31.71163523 3.49049801 -37.87109375 8.578125 Z " fill="#5C6770" transform="translate(727.1875,361.8125)"/>
<path d="M0 0 C1.20269531 -0.020625 2.40539062 -0.04125 3.64453125 -0.0625 C11.76421859 -0.09815176 17.84858975 0.38896582 24.5625 5.3125 C30.44725025 13.2148789 30.19876167 22.70220881 30.08618164 32.18188477 C30.06250116 34.31239566 30.06565263 36.44165541 30.07226562 38.57226562 C30.03418248 58.29272186 30.03418248 58.29272186 23.62670898 64.68115234 C16.9869783 70.23168043 7.85908254 69.70900256 -0.3125 69.625 C-1.44494141 69.63660156 -2.57738281 69.64820313 -3.74414062 69.66015625 C-11.63921589 69.63256717 -17.78627499 69.03603968 -24.125 63.9375 C-32.60379343 53.21432007 -30.09626578 32.0639088 -28.94140625 19.14453125 C-28.17460912 13.24765776 -27.40253722 8.63323373 -23.25 4.25 C-15.69382274 -0.31519043 -8.61224346 0.03645394 0 0 Z M-13.25 15.25 C-15.72270066 21.4149166 -15.55711078 28.21081626 -15.5 34.75 C-15.50773438 35.63558594 -15.51546875 36.52117187 -15.5234375 37.43359375 C-15.5992568 47.41565786 -15.5992568 47.41565786 -11.68359375 56.2890625 C-7.91402009 57.77752979 -4.32770408 57.68305114 -0.3125 57.625 C0.48607422 57.63660156 1.28464844 57.64820313 2.10742188 57.66015625 C6.72344182 57.63721 10.16709903 57.47257127 13.75 54.25 C16.52084051 47.52525663 16.08010984 40.84766212 16.0625 33.6875 C16.07861328 32.37330078 16.09472656 31.05910156 16.11132812 29.70507812 C16.11197266 28.43986328 16.11261719 27.17464844 16.11328125 25.87109375 C16.11626221 24.7205249 16.11924316 23.56995605 16.12231445 22.38452148 C15.71050728 18.91751017 14.79279417 17.04985192 12.75 14.25 C9.13886936 11.43756649 4.6902635 11.91880759 0.3125 11.9375 C-0.43837891 11.92138672 -1.18925781 11.90527344 -1.96289062 11.88867188 C-6.44904923 11.88472626 -9.89275082 11.9680536 -13.25 15.25 Z " fill="#5C6770" transform="translate(716.25,448.75)"/>
<path d="M0 0 C0.92039062 -0.01160156 1.84078125 -0.02320313 2.7890625 -0.03515625 C10.36084001 -0.00316282 17.36835724 1.21146814 23.9375 5.125 C29.02677272 10.67693387 29.45885019 16.55710643 29.43359375 23.74609375 C29.4388356 24.62725357 29.44407745 25.50841339 29.44947815 26.41627502 C29.45587228 28.27107698 29.45459533 30.12591962 29.44604492 31.98071289 C29.43753459 34.80103543 29.46633248 37.61933015 29.49804688 40.43945312 C29.49965928 42.2499994 29.49908061 44.06054922 29.49609375 45.87109375 C29.51294472 47.12145668 29.51294472 47.12145668 29.53013611 48.39707947 C29.46218313 54.17505224 28.21804971 58.53495034 25 63.375 C17.13042074 71.04279518 6.89627058 70.62721483 -3.45703125 70.52734375 C-12.3188738 70.14629429 -19.17178886 69.03077503 -25.75 62.6875 C-30.00841624 54.80942996 -29.34089939 45.36407824 -29.31567383 36.6640625 C-29.31250655 34.37972563 -29.33606284 32.09667827 -29.36132812 29.8125 C-29.39994945 20.94071681 -29.32018685 13.00313924 -23.9375 5.5 C-16.84384634 0.36842076 -8.50292107 -0.10717968 0 0 Z M-13 15.375 C-15.96774585 20.98171631 -15.33551442 27.05633935 -15.31567383 33.23999023 C-15.31251438 35.30310954 -15.33599935 37.36479203 -15.36132812 39.42773438 C-15.36197266 40.73935547 -15.36261719 42.05097656 -15.36328125 43.40234375 C-15.36626221 44.59593506 -15.36924316 45.78952637 -15.37231445 47.01928711 C-14.95329148 50.79598928 -14.05445089 53.18685641 -12 56.375 C-4.0504086 59.33925442 4.02982585 59.21184165 12 56.375 C17.18021812 50.52636664 16.18228925 41.24299361 16.1875 33.875 C16.20586914 32.50794922 16.20586914 32.50794922 16.22460938 31.11328125 C16.23726879 25.26463097 16.22141787 19.40420619 12.625 14.5 C5.93738827 9.87011496 -6.46567749 11.16399216 -13 15.375 Z " fill="#5C6770" transform="translate(545,541.625)"/>
<path d="M0 0 C5.1890795 5.57826046 4.69554901 10.35441227 4.5 17.6875 C-0.12 17.6875 -4.74 17.6875 -9.5 17.6875 C-9.6546875 16.016875 -9.6546875 16.016875 -9.8125 14.3125 C-10.039375 13.11625 -10.26625 11.92 -10.5 10.6875 C-14.22324651 8.20533566 -17.1322959 8.39124893 -21.4375 8.4375 C-22.51161133 8.42589844 -22.51161133 8.42589844 -23.60742188 8.4140625 C-27.35752784 8.42796465 -30.38340368 8.46917079 -33.5 10.6875 C-35.02491998 13.73733996 -34.73562548 16.3298369 -34.5 19.6875 C-32.8027957 22.17068233 -31.74207314 22.63698945 -28.77612305 23.25585938 C-27.16024292 23.39217773 -27.16024292 23.39217773 -25.51171875 23.53125 C-24.33029297 23.64339844 -23.14886719 23.75554687 -21.93164062 23.87109375 C-20.69607422 23.97550781 -19.46050781 24.07992188 -18.1875 24.1875 C-15.75293723 24.39518782 -13.31926001 24.61359112 -10.88671875 24.84375 C-9.80608154 24.93462891 -8.72544434 25.02550781 -7.61206055 25.11914062 C-2.87120806 25.98496824 1.45580791 27.84220472 4.5 31.6875 C5.91520795 35.93312385 5.76456471 39.98910468 5.8125 44.4375 C5.84150391 45.31921875 5.87050781 46.2009375 5.90039062 47.109375 C5.95917516 53.18679185 5.09570274 56.74178613 1.5 61.6875 C-5.7492598 66.31468711 -13.43413133 65.89886646 -21.75 65.9375 C-23.39162109 65.9684375 -23.39162109 65.9684375 -25.06640625 66 C-31.95279756 66.0329887 -39.6490707 66.05967768 -45.11816406 61.27050781 C-50.27181025 55.36657815 -49.58765958 50.13856459 -49.5 42.6875 C-44.88 42.6875 -40.26 42.6875 -35.5 42.6875 C-35.25585938 45.71484375 -35.25585938 45.71484375 -35.01171875 48.7421875 C-34.62606964 51.08269216 -34.62606964 51.08269216 -31.5 52.6875 C-29.42375936 52.99372389 -29.42375936 52.99372389 -27.15625 52.953125 C-26.32222656 52.95570313 -25.48820313 52.95828125 -24.62890625 52.9609375 C-23.32759766 52.94933594 -23.32759766 52.94933594 -22 52.9375 C-21.13246094 52.94523437 -20.26492188 52.95296875 -19.37109375 52.9609375 C-18.53707031 52.95835937 -17.70304688 52.95578125 -16.84375 52.953125 C-15.70196289 52.94974121 -15.70196289 52.94974121 -14.53710938 52.94628906 C-12.18863254 52.80161311 -12.18863254 52.80161311 -9.5 50.6875 C-8.35506511 46.01968851 -8.23543676 42.96500834 -10.5 38.6875 C-12.16894867 37.01855133 -14.27110398 37.40157326 -16.56640625 37.2578125 C-17.60990234 37.18433594 -18.65339844 37.11085938 -19.72851562 37.03515625 C-21.9234382 36.88857091 -24.11875753 36.74779233 -26.31445312 36.61328125 C-40.43299872 35.59308016 -40.43299872 35.59308016 -45.875 30.4375 C-49.87795536 23.66326785 -50.61982834 16.08902493 -49.03515625 8.4453125 C-47.75132022 4.41908116 -45.97613602 1.20551446 -42.46875 -1.34765625 C-31.76957047 -6.59110336 -9.87359746 -7.52950598 0 0 Z " fill="#5C6770" transform="translate(641.5,359.3125)"/>
<path d="M0 0 C1.49176758 -0.0309375 1.49176758 -0.0309375 3.01367188 -0.0625 C9.2988798 -0.09551488 14.98679764 0.41007552 20.6875 3.25 C26.38310339 9.08799347 25.77912316 13.37040842 25.6875 21.25 C21.3975 21.25 17.1075 21.25 12.6875 21.25 C12.39875 20.115625 12.11 18.98125 11.8125 17.8125 C11.44125 16.636875 11.07 15.46125 10.6875 14.25 C7.28373106 12.54811553 3.50074101 13.06541886 -0.25 13.0625 C-1.4865332 13.04413086 -1.4865332 13.04413086 -2.74804688 13.02539062 C-3.54146484 13.02345703 -4.33488281 13.02152344 -5.15234375 13.01953125 C-6.24083618 13.01336792 -6.24083618 13.01336792 -7.35131836 13.00708008 C-9.63482248 13.14117166 -9.63482248 13.14117166 -12.3125 15.25 C-12.79040518 17.61284864 -12.79040518 17.61284864 -12.6875 20.25 C-12.69523437 21.136875 -12.70296875 22.02375 -12.7109375 22.9375 C-12.57945312 23.700625 -12.44796875 24.46375 -12.3125 25.25 C-9.19429298 27.32880468 -8.15242247 27.54600499 -4.55859375 27.77734375 C-3.62080078 27.84759766 -2.68300781 27.91785156 -1.71679688 27.99023438 C0.23358684 28.11991756 2.18410606 28.2475813 4.13476562 28.37304688 C19.42257749 29.5282185 19.42257749 29.5282185 24.39282227 33.67163086 C29.09196714 39.40045825 28.24232671 48.33600564 27.6875 55.25 C26.62198364 60.18092973 24.76260923 64.13374 20.6875 67.25 C10.48806528 72.48754756 -6.46299363 71.58067683 -17.3984375 68.875 C-21.32973483 67.59131107 -23.6068861 66.20761887 -26.0625 62.875 C-28.53729724 57.67792579 -28.40828919 52.90156244 -28.3125 47.25 C-23.6925 47.25 -19.0725 47.25 -14.3125 47.25 C-13.921875 49.26822917 -13.53125 51.28645833 -13.140625 53.3046875 C-12.45827941 55.34003485 -12.45827941 55.34003485 -10.734375 56.4921875 C-7.27282582 57.5753174 -3.90133126 57.53900904 -0.3125 57.5 C0.3990625 57.50773438 1.110625 57.51546875 1.84375 57.5234375 C5.58017897 57.5094956 8.58120275 57.45547105 11.6875 55.25 C13.2510348 52.12293041 13.08708487 48.67017557 12.6875 45.25 C11.06867876 42.17671132 11.06867876 42.17671132 8.81103516 41.57568359 C6.02978767 41.14912759 3.2513897 41.05784718 0.44213867 40.96020508 C-17.72465592 40.30972685 -17.72465592 40.30972685 -22.984375 35.82421875 C-27.3470541 30.88556797 -27.54481668 26.22921799 -27.625 19.9375 C-27.65400391 19.19048828 -27.68300781 18.44347656 -27.71289062 17.67382812 C-27.77330442 12.38065043 -26.80133799 9.45174702 -23.3125 5.25 C-16.2124399 -0.46091791 -8.71461278 0.04466169 0 0 Z " fill="#5C6770" transform="translate(484.3125,541.75)"/>
<path d="M0 0 C0.98548828 -0.01611328 1.97097656 -0.03222656 2.98632812 -0.04882812 C9.61357294 -0.05321994 16.85432886 0.23695502 22.18530273 4.65844727 C27.03201354 10.03957646 26.5625 14.22979736 26.5625 21.3125 C21.9425 21.3125 17.3225 21.3125 12.5625 21.3125 C12.253125 20.178125 11.94375 19.04375 11.625 17.875 C10.93325469 14.52474901 10.93325469 14.52474901 9.5625 13.3125 C6.44522557 13.06232758 3.3136343 13.12727852 0.1875 13.125 C-0.6890625 13.11275391 -1.565625 13.10050781 -2.46875 13.08789062 C-3.73332031 13.08499023 -3.73332031 13.08499023 -5.0234375 13.08203125 C-5.7973584 13.07792236 -6.5712793 13.07381348 -7.36865234 13.06958008 C-9.74545658 13.18999899 -9.74545658 13.18999899 -12.4375 15.3125 C-12.80166047 17.74943311 -12.80166047 17.74943311 -12.625 20.4375 C-12.59792969 21.34757813 -12.57085937 22.25765625 -12.54296875 23.1953125 C-12.50816406 23.89398437 -12.47335937 24.59265625 -12.4375 25.3125 C-9.07990552 27.29345038 -6.21374926 27.70008893 -2.3515625 28.0234375 C-1.17335938 28.13429688 0.00484375 28.24515625 1.21875 28.359375 C3.68949062 28.57738153 6.16086102 28.78836909 8.6328125 28.9921875 C20.24186543 30.10746769 20.24186543 30.10746769 24.5625 34.3125 C27.75367097 39.02166984 28.07552397 43.18034094 28 48.6875 C27.99387695 49.44047363 27.98775391 50.19344727 27.98144531 50.96923828 C27.81959808 56.70485534 26.97746663 60.5694908 23.5625 65.3125 C15.2915784 72.5539187 0.91380924 70.84607264 -9.4375 70.3125 C-16.32436102 69.70958122 -20.62249541 68.36825482 -25.4375 63.3125 C-28.60090938 58.42750728 -27.55945355 52.92236337 -27.4375 47.3125 C-23.1475 47.3125 -18.8575 47.3125 -14.4375 47.3125 C-13.75390625 49.62369792 -13.0703125 51.93489583 -12.38671875 54.24609375 C-12.07347656 54.92800781 -11.76023437 55.60992188 -11.4375 56.3125 C-7.77899645 57.53200118 -4.37346431 57.53503359 -0.5625 57.5625 C0.14519531 57.583125 0.85289062 57.60375 1.58203125 57.625 C6.05445948 57.65831418 9.16618205 57.34093825 12.5625 54.3125 C13.23981221 51.88316387 13.23981221 51.88316387 13 49.25 C12.97808594 48.37214844 12.95617187 47.49429688 12.93359375 46.58984375 C12.75861188 44.1191595 12.75861188 44.1191595 10.5625 42.3125 C6.67989632 40.87415045 2.46721401 41.05104745 -1.625 40.875 C-19.27442885 39.92652757 -19.27442885 39.92652757 -25.4375 33.3125 C-28.43136687 26.12516893 -29.06813713 16.56909783 -26.25 9.1875 C-22.9866227 4.01110842 -19.75512102 2.11920658 -13.83422852 0.72045898 C-9.24107055 -0.06136509 -4.64775407 -0.01513926 0 0 Z " fill="#5C6770" transform="translate(424.4375,541.6875)"/>
<path d="M0 0 C16.17 0 32.34 0 49 0 C49 4.29 49 8.58 49 13 C37.45 13 25.9 13 14 13 C14 18.28 14 23.56 14 29 C24.89 29 35.78 29 47 29 C47 32.96 47 36.92 47 41 C36.11 41 25.22 41 14 41 C14 46.94 14 52.88 14 59 C25.55 59 37.1 59 49 59 C49 62.96 49 66.92 49 71 C32.83 71 16.66 71 0 71 C0 47.57 0 24.14 0 0 Z " fill="#0063A8" transform="translate(801,636)"/>
<path d="M0 0 C2.03259391 -0.00436908 4.06300461 -0.04073379 6.09521484 -0.07861328 C13.57381771 -0.10084897 18.88958698 0.15314391 25.16943359 4.37060547 C30.13531455 10.7781938 29.25395008 17.59508883 29.16943359 25.37060547 C24.54943359 25.37060547 19.92943359 25.37060547 15.16943359 25.37060547 C14.77880859 22.83154297 14.38818359 20.29248047 13.99755859 17.75341797 C13.38159945 15.31527526 13.38159945 15.31527526 11.58740234 14.06591797 C8.14093807 13.0748507 4.78539947 13.08173437 1.23193359 13.12060547 C0.52875 13.11287109 -0.17443359 13.10513672 -0.89892578 13.09716797 C-4.93350603 13.11229292 -8.38760812 13.16406867 -11.83056641 15.37060547 C-13.64227253 19.69713885 -14.0870044 23.42498004 -14.09619141 28.08935547 C-14.09876953 29.35134766 -14.10134766 30.61333984 -14.10400391 31.91357422 C-14.09626953 33.21939453 -14.08853516 34.52521484 -14.08056641 35.87060547 C-14.08830078 37.17642578 -14.09603516 38.48224609 -14.10400391 39.82763672 C-14.10142578 41.08962891 -14.09884766 42.35162109 -14.09619141 43.65185547 C-14.09393555 44.7971875 -14.09167969 45.94251953 -14.08935547 47.12255859 C-13.81429553 50.57482035 -13.26828728 53.21740925 -11.83056641 56.37060547 C-9.15538252 58.32406456 -6.90437119 58.62000939 -3.64306641 58.60107422 C-2.47130859 58.59817383 -2.47130859 58.59817383 -1.27587891 58.59521484 C-0.46892578 58.58296875 0.33802734 58.57072266 1.16943359 58.55810547 C1.97638672 58.55746094 2.78333984 58.55681641 3.61474609 58.55615234 C7.4248526 58.52785947 10.42202787 58.3074569 14.16943359 57.37060547 C14.82943359 53.41060547 15.48943359 49.45060547 16.16943359 45.37060547 C20.78943359 45.37060547 25.40943359 45.37060547 30.16943359 45.37060547 C30.64591042 60.77668966 30.64591042 60.77668966 25.41943359 67.68310547 C16.28448642 74.53431585 -0.84510475 73.29021403 -11.51025391 72.06201172 C-17.2196958 70.9758721 -21.48687232 68.79800291 -25.58056641 64.55810547 C-28.83075452 58.87027626 -29.13894082 53.07966422 -29.13134766 46.69091797 C-29.13563278 45.87871796 -29.13991791 45.06651794 -29.14433289 44.22970581 C-29.15004659 42.52033414 -29.15059842 40.81093817 -29.14624023 39.1015625 C-29.14308372 36.50982454 -29.16656387 33.91923369 -29.19189453 31.32763672 C-29.19416844 29.65706522 -29.1948706 27.9864907 -29.19384766 26.31591797 C-29.2030574 25.55312531 -29.21226715 24.79033264 -29.22175598 24.00442505 C-29.16877091 17.73076988 -28.09208896 11.34398743 -24.21728516 6.24951172 C-23.65654297 5.81509766 -23.09580078 5.38068359 -22.51806641 4.93310547 C-21.68855469 4.25441406 -21.68855469 4.25441406 -20.84228516 3.56201172 C-14.27433969 -0.32774239 -7.40084736 -0.00178033 0 0 Z " fill="#0063A8" transform="translate(659.83056640625,635.62939453125)"/>
<path d="M0 0 C6.6 0 13.2 0 20 0 C23.12887243 7.62228583 25.89956067 15.31965728 28.546875 23.12109375 C28.96294006 24.34280777 29.37900513 25.56452179 29.80767822 26.82325745 C30.68013157 29.38666817 31.55047314 31.95078411 32.41943359 34.51538086 C33.53304917 37.80106462 34.65336151 41.08442247 35.77537155 44.36724758 C36.84919526 47.51295472 37.91640491 50.6608945 38.984375 53.80859375 C39.38742859 54.98667099 39.79048218 56.16474823 40.20574951 57.37852478 C40.75697479 59.01151268 40.75697479 59.01151268 41.31933594 60.67749023 C41.80753815 62.11450539 41.80753815 62.11450539 42.30560303 63.58055115 C43 66 43 66 43 69 C38.38 69 33.76 69 29 69 C25 59.375 25 59.375 25 56 C15.43 56 5.86 56 -4 56 C-4.66 58.97 -5.32 61.94 -6 65 C-6.66 66.32 -7.32 67.64 -8 69 C-12.62 69 -17.24 69 -22 69 C-20.46133054 61.29533517 -18.14891692 53.95828068 -15.68359375 46.50390625 C-15.26253247 45.22129483 -14.84180779 43.93857287 -14.42140198 42.65574646 C-13.54567944 39.98650603 -12.66717187 37.31820563 -11.78637695 34.65063477 C-10.65698494 31.22999435 -9.53277803 27.80767833 -8.41038418 24.38473606 C-7.54443632 21.74466402 -6.67676256 19.10516207 -5.80845833 16.46586418 C-5.19145898 14.59031492 -4.57514855 12.71453907 -3.95884705 10.83876038 C-3.39805199 9.14075539 -3.39805199 9.14075539 -2.82592773 7.40844727 C-2.4966478 6.40967056 -2.16736786 5.41089386 -1.82810974 4.3818512 C-1 2 -1 2 0 0 Z M10 12 C8.57212243 16.37705236 7.14805678 20.75531917 5.72753906 25.13476562 C5.24356483 26.62501648 4.75854313 28.11492757 4.27246094 29.60449219 C3.57472733 31.74325929 2.88074636 33.88321237 2.1875 36.0234375 C1.96876221 36.69120209 1.75002441 37.35896667 1.5246582 38.04696655 C0.38140529 41.4541159 0.38140529 41.4541159 0 45 C6.93 45 13.86 45 21 45 C18.44666039 33.73526644 14.73894859 22.9176685 11 12 C10.67 12 10.34 12 10 12 Z " fill="#5C6770" transform="translate(542,449)"/>
<path d="M0 0 C0.83265381 0.00523682 1.66530762 0.01047363 2.52319336 0.01586914 C3.42231445 0.0190918 4.32143555 0.02231445 5.24780273 0.02563477 C6.66609375 0.03820312 6.66609375 0.03820312 8.11303711 0.05102539 C9.06243164 0.05553711 10.01182617 0.06004883 10.98999023 0.06469727 C13.3435708 0.0765243 15.69701292 0.09384445 18.05053711 0.11352539 C20.98903425 7.24340902 23.61293566 14.4443334 26.08959961 21.74633789 C26.45652924 22.82301727 26.82345886 23.89969666 27.20150757 25.00900269 C27.97088151 27.26913724 28.73889888 29.529734 29.50561523 31.79077148 C30.6750555 35.2371061 31.85081161 38.68124162 33.02709961 42.12524414 C33.77748099 44.33214575 34.52749363 46.53917278 35.27709961 48.74633789 C35.8005748 50.2778801 35.8005748 50.2778801 36.33462524 51.84036255 C38.15545156 57.22653252 39.76386742 62.57467956 41.05053711 68.11352539 C36.43053711 68.11352539 31.81053711 68.11352539 27.05053711 68.11352539 C25.40053711 64.15352539 23.75053711 60.19352539 22.05053711 56.11352539 C8.19053711 55.61852539 8.19053711 55.61852539 -5.94946289 55.11352539 C-6.60946289 58.08352539 -7.26946289 61.05352539 -7.94946289 64.11352539 C-8.60946289 65.43352539 -9.26946289 66.75352539 -9.94946289 68.11352539 C-14.56946289 68.11352539 -19.18946289 68.11352539 -23.94946289 68.11352539 C-23.38347484 63.47532983 -22.49626017 59.25602472 -21.01586914 54.8269043 C-20.61875732 53.62941559 -20.22164551 52.43192688 -19.8125 51.19815063 C-19.3792054 49.91205633 -18.94568784 48.62603713 -18.51196289 47.34008789 C-18.06694443 46.00741966 -17.62237141 44.67460262 -17.17822266 43.34164429 C-16.25053916 40.56170856 -15.31886349 37.78315562 -14.3840332 35.00561523 C-13.18405212 31.43982861 -11.99209515 27.87142386 -10.80281067 24.30205727 C-9.88732358 21.55613849 -8.96871952 18.81127114 -8.04904175 16.06675339 C-7.60814347 14.75043223 -7.16797651 13.4338659 -6.72854614 12.11705399 C-6.11640582 10.28494966 -5.49984436 8.45432428 -4.88305664 6.6237793 C-4.53299561 5.58121979 -4.18293457 4.53866028 -3.82226562 3.46450806 C-2.59210631 0.15094921 -2.59210631 0.15094921 0 0 Z M8.05053711 12.11352539 C6.62061664 16.3291287 5.1966191 20.54667181 3.77807617 24.76611328 C3.29467465 26.20123182 2.80965894 27.63580768 2.32299805 29.06982422 C1.6237559 31.13116153 0.93034234 33.19438081 0.23803711 35.25805664 C-0.1809082 36.49918213 -0.59985352 37.74030762 -1.03149414 39.01904297 C-2.09166157 42.05491726 -2.09166157 42.05491726 -1.94946289 45.11352539 C4.98053711 45.11352539 11.91053711 45.11352539 19.05053711 45.11352539 C17.34500742 37.423978 17.34500742 37.423978 15.10522461 29.98461914 C14.75073242 28.93081055 14.39624023 27.87700195 14.03100586 26.79125977 C13.66620117 25.72198242 13.30139648 24.65270508 12.92553711 23.55102539 C12.36672852 21.89490234 12.36672852 21.89490234 11.79663086 20.20532227 C10.88538468 17.50663166 9.96994187 14.80944506 9.05053711 12.11352539 C8.72053711 12.11352539 8.39053711 12.11352539 8.05053711 12.11352539 Z " fill="#5C6770" transform="translate(683.949462890625,542.886474609375)"/>
<path d="M0 0 C0.83265381 0.00523682 1.66530762 0.01047363 2.52319336 0.01586914 C3.42231445 0.0190918 4.32143555 0.02231445 5.24780273 0.02563477 C6.66609375 0.03820312 6.66609375 0.03820312 8.11303711 0.05102539 C9.06243164 0.05553711 10.01182617 0.06004883 10.98999023 0.06469727 C13.3435708 0.0765243 15.69701292 0.09384445 18.05053711 0.11352539 C21.58975084 8.3036308 24.67656347 16.55824025 27.47631836 25.02758789 C27.86877243 26.2044516 28.2612265 27.38131531 28.66557312 28.59384155 C29.48526844 31.05524931 30.30277595 33.51738666 31.11816406 35.98022461 C31.9543241 38.50461127 32.79245599 41.02820922 33.63476562 43.55053711 C34.85619089 47.20843039 36.07333917 50.867715 37.28881836 54.52758789 C37.66686111 55.66080475 38.04490387 56.79402161 38.43440247 57.96157837 C38.77863754 59.00381561 39.12287262 60.04605286 39.47753906 61.11987305 C39.7822261 62.03854156 40.08691315 62.95721008 40.40083313 63.90371704 C41.05053711 66.11352539 41.05053711 66.11352539 41.05053711 68.11352539 C36.43053711 68.11352539 31.81053711 68.11352539 27.05053711 68.11352539 C23.05053711 58.48852539 23.05053711 58.48852539 23.05053711 55.11352539 C13.48053711 55.11352539 3.91053711 55.11352539 -5.94946289 55.11352539 C-6.60946289 58.08352539 -7.26946289 61.05352539 -7.94946289 64.11352539 C-8.60946289 65.43352539 -9.26946289 66.75352539 -9.94946289 68.11352539 C-14.56946289 68.11352539 -19.18946289 68.11352539 -23.94946289 68.11352539 C-22.40793603 60.39919105 -20.09583059 53.0481535 -17.63305664 45.58227539 C-17.21203937 44.29725372 -16.79131385 43.01213643 -16.37086487 41.72692871 C-15.49522724 39.05346519 -14.6166623 36.38098815 -13.73583984 33.70922852 C-12.6054238 30.27984884 -11.48162299 26.84834435 -10.35984707 23.41613007 C-9.49485504 20.77149483 -8.62687417 18.12784848 -7.75792122 15.48451233 C-7.13991482 13.60315332 -6.52409994 11.72107488 -5.90830994 9.83898926 C-5.53444656 8.7069104 -5.16058319 7.57483154 -4.77539062 6.40844727 C-4.44611069 5.40744995 -4.11683075 4.40645264 -3.77757263 3.37512207 C-2.59711123 0.15124067 -2.59711123 0.15124067 0 0 Z M8.05053711 12.11352539 C6.62061664 16.3291287 5.1966191 20.54667181 3.77807617 24.76611328 C3.29467465 26.20123182 2.80965894 27.63580768 2.32299805 29.06982422 C1.6237559 31.13116153 0.93034234 33.19438081 0.23803711 35.25805664 C-0.1809082 36.49918213 -0.59985352 37.74030762 -1.03149414 39.01904297 C-2.09166157 42.05491726 -2.09166157 42.05491726 -1.94946289 45.11352539 C4.98053711 45.11352539 11.91053711 45.11352539 19.05053711 45.11352539 C17.34500742 37.423978 17.34500742 37.423978 15.10522461 29.98461914 C14.75073242 28.93081055 14.39624023 27.87700195 14.03100586 26.79125977 C13.66620117 25.72198242 13.30139648 24.65270508 12.92553711 23.55102539 C12.36672852 21.89490234 12.36672852 21.89490234 11.79663086 20.20532227 C10.88538468 17.50663166 9.96994187 14.80944506 9.05053711 12.11352539 C8.72053711 12.11352539 8.39053711 12.11352539 8.05053711 12.11352539 Z " fill="#5C6770" transform="translate(354.949462890625,542.886474609375)"/>
<path d="M0 0 C9.6525 -0.0928125 9.6525 -0.0928125 19.5 -0.1875 C21.51544922 -0.21481201 23.53089844 -0.24212402 25.60742188 -0.27026367 C27.22785851 -0.27903603 28.84830183 -0.28667819 30.46875 -0.29296875 C31.29149414 -0.30831665 32.11423828 -0.32366455 32.96191406 -0.33947754 C39.84053133 -0.34255201 45.2759814 0.92737716 50.875 5.1875 C56.42270989 12.5300572 55.61336047 22.20535451 55 31 C53.99298566 36.32174001 52.49920796 40.69175885 48 44 C40.78266724 47.80914785 31.93478916 47.13307865 24 47.0625 C20.7 47.041875 17.4 47.02125 14 47 C14 53.93 14 60.86 14 68 C9.38 68 4.76 68 0 68 C0 45.56 0 23.12 0 0 Z M14 12 C14 19.59 14 27.18 14 35 C26.68386543 35.47377317 26.68386543 35.47377317 39 33 C42.07944258 28.56520406 41.51224646 23.16069195 41 18 C39.62747293 14.88062031 39.020457 13.5102285 36 12 C34.3325394 11.91573906 32.66174813 11.89274857 30.9921875 11.90234375 C29.65969971 11.90609009 29.65969971 11.90609009 28.30029297 11.90991211 C27.16994629 11.91901611 26.03959961 11.92812012 24.875 11.9375 C21.28625 11.958125 17.6975 11.97875 14 12 Z " fill="#5C6770" transform="translate(336,356)"/>
<path d="M0 0 C5.78166518 6.68505036 5.28739612 12.78641502 5 21.3125 C0.38 21.3125 -4.24 21.3125 -9 21.3125 C-9.495 15.8675 -9.495 15.8675 -10 10.3125 C-22.15025083 8.99729387 -22.15025083 8.99729387 -34 11.3125 C-36.581259 14.7534852 -36.30624149 18.65560473 -36.30078125 22.78125 C-36.30506638 23.498573 -36.3093515 24.215896 -36.31376648 24.95495605 C-36.31949587 26.4678441 -36.3200203 27.98075969 -36.31567383 29.49365234 C-36.31251048 31.80484017 -36.33599975 34.11475123 -36.36132812 36.42578125 C-36.36360099 37.89843589 -36.36430467 39.37109396 -36.36328125 40.84375 C-36.372491 41.53239136 -36.38170074 42.22103271 -36.39118958 42.93054199 C-36.3520327 47.00083064 -35.92563985 49.4008132 -33 52.3125 C-29.54859682 53.76531782 -25.75859355 53.48027698 -22.0625 53.5 C-20.85722656 53.51417969 -19.65195312 53.52835937 -18.41015625 53.54296875 C-15.11214174 53.32007888 -12.9119646 52.84087921 -10 51.3125 C-8.85185003 49.01620006 -8.69230191 47.23551914 -8.4375 44.6875 C-8.293125 43.24375 -8.14875 41.8 -8 40.3125 C-3.38 40.3125 1.24 40.3125 6 40.3125 C6.63309704 55.50682901 6.63309704 55.50682901 2 61.3125 C-4.99689248 67.25672056 -14.88581559 66.65382317 -23.625 66.625 C-24.60984375 66.64111328 -25.5946875 66.65722656 -26.609375 66.67382812 C-34.01537481 66.67876546 -39.33742971 65.42865172 -45.8125 61.6875 C-52.55337284 54.36883805 -51.49448992 43.66979663 -51.44604492 34.37475586 C-51.43752995 31.88376272 -51.46636896 29.39506483 -51.49804688 26.90429688 C-51.5806424 8.13422884 -51.5806424 8.13422884 -44.625 0.8125 C-32.93375469 -5.8682116 -11.82784917 -6.65316516 0 0 Z " fill="#5C6770" transform="translate(561,358.6875)"/>
<path d="M0 0 C15.51 0 31.02 0 47 0 C47 3.96 47 7.92 47 12 C36.11 12 25.22 12 14 12 C14 17.28 14 22.56 14 28 C24.23 28 34.46 28 45 28 C45 31.96 45 35.92 45 40 C34.77 40 24.54 40 14 40 C14 45.61 14 51.22 14 57 C24.89 57 35.78 57 47 57 C47 60.96 47 64.92 47 69 C31.49 69 15.98 69 0 69 C0 46.23 0 23.46 0 0 Z " fill="#5C6770" transform="translate(424,449)"/>
<path d="M0 0 C1.49080078 -0.02416992 1.49080078 -0.02416992 3.01171875 -0.04882812 C10.1343276 -0.05353262 16.10185387 0.62975306 21.875 5.1875 C26.27556175 10.94208075 26.03969612 17.33122448 26.5 24.3125 C21.88 24.3125 17.26 24.3125 12.5 24.3125 C12.109375 22.03385417 11.71875 19.75520833 11.328125 17.4765625 C10.68129885 15.23093341 10.68129885 15.23093341 8.8828125 14.04296875 C5.57980834 13.03040846 2.57621627 13.01033298 -0.875 13 C-2.16148437 12.98324219 -3.44796875 12.96648438 -4.7734375 12.94921875 C-8.74279281 13.33616848 -11.16071729 14.15861221 -14.5 16.3125 C-15.66097485 19.79542454 -15.62950079 22.53730603 -15.6328125 26.2109375 C-15.63376923 26.88291168 -15.63472595 27.55488586 -15.63571167 28.2472229 C-15.63639149 29.66774591 -15.63455098 31.08827204 -15.63037109 32.50878906 C-15.62503674 34.67259795 -15.63031405 36.8361977 -15.63671875 39 C-15.63605761 40.38281295 -15.63477569 41.76562578 -15.6328125 43.1484375 C-15.63168457 44.40188965 -15.63055664 45.6553418 -15.62939453 46.94677734 C-15.51693478 49.87200392 -15.18013281 52.4737729 -14.5 55.3125 C-5.67630476 57.60012469 1.6923481 58.09386376 10.5 55.3125 C11.64814997 53.01620006 11.80769809 51.23551914 12.0625 48.6875 C12.206875 47.24375 12.35125 45.8 12.5 44.3125 C17.12 44.3125 21.74 44.3125 26.5 44.3125 C26.92110656 59.19159836 26.92110656 59.19159836 23.5 64.3125 C14.59308054 71.75180205 -0.44618331 70.94102357 -11.5 70.3125 C-17.2586593 69.78198458 -21.78317469 68.40553006 -25.95068359 64.23608398 C-31.79414854 56.98101618 -30.99685041 46.46559596 -30.94604492 37.63598633 C-30.93752663 35.38204708 -30.9663946 33.1306441 -30.99804688 30.87695312 C-31.09048008 12.16051619 -31.09048008 12.16051619 -24.83764648 5.55688477 C-17.83661872 -0.20607104 -8.60854602 -0.02791357 0 0 Z " fill="#5C6770" transform="translate(609.5,541.6875)"/>
<path d="M0 0 C15.51 0 31.02 0 47 0 C47 3.96 47 7.92 47 12 C36.11 12 25.22 12 14 12 C14 17.28 14 22.56 14 28 C24.56 28 35.12 28 46 28 C46 31.63 46 35.26 46 39 C35.44 39 24.88 39 14 39 C14 44.61 14 50.22 14 56 C25.22 56 36.44 56 48 56 C48 59.96 48 63.92 48 68 C32.16 68 16.32 68 0 68 C0 45.56 0 23.12 0 0 Z " fill="#5C6770" transform="translate(458,356)"/>
<path d="M0 0 C15.18 0 30.36 0 46 0 C46 3.96 46 7.92 46 12 C35.44 12 24.88 12 14 12 C14 17.61 14 23.22 14 29 C23.9 29 33.8 29 44 29 C44 32.96 44 36.92 44 41 C34.1 41 24.2 41 14 41 C14 50.24 14 59.48 14 69 C9.38 69 4.76 69 0 69 C0 46.23 0 23.46 0 0 Z " fill="#5C6770" transform="translate(638,449)"/>
<path d="M0 0 C18.15 0 36.3 0 55 0 C55 4.29 55 8.58 55 13 C48.4 13 41.8 13 35 13 C35 32.14 35 51.28 35 71 C30.05 71 25.1 71 20 71 C20 51.86 20 32.72 20 13 C13.4 13 6.8 13 0 13 C0 8.71 0 4.42 0 0 Z " fill="#0063A8" transform="translate(717,636)"/>
<path d="M0 0 C18.48 0 36.96 0 56 0 C56 4.29 56 8.58 56 13 C49.07 13 42.14 13 35 13 C35 32.14 35 51.28 35 71 C30.38 71 25.76 71 21 71 C21 51.86 21 32.72 21 13 C14.07 13 7.14 13 0 13 C0 8.71 0 4.42 0 0 Z " fill="#0063A8" transform="translate(331,636)"/>
<path d="M0 0 C17.49 0 34.98 0 53 0 C53 3.96 53 7.92 53 12 C46.4 12 39.8 12 33 12 C33 30.81 33 49.62 33 69 C28.38 69 23.76 69 19 69 C19 50.19 19 31.38 19 12 C12.73 12 6.46 12 0 12 C0 8.04 0 4.08 0 0 Z " fill="#5C6770" transform="translate(475,449)"/>
<path d="M0 0 C17.82 0 35.64 0 54 0 C54 3.96 54 7.92 54 12 C47.4 12 40.8 12 34 12 C34 30.48 34 48.96 34 68 C29.38 68 24.76 68 20 68 C20 49.52 20 31.04 20 12 C13.4 12 6.8 12 0 12 C0 8.04 0 4.08 0 0 Z " fill="#5C6770" transform="translate(716,543)"/>
<path d="M0 0 C4.62 0 9.24 0 14 0 C14 18.81 14 37.62 14 57 C24.56 57 35.12 57 46 57 C46 60.96 46 64.92 46 69 C30.82 69 15.64 69 0 69 C0 46.23 0 23.46 0 0 Z " fill="#5C6770" transform="translate(589,449)"/>
<path d="M0 0 C5.465625 -0.0825 10.93125 -0.165 16.5625 -0.25 C18.27381104 -0.28641602 19.98512207 -0.32283203 21.74829102 -0.36035156 C23.12515005 -0.37204866 24.50202307 -0.38223806 25.87890625 -0.390625 C26.57721558 -0.41108887 27.2755249 -0.43155273 27.99499512 -0.45263672 C33.53659234 -0.45652215 36.56196502 0.91285311 41 4 C45.48205504 11.17128806 45.21224649 18.02917361 45.25 26.25 C45.270625 27.35730469 45.29125 28.46460938 45.3125 29.60546875 C45.37764261 43.30170248 45.37764261 43.30170248 40.58300781 48.55151367 C35.70841593 52.81941283 31.68594299 53.14313513 25.48828125 53.09765625 C24.84258179 53.09664917 24.19688232 53.09564209 23.53161621 53.09460449 C21.12522601 53.08938211 18.71886118 53.07542083 16.3125 53.0625 C10.929375 53.041875 5.54625 53.02125 0 53 C0 35.51 0 18.02 0 0 Z M7 6 C7 19.53 7 33.06 7 47 C10.691875 47.061875 14.38375 47.12375 18.1875 47.1875 C19.3427417 47.21481201 20.4979834 47.24212402 21.68823242 47.27026367 C23.0703894 47.28150269 23.0703894 47.28150269 24.48046875 47.29296875 C25.88655396 47.31653442 25.88655396 47.31653442 27.32104492 47.34057617 C30.54366491 46.93088376 32.37948472 45.88917587 35 44 C38.99379649 38.54676366 38.48053795 32.47916802 38.4375 26 C38.45748047 24.93265625 38.47746094 23.8653125 38.49804688 22.765625 C38.49418132 16.54981172 38.24999942 12.67269375 34 8 C30.60102327 5.73401552 29.43680827 5.76257346 25.45703125 5.8046875 C24.48999268 5.80968262 23.5229541 5.81467773 22.52661133 5.81982422 C21.30095459 5.83803223 20.07529785 5.85624023 18.8125 5.875 C12.9653125 5.936875 12.9653125 5.936875 7 6 Z " fill="#0063A8" transform="translate(335,724)"/>
<path d="M0 0 C5.506875 -0.061875 11.01375 -0.12375 16.6875 -0.1875 C19.28177856 -0.22846802 19.28177856 -0.22846802 21.9284668 -0.27026367 C23.31037703 -0.27903144 24.69229504 -0.28667469 26.07421875 -0.29296875 C26.78276001 -0.30831665 27.49130127 -0.32366455 28.22131348 -0.33947754 C32.66793333 -0.34181499 35.46389451 0.26184682 39 3 C42.53400807 9.22371388 42.60080027 15.94593196 41.25 22.8125 C40 26 40 26 37.875 27.4375 C37.25625 27.623125 36.6375 27.80875 36 28 C36 28.66 36 29.32 36 30 C36.639375 30.268125 37.27875 30.53625 37.9375 30.8125 C40 32 40 32 41 35 C41.08021999 36.40824893 41.10765977 37.81997231 41.09765625 39.23046875 C41.09443359 40.03291016 41.09121094 40.83535156 41.08789062 41.66210938 C41.07532227 42.91217773 41.07532227 42.91217773 41.0625 44.1875 C41.05798828 45.03248047 41.05347656 45.87746094 41.04882812 46.74804688 C41.03705403 48.83206155 41.0191189 50.91603977 41 53 C38.69 53 36.38 53 34 53 C33.97421875 51.89140625 33.9484375 50.7828125 33.921875 49.640625 C33.86558344 48.17704453 33.80823633 46.71350438 33.75 45.25 C33.73582031 44.52039063 33.72164062 43.79078125 33.70703125 43.0390625 C33.56142329 39.83568731 33.19646791 37.36095268 31.65625 34.53125 C27.28563726 32.01172031 22.70671992 32.31919279 17.75 32.25 C16.71875 32.22035156 15.6875 32.19070313 14.625 32.16015625 C12.08375297 32.08956605 9.54187188 32.04250622 7 32 C7 38.93 7 45.86 7 53 C4.69 53 2.38 53 0 53 C0 35.51 0 18.02 0 0 Z M7 6 C7 12.6 7 19.2 7 26 C10.39604742 26.0540485 13.79123073 26.09369798 17.1875 26.125 C18.14720703 26.14175781 19.10691406 26.15851562 20.09570312 26.17578125 C21.02705078 26.18222656 21.95839844 26.18867187 22.91796875 26.1953125 C23.77156982 26.20578613 24.6251709 26.21625977 25.50463867 26.22705078 C28.35944415 25.96729449 30.44521865 25.29292669 33 24 C35.53668356 19.27254428 35.44659156 14.09705079 34 9 C32.84857515 7.28747517 32.84857515 7.28747517 31 6 C28.38845909 5.5862902 28.38845909 5.5862902 25.45703125 5.70703125 C24.38388672 5.71669922 23.31074219 5.72636719 22.20507812 5.73632812 C20.52575195 5.7740332 20.52575195 5.7740332 18.8125 5.8125 C17.11577148 5.83280273 17.11577148 5.83280273 15.38476562 5.85351562 C12.58964118 5.88889695 9.79476111 5.94270421 7 6 Z " fill="#0063A8" transform="translate(486,724)"/>
<path d="M0 0 C2.65102074 4.39075311 3.37231152 7.9117425 3 13 C0.69 13 -1.62 13 -4 13 C-4.15855469 12.43410156 -4.31710937 11.86820313 -4.48046875 11.28515625 C-5.18270396 9.07757706 -5.92382122 7.05255066 -7 5 C-9.21294363 3.80511261 -9.21294363 3.80511261 -12 4 C-13.8871875 3.9071875 -13.8871875 3.9071875 -15.8125 3.8125 C-20.10625411 3.8533929 -23.88225896 4.82350256 -28 6 C-28.185625 7.216875 -28.37125 8.43375 -28.5625 9.6875 C-28.66691406 10.37199219 -28.77132813 11.05648437 -28.87890625 11.76171875 C-29.01771832 14.32750322 -28.5383762 16.4966413 -28 19 C-27.00202393 19.06731323 -27.00202393 19.06731323 -25.98388672 19.13598633 C-22.94650654 19.34833321 -19.91091928 19.58023389 -16.875 19.8125 C-15.82828125 19.88275391 -14.7815625 19.95300781 -13.703125 20.02539062 C-3.65884294 20.82003319 -3.65884294 20.82003319 1 24 C4.89427305 30.49045509 4.57134883 36.51477214 3.375 43.8125 C2.0138508 46.96789133 0.96024496 48.37600938 -1.93115234 50.1862793 C-6.55001719 52.00297466 -11.61194015 51.56781123 -16.5 51.5 C-17.61503906 51.51546875 -18.73007812 51.5309375 -19.87890625 51.546875 C-26.17689053 51.51684885 -30.26917783 51.32990504 -35 47 C-37.54782329 42.83083462 -37.16077208 38.74277647 -37 34 C-34.69 34 -32.38 34 -30 34 C-29.81824219 34.95712891 -29.81824219 34.95712891 -29.6328125 35.93359375 C-29.38144531 37.17302734 -29.38144531 37.17302734 -29.125 38.4375 C-28.96257812 39.26121094 -28.80015625 40.08492187 -28.6328125 40.93359375 C-28.42398437 41.61550781 -28.21515625 42.29742188 -28 43 C-24.46622526 44.76688737 -20.45595402 44.31197131 -16.5625 44.375 C-15.69044922 44.41238281 -14.81839844 44.44976563 -13.91992188 44.48828125 C-11.5162245 44.52153763 -9.35525396 44.48400757 -7 44 C-4.62920783 41.48845579 -4.0770493 40.02341577 -3.8203125 36.61328125 C-3.92085938 35.85402344 -4.02140625 35.09476563 -4.125 34.3125 C-4.21007812 33.54550781 -4.29515625 32.77851562 -4.3828125 31.98828125 C-4.8894458 29.61855784 -4.8894458 29.61855784 -8 28 C-10.33394506 27.60731527 -10.33394506 27.60731527 -12.9296875 27.5078125 C-13.89003906 27.44207031 -14.85039062 27.37632812 -15.83984375 27.30859375 C-17.85503965 27.18669644 -19.87068801 27.07205161 -21.88671875 26.96484375 C-31.16867314 26.30628474 -31.16867314 26.30628474 -35 22 C-37.50321294 16.31087969 -37.24515718 10.97270518 -36 5 C-34.32669491 1.34915253 -33.36692556 0.24461704 -30 -2 C-21.35102258 -4.43106392 -7.80100412 -4.83662255 0 0 Z " fill="#0063A8" transform="translate(435,726)"/>
<path d="M0 0 C4.62 0 9.24 0 14 0 C14 23.43 14 46.86 14 71 C9.38 71 4.76 71 0 71 C0 47.57 0 24.14 0 0 Z " fill="#0063A8" transform="translate(778,636)"/>
<path d="M0 0 C4.62 0 9.24 0 14 0 C14 23.43 14 46.86 14 71 C9.38 71 4.76 71 0 71 C0 47.57 0 24.14 0 0 Z " fill="#0063A8" transform="translate(697,636)"/>
<path d="M0 0 C4.62 0 9.24 0 14 0 C14 23.43 14 46.86 14 71 C9.38 71 4.76 71 0 71 C0 47.57 0 24.14 0 0 Z " fill="#0063A8" transform="translate(500,636)"/>
<path d="M0 0 C4.62 0 9.24 0 14 0 C14 22.77 14 45.54 14 69 C9.38 69 4.76 69 0 69 C0 46.23 0 23.46 0 0 Z " fill="#5C6770" transform="translate(902,449)"/>
<path d="M0 0 C4.62 0 9.24 0 14 0 C14 22.44 14 44.88 14 68 C9.38 68 4.76 68 0 68 C0 45.56 0 23.12 0 0 Z " fill="#5C6770" transform="translate(774,543)"/>
<path d="M0 0 C4.62 0 9.24 0 14 0 C14 22.44 14 44.88 14 68 C9.38 68 4.76 68 0 68 C0 45.56 0 23.12 0 0 Z " fill="#5C6770" transform="translate(642,543)"/>
<path d="M0 0 C4.62 0 9.24 0 14 0 C14 22.44 14 44.88 14 68 C9.38 68 4.76 68 0 68 C0 45.56 0 23.12 0 0 Z " fill="#5C6770" transform="translate(653,356)"/>
<path d="M0 0 C0.77214844 -0.01611328 1.54429687 -0.03222656 2.33984375 -0.04882812 C7.2640776 -0.05302253 10.59328315 0.63234136 14.875 3.3125 C19.17622938 7.91036589 18.99235579 12.20999912 18.875 18.3125 C16.565 18.3125 14.255 18.3125 11.875 18.3125 C11.78863281 17.68601562 11.70226562 17.05953125 11.61328125 16.4140625 C10.9221001 11.40707232 10.9221001 11.40707232 7.8125 7.75 C0.89906253 6.7203391 -6.53103495 6.70558358 -13.125 9.3125 C-16.36781949 14.17672924 -15.49689044 19.8706436 -15.49560547 25.5637207 C-15.49997837 27.73924054 -15.53630423 29.91272977 -15.57421875 32.08789062 C-15.58008743 33.47395141 -15.58405648 34.86002181 -15.5859375 36.24609375 C-15.59415527 37.50478271 -15.60237305 38.76347168 -15.61083984 40.06030273 C-15.37350078 43.36040367 -15.37350078 43.36040367 -13.3737793 45.7253418 C-10.86187576 47.49820955 -9.71845724 47.80642866 -6.68359375 47.7734375 C-5.43739258 47.76763672 -5.43739258 47.76763672 -4.16601562 47.76171875 C-2.87727539 47.72498047 -2.87727539 47.72498047 -1.5625 47.6875 C-0.26795898 47.68556641 -0.26795898 47.68556641 1.05273438 47.68359375 C6.26565995 47.67413089 6.26565995 47.67413089 10.875 45.3125 C11.67298218 42.89642583 11.67298218 42.89642583 12.0625 40.1875 C12.22105469 39.27742187 12.37960937 38.36734375 12.54296875 37.4296875 C12.65253906 36.73101563 12.76210938 36.03234375 12.875 35.3125 C14.855 35.3125 16.835 35.3125 18.875 35.3125 C18.95660748 37.20760699 19.01446459 39.10374504 19.0625 41 C19.11470703 42.58361328 19.11470703 42.58361328 19.16796875 44.19921875 C18.8334996 47.75351094 18.05939863 49.50959749 15.875 52.3125 C10.82417519 55.55536313 4.78464842 54.68117798 -1 54.6875 C-2.17175781 54.71199219 -3.34351563 54.73648438 -4.55078125 54.76171875 C-9.51607746 54.77862668 -13.19697752 54.73360267 -17.7578125 52.6640625 C-21.9508374 48.49871433 -23.45771109 44.48534649 -23.5418396 38.57713318 C-23.53576691 37.88007767 -23.52969421 37.18302216 -23.5234375 36.46484375 C-23.52630768 35.73052628 -23.52917786 34.9962088 -23.53213501 34.23963928 C-23.53416625 32.69580305 -23.52870244 31.15194053 -23.51611328 29.6081543 C-23.50002157 27.25315612 -23.51600436 24.8998678 -23.53515625 22.54492188 C-23.5331741 21.03905874 -23.52933101 19.53319666 -23.5234375 18.02734375 C-23.52951019 17.32826401 -23.53558289 16.62918427 -23.5418396 15.90892029 C-23.47911573 11.52482927 -22.70700203 8.85105525 -20.125 5.3125 C-19.733125 4.755625 -19.34125 4.19875 -18.9375 3.625 C-13.66596691 -0.19231706 -6.25575241 -0.02637332 0 0 Z " fill="#0063A8" transform="translate(570.125,722.6875)"/>
<path d="M0 0 C4.29 0 8.58 0 13 0 C13 22.44 13 44.88 13 68 C8.71 68 4.42 68 0 68 C0 45.56 0 23.12 0 0 Z " fill="#5C6770" transform="translate(573,356)"/>
<path d="M0 0 C13.53 0 27.06 0 41 0 C41 1.98 41 3.96 41 6 C35.39 6 29.78 6 24 6 C24 21.51 24 37.02 24 53 C21.69 53 19.38 53 17 53 C17 37.49 17 21.98 17 6 C11.39 6 5.78 6 0 6 C0 4.02 0 2.04 0 0 Z " fill="#0063A8" transform="translate(591,724)"/>
<path d="M0 0 C13.53 0 27.06 0 41 0 C41 1.98 41 3.96 41 6 C35.39 6 29.78 6 24 6 C24 21.51 24 37.02 24 53 C21.69 53 19.38 53 17 53 C17 37.49 17 21.98 17 6 C11.39 6 5.78 6 0 6 C0 4.02 0 2.04 0 0 Z " fill="#0063A8" transform="translate(441,724)"/>
<path d="M0 0 C2.31 0 4.62 0 7 0 C7 17.49 7 34.98 7 53 C4.69 53 2.38 53 0 53 C0 35.51 0 18.02 0 0 Z " fill="#0063A8" transform="translate(534,724)"/>
<path d="M0 0 C2.31 0 4.62 0 7 0 C7 17.49 7 34.98 7 53 C4.69 53 2.38 53 0 53 C0 35.51 0 18.02 0 0 Z " fill="#0063A8" transform="translate(386,724)"/>
</svg>
