<?xml version="1.0" encoding="utf-8"?>
<!-- Generator: Adobe Illustrator 19.2.1, SVG Export Plug-In . SVG Version: 6.00 Build 0)  -->
<svg version="1.1" id="layer" xmlns="http://www.w3.org/2000/svg" xmlns:xlink="http://www.w3.org/1999/xlink" x="0px" y="0px"
	 viewBox="0 0 652 652" style="enable-background:new 0 0 652 652;" xml:space="preserve">
<style type="text/css">
	.st0{fill:#FFCF01;}
	.st1{fill:#00539B;}
</style>
<path class="st0" d="M583.4,329.9c0-4.2-1.6-8.4-3.9-12.9l-0.5-1.2l0,0l0,0l0,0l-0.7-1.2c-11.8-22.4-27.4-45.6-31.7-51.1v-0.1v-0.1
	c-0.9-1.6-2-4.9-2.4-8.4c-0.5-3.9-0.3-7.9-0.5-10c-0.3-1.8-1.2-3-2.5-5c-1.3-1.8-3-3.9-4.7-6.3c-2.5-3.6-5.1-7.2-7.2-10.3
	c-1.1-1.4-2-2.9-2.6-3.9c-0.7-1.1-1.1-1.6-1.2-1.8c-0.9-1.7-1.8-2.9-2.4-3.8c0-0.1-0.1-0.3-0.1-0.4l-0.1-0.4l0.1-0.4
	c0.3-1.4,0.7-3.9,0.7-7.1c0-0.1,0-0.1,0-0.3c0,0,0-0.1,0-0.3c0-8.7-3.6-22.4-19.4-31.5c-3.9-2.2-7.4-4.3-10.5-6.3l-1.4-0.9l1.2-1.2
	c2.9-2.9,4.7-7,4.7-11.2c0-0.1,0,0,0-0.1l0,0l0,0c0-4.5-1.8-8.7-4.9-11.6l-0.5-0.5C448.3,98.6,387.8,72,321.2,72l0,0
	c-0.1,0-0.1,0-0.1,0h-0.1l0,0c-66.6,0-127,26.6-171.3,69.8l-0.1,0.1c-3.2,3-5.1,7.2-5.1,11.8v0.1v0.3c0,3,0.9,5.9,2.5,8.4l0.8,1.2
	l-1.3,0.7c-2,1.1-4.5,2.4-7,3.9c-4.1,2.6-8,5.5-9.7,9c-1.3,3-1.2,4.5-2.4,7.4c-1.1,2.6-2.8,6.1-4.5,9.2s-3.2,5.8-3.8,7.1
	c-0.8,1.7-0.9,3.7-0.9,5.8c0,2.2,0.3,4.6,0.4,6.1l0.1,0.8l-0.7,0.5c-5,3.7-15.9,13.7-15.9,32c0,1.8,0.1,3.8,0.4,5.9l0.1,0.5
	l-0.4,0.4c-5.9,7.4-31.6,39.8-39.4,59.8c-0.4,1.2-1.4,2.2-2.4,4.2c-0.9,1.8-1.7,4.2-1.8,7.4v0.1c0,0.1,0,0.3,0,0.4
	c0,3.8,1.2,7.8,5.7,11.8l1.6,1.4l0.3,0.3c0.3,0.1,0.4,0.3,0.7,0.5c0.4,0.3,1.1,0.8,2,1.3C74.6,344,87,352.8,93,366.6l0,0l0,0
	c0,0.1,0.1,0.3,0.1,0.5c0.3,0.7,0.3,0.7,0.9,1.3c0.5,0.4,0.3,0.1,0.7,0.3c0.5,0.1,0.9,0.1,1.7,0.3c2,0.3,4.9,0.5,5.5,0.5h0.4
	c0.3,0,0.5-0.1,0.8-0.3l0.8-0.3l0.7,0.7c0.3,0.3,0.4,0.4,0.7,0.7c2.9,2.9,8,5.7,17.2,5.9l0,0c0,0,0.1,0,0.1-0.1l0,0V376l-1.4-0.8
	c-1.6-1.2-4.2-4.2-7.1-11.6l-0.4-1.1l1.1-0.5c5.9-3.2,14.6-7.1,24.6-9.6l0.4-0.1l0.4,0.3c2.8,1.3,5.4,2.9,7,4.7l0.5,0.7l-0.3,0.8
	c0,0-0.7,1.8-1.4,4.9c-0.8,3-1.4,7.4-1.4,12.2c0,3,0.3,6.2,1.1,9.3l0.1,0.8l-0.7,0.5c0,0-0.4,0.3-0.9,0.8c-0.5,0.5-1.4,1.2-2.2,2.1
	c-1.8,1.8-3.8,4.5-5,7.4l-0.1,0.4l-0.4,0.3c-0.4,0.3-0.8,0.4-1.2,0.7l-1.3,0.7l-0.5-1.3c-0.5-1.2-1.1-2.2-1.4-3.4
	c-1.7-4.5-2.6-8.3-3-9.7l0,0l-0.1-0.5c0,0,0,0-0.1,0l0,0c-3,6.1-3.9,11.3-3.9,15.7l0,0c0,0.8,0,1.6,0.1,2.4l0.1,2.1l-2-0.8
	c-0.3-0.1-0.7-0.3-1.1-0.3l0,0c-0.1,0-0.4,0-0.7,0.1c-1.1,0.1-1.7,1.1-2,1.6c-0.4,0.7-0.4,1.1-0.4,1.2l0,0l0,0l0,0l0,0l0,0v0.1
	c0,0.1-0.1,0.4-0.1,0.8c-0.1,0.7-0.3,1.6-0.4,2.8c-0.3,2.4-0.5,5.5-0.5,8.8c0.1,6.1,0.7,13,5.1,17.8c6.8,6.8,19,19.2,19.6,20l0,0
	l0.1,0.1c0.1,0.1,1.7,1.6,4.5,2.6l1.6,0.5l-0.9,1.4c-1.8,2.6-2.8,5.8-2.9,9.1c0,0.1,0,0,0,0.1l0,0v0.1c0,4.5,1.8,8.7,4.9,11.6
	l0.5,0.5c37.9,37,88.2,61.9,144,68.1l0.8,0.1l0.3,0.8c3.9,10.4,14,17.8,25.8,17.8c11.7,0,21.7-7.4,25.7-17.8l0.3-0.8l0.8-0.1
	c56.1-6.1,106.6-30.9,144.8-68.2l0.1-0.1c0,0,1.3-1.4,2.6-3.7c1.3-2.2,2.6-5,2.6-8.2c0-0.1,0-0.1,0-0.1c-0.1-3.2-0.9-6.3-2.6-9
	l-0.9-1.4l1.7-0.5c3.2-0.9,5.3-2.6,6.5-4.1c0.4-0.5,0.7-0.9,1.1-1.6c1.2-2.4,3.2-6.8,5.1-11.2c2-4.3,4.2-8.7,5.7-10.4
	c1.7-2.2,6.7-5.7,6.8-11.6c0-0.3,0-0.4,0-0.5c-0.1-2.4-1.1-4.5-2-6.3c-0.4-0.9-0.8-1.7-1.2-2.2c-0.1-0.1-0.1-0.3-0.3-0.4l-0.4-0.5
	l0.3-0.7c0.8-1.8,1.7-4.7,1.7-8.7l0,0c0-3.8-0.8-8.4-3.4-13.7l0,0l0,0l0,0l0,0l0,0v0.1c0,0.1-0.1,0.3-0.1,0.5
	c-0.1,0.5-0.3,1.2-0.5,2c-0.4,1.6-1.2,3.8-2.1,6.3c-0.8,2.1-1.7,4.2-2.9,6.3l-0.7,1.3l-1.2-0.9c-14.7-10.8-16.3-28.3-16.3-35.7
	c0-2.2,0.1-3.7,0.1-3.7l0.1-0.8l0.8-0.3c5.3-2.1,10.8-2.9,16.1-2.9c4.3,0,8.6,0.5,12.2,1.3h0.3l0.3,0.1c0.7,0.5,1.3,0.9,1.8,1.4
	c0.3,0.3,0.7,0.5,1.1,0.7l0.9,0.7l-1.1,0.8c-2,4.1-3.8,7-5.4,8.8c-1.3,1.6-2.5,2.6-3.3,3.2c-0.4,0.3-0.7,0.5-0.9,0.7
	c-0.1,0-0.1,0.1-0.3,0.1H515l0,0h-0.1h0.1c0,0,0,0,0.1,0l0,0c9.5-0.8,15.7-3.3,19.9-6.1l0.5-0.3l0.5,0.1c0.5,0.1,1.1,0.3,1.7,0.3
	c0.4,0,0.8,0,1.2,0c0.1,0,0.1,0,0.1,0l0,0c3.4,0,7-1.4,9.6-4.5c9.7-10.9,24.6-20.9,30.9-27.6c2.2-2.4,3.4-5.3,3.7-8.2l0,0
	L583.4,329.9z"/>
<path class="st1" d="M560.6,300.9c0,0-0.9,3.8-11.6-3.2c0,0,6.5,8.3,11.1,9.5C565,308.6,562.3,302.2,560.6,300.9z M550.9,285.3
	c0,0-0.1,4.6-9.1,1.4c0,0,4.3,6.7,10.5,8C558.8,296.1,554.5,289.1,550.9,285.3z M547.2,279.5c-6.8-9.2-10.3-12.5-12.9-29.8
	c-2.4-15.4-35.7,0-35.7,0c-16.5,4.1-22.8-0.1-25.1-3.3c0-0.1-0.7-0.5-0.3,0.3c9.1,20,28.8,9.6,28.8,9.6l3.7,3.7
	c-0.9-2.1-1.1-5.3-0.4-9.7c0.8-0.3,2.1-0.8,3.6-1.2c0.9,1.2,1.1,2,1.1,3.8c0.1,1.8-0.9,4.2-0.9,5.8c0,1.4,1.1,2.1,1.1,2.1
	c3.8-2.2,6.6-7.6,8-11.1c0.9,0.3,2,0.5,2.9,0.9c-1.8,9.5-8.2,13.7-11.8,12.6c-0.1,0-0.4-0.1-0.5-0.1c-11.6,5.3-4.7,6.7-4.7,6.7
	c9.6,0,18.3-6.6,18.3-6.6c3.2,1.6,6.6,9.3,6.6,9.3c3.6,0.4,9.6,3.6,9.6,3.6C544.3,282,547.2,279.5,547.2,279.5z M139,322.1
	c-0.3-1.4-22.6,4.5-40.9,19.4c0,0-4.1,3.2-3.8,4.6c0.5,2.8,3.8,1.1,4.6,0.1C113,332.3,139.2,323.6,139,322.1z M400.6,461.1l6.5,13.7
	l8.4,14.9v0.1l-22.6-25.1l-4.9,2.2l18,38.6l5.1-2.4l-6.6-14.2l-6.8-12.6l-1.4-2.4v-0.1l22.9,25.5l4.7-2.2l-18-38.6L400.6,461.1z
	 M87,290.1c-2.1,3.4-3.8,6.3-5.5,9.6l0,0c-1.8,3.6-4.9,9.3-6.2,11.8c3.4,0.7,7.1,0,11.1-2.9c0.4-11.1,11.1-34.2,11.1-34.2
	C94.3,278.3,89.7,285.5,87,290.1L87,290.1z M105.4,352.3c0,0-3.3,2.8-3.2,3.9c0.4,2.4,3,0.8,3.7,0.1c11.5-12,32.4-19.6,32.3-20.8
	C137.9,334.2,120,339.5,105.4,352.3z M248.5,168.1l15.7-6.7l-23.3-54.2l-15.7,6.7l0.3,0.7L248.5,168.1z M367.1,125.4l13.7,39.2
	l15.5,5.3l19-56l-16.1-5.4l-10.5,31.1L375,100.4l-15.5-5.3l-19,56l16.1,5.4L367.1,125.4z M299.4,155.1L299.4,155.1
	c1.2,0,2.4,0,3.6-0.1c17.5-1.6,29.5-14.6,29.5-31.7c0-1.2,0-2.4-0.1-3.6c-1.6-16.6-16.3-27.3-31.9-27.3c-1.1,0-2.1,0-3.2,0.1
	c-15.8,1.4-29.6,14-29.6,30.3c0,0.9,0,1.8,0.1,2.8C269.3,143.3,282.5,155.1,299.4,155.1z M298.7,108.8c0.5,0,0.9-0.1,1.4-0.1l0,0
	c7.6,0,14.2,5.8,14.9,12.6l0,0c0,0.5,0.1,1.2,0.1,1.7c0,8.4-5.9,14.9-13.6,15.5c-0.5,0-0.9,0-1.4,0c-7.6,0-14.2-5.8-15-14.5
	c0-0.4,0-0.8,0-1.1C285,116.2,290.9,109.5,298.7,108.8z M407.1,170.1c2.6,7,7,13.2,13.3,17.5c4.3,3,9.6,5,15,5c0.7,0,1.3,0,2-0.1
	c6.3-0.7,11.1-4.9,14.3-9.7c2.1-3,3-6.1,3-8.8c0-4.7-2.5-9.1-5.8-13.2l-2.5-3c-0.9-1.2-1.8-2.4-2.4-3.6c-0.3-0.7-0.4-1.3-0.4-1.8
	c0-1.7,1.3-2.6,3.3-2.6c1.1,0,2.4,0.4,3.6,1.2c2.9,2,4.6,5,5.5,8.4l0.3,0.9l13.6-7.2l-0.3-0.7c-2.6-5.5-7.4-11.2-12.5-14.7l0,0
	c-3.9-2.8-8.3-4.1-12.4-4.1c-6.2,0-12,3-16.1,9c-2.4,3.4-3.4,6.6-3.4,9.3c0,5,3.2,9.1,7,13.8c1.6,1.8,4.2,5,4.2,7.4
	c0,0.7-0.1,1.2-0.5,1.7c-0.9,1.3-2.1,1.8-3.4,1.8c-1.3,0-2.9-0.5-4.2-1.4c-4.1-2.8-5.9-7.4-7.1-12.1L421,162l-14.1,7.2L407.1,170.1z
	 M210.8,194.9l26.9-22l-9.3-11.5l-13.7,11.2l-28-34.2l-13.2,10.8l0.5,0.7L210.8,194.9z M556.4,309.3c10.1,11.1,10.3,3.9,10.3,3.9
	C564.3,314.9,556.4,309.3,556.4,309.3z M584.7,329.9c0-5-2-9.7-4.6-14.7l0,0l0,0l0,0l0,0c-12-22.8-27.9-46.7-32.5-52.4
	c-0.8-1.3-1.8-4.5-2.2-8c-0.4-3.8-0.3-7.6-0.5-10c-0.3-2.2-1.4-3.7-2.8-5.5c-1.3-1.8-3-3.9-4.7-6.3c-2.5-3.4-5.1-7.2-7.2-10.3
	c-2.1-3-3.7-5.4-3.8-5.7c-1.1-1.7-2-3.2-2.2-3.7c0-0.1-0.1-0.3-0.1-0.4c0.3-1.6,0.7-4.2,0.7-7.4c0-0.1,0-0.1,0-0.3
	c0-9-3.6-23.4-20-32.8c-3.8-2.2-7.4-4.3-10.4-6.2c3.2-3.2,5.1-7.6,5.1-12.2l0,0v-0.1l0,0c0-4.9-2-9.5-5.4-12.6l-0.5-0.5
	c-44.2-43.2-105.1-69.9-171.9-69.9l0,0c0,0,0,0-0.1,0l0,0h-0.1c-67,0-127.7,26.7-172.2,70l-0.1,0.1c-3.4,3.3-5.5,7.8-5.5,12.8l0,0
	c0,0,0,0,0,0.1l0,0c0,3.3,1.1,6.6,2.8,9.3c-2,1.1-4.6,2.4-7.1,3.9c-4.1,2.6-8.3,5.5-10.1,9.5c-1.4,3.3-1.3,4.7-2.4,7.4
	c-0.9,2.5-2.8,5.9-4.3,9c-1.7,3-3.2,5.7-3.8,7.1c-0.9,2-1.1,4.1-1.1,6.3c0,2.4,0.3,4.7,0.5,6.2c-5.3,3.8-16.5,14.2-16.5,33.2
	c0,2,0.1,3.9,0.4,6.1c-5.9,7.5-31.6,39.8-39.6,60.2c-0.5,1.4-4.2,5.3-4.2,12v0.1c-0.1,4.2,1.3,8.8,6.1,13.3l1.6,1.4l0.3,0.3
	c0.1,0.1,0.8,0.7,2.9,2c5.8,3.6,18,12.4,23.8,25.7c0,0.1,0.1,0.4,0.3,0.7c0.3,0.4,0.4,0.9,1.2,1.7c0.7,0.5,0.8,0.4,1.1,0.5
	c0.7,0.1,1.2,0.3,2,0.4c2.2,0.3,5.7,0.5,5.7,0.5h0.5c0.4,0,0.8-0.1,1.2-0.3c0.3,0.3,0.4,0.5,0.7,0.7c3.2,3,8.7,6.1,18.2,6.3l0,0
	c0.7,0,1.3-0.5,1.4-1.2c0.1-0.7-0.4-1.3-1.2-1.6l0,0c-0.4-0.1-3.8-1.8-7.6-11.6c5.9-3.2,14.3-7.1,24.2-9.5c2.6,1.3,5.1,2.8,6.5,4.5
	c0,0-5.1,13-2,27.3c0,0-6.2,4.3-8.7,10.9c-0.4,0.3-0.8,0.4-1.2,0.7c-0.5-1.2-0.9-2.2-1.4-3.3c-2.1-5.5-3-10-3-10
	c-0.1-0.5-0.7-1.1-1.2-1.1c-0.5-0.1-1.2,0.3-1.4,0.8c-3,6.3-4.1,11.7-4.1,16.3c0,0.8,0,1.6,0.1,2.4c-0.4-0.1-0.9-0.3-1.6-0.3
	c-0.3,0-0.5,0-0.9,0.1c-1.6,0.3-2.5,1.4-2.9,2.2c-0.4,0.8-0.5,1.3-0.7,1.6v0.1c0,0-1.2,6.1-1.2,12.9c0.1,6.2,0.7,13.6,5.5,18.7
	c7.1,7.1,19.7,20.1,19.7,20.1l0.1,0.1c0.1,0.1,2,1.8,4.9,2.9c-2,2.8-3,6.3-3,9.9c0,0,0,0,0,0.1l0,0c0,4.9,2,9.5,5.4,12.6l0.5,0.5
	c38.2,37.3,88.6,62.3,144.8,68.5c4.1,10.9,14.6,18.7,27,18.7s22.8-7.8,27-18.6c56.3-6.1,107.2-31.1,145.6-68.7l0.1-0.1
	c0.1-0.1,1.3-1.6,2.8-3.8c1.3-2.2,2.8-5.3,2.8-8.8c0-0.1,0-0.1,0-0.1c-0.1-3.4-1.1-6.8-2.9-9.6c3.4-1.1,5.7-2.9,7.1-4.6
	c0.5-0.7,0.8-1.1,1.2-1.8c1.3-2.5,3.2-6.8,5.1-11.2c2-4.3,4.2-8.7,5.5-10.1c1.3-1.8,7-5.7,7.1-12.4c0-0.3,0-0.4,0-0.7
	c-0.1-2.6-1.2-4.9-2.1-6.8c-0.4-0.9-0.9-1.7-1.2-2.2c-0.1-0.1-0.1-0.3-0.3-0.4c0.8-2,1.8-5,1.8-9.2c0-3.9-0.9-8.8-3.6-14.3
	c-0.3-0.5-0.8-0.8-1.4-0.8c-0.5,0.1-1.1,0.5-1.2,1.1c0,0-0.8,3.9-2.6,8.8c-0.8,2-1.7,4.1-2.8,6.2c-18.4-13.4-15.7-38.2-15.7-38.2
	c9.5-3.8,19.5-3.2,27.5-1.6c0.7,0.5,1.3,0.9,2,1.4c0.4,0.3,0.7,0.5,1.1,0.7c-1.8,4.1-3.7,6.7-5.3,8.6c-1.3,1.6-2.4,2.4-3,2.9
	c-0.4,0.3-0.7,0.4-0.8,0.5c-0.1,0-0.1,0.1-0.1,0.1l0,0c-0.7,0.3-1.1,0.9-0.9,1.6c0.1,0.7,0.7,1.1,1.3,1.1h0.1
	c9.6-0.8,16.2-3.4,20.5-6.2c0.7,0.1,1.2,0.3,1.8,0.3c0.4,0,0.8,0,1.3,0c0.1,0,0.1,0,0.1,0c3.8,0,7.6-1.6,10.5-4.9
	c9.5-10.7,24.4-20.8,30.8-27.6C583.3,337.4,584.7,333.7,584.7,329.9L584.7,329.9L584.7,329.9L584.7,329.9z M155.3,148.2l0.4-0.4
	c42.7-41.6,101-67.3,165.4-67.3h0.3c64.4,0,122.7,25.7,165.4,67.3l0.4,0.4c1.4,1.4,2.4,3.4,2.4,5.7c0,2.1-0.8,4.1-2.4,5.5l-4.5,4.3
	c-0.9,0.9-1.3,2.1-1.3,3.4c0,0.4,0,0.8,0.1,1.1l0,0c0.5,2.2,0.8,4.5,0.8,6.7c0,15.9-12.9,28.7-28.7,28.7c-2.1,0-4.2-0.3-6.2-0.7l0,0
	H447c-0.4-0.1-0.8-0.1-1.2-0.1c-1.3,0-2.5,0.5-3.4,1.4h-0.1l-3.9,3.9c-1.4,1.4-3.4,2.5-5.7,2.5c-2.2,0-4.2-0.9-5.7-2.5
	c-15.3-15.3-33.8-27.3-54.6-34.9c-16.1-5.9-33.3-9.2-51.3-9.2c-18,0-35.3,3.3-51.3,9.2c-20.8,7.6-39.4,19.6-54.6,34.9
	c-1.4,1.6-3.4,2.5-5.7,2.5c-2.2,0-4.2-0.9-5.7-2.5l-3.9-3.9l-0.1-0.1c-0.9-0.9-2.1-1.4-3.4-1.4c-0.4,0-0.8,0-1.2,0.1h-0.3l0,0
	c-2,0.4-4.1,0.7-6.2,0.7c-15.8,0-28.7-12.9-28.7-28.7c0-2.4,0.3-4.6,0.8-6.7l0,0c0.1-0.4,0.1-0.7,0.1-1.1c0-1.3-0.4-2.5-1.3-3.4
	l-4.5-4.3c-1.4-1.4-2.4-3.4-2.4-5.5C152.9,151.6,153.8,149.5,155.3,148.2z M452.8,221.1c0,0,0.4,12.6,9.2,17.6
	C458.7,238.7,447,240.5,452.8,221.1z M457.8,311.8c0,37.8-15.3,71.9-40,96.6c-24.7,24.7-58.8,40-96.6,40s-71.9-15.3-96.6-40
	c-24.7-24.7-40-58.8-40-96.6s15.3-71.9,40-96.6s58.8-40,96.6-40s71.9,15.3,96.6,40S457.8,274.1,457.8,311.8z M118.4,374.1
	c-6.1-0.9-9.6-3-11.8-5.1c-0.3-0.3-0.1-0.3-0.4-0.4l0.8-0.5c0,0,1.4-1.1,4.1-2.6c0.5-0.4,1.2-0.7,1.8-1.1
	C115,369.1,116.9,372.3,118.4,374.1z M128.2,387.7c1.3,4.9,4.2,13,9,19c-1.2,0.7-3.7,1.7-6.3,1.7c-1.1,0-2.2-0.1-3.3-0.7
	c-0.8-2-1.6-4.9-1.6-8.8C126.1,395.8,126.6,392,128.2,387.7z M146.6,416.9c0,0-0.8,1.6-0.4,4.3c0,0-7.1-1.2-8.7-3.9
	c0,0,0.4,6.7,1.6,11.8c0,0-9.5-10.3-10.7-13.4c0,0,0.8,13,4.7,20.1c0,0-9.2-6.7-8.6-25.3l0,0c1.1,0.5,2.1,0.9,3.2,1.2l0,0
	c0.5,0.1,0.9,0.3,1.4,0.3c0.1,0,0.1,0,0.3,0c0.5,0,0.9,0.1,1.3,0.1c3.9,0,7.2-1.6,8.6-2.4c0.8,0.1,1.6,0.1,2.2,0.1
	c4.1,0,6.8-1.7,8.3-3.6c0.5-0.7,1.1-1.3,1.3-2c1.4,0.3,2.9,0.4,4.2,0.4c6.1,0,10.3-2.5,12.9-5c1.7-1.6,2.9-3.3,3.4-4.2
	c10.5-2.5,13.2-11.2,13.2-11.5l0.1-0.3v-0.3c-1.6-23.8-12.1-34.1-12.4-34.4l-0.4-0.4l-0.5-0.1c-4.7-1.1-9.5-1.6-14.1-1.6
	c-1.1,0-2.1,0-3.3,0.1c-0.3,0-0.5,0-0.8,0c-1.1,0-2.1,0.1-3.2,0.3l0,0c-1.1,0.1-2.1,0.3-3.2,0.4c-0.3,0-0.5,0.1-0.8,0.1
	c-1.1,0.1-2,0.3-3,0.5l0,0c-1.1,0.1-2,0.4-3,0.7c-0.3,0-0.5,0.1-0.8,0.1c-0.9,0.3-1.8,0.4-2.8,0.7l0,0c-0.9,0.3-1.8,0.5-2.8,0.8
	c-0.3,0.1-0.5,0.1-0.7,0.3c-0.9,0.3-1.7,0.5-2.6,0.8l0,0c-0.9,0.3-1.7,0.7-2.6,0.9c-0.3,0.1-0.4,0.1-0.7,0.3
	c-0.8,0.3-1.6,0.7-2.4,0.9l0,0c-0.8,0.3-1.6,0.7-2.4,1.1c-0.1,0.1-0.4,0.1-0.5,0.3c-0.8,0.3-1.4,0.7-2.1,0.9l0,0
	c-0.7,0.4-1.4,0.7-2.1,1.1c-0.1,0.1-0.4,0.1-0.5,0.3c-0.7,0.3-1.2,0.7-1.8,0.9h-0.1c-0.7,0.3-1.2,0.7-1.7,0.9
	c-0.1,0.1-0.3,0.1-0.5,0.3c-0.5,0.3-0.9,0.5-1.4,0.8c0,0-0.1,0-0.1,0.1c-3,1.7-5.3,3.2-6.2,3.8l-7.8-0.9c-0.4-0.9-0.8-1.7-1.3-2.5
	c-0.1-0.1-0.1-0.3-0.3-0.5c-0.4-0.8-0.9-1.6-1.3-2.4c-0.1-0.1-0.1-0.3-0.3-0.4c-0.4-0.8-0.9-1.4-1.4-2.1c0,0,0-0.1-0.1-0.1
	c-0.5-0.8-1.1-1.4-1.6-2.1c-0.1-0.1-0.1-0.3-0.3-0.4c-0.5-0.7-1.1-1.3-1.6-2c0-0.1-0.1-0.1-0.1-0.3c-0.5-0.7-1.1-1.3-1.7-1.8
	l-0.1-0.1c-0.5-0.7-1.2-1.2-1.7-1.8l-0.3-0.3c-0.5-0.5-1.2-1.2-1.7-1.7l0,0l3-1.1c3.9-13,17.4-13.4,17.4-13.4
	c-1.6-9.9,2.4-17.8,2.4-17.8l-7.1,6.3c-17.5,1.4-27.5,7.4-33,12.5l0,0c-1.3-1.7-2-3.2-2.4-4.7c0-0.1,0-0.3-0.1-0.4
	c0-0.1-0.1-0.4-0.1-0.5s0-0.4-0.1-0.5c0-0.1,0-0.3,0-0.4c0-0.3,0-0.7,0-0.9c0-2.5,0.8-4.7,1.7-6.3c0.4-0.8,0.8-1.4,1.2-1.8
	c0.3-0.4,0.5-0.7,0.5-0.7l0.3-0.3l0.1-0.3c3.9-10.5,14-25.7,23-38c9-12.4,17-22.1,17-22.1l0.5-0.7L108,253c-0.4-2.5-0.5-4.9-0.5-7.1
	c0-10.4,3.9-17.6,7.9-22.4c2-2.4,3.9-4.1,5.4-5.3c0.8-0.5,1.3-0.9,1.7-1.2s0.7-0.4,0.7-0.4l1.1-0.5l-0.8-11.3
	c6.2-10.8,11.1-24,12.2-27.1c1.1-0.5,2.1-1.1,3-1.7c0.3-0.1,0.7-0.4,0.9-0.5c0.7-0.4,1.3-0.8,2-1.2c0.4-0.3,0.7-0.4,1.1-0.7
	c0.5-0.4,1.2-0.7,1.7-1.1c0.3-0.3,0.7-0.4,0.9-0.7c0.5-0.4,1.1-0.7,1.6-1.1c0.3-0.1,0.5-0.4,0.8-0.5c0.5-0.4,1.1-0.7,1.4-1.1
	c0.1-0.1,0.4-0.3,0.5-0.4c1.2-0.9,2.2-1.7,3.2-2.4l1.1,1.1c-0.5,2.4-0.7,4.7-0.7,7.1c0,0,0,0,0,0.1c-4.1,2.1-8.6,4.1-13.4,5.8
	l-7.5,14.7c0,0,9.5-0.8,12.2,12.6c0,0,5.8-8.2,15-12.9c0.4,0.5,0.8,1.2,1.3,1.7c-4.1,2.9-8.2,7.1-10,13.2l3.6,1.6
	c0,0,6.2-5,13.6-7.9c1.3,1.1,2.8,1.8,4.3,2.8c-4.5,2.5-9.3,5.7-11.2,8.3l2.4,2.4c0,0,10.7-5.9,12.6,5.5c2,11.5-10.3,13.4-13.8,13.4
	c0,0,0.4,4.3,4.7,8.7c0,0-9.5,7.5-22.9,0c-13.4-7.5-18-6.6-29.5-3.8c0,0-4.2,5.9-1.7,13c-2.6,2.5-3.9,2.2-6.7,10
	c-1.2,5-6.3,8.6-6.3,8.6s13.8,1.2,25.3-11.5c0,0,8.7,9.5,21.7-6.7c0,0,10.3,9.1,26.9-1.2c0,0-7.9,8.7-21.7,8.3c0,0,6.7,6.3,9.1,12.6
	c0,0-5.1-4.7-17.4-5.9c0,0,1.6,9.1,7.1,14.6c0,0-7.1-5.9-20.1-3.6c0,0,11.5,16.6,28.8,18.2c0,0-6.7,2.4-9.9,5.9c0,0,6.7,4.3,17,0.8
	c0,0-10.7,5.9-15.4,7.9c0,0,7.1,2.4,22.5-2.4c0,0.8,0,1.4,0,2.2c0,0.7,0,1.2,0,1.8c-0.3,2.8-0.8,6.6-2.8,10.1c0,0-7.1-6.3-14.2-7.9
	c0,0,8.3,11.5,3.6,24.5c0,0,2.9,4.6,14.6,4.1c0.9,0,1.7,0,2.4,0c3.4,15.4,9.3,29.9,17.2,43.2c-2.6,0.9-4.9,1.6-6.3,1.7l7.1,3.9
	c0,0-11.5,3.9-16.6,4.7c0,0,2.8,2.8,5.1,4.3c0,0-13.8,6.3-19.4,5.9c0,0,3.2,3.2,4.7,3.6c0,0-9.1,2.4-11.8,0.8l-0.8,6.3
	C156.5,418.9,148.6,419.7,146.6,416.9z M158.6,359c1.2-1.3,4.2-1.4,5.5-0.5c3,2.4,0.8,4.5-1.6,9c-3.8,7.2,1.3,12.4-2.5,19.6
	c-3.8,7.4-8.4,9.3-10.1,8c-2.5-2,1.2-5.9,2.5-9.2C155,379.1,149,369.1,158.6,359z M135.4,249.6c0,0,0.1-0.1,0.4-0.1
	c0.8,0.3,1.4,0.5,2,0.7c1.1,8-0.4,11.8-3.8,12.9c-3.7,1.1-10-3-11.8-12.6c0.8-0.3,1.7-0.5,2.6-0.8c1.2,3.7,3.8,9.5,7.4,11.6
	c0,0,0.8-0.4,0.7-1.3C132.6,257.1,131.9,251.2,135.4,249.6z M488.2,474.3c-0.3,0.4-1.1,1.2-1.2,1.6c-39,40.3-92,62.5-146.7,66.7
	c-0.8,10-9.1,17.9-19.4,17.9c-10.1,0-18.6-7.9-19.4-17.9c-54.6-4.2-107.7-26.5-146.7-66.7c-0.3-0.3-0.9-1.2-1.2-1.6
	c-1.1-1.3-1.3-2.6-1.3-4.5c0-2.8,2-4.9,3.6-6.5c1.6-1.6,3.4-3.4,3.4-3.4s0.8-0.9,1.1-1.8c0.3-0.9,0.1-1.8,0-2.1
	c-0.7-2.2-0.9-4.6-0.9-7.1c0-15.7,12.6-28.4,28.3-28.4c2.4,0,4.7,0.3,7,0.9c0.4,0.1,0.9,0.1,2.1,0c1.4-0.3,1.8-0.9,2.2-1.3
	c0.4-0.4,2.4-2.6,4.2-4.3c1.8-1.7,3.6-3,6.1-3c2.9,0,4.9,1.6,6.7,3.7c13.3,13.8,29.2,24.2,46.6,31.3c17.8,7.6,37.4,11.8,57.9,11.8
	c20.5,0,40.2-4.2,57.9-11.7c17.4-7.1,33.3-17.5,46.7-31.5c1.8-2.1,3.9-3.7,6.7-3.7c2.5,0,3.9,1.1,6.1,3c2.2,2,3.7,3.7,4.2,4.3
	c0.5,0.7,0.8,1.1,2.2,1.3c0.9,0.3,1.7,0.1,2.1,0c2.2-0.5,4.6-0.9,7-0.9c15.7,0,28.3,12.8,28.3,28.4c0,2.5-0.4,4.9-0.9,7.1
	c-0.1,0.4-0.3,1.2,0,2.1c0.3,0.9,1.1,1.8,1.1,1.8s2.1,2.1,3.4,3.4c1.3,1.4,3.6,3.8,3.6,6.5C489.5,471.7,489.3,473,488.2,474.3z
	 M516.3,391.2c1.3,3.6,1.7,6.7,1.7,9.3c0,3.2-0.7,5.7-1.2,7.2c-0.1,0.1-0.1,0.4-0.3,0.5l-1.3,0.4c-1.3,0.4-3.7,0.7-4.9,0.7
	c-1.1,0-2.4-0.3-3.4-0.5C511.9,404,514.8,396.1,516.3,391.2z M510.1,413.3c1.7,0,3.3-0.1,4.9-0.4c0.5,0.9,1.2,2.2,1.8,4.2
	c1.1,4.6-0.9,4.9-2,5.4c-11.6,4.6-12,19.7-18.7,17c-8-3.3,1.7-25.4,1.7-25.4s-15.7,5.8-19,3.3s2.8-9.5,2.8-9.5s-13.6,3.4-16.3,1.4
	s2-9,2-9s-9.3,4.5-13.4,2.2c-4.2-2.2,3.9-10,3.9-10s-8.8,3.7-11.6,1.4c-0.7-0.5-0.8-1.4-0.7-2.4c3.8-5.8,7.1-12,10-18.3
	c0,0,0,0,0,0.1c-0.1,0.5-0.3,1.2-0.3,1.7l0,0c-0.3,2-0.5,4.1-0.5,6.1c0,3.7,0.7,7.2,2.9,9.9c3.3,3.7,11.7,9,21.9,13.7
	C489.3,409.4,500.9,413.3,510.1,413.3z M495.3,402.6c-0.3,0.3-10.4-2.4-16.1-12.8c-5.7-10.4,2.8-11.7-3.8-16.5
	c-6.6-4.7-7.8-10.9-2.4-12.8c2.8-0.9,5.1-0.5,9.9,2.4c4.7,2.8,3.8,7.5,4.2,21.2C487.8,397.9,495.6,402.3,495.3,402.6z M519.8,375.4
	c1.8-2,4.1-5.1,6.3-9.9c2.8,1.8,5.8,3.4,8.8,4.2C531.8,372,526.9,374.2,519.8,375.4z M578.3,330.8L578.3,330.8
	c0,0.3-0.1,0.7-0.1,0.9l-4.5-3.7l-2.4,2.4c-11.2-9.6-20.5-7.2-20.5-7.2l-11.2,7.2c15.3,0.9,18.7,11.7,19,20.5l0,0
	c-1.1,0.9-2.2,1.8-3.3,2.9c-0.1,0.1-0.3,0.3-0.4,0.3c-1.1,0.9-2.1,1.8-3,2.8c-0.1,0.1-0.1,0.1-0.3,0.3c-1.1,0.9-2,2-3,2.9
	c-0.3,0.3-0.4,0.4-0.7,0.7c-0.9,1.1-2,2-2.9,3c-1.8,2.1-3.7,2.8-5.9,2.8c-3.3,0-7.4-1.8-11.3-4.5c-0.9-0.5-1.8-1.2-2.6-1.8
	c-4.7-3.4-8.7-7-11.7-8.3c-3.3-1.3-11.5-3.3-21.3-3.3c-0.7,0-1.3,0-1.8,0c-0.3,0-0.7,0-0.9,0c-0.4,0-0.7,0-1.1,0s-0.8,0-1.2,0.1
	c-0.3,0-0.4,0-0.7,0c-0.5,0-0.9,0.1-1.4,0.1c-0.1,0-0.3,0-0.5,0c-0.5,0-1.1,0.1-1.6,0.3c-0.1,0-0.1,0-0.3,0
	c-0.7,0.1-1.2,0.1-1.8,0.3h-0.1c-6.5,1.2-13.2,3.6-19,8c0.7-2.1,1.3-4.1,1.8-6.2c8.2-3.9,21.5-8.2,39.9-6.1c0,0-11.3-3.6-28.6-2.5
	l-2.9-3.6c0,0-2.8,1.4-6.3,4.2c0.4-1.6,0.7-3.2,0.9-4.6c4.3-2.8,9-3.9,9-3.9l3.2-10.4c-0.9-0.1-4.6-1.8-9.9-4.7
	c0.1-1.8,0.1-3.7,0.1-5.7c7.2,3.2,13.3,5.9,15.8,7.1c0,0-2.4-7.6,11.2-9.2c0,0-12.6-2.1-27.1-5c0-1.1-0.1-2.1-0.1-3.2
	c18.2,2.2,36.2,1.4,47.3-6.7c0,0-9.6,2-20.5,1.2c0,0,10.4-3.2,18.8-13.3c0,0-9.6,4.9-24.1,3.6c0,0,14.5-7.2,18.8-13.7
	c0,0-17.2,6.8-29.4,6.8c0,0,11.2-4.5,16.1-9.2l-14.7,1.2l3.9-6.1c0,0-19.4-5.7-23.3-21.7l7.1,0.9c0,0-5.9-21.6,6.8-27.8
	c-1.6-1.6-13-4.9-13-4.9s13.3-0.9,19.2,1.6c0,0-1.1-2.1-4.1-4.2c-2.9-2.2-7-3.6-7-3.6s14.9-0.8,19.2,3.6c0,0-4.5-8-8-10.8
	c0,0,8.8,2.8,14.1,8.8l3.6-0.4c0,0-0.8-8.4-4.9-15.3c0,0,8,6.1,11.6,15.7c0,0,2.9,4.1,10.7,3.2l-0.1,0.5l0.3,0.7c0,0,1.2,2.9,3,6.3
	c1.8,3.2,4.1,6.7,7.2,8.7c0.4,1.2,1.3,3.6,2.8,6.3c1.8,3.4,4.5,7.2,8.2,9.6v0.3c0,2.1,0.1,6.2,0.5,10.4c0.5,4.2,1.3,8.4,3.4,11.2
	c3.8,4.6,20.1,29,31.9,51.5c2.5,4.7,3.9,8.7,3.9,11.8C578.3,330.3,578.3,330.5,578.3,330.8z M321.2,187.4
	c-68.7,0-124.4,55.7-124.4,124.4s55.7,124.4,124.4,124.4s124.4-55.7,124.4-124.4S389.8,187.4,321.2,187.4z M392.9,385.3H270.2V369
	h5.5c6.1,0,10.8-5,10.8-10.9l-0.1-105.3c0-6.1-4.9-10.9-10.9-10.9h-5.1v-12.4h71.2v12.4h-5.7c-6.1,0-10.9,5-10.9,10.9v112.7h35.5
	c4.9,0,9.2-4.7,8.8-9.6c-0.1-1.4-0.3-3.7-0.3-5.3c0-9.3,5.4-17.6,13.6-21.7l8,8c-4.2,3.8-6.8,9.3-6.8,15.5c0,7.2,3.7,13.6,9.2,17.4
	L392.9,385.3z M102.5,346.7c0,0-3.7,3-3.4,4.3c0.4,2.6,3.4,0.9,4.2,0.1c12.9-13.3,36.3-21.7,36.1-23
	C139.1,326.7,119,332.5,102.5,346.7z M456.5,468.8l-24.2-28.8l-4.3,3.7l27.4,32.6l11.6-9.7l-3.2-3.8L456.5,468.8z M318.8,480.2
	l-8.6,42.7l5.5-0.1l1.4-8.3l8.4-0.1l1.7,8.3l5.7-0.1l-9.9-42.4L318.8,480.2z M324.7,510l-6.7,0.1l3-21.7h0.1l2.4,15.4L324.7,510z
	 M348.3,478.1l-18.6,2.2l0.7,4.9l6.6-0.8l4.6,37.4l5.7-0.7l-4.6-37.4l6.3-0.8L348.3,478.1z M321.2,528.9c-6.6,0-11.8,5.3-11.8,11.8
	c0,6.6,5.3,11.8,11.8,11.8c6.6,0,11.8-5.3,11.8-11.8C332.9,534.2,327.6,528.9,321.2,528.9z M321.2,550.1c-5.1,0-9.3-4.2-9.3-9.3
	s4.2-9.3,9.3-9.3c5.1,0,9.3,4.2,9.3,9.3C330.4,545.9,326.3,550.1,321.2,550.1z M372.9,471.8c-10.4,3.4-6.2,16.9-3.8,24.2
	c2.4,7.2,6.8,20.7,17.2,17.4c10.4-3.4,6.2-16.9,3.8-24.2C387.8,481.8,383.3,468.4,372.9,471.8z M384.8,508.3
	c-4.2,1.3-7.1-5.5-9.9-14.1s-4.5-15.9-0.3-17.2c4.2-1.3,7.1,5.5,9.9,14.1C387.3,499.6,389,506.8,384.8,508.3z M127.4,283
	c-1.1,22.2,17.5,14.9,17.5,14.9C133,293.9,127.4,283,127.4,283z M414.9,452.7l15.4,40.7l4.6-3l-3.2-7.8l7.1-4.6l5.8,6.1l4.7-3.2
	l-30.8-30.7L414.9,452.7z M421.2,458.5l10.3,11.8l4.3,4.6l-5.7,3.7L421.2,458.5L421.2,458.5z M352.5,477.3l8.2,41.7l5.5-1.1
	l-8.2-41.7L352.5,477.3z M323.7,540.9c1.3-0.5,2.2-1.7,2.2-3.6c0-2.5-1.8-4.2-5-4.2c-1.3,0-2.6,0.3-3.8,0.8l-0.3,0.1v13.2h2.6v-5.5
	h0.7c0.9,0,1.2,0.3,1.6,1.1l2.1,4.5h2.9l-2.5-5.1C324.2,541.7,323.9,541.3,323.7,540.9z M320.6,539.5h-1.1v-3.7
	c0.4-0.1,0.9-0.1,1.4-0.1c1.8,0,2.4,0.7,2.4,1.8C323.3,538.9,322.6,539.3,320.6,539.5z M502.3,317.4c-0.1,0.9,4.9,2.1,11.3,6.1
	c6.3,3.8,13.8,10.5,22.2,17.8c0.8,0.5-0.1,1.7-0.4,1.4c-22.2-17.2-44.2-19.9-44-17c0.1,1.2,5,1.2,11.3,3.6
	c9.1,3.4,21.5,9.7,30.5,16.3c0.7,0.4-0.1,1.1-0.5,0.9c-25.8-9.1-49.1-14.3-48.8-11.2c0.1,1.3,7.4,1.4,16.5,3.9
	c12.4,3.6,28.7,9.7,39.5,13.8c0.3-0.1,1.8,0.4,4.9-2.2c2.5-2.4,2.1-3.6,2.1-3.6C523,320.9,503,314.2,502.3,317.4z M204.9,435.7
	l-28.4,31.6l4.2,3.8l28.4-31.6L204.9,435.7z M224.9,451.4l-8.7,12.4l-8.7,14.7h-0.1l10.4-32.1l-4.5-3.2L189,478.1l4.6,3.3l9-12.8
	l7.5-12.1l1.3-2.5h0.1l-10.7,32.5l4.3,3l24.4-34.9L224.9,451.4z M151.5,329.2c-3.3-10.4-11.1-13-11.1-13c8.7,16.6,2.5,27.8,2.5,27.8
	s9.2,1.1,15-3.7c4.5-13.8-5.9-25.5-5.9-25.5C153.3,321.1,151.5,329.2,151.5,329.2z M300.8,494.4l-1.1,17.1l-0.1,0.1l-5.3-33.4
	l-5.4-0.8l-5.9,42.1l5.5,0.8l2.2-15.5l1.2-14.2v-2.8l0.1-0.1l5.3,33.8l5.1,0.8l5.9-42.1l-5.5-0.8L300.8,494.4z M273.9,473.8
	l-6.6-1.7l-11.1,41.1l5.4,1.4l5.4-20.1h0.1l2,22.1l5.7,1.6l-2.2-22c4.7,0.4,7.5-5.1,8.6-9.1C284,476.7,278,474.8,273.9,473.8z
	 M275.2,486.7c-1.1,4.1-3.3,6.3-7.2,5l3.7-13.6l0.9,0.3C276.7,479.3,276.3,482.7,275.2,486.7z M254.8,492.1l1.8-4.6l-7.9-3.2l5-12.4
	l8.8,3.6l1.8-4.6l-14.1-5.7l-15.9,39.5l14.1,5.7l1.8-4.6l-8.8-3.6l5.4-13.4L254.8,492.1z M245.5,468.6l2.4-4.3l-16.5-8.8l-2.4,4.3
	l5.9,3.2l-17.6,33.2l5,2.6l17.6-33.2L245.5,468.6z"/>
</svg>
