<?xml version="1.0" encoding="UTF-8" standalone="no"?>
<!-- Generator: Adobe Illustrator 26.1.0, SVG Export Plug-In . SVG Version: 6.00 Build 0)  -->

<svg
   version="1.1"
   x="0px"
   y="0px"
   viewBox="0 0 3977.7 2776.3"
   style="enable-background:new 0 0 3977.7 2776.3;"
   xml:space="preserve"
   id="svg43"
   sodipodi:docname="Robocat_V2_new.svg"
   inkscape:version="1.3.2 (091e20ef0f, 2023-11-25, custom)"
   xmlns:inkscape="http://www.inkscape.org/namespaces/inkscape"
   xmlns:sodipodi="http://sodipodi.sourceforge.net/DTD/sodipodi-0.dtd"
   xmlns="http://www.w3.org/2000/svg"
   xmlns:svg="http://www.w3.org/2000/svg"><defs
   id="defs43" /><sodipodi:namedview
   id="namedview43"
   pagecolor="#505050"
   bordercolor="#eeeeee"
   borderopacity="1"
   inkscape:showpageshadow="0"
   inkscape:pageopacity="0"
   inkscape:pagecheckerboard="0"
   inkscape:deskcolor="#505050"
   inkscape:zoom="0.24043107"
   inkscape:cx="1846.6831"
   inkscape:cy="1615.8477"
   inkscape:window-width="2244"
   inkscape:window-height="1455"
   inkscape:window-x="0"
   inkscape:window-y="0"
   inkscape:window-maximized="1"
   inkscape:current-layer="robocat" />
<style
   type="text/css"
   id="style1">
	.st0{fill:#090203;}
	.st1{fill:#6E04AA;}
	.st2{fill:#F4FA04;}
	.st3{fill:none;stroke:#100906;stroke-miterlimit:10;}
	.st4{fill:#100906;}
	.st5{fill:#6E04AA;stroke:#090203;stroke-miterlimit:10;}
	.st6{fill:none;stroke:#090203;stroke-width:2;stroke-miterlimit:10;}
</style>
<g
   id="Layer_1">
	<g
   id="robocat">
		<path
   class="st0"
   d="M838.6,2053.8c-17.2,14.7-28.8,34.1-43,51c-14.1,16.8-27.3,34.2-41.9,49.8c-4.8,0.4-6.9-2.2-8.1-5.3    c-2.6-6.9-4.5-13.9-4.4-21.4c0.2-15.3,0.2-30.7,0-46c-0.1-10.2,2.7-19.8,5.5-29.3c12.1-42.2,24.5-84.3,36.7-126.5    c0.7-2.5,1.5-5.2-0.2-7.7c-3.7-2.4-6.1,0.5-8.5,2.5c-25.9,21.6-47.1,47-62.5,77.1c-2.7,5.3-5.6,10.6-10.2,14.7    c-4.6,4.1-10.9,2.4-12.5-3.6c-0.7-2.6-1-5.2-1-7.9c-0.1-17.3-0.9-34.7,0.3-52c0.9-12.5,4-24.9,7.4-37c4.2-15.4,9.7-30.4,14.7-45.6    c1.3-3.9,1.8-7.8,0.5-11.4c-2.4-3.3-5.8-3.1-9.1-3.5c-63.8-6.8-127.8-2.5-191.6-3.6c-24.8,5.2-50.3,2.8-75.3,7.4    c-16.9,3.1-34.3,3.2-51.5,4.5c-3.3,0.3-6.9-0.5-9.9,0.4c-14.3,4.4-29.1,3.5-43.7,3.3c-27.3-0.3-54.5,2.6-81.5,5.6    c-22.7,2.5-45.2,1.9-67.7,2.8c-8,0.3-16-1.4-23.2-4.9c-15.7-7.4-18.7-22.8-7-35.9c9.3-10.7,22.3-17.4,36.4-18.8    c9.2-1,18.6-0.8,28-0.9c12.7-0.1,25.3,0,38,0c9.3,0,18.7,0.8,27.7-2.7c0.6-0.2,1.3-0.3,2-0.4c21.2-1.6,42.3-3.8,63.5-4.5    c18.6-0.6,36.9-4.7,55.7-3.9c16,0.7,32,0.5,47.9-0.7c26.6-2.1,53.3-1.7,79.6-4.5c20.4-2.1,41-2.2,61.4-5.5    c19.5-3.1,39.9-0.9,59.9-1.2c5.2-0.1,10.6,1.4,15.2-2.2c3.2-4.3,2.3-9.1,2.3-13.6c0.1-14,0.1-28,0.1-42c-0.1-8.8,1-17.4,4.5-25.4    c7.3-16.4,11.4-34.1,20-50c0.9-1.6,0.6-3.7,0.9-5.7c-6.7-2.9-13.4-1.3-20-1.6c-9.3-0.5-18.7,1-27.8-2.3c-1.9-0.7-3.9-1-5.9-0.8    c-20.7,3.7-40.7-1-61-3.8c-7.2-1-14.8,0.5-21.9-0.8c-25.7-4.5-52-1.7-77.5-5.2c-21.8-2.9-43.9-0.2-65.4-6.1    c-4.4-1.2-9.3-0.4-13.9-0.5c-16.6-0.3-33.2,0.2-49.7-3.1c-10.3-2-21.2-0.6-31.9-0.6c-8.7,0-17.3-0.1-26,0    c-15.9,0.2-31.9-1.1-47.7,2.8c-5.7,1.4-11.9,0.8-17.9,0.8c-35.3,0.1-70.8,1.8-105.9-0.5c-25.7-1.7-52-1-77.2-7.8    c-10.9-2.8-21.7-6.4-32.2-10.6c-12.8-5.4-15.8-20.6-7-31.4c4.3-5.2,9.1-9.7,16.3-10.8c3.9-0.6,7.7-2.2,11.7-2.5    c44.4-3.7,89-7.8,133.5-3.4c16.4,1.6,33.2,1.1,49.3,5.7c1.3,0.4,2.6,0.7,3.9,0.7c20.7-0.5,41.1,2.9,61.7,3.7    c35.9,1.4,72,0.9,108,1.3c15.9,0.2,32-1.3,47.7,3.1c2,0.5,4,0.6,6,0.4c22.1-1.9,43.9,2.1,65.5,4.6c27.6,3.2,55.5,4,82.9,9.9    c14.7,3.1,29.9,6.1,45.4,5.4c19.4-0.8,38.4,2.7,57.3,6.4c3.9,0.7,7.9,1,11.9,0.8c4.8,0,9.2-2.8,11.1-7.2    c4.6-9.6,9.5-19.1,13.9-28.8c11.4-24.8,20.4-50.5,34-75c-5.9-6.8-14.1-8.2-20.8-12.1c-6.4-3.6-12.9-6.9-19.7-9.7    c-32.5-13.9-65.4-26.3-100.9-30.3c-19.2-8.2-40.5-7-60.2-13.6c-11.1-3.7-23.4-4.8-35.2-5.5c-31.2-1.9-61.9-7.1-92.7-11.8    c-3.9-0.6-8-0.4-12-0.6c-19.2-1.1-38.1-4.8-57.2-6.9c-15.8-1.7-31.4-5-47.5-5.3c-19.2-0.4-38.4-2.9-57.6-4.3    c-4-0.3-7.8-1.9-10.9-4.5c-6.5-5.2-10.6-10.6-17-22.9c4-14.6,13.6-22.6,29.3-24.8c27.1-3.7,54.3-3.7,81.6-3.8    c20.1,0,39.6,2.9,59.2,6.4c14.3,2.5,29,2.6,43.4,5.7c21.4,4.6,42.9,8.5,64.5,11.6c8.1,1.2,15.3,3.9,22.8,6.6    c13.8,4.9,27.7,9.7,42,12.5c20.4,3.9,39.7,11.1,59.6,16.5c50.7,13.9,100.3,31.3,148.7,52c1.1,0.5,2.6,0.1,3.5,0.1    c4.1-1.4,4.1-5.1,5.5-8c4.8-9.5,9.1-19.4,14.9-28.2c11-16.7,17.2-35.9,27.7-52.8c4.9-7.9,8.4-16.6,13.1-24.6    c7.2-12.3,11.5-25.4,11.8-39.7c0.2-9.3,0.1-18.7,0.2-28c0.1-12-0.8-24,2.7-35.7c1.1-3.7,0.9-8,0.8-11.9    c-0.5-20.7,3.4-40.9,6.5-61.2c1.8-12.4,1.7-25.2,1.8-37.9c0.2-16.7-0.3-33.3-0.3-50c0-23-9.5-42.3-21.8-61    c-11-16.5-27.2-27.2-41.8-39.7c-34.5-29.5-67.7-60.3-91.8-99.4c-24.3-39.4-41.5-81.8-52.5-126.7c-5.7-23.2-8.8-46.9-12.8-70.4    c-5.3-31.6-6.3-63.3-8.4-95.2c-1.7-27.1-4.8-54.1-9.5-80.9c-5.7-32.7-14.2-64.9-25.5-96.2c-12.2-33.2-27.7-64.8-45.1-95.6    c-13.1-23.3-27.8-45.4-42.7-67.4c-15.7-23.2-33.7-44.6-51.6-66.1c-12.8-15.4-26.1-30.2-40.2-44.4c-6.4-6.4-5.8-11.2,1.4-16.4    c6.5-4.7,13.1-8.9,21-11.3c28.6-8.9,56.9-18.7,85.4-27.8c24.7-7.9,49.8-14.2,75-19.7c27.8-6.1,55.4-13.4,84.1-15.8    c21.1-1.8,41.8-6.8,62.9-9.3c20.5-2.6,41.2-2.5,61.7,0.2c3.9,0.6,7.9,1.8,11.8,1.8c30.2,0,59.1,8,88.3,14c2,0.4,3.8,1.6,5.8,1.6    c31.6-0.2,58.7,15.8,87.8,24.3c2.5,0.8,5,1.9,7.2,3.3c29.2,17.2,58.2,35,87.7,51.6c27.8,15.7,53.6,34.9,82.3,49    c11.3,5.6,21.7,13,32.4,19.7c10.1,6.3,19.7,5.7,30-0.2c49.1-28.3,100.7-51.6,153.2-72.9c24.7-10,49-20.8,73.9-30.3    c16.1-6.1,32.8-10.6,49.3-15.6c10.8-3.3,21.7-6.3,32.5-9.6c35.5-10.9,71.3-21,107.9-27.6c9.1-1.6,17.9-5.1,27.1-6.6    c31.4-5.1,62.4-12.4,93.9-17.1c23.7-3.6,47.7-3.5,71.1-7.8c29.2-5.4,58.4-2.9,87.6-3.4c38-0.6,76-0.3,114-0.1    c15.9,0.1,31.8,1,47.6,2.8c17,2,34.1,4.8,51.5,4.9c13.1,0.1,26.4,3.1,39.4,5.6c38.4,7.4,76.9,14.8,115.1,23    c20.7,4.4,41.2,10.3,61.7,15.7c32.1,8.5,63.6,18.9,95,29.6c53.6,18.3,98.1,35.9,144.7,56.8c35.9,16.1,71,33.7,105.8,52    c11.4,6,20.8,6,31.6-0.6c25.5-15.6,51.3-30.9,77.3-45.7c29.4-16.8,57.3-36.2,87.6-51.7c5.3-2.7,10.9-5.3,15.6-9    c19.4-15,42.1-22.3,65.2-28.9c5.1-1.5,10.1-3.3,15-5.5c7.2-3.4,15.2-5.1,23.2-5c5.2,0.1,10.6-1,15.8-2.1    c21.4-4.3,42.8-9,64.3-13.3c4.5-0.9,9.3-0.6,13.9-0.7c9.3-0.3,18.6-1.1,27.8-2.4c19.8-2.6,39.9-2.3,59.6,0.6    c22.3,3.4,44.6,6.2,66.9,9.4c8.6,1.2,17.1,2.5,25.5,4.3c25.9,5.5,52.2,9.7,77.7,17.1c18.5,5.3,37.2,10,55.9,14.6    c11,2.8,21.6,6.6,31.8,11.6c18,8.6,36.3,16.7,54.4,25.2c6,2.8,11.8,6.1,17.1,8.8c1.8,6.7-3,9.2-6,12.3    c-34.5,36.2-65.6,75.2-94.4,116c-22.6,32.2-42.4,66.3-59.1,101.9c-22.5,47.7-39.1,97.2-47.7,149.6c-4.6,28.3-6,56.7-8.3,85.1    c-1.6,20.4-1.7,41-5.7,61.4c-2.2,10.9-3.3,22.3-4.5,33.5c-3.6,33.9-11.6,66.6-21.9,99c-8.9,28.1-21,54.7-35.3,80.3    c-20.6,37-47.7,68.7-80.1,96.1c-17.2,14.6-35.9,27.7-51.1,44.6c-15.5,17.1-25.9,36.4-29.3,59.8c-4.1,27.9-5,55.5-0.1,83.4    c1.1,6.5-0.1,13.4,0.9,19.9c3.9,25.6,3.3,51.6,7.3,77.3c1.8,11.7,1.1,24,0.6,35.9c-0.9,23.2,4.4,44.6,15.5,65.1    c18.4,33.9,35.7,68.3,53.5,102.5c1.2,2.3,3,4.2,4.9,6.8c9.1-3.4,17.8-6.4,26.3-10c57.8-24.3,118.1-41,178.3-57.8    c19.2-5.3,38.6-9.6,57.2-17.3c9.9-4,20.4-6.1,31-6.3c19.6-0.5,37.9-6.5,56.8-9.9c2.6-0.5,5.1-1.6,7.7-1.9    c14.5-1.7,29.3-2.1,43.4-5.2c21.1-4.6,42.4-2.4,63.6-3.6c21.4-1.2,42.4,2.3,63.5,4.4c10.6,1.1,18.4,7.5,24.3,16    c3.3,4.5,3.3,10.6,0,15.1c-4.9,7.2-11.1,13.4-18.2,18.3c-2,1.4-4.9,2-7.5,2.2c-20.5,1.9-40.9,4.4-61.5,5.1    c-15.2,0.5-30.3,3-45.4,4.8c-15.8,1.9-31.5,4.5-47.3,5.9c-19.2,1.8-38.2,4.2-57.1,7.5c-15,2.6-30.2,4.2-45.5,4.8    c-12.1,0.4-23.7,3.2-35.4,5.3c-22.8,4.2-45.3,10.2-67.9,15.4c-7.1,1.6-14.2,3.3-21.4,4.6c-31,5.6-59.8,17.6-88.5,30.1    c-10.9,4.8-22.5,8.1-32.2,14.3c0,2-0.5,3.6,0.1,4.6c16,30,27.9,61.9,42,92.7c7.1,15.4,12,17.5,28,15.1c17.7-2.7,35.2-6.3,53.3-6.2    c25.3,0.1,50-5.9,75-9.2c7.2-0.9,14.5-1.7,21.7-2.5c22.4-2.7,45-3.6,67.2-7.5c5.8-1,12-0.5,17.9-0.6c10.6-0.2,21.3,0.4,31.8-2.7    c4.4-1.3,9.2-0.9,13.9-1c40.7-0.4,81.3-0.7,122-1c10-0.1,20,0.6,29.7-2.5c3.2-0.9,6.6-1.2,9.9-0.8c21.4,1.5,42.6-1.9,63.5-4.7    c43.2-5.7,86.4-3.4,129.6-2.8c11.2,0.2,22.4,2.2,33.5,4.3c8.9,1.6,15.7,7.4,20.8,14.7s2.9,15.2,1.9,22.8c-7,7.7-16,10.7-24.7,13.4    c-13.9,4.4-28.3,7.3-42.8,8.5c-55.1,4.9-110.4,5.9-165.6,3c-33.3-1.7-66.4-2.5-99.7-2.7c-8.6,0-17.3-0.6-25.8,2.3    c-2.6,0.8-5.2,1.1-7.9,0.9c-28-1.5-55.7,4.2-83.6,4.1c-2.7,0-5.4-0.3-8,0.3c-21.6,5.3-43.7,3.4-65.6,4.1    c-9.5,0.3-18.3,3.6-27.6,3.6c-22.6,0.1-44.9,3.3-67.2,6.7c-3.1,0.5-6.5-0.4-9.8-0.8c-2.6-0.3-5.5-1.8-7.8-1.1    c-16.9,5-34.5,1.3-51.6,4c-0.6,0.2-1.2,0.5-1.7,0.8c-2.4,3.2-1.3,6.2,0,9.3c4.4,10.4,8.6,21,13.2,31.3c10,22.4,12.6,46,12.2,70.1    c-0.1,4.6-1.3,9.2-2,13.8c-0.7,4-1.3,7.9,1.1,11.6c3.1,3.3,7.3,2.8,11.2,2.8c14.7,0.1,29.3,0,44,0.1c10.6,0,21.4-0.9,31.6,3    c1.3,0.4,2.6,0.6,4,0.5c29.3-0.1,58.4,3.3,87.6,5c36.6,2.2,73.2,1.9,109.7,4c16.5,1,33.4,0.7,49.6,3.5c18.4,3.2,37.2,1.2,55.4,6.2    c5,1.4,10.6,0.7,15.9,0.8c20,0.1,40,0.3,60,0c14.6-0.2,27.2,5,39.6,12c10.7,6,14.3,15,13.8,26.6c-0.3,8.3-4.6,14-11.8,17    s-15,5.4-23.2,5c-21.9-1-43.7-0.4-65.7-2.7c-33-3.4-66.2-6.4-99.5-5.7c-8,0.2-16,0.5-23.7-2.4c-2.5-0.9-5.2-1.3-7.9-1.1    c-18.1,1.8-35.5-5.3-53.6-3.9c-23.3-6.4-47.6-2.9-71.3-7.3c-13.6-2.5-27.9-1-41.9-1c-42.7,0.1-85.3,0-128,0.7    c-13.1,0.2-26.2,2.7-38.6,4.1c-3.9,5-3.5,9.7-1.4,14c11.2,23,13.9,48.5,20.8,72.7c0.9,3.2,1.3,6.6,1.3,9.9    c0.2,16.7,0.3,33.3,0.1,50c-0.1,5.9-0.4,12.1-7.5,15.3c-9-1.7-12.3-9.2-15.6-16.3c-8.1-17-18.5-32.3-30-47.1    c-10.7-13.8-24.5-24.1-38.8-33.8c-0.4-0.2-1.2,0.2-2.1,0.4c-2.6,5.5,1.1,10.4,2.7,15c12.7,35.8,20.6,72.9,31.8,109.1    c9.6,31,5.7,62,6.6,93.1c0.4,7.5-2.8,14.7-8.6,19.5c-7.2-1.9-10.7-8.1-14.8-13c-19.1-23.1-37.7-46.5-56.6-69.8    c-3.6-4.4-6.1-10.4-13.9-10.5c-2.3,6.9,2.7,11.5,5.2,16.4c12.5,23.6,11.3,22.8-6.6,40.7c-18.4,18.4-36.7,36.8-55,55.2    c-18.8,19-39.5,35.6-60.2,52.4c-19.1,15.6-38.1,31.2-57.6,46.2c-35.9,27.6-73.9,52.2-112.1,76.4c-60.2,38.1-120.5,76-180.9,113.9    c-36.7,22.9-73.8,45.3-110.7,67.9c-1.7,1-3.5,1.9-5.2,2.9c-111,67.5-147.9,88.1-259.4,140.9c-45.7,21.6-91.1,44-138.6,61.5    c-44.3,16.3-89.6,29.5-135.7,39.5c-4.5,1-9.3,0.7-13.9,0.7c-12,0.1-24-0.5-36,0.2c-15.5,0.9-30.6-1.8-45.2-5.8    c-44.9-12.4-89.8-24.7-133-42.4c-25.2-10.3-50.2-21.3-74.9-33c-45.7-21.7-91.2-44-136.6-66.2c-38.9-19.1-76.1-41.2-113.5-63    c-50.1-29-98.9-60-148.4-90.1c-39.8-24.2-78.7-49.9-118.3-74.4c-53.2-32.9-106.4-65.8-157.8-101.6c-32.7-22.8-65-46.4-95.2-72.6    c-28.7-24.9-57.8-49.1-84.5-76.1c-9.8-9.9-20.6-18.9-30.8-28.4c-2.9-2.7-5.6-5.7-7.9-9c-6.7-9.6-7.6-19.6-1.8-30    c3.9-7,7.8-14,11.4-21.1C840.4,2060.1,841.5,2057.4,838.6,2053.8z M3398.3,233.5c2-0.8,3.2-2.9,3-5c1.8-0.5,3.9-0.9,1.4-3.3    c-0.7,0.8-1.4,1.7-2.2,2.5c-2.4,0-3.8,1.4-4.5,3.5c-1.8,1.3-4.2,2.5-1.4,4.9C3394.9,236.4,3397,234.5,3398.3,233.5z M728.8,1920    c1.1-0.7,2.5-1.2,3.3-2.2c19.6-24.4,41.5-46.8,65.5-66.9c1.4-1.2,2.9-3,0.3-6.8c-14.7-1-29.5-0.6-44.2,1.1    c-10.5,19.6-17.7,40.3-24.4,61.2c-1.4,4.2-0.3,9.2-0.3,13.8l-1.1,1L728.8,1920z M590.8,114.7c16.4,3.4,30.7,6.2,45,9.5    c55.7,12.8,105.2,37.2,146.3,77.7c13.2,13.1,27.7,25,42.1,36.8c33.1,27,63.3,57.2,90.4,90.3c62.8,77.2,104.8,164.7,130.7,260.6    c15.2,56.1,23.2,113.4,30.7,170.8c7.8,59.4,17,118.6,28.7,177.3c1.7,8.6,4.3,16.8,8.7,24.3c30.1,51.7,72.8,87.9,130.3,105.7    c20.3,6.3,41.1,11.3,61.8,16.3c45.9,11.3,91.7,22.9,135.4,41.5c22.1,9.4,44.6,17.7,66.6,27.1c17.8,7.6,35.7,14.8,52.7,24.1    c25.9,14.1,49.3,31.6,71.8,50.5c58.1,48.9,92.4,111,103.6,185.9c0.5,3.2,0.1,6.6,0.1,10c-5.7,6.7-12.6,12.2-20.3,16.3    c-28.3,14.9-56.1,30.8-85.2,44.1c-66,30.5-136.9,49.3-209.4,55.4c-60.2,5.1-119.8,0.5-178.3-15.4    c-66.2-17.9-124.9-49.5-175.4-95.9c-44.4-40.7-68.4-92.8-82.2-150.2c-8.6-35.8-9.5-72.5-10.7-109.1c-0.4-13.2,2-26.5,2.5-39.8    c0.6-16.7,3.4-33.1,6.8-49.4c7.8-37.2,24.6-70.4,47.2-100.5c7.3-9.7,10.5-19.3,10.2-31.2c-0.7-32.6-0.2-65.3-0.7-98    c-0.2-9.9-1.5-19.9-3-29.7c-1.7-11-8.2-14.4-18.8-9.9c-8.6,3.6-16.7,8.7-26.1,9.9c-27,3.4-53.3,1.5-77.3-13    c-10.8-6.5-21.5-13.4-30.9-22c-8.4-7.6-16.7-15.3-25.5-22.5c-24.8-20.3-43.3-45.2-57.2-73.6c-19-38.7-29-80.2-35.9-122.3    c-6.1-37.2-17.5-72.4-32.8-106.5c-29.9-66.5-67.1-128.7-110.4-187.3c-12.7-17.2-27.5-32.5-43.1-47.1c-1.9-1.8-4.7-5-8.7-0.9    c5.1,6.2,10.1,12.3,15.1,18.5c8.4,10.3,15.8,21.4,22,33.1c19.1,36.7,33.4,75.5,51.1,112.8c16.7,35,25.5,73.2,25.8,112    c0.1,16.7,3.1,33.1,6.6,49.4c6.5,30.6,15.2,60.7,18.9,91.9c6.5,55.5,28.2,104.9,60.5,150.3c35.9,50.4,80.4,92.3,127,132.3    c12.1,10.4,24.3,20.5,35.8,30.1c0.9,9.6-0.8,17.4-2.4,25.2c-8,37.8-13.7,76-17.1,114.5c-3.7,42.5-6,85.1-5.4,127.8    c0.3,26.8-3.8,53-9.8,79.1c-5.7,24.9-17.5,47.4-28.2,70.3c-12.2,25.9-25.2,51.4-37.9,77.2c-2,4.1-5.1,8-3,13.4    c4.9,5.8,12.6,6.6,19.3,9c43.3,15.5,87,29.8,129.6,47c80.3,32.5,158.8,69.3,239.4,100.9c15.6,6.1,29.8,14.8,43.1,25    c8.2,6.2,14.4,13.9,17.8,23.6c7,20.3-6.5,38.1-27.8,36.9c-6.7-0.3-13.2-2.5-18.7-6.2c-6.7-4.4-13.2-9.1-20.1-13    c-40.1-22.5-80.6-44.2-122.2-63.8c-88.8-41.8-179.9-77.2-274-105.1c-5.6-1.7-11-5.2-17.2-3.4c-9.1,12.5-25.2,46-37.1,77.1    c-1.2,3-2.7,6.2-2.1,7.3c3.8,6.1,8.1,6.2,11.9,7.1c43.3,10.6,86.5,21.7,130,31.7c44.7,10.4,89.9,19.2,134.5,29.8    c60.9,14.5,120.7,33.2,180.3,52.1c38.7,12.3,77.2,25.2,115.7,38.3c25.3,8.5,49.8,19.2,73.2,32c10,5.4,19.2,12.2,27.2,20.1    c8.3,8.3,12.2,17.7,7.5,28.9c-4.9,11.8-15.8,13.6-26.8,13c-26.3-1.4-51.1-8.3-73.8-22.3c-9.6-6-19.6-11.3-29.9-16    c-79.2-35.6-161.2-63.2-245.4-83.9c-61.4-15.1-123.4-27.7-185.4-40c-25.4-5.1-50.8-10.1-76.4-15.2c-11.9,12.6-16.5,28.2-19.6,43.6    c-3.7,17.9-9,36.2-2.6,54.9c10.2,4.8,20.2,8,31,9.1c19.8,2.1,39.6,4.8,59.5,6.9c43.7,4.7,87.4,9,131.1,13.6    c48.3,5.1,96.6,10.3,144.9,15.6c7.3,0.6,14.5,2,21.6,3.9c9.4,2.9,16.3,8.9,17.7,19.5c1.4,10.6-3,18.2-11.6,23.6    c-7.4,4.7-15.5,7.8-24.4,7.8c-8,0-16,0.1-24-0.8c-40.3-4.7-80.6-9.5-120.9-14.5c-39-4.8-77.9-10-116.8-14.6    c-15.1-1.8-30.3-2.7-44.4,1.3c-4.3,5.3-5.3,10.7-6,15.9c-2.9,22.6-9.7,44.2-16.3,65.8c-2.5,8.3-5.3,16.5-7.4,24.9    c-7.8,31.6-14.8,63.5-26.6,94c-1.1,3.1-1.9,6.4-2.2,9.7c-0.2,1.7,0.7,3.5,1,4.6c3,1.1,4.5-0.5,5.8-1.9    c11.4-12.2,22.8-24.3,33.9-36.7c18.2-20.4,36.2-41,54.3-61.4c2.2-2.4,4.3-5.3,8.9-2.7c0.3,3.5,0.7,7.4,0.8,11.3    c0.4,19.4-2.8,38.5-6.8,57.4c-4.7,22.1-9.3,44.1-13.9,65.8c11,13.3,23.9,22.6,36.4,32.6c32.3,25.8,65.6,50.2,99.8,73.4    c104.7,71.2,210.9,140.1,318.8,206.4c105.4,65.1,210.3,131.1,318.7,191.3c61.2,33.9,124.3,64.3,189,91    c48.7,20.2,100.9,30.9,153.7,31.5c56,0.7,109.9-10.7,161.8-31.2c19.2-7.6,38-16.2,56.7-25c71.9-33.6,143.1-68.3,210.5-110.4    c15.8-9.9,31.7-19.7,47.7-29.2c151.4-89.7,300.4-183.1,447.1-280.4c61.2-40.4,121.7-81.8,178.7-128c7.6-6.2,16.1-11.9,22.1-21.2    c-0.6-4.8-0.8-10.1-1.9-15.2c-4.2-20.2-8.8-40.3-13-60.5c-3.8-17.6-6.1-35.4-5.5-53.5c0.1-3.2-0.3-6.8,4.2-7.9    c4.7,1.3,7.6,5.2,10.6,8.6c11.1,12.5,21.7,25.2,32.7,37.8c14.5,16.5,29.1,32.9,43.9,49.3c2.9,3.2,5.6,7.8,11.8,6.4    c2.5-6-0.1-11.4-2-17.1c-6.1-18.3-12.8-36.4-16.9-55.3c-5-23.4-11.3-46.6-18.8-69.4c-6.2-19-10.8-38.4-13.7-58.1    c-0.6-3.9-0.4-8.1-4.5-11.8c-3.7-3-9.1-2.6-14.4-2.9c-23.4-1.1-46.5,2.5-69.6,5.4c-35.7,4.4-71.3,9.4-106.9,13.8    c-30.4,3.8-60.8,7.2-91.2,10.6c-13.3,1.5-26.5,2.5-39.6-2.2c-7.1-2.5-13.3-6-17.7-12.3c-7.5-10.7-4.9-24.3,6.1-31.4    c4.4-3,9.5-4.9,14.9-5.5c11.9-1.2,23.8-2.9,35.7-4.2c33.1-3.7,66.1-7.3,99.2-10.8c29.8-3.2,59.6-6.3,89.4-9.5    c33.7-3.6,67.5-6.9,101.2-11c19-2.3,38.6-2.7,57-13.6c3.6-34.4-3.7-66.6-21.8-97.1c-23.8,4.5-46.7,8.5-69.4,13.2    c-48.2,9.9-96.5,19.8-144.6,30.3c-97.2,21.2-191.9,50.5-283.2,90.1c-15.3,6.6-30.4,13.7-44.4,22.8c-12.4,7.9-26.1,13.5-40.5,16.7    c-13.5,3.1-27.3,5.8-41.5,3c-15.1-3-22.1-15.8-16-29.9c3.3-7.6,9.3-13,15.5-18c10.9-8.9,23.2-15.6,36-21.4    c23.1-10.4,46.4-20,70.4-28.3c64.2-22.1,129.1-42.2,194.2-61.6c36.4-10.8,72.8-21.5,110.1-29c82.2-16.6,163.8-36,245.1-56.9    c3.9-1,7.8-1.8,10.2-7.4c-12.7-27.4-24.2-56.3-39-84.4c-12.5,1.7-23.8,5.7-35.1,9.3c-76.3,24-151.4,51.4-224,85    c-59.4,27.4-118.6,54.9-173.6,90.6c-6.2,4-12.8,6.9-20.4,7.4c-20.1,1.3-32.8-12.8-29.1-32.7c1.2-6.6,4.2-12.7,8.7-17.7    c6.6-7.5,14.4-14,22.9-19.2c10.8-6.6,22.1-12.5,33.7-17.5c49.8-20.8,99.6-41.4,149.2-62.7c41-17.6,81.8-35.6,123.8-50.9    c33.2-12.1,66.5-23.7,99.8-35.5c4.9-1.8,10.4-2.5,14.1-8.6c-2.4-5.4-5-11.4-7.9-17.4c-15.7-32.4-31.7-64.6-47.3-97    c-9.9-20.4-16.7-42.1-20.3-64.5c-3.3-21-5.3-42.3-5.9-63.5c-1.1-37.9-0.7-75.9-4.4-113.8c-4-43.1-10.3-86-18.8-128.4    c-1.3-6.5-3.5-12.9-1-20.5c6.5-5.5,13.4-11.7,20.6-17.6c31-25.3,60.5-52.4,88.4-81c24.4-24.6,46.2-51.8,64.9-81    c23.1-36.3,40.3-74.8,46.4-118.1c3.6-25.7,7.4-51.4,14.6-76.4c9.1-31.5,13.8-63.9,15.1-96.4c1.3-31.9,9.6-61.7,22.1-90.6    c11.1-25.7,21.5-51.7,33.5-76.9c10.8-22.8,19.9-46.6,35.8-66.7c1.8-2.3,1.7-4.8-0.6-7.1c-7.2,1-11.4,6.4-15.4,11.6    c-10.6,13.7-21.3,27.3-31.3,41.5c-43.3,61.2-79.5,126.2-107.1,196c-7.3,18.6-12.7,37.9-16.2,57.5c-4.8,25.5-9.7,51-16.2,76.2    c-9.4,36.3-23.8,70.6-46.2,101.2c-13.2,18-30.1,32.1-46.4,46.7c-15.3,13.8-31,27.3-49.9,36.3c-30.6,14.5-61.4,15.9-92.6,2.1    c-3-1.4-6.1-2.7-9.2-3.7c-5.4-1.5-11.2,1.1-13,6.4c-1.4,4.4-2.1,9-2.3,13.6c-1.9,37.9-3.2,75.8-3.3,113.8    c0,15.4,3.6,28.3,13.3,40.5c16.6,21,28.6,44.9,37.5,70.1c11.6,33.1,14.4,67.6,16.1,102.2c1.1,23.3-0.8,46.6-2.4,69.8    c-2.5,34.9-9.7,68.6-22.6,101c-13.4,33.7-30.7,65-56.6,91.1c-48.4,48.8-105.9,82.7-171.5,102.4c-69.9,21-141,26-213.5,17.3    c-56.9-6.9-112.6-21.4-165.7-43c-38.4-15.5-74.3-36-110.6-55.7c-6.2-3.4-12.7-7.4-17.4-15.8c0.4-6.3-0.1-14.5,1.7-22.2    c4.1-17.5,7.9-35.2,14.2-52c15.2-40.5,39.1-75.6,70.2-105.7c38.3-37,82-65.8,131.5-85.7c24.7-9.9,49.4-19.8,74-30.2    c34.5-14.5,70-25.6,106.2-34.7c30.4-7.6,60.8-14.8,90.9-23.5c57.9-16.7,100.6-53.2,131.7-104c4.4-7.4,7.5-15.5,9.2-24    c15.7-73,25.1-146.9,35-220.8c5.1-38.3,11.4-76.4,20.9-113.9c23.3-92.7,60.2-179.2,118.6-255.6c23.1-30.2,47.5-59.2,76.2-84.5    s56.6-50.7,85.3-75.5c24.4-21,51.1-38.5,81.4-49.9c23.7-8.9,48.1-15.7,73-20.5c7.4-1.4,14.6-3.3,23.6-5.4    c-7.1-4.2-13-5.2-18.9-6.3c-24.9-4.8-50-7.2-75.1-9.8c-35.5-3.6-70.6,0.9-105.7,3.4c-25.8,1.8-51.5,6.5-77.1,10.6    c-30.9,5-61.7,10.7-91,22.2c-47.2,18.4-92.9,40.3-136.9,65.5c-37.5,21.6-74.9,43.5-111.1,67.3c-7.5,4.9-14,5.8-22.3,1.9    c-29.6-13.7-59.8-26.3-89.2-40.4c-75.2-36-152.1-67.8-231.7-92.6c-84.7-26.4-171-45.7-259.1-56.7c-50.9-6.4-101.9-11.8-153.2-11.9    c-14,0-28,0.2-42-0.2c-36.7-1-73.3,2.3-109.7,5.6c-43.7,3.9-87.2,10.6-130.5,18.2c-63.1,11.1-124.9,26.9-186,45.7    c-81.7,25.1-160,58.5-237,95.5c-27,13-54.7,24.6-81.9,37.1c-6.6,3-12.6,3.5-18.8-0.8c-3.8-2.6-8.2-4.4-12.1-7    c-24.8-16.8-51-31.5-76.7-47c-38.2-23.1-77.8-43.9-118.5-62.2c-37.8-17-76.6-30.7-117.7-37.5c-20.4-3.4-41-5.3-61.3-8.8    c-31.6-5.4-63.5-7.6-95.4-9c-37.3-1.5-74.7,1.8-111.2,9.7C609,108.8,600.2,108.6,590.8,114.7z M1073.1,997.7    c-10.4,9-15.8,19.6-20.1,30.8c-14.1,36-22.1,74.1-23.5,112.8c-0.9,24.7-0.3,49.3,3.8,73.7c3.9,22.9,6.7,46.2,14.9,68.1    c20.4,54.6,51.1,102.3,97.1,139.2c33.8,27.1,71.1,46.3,114.1,54.6c62.5,12.1,124.6,10,186.5-3.4c51.5-11.1,101.4-27.9,150.3-47.5    c27.8-11.2,54.6-24.7,80.2-40.3c2.8-1.7,6.2-2.7,7.8-8.3c-1.8-3.9-4.1-9.3-6.8-14.5c-39.7-76.4-98.2-133.6-175.6-171.5    c-24.6-12.1-50.9-19.4-76.7-28.2c-2.4-0.8-5.2-0.4-8.7,2.9c0,3.3,0.1,7.9,0,12.4c-0.4,28-1.8,56-7.9,83.4    c-8.8,39.3-22.4,76.6-44.2,110.7c-2,3.2-3.6,7.4-8.7,6.9c-1.1-0.7-2.2-1.5-3.1-2.4c-2.4-3.1-4.9-6.3-7-9.7    c-21-32.7-37.9-67.2-49.2-104.5c-12.4-41-18.6-83.1-22.2-125.6c-0.6-6.6-0.2-13.4-3-19.9c-2.2-1.2-4.4-2.5-6.9-3.6    c-24.9-11.2-50.1-21.8-74.7-33.6c-41-19.8-79-44.2-110.1-78.2C1078.2,1000.5,1076.2,999.7,1073.1,997.7L1073.1,997.7z     M2295.2,1379.4c1.4,4.3,5.5,5.6,8.8,7.6c22.8,13.8,46.6,25.9,71.1,36.3c41.8,17.4,84.8,31.9,128.5,43.5    c72.4,19.3,145.6,24.8,219.6,9.4c16.3-3.2,32.3-8.3,47.4-15.1c80.4-37,131.8-100,161-181.8c10.5-29.4,14.5-60.9,16.7-92.2    c3.4-47.6-0.8-94.6-15.8-140.1c-5.8-17.6-11.6-35.5-25.8-48.4c-4.9,0.4-7.5,3.4-10.3,6.3c-23.3,24.1-49.9,44-79.1,60.4    c-31.4,17.6-64.2,32.2-97.3,46.3c-4.8,2-10.2,3.2-14,8.6c-0.3,2.6-1,5.8-1.1,9.1c-1.1,31.4-6.3,62.3-12.2,93    c-10.3,53-31.1,101.7-60.6,146.7c-2.7,4.1-4.6,9.7-11.5,10.9c-5.6-4.5-8.9-11.1-12.4-17.4c-27.6-49-43.2-101.5-44.7-157.9    c-0.4-13.8-0.9-27.5-2.9-41.2C2452,1183.7,2337.8,1270.3,2295.2,1379.4z M535.7,145.4c1.9,6.5,7.7,7.8,11.8,10.7    c5.4,3.9,11.7,6.7,16.6,11c42.8,37.5,81.2,79.1,111.1,127.8c30.7,50,58,101.9,83.5,154.7c10.2,21.1,18.1,42.9,22.6,66    c4,20.9,7.9,41.9,11.9,62.8c8.3,43,22.8,83.5,47.5,119.9c25.2,37.2,57.5,66.2,99.9,83.1c16.1,6.6,33.6,8.9,50.9,6.8    c15.2-1.9,29.7-6.1,42.3-14.2c0-5.5,0.2-9.4,0-13.4c-2.1-30.6-7-60.9-12.8-91c-15.5-79.9-42.9-157-81.2-228.8    c-21.4-40.1-48.7-76.6-81.2-108.4c-50.1-49.3-104.8-92.6-164.9-129.1c-17.7-10.7-35.1-21.9-54.6-29c-23.8-8.6-47.6-17.2-71.5-25.3    C557.2,145.5,546.4,144.2,535.7,145.4z M3443.6,144.1c-9.1,1-15.9,1.2-22.3,2.7c-9.7,2.3-19.2,5.3-28.7,8.4    c-30.3,10.1-60.7,20.2-88.4,36.6c-54.6,32.1-105.9,69.5-153.4,111.4c-54.1,47.9-97.2,103.5-128.1,169.2    c-41.7,89-67,182.2-77.4,279.7c-0.8,7.2-2.1,14.5,0.1,21.6c30.1,17,59.5,19.8,90.2,8.6c30-11,55.1-29.4,77-52.3    c35-36.7,55.6-81,67.8-129.5c5.2-20.6,8.5-41.7,12.3-62.7c5.6-31.6,14.4-62.2,28.6-91.2c21.4-43.7,44.4-86.5,68.3-128.8    c31.5-55.7,72.2-103.8,119.8-146.3c6-5.3,12-10.4,19.3-14.1C3433.8,154.8,3439.5,152.5,3443.6,144.1z M695.2,1762.7    c6.7-7.4,9-15.1,12.9-21.6c4.1-6.9,7.6-14.1,11.9-20.8c4.3-6.7,9.2-13,14.1-19.4c4.9-6.4,10.2-12.3,15-18.7    c4.7-6.2,11.2-11.1,14.6-20.2c-13.3-2.7-25-7.5-37.5-5.1c-10.5,16.3-18.6,37-26.6,70.9C696.9,1738.4,692.3,1748.9,695.2,1762.7z     M3254.3,1657.1c-17.9-0.5-26.9,1.4-37.1,7.5c1.3,7,6.7,11.3,11,16.2c20.9,23.6,38.4,49.3,51.6,78c0.4,0.8,2.1,1,3.9,1.8    c1.1-6.7,0.3-13-1.1-19.5C3276.3,1712.3,3267.8,1684.4,3254.3,1657.1z M3252.1,1924.9c-4.6-29.9-17.6-63.9-30.3-80.9    c-6.4,0-13.6-0.3-20.8,0.1c-7.4,0.5-15.2-2.6-24.6,2.6C3203.7,1870.2,3228,1894.2,3252.1,1924.9z M3250.5,1781.6    c-4.7-14.3-8.2-20.2-17.1-28.8c0.5,10-1.1,19.8,2.1,29C3240.9,1784.1,3245.8,1785,3250.5,1781.6z M742.9,1752.4    c-5.2,9.3-12.8,17.3-13.4,28.4c4.8,3.6,8.9,3.7,13.9-0.3C745,1771.2,744.8,1761.7,742.9,1752.4z M3194.6,2062.6l0.8-1.2l-1.1-0.2    L3194.6,2062.6z"
   id="path1" />
		<path
   class="st1"
   d="M590.8,114.7c9.3-6.1,18.2-6,26.6-7.8c36.5-7.9,73.8-11.2,111.2-9.7c31.8,1.3,63.8,3.5,95.3,9    c20.3,3.5,40.9,5.4,61.3,8.8c41.1,6.8,79.8,20.5,117.6,37.5c40.7,18.3,80.3,39.1,118.5,62.2c25.7,15.5,51.8,30.2,76.7,47    c3.8,2.6,8.2,4.4,12.1,7c6.2,4.3,12.2,3.8,18.8,0.8c27.2-12.5,54.9-24.1,81.9-37.1c77-37,155.3-70.4,237-95.5    c61.1-18.8,123-34.6,186-45.7c43.3-7.6,86.7-14.3,130.5-18.2c36.5-3.3,73-6.6,109.7-5.6c14,0.4,28,0.1,42,0.2    c51.4,0.1,102.3,5.5,153.2,11.9c88.1,11.1,174.4,30.4,259.1,56.7c79.7,24.8,156.5,56.5,231.7,92.6c29.4,14.1,59.6,26.6,89.2,40.4    c8.3,3.8,14.8,3,22.3-1.9c36.2-23.8,73.6-45.7,111.1-67.3c44-25.2,89.7-47,136.9-65.5c29.3-11.5,60.1-17.2,91-22.2    c25.6-4.1,51.3-8.8,77.1-10.6c35.1-2.4,70.1-7,105.7-3.4c25.2,2.5,50.3,5,75.1,9.8c5.9,1.1,11.7,2.1,18.9,6.3    c-9,2-16.3,3.9-23.6,5.4c-24.9,4.8-49.3,11.6-73,20.5c-30.3,11.4-57.1,28.9-81.4,49.9c-28.7,24.8-56.8,50.4-85.3,75.5    s-53,54.2-76.2,84.5c-58.4,76.4-95.4,162.9-118.6,255.6c-9.4,37.4-15.7,75.5-20.8,113.8c-9.9,73.9-19.4,147.8-35,220.8    c-1.7,8.5-4.8,16.6-9.2,24c-31.2,50.8-73.9,87.3-131.7,104c-30,8.7-60.5,15.9-90.9,23.5c-36.3,9.1-71.8,20.2-106.3,34.7    c-24.6,10.3-49.3,20.2-74,30.2c-49.5,19.8-93.2,48.7-131.5,85.7c-31.1,30-55,65.2-70.2,105.7c-6.3,16.8-10.2,34.5-14.2,52    c-1.8,7.6-1.3,15.8-1.7,22.2c4.7,8.4,11.2,12.5,17.4,15.8c36.3,19.6,72.2,40.2,110.6,55.7c53.1,21.6,108.8,36.1,165.7,43    c72.5,8.7,143.7,3.6,213.5-17.3c65.7-19.7,123.1-53.6,171.5-102.4c25.9-26,43.2-57.4,56.6-91.1c12.9-32.4,20.1-66,22.6-101    c1.7-23.3,3.5-46.5,2.4-69.8c-1.6-34.6-4.4-69.2-16.1-102.2c-8.9-25.3-20.9-49.1-37.5-70.1c-9.7-12.2-13.3-25.1-13.3-40.5    c0.1-38,1.4-75.9,3.3-113.8c0.1-4.6,0.9-9.2,2.3-13.6c1.8-5.3,7.6-7.9,13-6.4c3.2,1,6.3,2.3,9.2,3.7c31.2,13.8,62.1,12.4,92.6-2.1    c18.9-9,34.6-22.5,49.9-36.3c16.3-14.7,33.2-28.8,46.4-46.7c22.5-30.6,36.9-64.8,46.2-101.2c6.5-25.1,11.4-50.7,16.2-76.2    c3.5-19.7,9-38.9,16.2-57.5c27.6-69.8,63.9-134.8,107.1-196c10-14.1,20.7-27.8,31.3-41.5c4-5.2,8.2-10.6,15.4-11.6    c2.3,2.3,2.4,4.8,0.6,7.1c-15.9,20.1-25,43.9-35.8,66.7c-12,25.3-22.4,51.3-33.5,76.9c-12.5,29-20.8,58.7-22.1,90.6    c-1.3,32.6-5.9,64.9-15.1,96.5c-7.2,25-11,50.8-14.6,76.4c-6.1,43.2-23.3,81.8-46.4,118.1c-18.7,29.2-40.4,56.4-64.9,81    c-27.9,28.6-57.4,55.7-88.4,81c-7.2,5.8-14.1,12-20.6,17.6c-2.5,7.7-0.3,14,1,20.5c8.6,42.4,14.8,85.3,18.8,128.3    c3.6,37.9,3.2,75.8,4.4,113.8c0.6,21.3,2.5,42.5,5.9,63.6c3.6,22.4,10.5,44.1,20.4,64.5c15.6,32.4,31.5,64.7,47.3,97    c2.9,5.9,5.4,12,7.9,17.4c-3.7,6-9.2,6.8-14.1,8.6c-33.3,11.8-66.6,23.4-99.8,35.5c-42,15.3-82.8,33.3-123.8,50.9    c-49.6,21.3-99.4,41.9-149.2,62.7c-11.6,5-22.9,10.9-33.7,17.5c-8.5,5.2-16.3,11.7-22.9,19.2c-4.5,4.9-7.6,11.1-8.7,17.7    c-3.6,19.9,9.1,34,29.1,32.7c7.6-0.5,14.2-3.3,20.4-7.4c55-35.7,114.1-63.3,173.4-90.7c72.7-33.7,147.7-61,224-85    c11.3-3.6,22.6-7.6,35.1-9.3c14.8,28.1,26.4,57,39,84.4c-2.4,5.6-6.3,6.4-10.2,7.4c-81.3,20.8-162.9,40.2-245.1,56.9    c-37.2,7.5-73.7,18.2-110.1,29c-65.1,19.3-130,39.5-194.2,61.6c-24,8.2-47.3,17.9-70.4,28.3c-12.8,5.8-25.1,12.5-36,21.4    c-6.2,5-12.2,10.4-15.5,18c-6.1,14.1,0.9,26.8,16,29.9c14.1,2.9,27.9,0.1,41.5-3c14.4-3.2,28.1-8.8,40.5-16.7    c14.1-9.1,29.1-16.2,44.4-22.8c91.4-39.6,186-68.8,283.2-90.1c48.1-10.5,96.4-20.4,144.6-30.3c22.7-4.7,45.6-8.7,69.4-13.2    c18.1,30.6,25.4,62.7,21.8,97.1c-18.3,10.9-37.9,11.3-57,13.6c-33.7,4.1-67.5,7.4-101.2,11c-29.8,3.2-59.6,6.3-89.4,9.5    c-33.1,3.6-66.1,7.2-99.2,10.8c-11.9,1.3-23.8,3-35.7,4.2c-5.3,0.6-10.4,2.5-14.9,5.5c-11,7.1-13.5,20.7-6.1,31.4    c4.4,6.3,10.6,9.8,17.7,12.3c13,4.6,26.3,3.6,39.6,2.2c30.4-3.4,60.8-6.8,91.2-10.6c35.7-4.4,71.3-9.4,106.9-13.8    c23.1-2.9,46.1-6.5,69.6-5.4c5.3,0.3,10.7-0.1,14.4,2.9c4.1,3.7,3.9,7.9,4.5,11.8c2.9,19.8,7.5,39.3,13.7,58.2    c7.5,22.8,13.8,45.9,18.8,69.4c4.1,18.9,10.8,37,16.9,55.3c1.9,5.6,4.5,11.1,2,17.1c-6.1,1.3-8.8-3.2-11.8-6.5    c-14.8-16.3-29.4-32.7-43.9-49.3c-11-12.5-21.7-25.3-32.7-37.8c-3-3.4-5.9-7.3-10.6-8.6c-4.5,1.1-4.1,4.7-4.2,7.9    c-0.7,18.1,1.7,35.9,5.5,53.5c4.3,20.2,8.8,40.3,13,60.5c1.1,5.2,1.3,10.5,1.9,15.2c-6,9.3-14.4,15-22.1,21.2    c-57,46.2-117.5,87.6-178.7,128c-146.9,96.9-295.9,190.4-447.1,280.4c-16.1,9.5-31.9,19.4-47.7,29.2    c-67.4,42.1-138.7,76.8-210.5,110.4c-18.7,8.7-37.5,17.4-56.7,25c-51.9,20.5-105.8,31.8-161.8,31.2c-52.8-0.6-105-11.3-153.7-31.5    c-64.7-26.7-127.8-57.1-189-91c-108.4-60.2-213.3-126.2-318.7-191.3c-107.7-66.5-214-135.3-318.8-206.5    c-34.2-23.2-67.5-47.6-99.8-73.4c-12.5-10-25.4-19.2-36.4-32.6c4.6-21.7,9.2-43.8,13.9-65.8c4-18.9,7.2-37.9,6.8-57.4    c-0.1-3.9-0.5-7.8-0.8-11.3c-4.6-2.6-6.8,0.3-8.9,2.7c-18.1,20.5-36.1,41.1-54.3,61.4c-11.1,12.4-22.5,24.5-33.9,36.7    c-1.3,1.4-2.8,3-5.8,1.9c-0.3-1.2-1.2-3-1-4.6c0.4-3.3,1.1-6.5,2.2-9.7c11.8-30.5,18.7-62.4,26.6-94c2.1-8.4,4.9-16.6,7.4-24.9    c6.6-21.6,13.3-43.2,16.3-65.8c0.7-5.2,1.7-10.5,6-15.9c14.1-4,29.3-3,44.4-1.3c39,4.5,77.9,9.8,116.8,14.6    c40.4,5,80.8,9.8,121.1,14.5c7.9,0.9,16,0.8,24,0.8c8.9,0,17-3.1,24.4-7.8c8.6-5.4,13-13.1,11.6-23.6s-8.3-16.6-17.8-19.5    c-7.1-2-14.3-3.3-21.6-3.9c-48.3-5.3-96.6-10.5-144.9-15.6c-43.7-4.6-87.4-9-131.1-13.6c-19.8-2.1-39.6-4.8-59.5-6.9    c-10.8-1.1-20.7-4.4-31-9.1c-6.3-18.7-1-37.1,2.6-54.9c3.1-15.3,7.7-30.9,19.6-43.6c25.7,5.1,51,10.1,76.4,15.1    c62,12.3,124,24.9,185.4,40c84.2,20.7,166.2,48.3,245.4,83.9c10.3,4.7,20.3,10,29.9,16c22.7,14,47.4,20.8,73.8,22.3    c11,0.6,21.9-1.2,26.8-13c4.7-11.1,0.8-20.5-7.5-28.9c-8.1-7.9-17.3-14.7-27.2-20.1c-23.4-12.8-47.9-23.5-73.2-32    c-38.4-13.1-77-26-115.7-38.3c-59.6-18.8-119.4-37.5-180.3-52c-44.7-10.7-89.8-19.4-134.5-29.8c-43.5-10.1-86.7-21.1-130-31.7    c-3.8-0.9-8-1-11.9-7.1c-0.7-1.1,0.9-4.2,2.1-7.3c11.9-31.1,28.1-64.5,37.1-77.1c6.2-1.8,11.7,1.8,17.2,3.4    c94,27.9,185.2,63.4,274,105.1c41.6,19.6,82.1,41.4,122.2,63.8c7,3.9,13.5,8.6,20.1,13c5.5,3.7,12,5.9,18.7,6.2    c21.3,1.2,34.8-16.6,27.8-36.9c-3.4-9.7-9.6-17.4-17.8-23.6c-13.3-10.2-27.6-18.9-43.1-25c-80.7-31.7-159.1-68.4-239.4-100.9    c-42.6-17.2-86.3-31.6-129.6-47c-6.7-2.4-14.5-3.2-19.3-9c-2.1-5.4,0.9-9.3,3-13.4c12.6-25.7,25.7-51.2,37.9-77.2    c10.7-22.9,22.5-45.4,28.2-70.3c6-26,10.2-52.3,9.8-79.1c-0.5-42.7,1.7-85.3,5.4-127.8c3.4-38.5,9-76.7,17-114.5    c1.7-7.8,3.3-15.6,2.4-25.2c-11.5-9.6-23.7-19.7-35.8-30.1c-46.6-40-91.1-81.9-127-132.3c-32.3-45.4-54-94.8-60.5-150.3    c-3.6-31.2-12.4-61.3-18.9-91.9c-3.4-16.3-6.4-32.7-6.6-49.4c-0.3-38.8-9.1-77-25.8-112c-17.7-37.3-32-76.1-51.1-112.8    c-6.2-11.7-13.6-22.8-22-33.1c-5-6.2-10.1-12.3-15.1-18.5c4-4.1,6.8-0.9,8.7,0.9c15.5,14.6,30.4,29.9,43.1,47.1    c43.3,58.6,80.5,120.8,110.4,187.4c15.4,34.1,26.8,69.3,32.8,106.5c6.9,42.1,16.9,83.6,35.9,122.3c14,28.5,32.5,53.4,57.2,73.6    c8.8,7.2,17,14.9,25.5,22.5c9.4,8.5,20.1,15.4,30.9,22c24,14.5,50.3,16.4,77.3,13c9.4-1.2,17.5-6.3,26.1-9.9    c10.6-4.5,17.1-1,18.8,9.9c1.5,9.8,2.9,19.8,3,29.7c0.5,32.7,0.1,65.3,0.7,98c0.2,12-2.9,21.5-10.2,31.2    c-22.7,30.1-39.4,63.3-47.2,100.5c-3.4,16.3-6.2,32.7-6.8,49.4c-0.5,13.3-2.9,26.6-2.5,39.8c1.2,36.6,2,73.3,10.7,109.1    c13.8,57.4,37.8,109.5,82.2,150.2c50.5,46.4,109.3,77.9,175.4,95.9c58.5,15.9,118.2,20.5,178.3,15.4    c72.5-6.1,143.4-24.9,209.5-55.5c29.1-13.4,56.9-29.2,85.2-44.1c7.8-4.1,14.7-9.6,20.3-16.3c0-3.4,0.4-6.7-0.1-10    c-11.2-75-45.5-137-103.6-185.9c-22.5-18.9-45.9-36.4-71.8-50.5c-17-9.3-34.9-16.5-52.7-24.1c-22.1-9.4-44.6-17.7-66.6-27.1    c-43.7-18.6-89.5-30.2-135.4-41.5c-20.7-5.1-41.4-10.1-61.8-16.4c-57.4-17.7-100.2-54-130.3-105.6c-4.4-7.5-6.9-15.6-8.7-24.3    c-11.7-58.8-20.9-117.9-28.7-177.3c-7.5-57.4-15.6-114.7-30.7-170.8c-25.9-95.9-67.9-183.4-130.7-260.6    c-27-33-57.3-63.3-90.4-90.3c-14.4-11.8-28.8-23.8-42.1-36.8c-41.1-40.5-90.6-65-146.3-77.7C621.5,121,607.2,118.2,590.8,114.7z     M2807.9,623.8c19.4-20,34.5-42.1,51.9-62.2c7.4-8.5,10.1-18,10-29.2c-0.8-50-1-100-1.6-150c-0.2-19.9-1.9-21.2-22-21.6    c-85.3-1.8-170.6,0.3-255.8-3.2c-46.6-2-93.3-0.2-139.9-1.5c-20.3-0.6-38.1,2.8-53.6,16.4c-3.6,2.9-7.6,5.5-11.8,7.6    c-11.1,6-16,15.5-16.6,27.7c-1,21.3-2.2,42.6-3,63.8c-0.8,22-0.9,44-1.6,66c-0.4,12.6-1.3,25.2-2,37.9c-0.4,6.7,0.9,13.4,3.8,19.4    c2.8,5.8,7,9.4,13.8,9.8c12,0.7,23.9,1.7,35.8,2.7c3.2,0.3,6.8,0.4,8.2,6c-6.4,11.3-16.2,21.2-25.3,31.7    c-8.8,10-16.9,20.7-26.4,30c-9.8,9.7-16,23-28.1,29.6c-9.2-1-13.2-7.8-18.3-12.8c-68.5-68.1-137-136.4-205.3-204.7    c-38.7-38.6-77.3-77.2-115.9-115.9c-4.7-4.7-9.2-9.8-16.3-10c-5.6,1.9-9.1,6-12.8,9.7c-19.8,19.8-39.6,39.6-59.4,59.4l-260.3,260    c-3.3,3.3-6.5,6.7-10,9.8c-7.4,6.3-12.2,6-18.7-1.4c-16.2-18.6-32.4-37.2-48.4-55.9c-6.5-7.6-13-15.2-19.3-22.9    c-2.6-3.2-4.2-6.8-0.1-11.9c12.1-1,25.3-2.6,38.5-3.2c9.5-0.5,15-5.5,17.1-13.9c1.3-5.8,1.9-11.8,1.6-17.8    c-1-34.6-2.3-69.2-3.4-103.8c-0.5-14.7-0.4-29.3-1-44c-0.3-7.3-1.4-14.6-2.1-21.9c-1-10.1-6.3-17.3-14.7-22.6    c-6.8-4.3-14-8-20.2-12.9c-11.6-9.3-24.3-11.9-39-11.7c-64,1.1-127.9,1-191.8,2.9c-69.3,2-138.6,1.2-207.9,1.8    c-7.2,0.1-14.7-1.7-21,2.3c-4.2,4.7-4.8,9.9-4.9,15.3c-0.1,8.7-0.4,17.3-0.5,26c-0.4,42.7-0.5,85.3-1.2,128    c-0.2,11.3,2.8,20.5,10.3,29c12.3,14,23.7,28.8,35.5,43.2c5.5,6.6,9.9,14.2,17.1,19c26.8,3,53.6-1.5,80,4.2    c31.3,37.5,62.5,74.8,93.6,112.2c29.4,35.3,58.7,70.7,88,106.2c24.2,29.2,48.3,58.6,72.6,87.8c17,20.5,34.4,40.7,51.4,61.2    c8.8,10.6,19.4,14.5,33.2,13.8c45.9-2.3,91.8-3.8,137.8-5.4c12.1-0.4,21.4-4.8,28.7-15.1c15.3-21.8,31.3-43.1,47.2-64.6    c55.3-75.1,110.7-150.2,166-225.2c2.8-3.8,5.4-7.7,11.3-9.5l22.1,3.2c2.5,3.1,4.6,5.6,6.6,8.3c37.2,50.4,74.3,100.8,111.5,151.2    c33.6,45.5,67.6,90.8,100.9,136.7c7,9.6,15.7,13.9,26.7,14.8c4.6,0.4,9.3,0.2,14,0.3c14,0.4,28.1-0.1,42,1.4    c28.6,3.1,57.3,1.5,85.8,3.9c13.4,1.1,23.2-3.7,31.4-13.5c8.6-10.2,17.3-20.3,25.8-30.6c26.6-32.4,53.1-65,79.8-97.3    c31.4-38,62.9-75.9,94.5-113.8c34.9-41.9,70-83.8,105.2-126C2753.6,622.8,2780.4,626.2,2807.9,623.8L2807.9,623.8z M2333.5,2296.4    c7-1.4,11.3,0.4,15.7,1.9c40.6,13.8,82.3,15.6,124.2,8.8c72.8-11.9,139.7-38.9,199-83c37.4-27.8,73.7-57.1,108.6-88    c13-11.5,25.3-23.7,35.4-38c4.3-5.9,7.9-12.3,10.8-19c4.3-10.8,1.8-20.5-6.4-29.4c-16.2-17.5-53-22.1-71.3,0.7    c-5,6.2-9.7,12.7-14,19.5c-7.1,11.3-13.6,22.9-20.4,34.3c-17.4,28.8-38.9,53.9-65.6,74.6c-36.8,28.4-77.8,48.5-121.9,62.7    c-60.5,19.5-121.7,20.8-183.4,8.2c-51.8-10.6-97.8-34.6-140.7-64.4c-37.8-26.2-71.4-57.8-106.8-87.1    c-11.8-9.8-23.4-19.8-36.7-27.6c-17-10-35-16-55-15.4c-11.3,0.4-22.7,0.2-34,0c-10.7-0.1-21.3,1.8-31.3,5.6    c-15.7,5.8-30.2,14.3-42.9,25.1c-31.2,26.1-62,52.5-93.6,78c-56.8,46-119.5,79.8-193,90.2c-33.7,4.7-67.9,4.9-101.6,0.7    c-33.8-4.2-66.3-14.5-97.6-28c-35.1-15.1-67.5-34.8-96.4-59.9c-23.9-20.8-42.1-46.2-57.5-73.7c-7.8-13.9-15.4-28.1-25.8-40.3    c-17.7-20.7-43.5-24-66.3-9c-16,10.5-19.6,24-11.2,41.3c5.6,11.6,14.3,20.8,23.2,29.9c42.5,43.5,90.3,81,139.6,116.1    c56.7,40.4,120.4,65.2,189.3,75.7c19.6,3,39.6,6,59.7,3.9c22.5-2.4,44.9-5.9,66.5-13.1c3.8-1.3,7.5-2.9,11.5-1.2    c4.6,2.5,5.6,7.4,7.3,11.6c12.1,28.9,26.7,56.6,40.6,84.6c6.8,13.8,15.6,26.4,23.8,39.2c3.9,6.1,8.8,11.6,15,14.9    c2.8-0.8,5-3.2,5.5-6.1c4.5-19.4,9.2-38.8,13.2-58.4c4.3-20.8,7.1-42,11.9-62.7c6.1-26,14.8-51.2,31.5-72.8    c9.4-12.1,19-23.9,30.1-34.7c9.6-9.3,19.3-18.3,31.4-24.2c16.2-17.7,37.3-27.8,58.5-37.4c17.6-8,35.8-14.9,55.4-15.6    c14-0.5,28-0.5,42,0c6.7,0.3,13.3,1.3,19.7,3c30.1,7.5,57.4,21,82.7,38.8c5.4,3.8,9.2,10.3,14.9,13c19.3,9.3,31.9,25.9,45.9,40.9    c14.3,15,25.5,32.7,33,52c7,18,12.3,36.6,15.5,55.6c5.2,31.5,10.8,63,19.3,93.8c1.4,5.1,1.9,10.5,6,14.7c7.4-1.1,11-6.9,14.7-12.4    c7-10.5,14.2-21,20.1-32.1c16.5-31.2,32.6-62.6,46.6-95.1C2329.8,2303.8,2331.6,2300.3,2333.5,2296.4z M1990.2,1983.8    c11,0.3,21.9-0.5,32.7-2.4c43-8.2,80.3-27.8,113.4-55.8c19.9-16.9,37.1-36.4,48.2-60.5c5.1-10.9,9-22.2,8.7-34.5    c0-9.4-3.8-18.5-10.4-25.2c-11.6-12-25.8-12.5-35.3-2.6c-5.6,5.8-12.7,9.9-20.4,12.1c-7.7,2.2-13.8,0.5-17.8-5.3    s-5.7-11.9-1.5-18.6c3.2-5,6-10.4,8.9-15.6c8.8-15.8,22.6-20,38.6-11.4c4.6,2.5,8.8,6,13.1,9c13.1,9.1,27.7,9.1,42.2,5.6    c13-3.2,20.3-12.7,21.4-25.9c0.7-7.9-0.2-15.9-0.7-23.9c-0.5-7.3-1.9-14.6-1.9-21.8c-0.2-27.3-0.3-54.6,0.2-81.9    c0.3-15.3,2-30.6,2.6-45.9c0.3-5.3-0.1-10.6-1.2-15.8c-1.7-6.7-7.7-11.4-14.7-11.3c-6.9,0.3-12.7,5.2-14.3,11.9    c-0.9,4.5-0.9,9.2-1,13.9c-0.4,26-0.6,52-1.2,77.9c-0.4,15.3-1.1,30.6-2.6,45.9c-1.3,14-9.4,22-23.2,22.8    c-13.8,0.8-27.6,3.7-41.7,3.6c-95.9-0.4-191.9-0.4-287.8,0c-14.8,0-29.1-3-43.7-4c-10.3-0.7-16.6-8-19.4-17.7    c-1.2-4.4-1.2-9.2-1.3-13.9c-1.2-39.3-2.3-78.5-3.4-117.8c-0.1-4,0-8.1-1.2-11.8c-1.9-6.1-6.4-10-13.1-10.7    c-6-0.6-11.3,2.8-14.2,8.9c-3.5,7.6-2.9,15.6-2.2,23.6c0.6,6.6,1.8,13.2,1.8,19.8c0.3,35.3,0.4,70.6,0.5,105.9    c0,10.7-1.8,21.2-2.6,31.8c-1.7,23.6,8.8,34.5,24.9,37.3c14,2.5,27.9,1.8,40.2-7.2c5.3-4,11-7.4,17.1-10.2    c10.4-4.6,23.4-2.2,29.2,6c5.7,8.2,10.6,16.9,14.4,26.1c4.8,11.6-5.8,23.4-18.1,21.2c-5.9-1.1-11.5-3.7-16.2-7.5    c-3.7-2.8-7.3-5.9-11.1-8.5c-8.2-5.5-16.4-5-24.1,0.8c-14.2,10.6-19.8,24.4-16.2,42c3.8,18,12.3,33.7,23.2,48.2    c26.7,35.5,61.6,60.5,102.2,77.7C1936.3,1978.7,1962,1985,1990.2,1983.8z"
   id="path2"
   style="fill-rule:nonzero;fill:#512371;fill-opacity:1" />
		<path
   class="st2"
   d="M1073.1,997.7c3.1,2,5.1,2.8,6.4,4.3c31.1,34,69.1,58.4,110.1,78.2c24.6,11.9,49.8,22.4,74.6,33.6    c2.4,1.1,4.7,2.5,6.9,3.6c2.8,6.6,2.4,13.3,3,19.9c3.7,42.5,9.8,84.6,22.2,125.6c11.3,37.2,28.2,71.8,49.2,104.5    c2.2,3.3,4.6,6.6,7,9.7c0.9,0.9,2,1.8,3.1,2.4c5.1,0.5,6.7-3.7,8.7-6.9c21.8-34,35.5-71.4,44.2-110.7c6.1-27.5,7.4-55.4,7.9-83.4    c0.1-4.6,0-9.2,0-12.4c3.4-3.3,6.3-3.7,8.7-2.9c25.8,8.7,52,16.1,76.7,28.2c77.4,38,135.9,95.2,175.6,171.5    c2.7,5.2,5,10.6,6.8,14.5c-1.6,5.6-5,6.6-7.8,8.3c-25.6,15.6-52.4,29.1-80.2,40.3c-48.9,19.6-98.7,36.3-150.3,47.4    c-61.9,13.4-124,15.4-186.5,3.4c-43-8.3-80.3-27.5-114.1-54.6c-46-36.9-76.7-84.6-97.1-139.2c-8.2-21.9-11-45.2-14.9-68.1    c-4.1-24.4-4.7-49-3.8-73.7c1.4-38.7,9.4-76.8,23.5-112.8C1057.3,1017.3,1062.7,1006.6,1073.1,997.7z"
   id="path3"
   style="fill:#dfa623;fill-opacity:1" />
		<path
   class="st2"
   d="M2295.2,1379.4c42.6-109,156.8-195.7,265.4-215.9c2,13.7,2.6,27.5,2.9,41.2c1.5,56.4,17.1,108.8,44.7,157.9    c3.5,6.3,6.8,12.9,12.4,17.4c6.9-1.2,8.8-6.8,11.5-10.9c29.5-45.1,50.3-93.8,60.6-146.7c6-30.7,11.1-61.6,12.2-93    c0.1-3.3,0.8-6.6,1.1-9.1c3.8-5.4,9.2-6.5,14-8.6c33.1-14.1,65.9-28.6,97.3-46.3c29.3-16.4,55.8-36.3,79.1-60.4    c2.8-2.9,5.4-6,10.3-6.3c14.1,13,20,30.8,25.8,48.4c15.1,45.5,19.2,92.5,15.8,140.1c-2.2,31.2-6.2,62.8-16.7,92.2    c-29.2,81.8-80.6,144.8-161,181.8c-15.2,6.8-31.1,11.9-47.4,15.1c-74,15.4-147.1,9.9-219.6-9.4c-43.8-11.6-86.7-26.1-128.5-43.5    c-24.6-10.4-48.3-22.5-71.1-36.3C2300.7,1385,2296.6,1383.6,2295.2,1379.4z"
   id="path4"
   style="fill:#dfa623;fill-opacity:1" />
		<path
   class="st2"
   d="M535.7,145.4c10.7-1.2,21.5,0.1,31.6,3.7c24,8.1,47.8,16.7,71.5,25.3c19.5,7.1,37,18.3,54.6,29    c60.1,36.5,114.8,79.8,164.9,129.1c32.4,31.8,59.8,68.3,81.2,108.4c38.3,71.8,65.7,148.9,81.2,228.8c5.9,30.1,10.8,60.3,12.8,91    c0.3,4,0,7.9,0,13.4c-12.7,8.1-27.1,12.3-42.3,14.2c-17.3,2.1-34.8-0.2-50.9-6.8c-42.4-16.9-74.7-45.9-99.9-83.1    c-24.6-36.4-39.2-77-47.5-119.9c-4-20.9-7.9-41.9-11.9-62.8c-4.5-23-12.4-44.9-22.6-66c-25.4-52.9-52.7-104.7-83.4-154.7    C645.2,246.1,606.8,204.5,564,167c-4.9-4.3-11.2-7.1-16.6-11C543.3,153.1,537.6,151.8,535.7,145.4z"
   id="path5"
   style="fill:#dfa623;fill-opacity:1" />
		<path
   class="st2"
   d="M3443.6,144.1c-4.1,8.4-9.8,10.7-14.9,13.3c-7.2,3.7-13.3,8.8-19.3,14.1c-47.6,42.5-88.3,90.6-119.8,146.3    c-23.9,42.3-46.8,85.2-68.3,128.8c-14.2,29-22.9,59.6-28.6,91.2c-3.8,21-7.1,42.1-12.3,62.7c-12.2,48.5-32.8,92.9-67.8,129.5    c-21.9,22.9-47,41.3-77,52.3c-30.7,11.2-60.1,8.4-90.2-8.6c-2.2-7.1-0.9-14.5-0.1-21.6c10.3-97.5,35.6-190.7,77.3-279.7    c30.8-65.7,74-121.3,128.1-169.2c47.4-42,98.8-79.3,153.4-111.4c27.7-16.4,58.1-26.5,88.4-36.6c9.5-3.1,19-6.1,28.7-8.4    C3427.8,145.3,3434.5,145.1,3443.6,144.1z"
   id="path6"
   style="fill:#dfa623;fill-opacity:1" />
		<path
   class="st1"
   d="M695.2,1762.7c-2.9-13.7,1.7-24.2,4.2-34.8c8.1-33.9,16.1-54.7,26.6-70.9c12.5-2.4,24.2,2.5,37.5,5.1    c-3.4,9.1-9.8,14.1-14.5,20.2c-4.8,6.3-10.1,12.3-15,18.7c-4.9,6.3-9.7,12.7-14.1,19.4c-4.3,6.7-7.8,13.9-11.9,20.8    C704.2,1747.6,701.9,1755.3,695.2,1762.7z"
   id="path7"
   style="fill:#512371;fill-opacity:1" />
		<path
   class="st1"
   d="M3254.3,1657.1c13.5,27.4,21.9,55.2,28.2,84c1.4,6.5,2.2,12.8,1.1,19.5c-1.7-0.8-3.5-1-3.9-1.8    c-13.2-28.7-30.7-54.4-51.6-78c-4.3-4.9-9.7-9.2-11-16.2C3227.4,1658.5,3236.4,1656.6,3254.3,1657.1z"
   id="path8"
   style="fill:#512371;fill-opacity:1" />
		<path
   class="st1"
   d="M3252.1,1924.9c-24.1-30.6-48.4-54.6-75.8-78.2c9.4-5.3,17.3-2.2,24.6-2.6c7.2-0.5,14.5-0.1,20.8-0.1    C3234.5,1860.9,3247.5,1895,3252.1,1924.9z"
   id="path9"
   style="fill:#512371;fill-opacity:1" />
		<path
   class="st1"
   d="M729.1,1920.2c0-4.6-1-9.6,0.3-13.8c6.7-20.8,13.8-41.6,24.4-61.1c14.7-1.7,29.5-2.1,44.2-1.1    c2.6,3.8,1.1,5.6-0.3,6.8c-24,20.1-45.9,42.5-65.5,66.9c-0.8,1-2.2,1.5-3.3,2.2L729.1,1920.2z"
   id="path10"
   style="fill:#512371;fill-opacity:1" />
		<path
   class="st1"
   d="M3400.5,227.8l2.2-2.5c2.6,2.3,0.4,2.7-1.4,3.3L3400.5,227.8z"
   id="path11" />
		<path
   class="st1"
   d="M3396,231.3c0.8-2.1,2.1-3.5,4.5-3.5l0.8,0.8c0.2,2.1-1,4.2-3,5L3396,231.3z"
   id="path12" />
		<path
   class="st1"
   d="M3398.3,233.5c-1.3,0.9-3.4,2.9-3.7,2.7c-2.8-2.4-0.4-3.6,1.4-4.9L3398.3,233.5z"
   id="path13" />
		<path
   class="st1"
   d="M728.8,1920l-0.9,1.2l1.1-1L728.8,1920z"
   id="path14" />
		<polygon
   class="st1"
   points="3194.6,2062.6 3194.3,2061.2 3195.3,2061.4   "
   id="polygon14" />
		<path
   class="st0"
   d="M2807.9,623.8c-27.5,2.4-54.3-1.1-80.6,4c-35.2,42.2-70.3,84-105.2,126c-31.6,37.9-63.1,75.8-94.5,113.8    c-26.7,32.4-53.2,64.9-79.8,97.3c-8.5,10.3-17.2,20.4-25.8,30.6c-8.2,9.8-18,14.6-31.4,13.5c-28.5-2.4-57.2-0.8-85.8-3.9    c-13.9-1.5-28-1-42-1.4c-4.7-0.1-9.4,0.1-14-0.3c-11.1-0.9-19.7-5.2-26.7-14.8c-33.3-45.8-67.2-91.1-100.9-136.7    c-37.2-50.4-74.4-100.8-111.5-151.2c-2-2.7-4.1-5.2-6.6-8.3l-22.1-3.2c-5.9,1.9-8.5,5.8-11.3,9.5    c-55.3,75.1-110.7,150.2-166,225.2c-15.8,21.5-31.8,42.8-47.2,64.6c-7.2,10.3-16.6,14.6-28.7,15.1c-45.9,1.6-91.9,3.1-137.8,5.4    c-13.9,0.7-24.5-3.2-33.2-13.8c-17-20.5-34.3-40.8-51.4-61.2c-24.3-29.2-48.4-58.5-72.6-87.8c-29.3-35.4-58.6-70.8-88-106.2    c-31.1-37.4-62.3-74.6-93.6-112.2c-26.4-5.7-53.2-1.2-80-4.2c-7.2-4.8-11.7-12.4-17.1-19c-11.8-14.4-23.2-29.2-35.5-43.2    c-7.5-8.6-10.5-17.7-10.3-29c0.7-42.7,0.8-85.3,1.2-128c0.1-8.7,0.3-17.3,0.5-26c0.1-5.4,0.7-10.7,4.9-15.3    c6.3-3.9,13.8-2.2,21-2.3c69.3-0.6,138.7,0.2,207.9-1.8c64-1.9,127.9-1.8,191.8-2.9c14.7-0.2,27.4,2.4,39,11.7    c6.2,5,13.4,8.7,20.2,12.9c8.3,5.3,13.7,12.5,14.7,22.6c0.7,7.3,1.8,14.6,2.1,21.9c0.6,14.7,0.6,29.3,1,44    c1.1,34.6,2.4,69.2,3.4,103.8c0.3,6-0.2,12-1.6,17.8c-2.1,8.4-7.6,13.5-17.1,13.9c-13.2,0.6-26.4,2.2-38.5,3.2    c-4.1,5.1-2.5,8.8,0.1,11.9c6.3,7.8,12.8,15.4,19.3,22.9c16.1,18.7,32.2,37.3,48.4,55.9c6.5,7.4,11.3,7.8,18.7,1.4    c3.5-3,6.7-6.5,10-9.8l260.3-260c19.8-19.8,39.6-39.6,59.4-59.3c3.8-3.8,7.2-7.9,12.8-9.7c7.1,0.2,11.7,5.3,16.3,10    c38.7,38.6,77.3,77.2,115.9,115.9c68.4,68.3,136.8,136.5,205.3,204.8c5.1,5,9.1,11.8,18.3,12.8c12.1-6.6,18.2-20,28.1-29.6    c9.5-9.3,17.6-20,26.4-30c9.1-10.5,18.9-20.4,25.3-31.7c-1.5-5.6-5-5.8-8.2-6c-11.9-1-23.9-2-35.8-2.7c-6.8-0.4-11.1-3.9-13.8-9.8    c-2.9-6-4.2-12.7-3.8-19.4c0.7-12.6,1.6-25.2,2-37.9c0.7-22,0.8-44,1.6-66c0.7-21.3,2-42.6,3-63.8c0.6-12.2,5.5-21.7,16.6-27.7    c4.2-2.1,8.1-4.6,11.8-7.6c15.5-13.5,33.2-17,53.6-16.4c46.6,1.4,93.4-0.4,139.9,1.5c85.3,3.6,170.6,1.5,255.8,3.2    c20.1,0.4,21.8,1.7,22,21.6c0.6,50,0.8,100,1.6,150c0.2,11.3-2.6,20.7-10,29.2C2842.4,581.7,2827.3,603.8,2807.9,623.8z     M2400.8,960.3c1.4,1.5,3,2.6,4.7,0.7c6.2-6.9,12.5-13.9,18.4-21c38.6-45.9,77.1-91.9,115.6-137.9c12-14.3,24.7-28,36.5-42.4    c30-36.5,59.6-73.4,89.6-110c29.1-35.6,58.6-70.9,87.8-106.4c2.5-3.1,4.7-6.4,5.9-8c15.6,0,28.2,0.4,40.9-0.1    c12.4-0.5,25.3,2,36.5-3.5c4-5.6,2.9-11,3-16.3c0.8-36-2.1-71.9,0.5-107.9c0.3-4.2-1-7.9-6.5-11.7c-3.4,0-8.7,0-14,0    c-107.3-0.2-214.6-0.3-321.9-0.4c-10.5,0-21,0.7-32.6,1.2c-6.7,37.3-3.8,74.1-6.7,110.4c-0.4,5.2-1.2,10.7,2.6,15.3    c4.8,3.3,10.3,1.9,15.4,2c22,0.3,44,0.3,66,0.5c4.7-0.1,9.3,0.1,13.9,0.7c5.9,0.8,10.1,6.2,9.4,12.2c-0.1,1-0.4,1.9-0.8,2.8    c-1,2.4-2.4,4.7-4.1,6.8c-52.8,71.1-105.7,142.2-158.6,213.3c-3.5,4.8-7.4,9.5-11.5,13.8c-4.7,5-10.4,5.9-16.3,2.1    c-4.4-2.9-8.5-6.4-12.2-10.2c-45.9-45.5-92.3-90.5-137.6-136.6c-72.8-74.2-149.9-144.2-219.4-221.6c-10.2-11.3-22.1-11-32.7,0.5    c-9.9,10.8-19.1,22.3-29.4,32.7c-30.9,31.3-62.2,62.2-93.4,93.2c-59.6,59.2-119.2,118.3-178.9,177.4    c-18.5,18.3-36.9,36.6-55.4,54.9c-3.2,3.4-6.7,6.4-10.5,9.1c-6.7,4.5-12.6,3.8-17.9-2c-4.5-4.9-8.7-10.1-12.7-15.5    c-47.8-64.1-95.6-128.2-143.3-192.4c-5.6-7.5-11.5-14.8-16.6-22.5s-1.3-16.7,7.8-18.2c4.6-0.6,9.3-0.8,14-0.7    c22-0.2,44-0.2,66-0.5c5.2-0.1,10.7,1.3,14.4-1.4c2.5-1.9,3.8-5,3.4-8.1c-1.5-36-2.9-71.9-4.6-107.8c-0.2-3.2-1.9-6.3-3.2-10.4    c-11.3-0.4-22.5-1.2-33.8-1.1c-84.7,0.2-169.4,0.4-254.1,0.6c-23.3,0-46.7-0.2-70-0.2c-4.5,0-9.4-1-13.2,2.6    c-3.3,4-3,8.6-2.8,13.3c0.4,10.6,0.9,21.3,0.9,31.9c0,24-0.2,48-0.3,72c0,5.2-1.1,10.7,3.4,17.1c23.6,5,48.9,1.2,74.1,2.7    c8.7,6.5,14.1,15.8,20.9,24c41.3,49.7,82.7,99.3,123.7,149.3c27,33,53.8,66.2,81.7,98.5c37.6,43.3,73.7,87.7,110.6,131.7    c7.3,8.7,15,17,22,25.9c6,7.5,13.4,10.4,22.7,10c14-0.6,28-0.9,42-1.2c5.8-0.1,10-2.5,13.6-7c8.3-10.4,17.3-20.3,25.5-30.8    c40.5-51.2,81.2-102.3,121.4-153.8c58.9-75.6,121.7-148.2,176.8-226.7c7.4-2,15.1-1.8,22.4,0.4c1.8,2.2,3.9,4.8,5.9,7.4    c20.1,26.5,39.8,53.4,60.5,79.5c77.2,97.8,154.6,195.4,232.2,292.9c10.3,13,20.5,26.1,32.5,37.6c17.2,0.5,33.8,1,50.4,1.6    c9.6,0.3,16.8-3.3,21.2-11.9c0.3-0.5-1.3-1.9-2-2.9L2400.8,960.3z M1725.1,975.9c6.9-9,12.9-16.9,19-24.8    c70.8-91.8,141.6-183.7,212.3-275.6c8-10.4,20.5-18.6,22.9-32c2.3-12.9,0.6-26.6,0.6-39.9c0-2.6,0.1-5.3-3.5-5.8    c-96.5,123.1-193.1,246.2-289.6,369.3c-0.7,0.9-0.6,2.5-1.3,6.1C1697.9,977.9,1710.9,975.7,1725.1,975.9z M1999.8,598.7    c-0.9,16.1-0.6,28.6-0.3,41.1c0.1,4,1.5,7.9,4.1,11c6.5,8.4,12.6,17.1,19.1,25.5c75.2,97.7,150.4,195.3,225.6,292.9    c2,2.7,4.1,5.2,9.1,6.9c9.6-0.9,20.9,1.2,32-1.5c1.1-0.3,1.9-1.6,2.6-2.2c0.1-1.8,0.8-3.4,0.2-4.3    C2286.7,958.6,2012.9,612.2,1999.8,598.7z M2386.5,539.2c1.6,2.4,4.8,3.1,7.4,1.8c15.1-7.3,29.4-16.2,42.5-26.8    c1.1-34.7,2.2-67.8,3.2-100.9c0.1-3.3-0.2-6.6-0.8-9.9c-0.4-2.6-1.6-5-5.4-6.9l-40.1,25.7C2389.3,445,2384.8,524,2386.5,539.2    L2386.5,539.2z M1542.1,397c-2.8,14.4-2.2,95.5,0.6,117.4c11.5,9.7,24.8,17.4,38,25c3.5,2,7.3,3.5,12.4-0.8    c-0.2-18.8-0.4-38.7-2.8-58.5s-0.1-39.8-4.8-57.9c-8.4-5.2-15-9.8-22.1-13.4C1556.7,405.3,1552.4,397.3,1542.1,397z M2499.9,550.3    c-1.6-4.1-5.5-4.8-9.5-5.1c-9.3-0.6-18.6-1-27.9-1.3c-27.1-0.9-27.1-0.9-50.8,12.3c-4,2.3-7.9,4.8-11.8,7.4    c-2.3,1.5-3.4,4.3-2.6,7c0.6,2.7,2.8,4.4,5.6,5c1.9,0.4,3.9,0.7,5.9,1c11.2,1.2,22.4,2.6,33.7,3.7c27.6,2.6,27.6,2.6,48.3-15.2    c2.5-2.1,4.8-4.5,6.9-7C2499.4,556,2500.8,553.6,2499.9,550.3z M1479.2,549.7c-1.1,5.3,1.9,9,5.5,12c6.1,5.1,12.6,9.7,18.7,14.8    c4.6,3.9,10.6,5.7,16.6,4.9c17.8-1.9,35.6-3.5,53.3-5.3c2-0.2,3.8-1,5.4-2.2c2.3-1.6,3-4.6,1.7-7c-0.8-1.8-2.1-3.3-3.8-4.4    c-18.7-11.5-37.2-23-60.9-18.5c-7.7,1.5-15.8,0.8-23.8,1.3C1487.3,545.5,1482.6,545.9,1479.2,549.7L1479.2,549.7z M2382,724.2    c11.9-9.8,64.5-69.5,93.6-106.2c1.6-2,3.5-4.1,2.5-7.7c-11.1-3.2-19.9-0.1-27.6,9.2c-24.1,29.3-48.6,58.2-72.9,87.2    c-2.6,3-5.3,6.1-4.2,11.1c1,1.2,2,3.1,3.5,4.2S2380.3,723.5,2382,724.2L2382,724.2z M1596.7,724.4c5.3-1,7.7-3.5,8.7-6.7    c1.4-4.3-1.3-7.6-3.9-10.7c-24.8-29.6-49.7-59.2-74.4-88.9c-7.2-8.7-15.7-11.2-26.8-7.6c0.5,2.3,0.4,4.5,1.5,5.9    C1513.6,633,1587.4,716.8,1596.7,724.4L1596.7,724.4z M2775.4,564.7c-10.2,10.9-20.8,21.3-28.4,34.8c39.4,9,44.3,7.5,68.6-19.3    c1.8-2,3.6-3.9,5.4-5.8c2.4-2.6,3.8-5.4,0.5-10.5C2807,563.7,2791.3,563.6,2775.4,564.7z M1186.3,603.1c13.8,1.7,27-0.7,40.2-1    c1.8,0,3.5-1.3,6.5-2.4c-8.8-13.1-18.9-24.1-29.8-35.4c-15,0-30.1,0-45.3,0.1c-0.9,0-1.8,1.6-2.8,2.5    C1159.2,577.8,1163.4,582.8,1186.3,603.1z"
   id="path15" />
		<path
   class="st0"
   d="M2333.5,2296.4c-1.9,3.8-3.7,7.3-5.3,10.9c-13.9,32.5-30.1,63.9-46.6,95.1c-5.9,11.2-13.1,21.6-20.1,32.2    c-3.6,5.4-7.3,11.3-14.7,12.4c-4.1-4.2-4.6-9.6-6-14.7c-8.4-30.9-14-62.3-19.3-93.8c-3.3-19-8.5-37.7-15.5-55.6    c-7.5-19.3-18.7-37-33-52c-14-15-26.6-31.6-45.9-40.9c-5.7-2.8-9.5-9.2-14.9-13c-25.3-17.8-52.6-31.3-82.7-38.8    c-6.4-1.7-13-2.7-19.7-3c-14-0.4-28-0.5-42,0c-19.7,0.7-37.9,7.6-55.4,15.6c-21.2,9.6-42.3,19.7-58.5,37.4    c-12.2,5.9-21.9,14.8-31.4,24.2c-11,10.7-20.7,22.6-30.1,34.7c-16.7,21.5-25.4,46.8-31.5,72.8c-4.8,20.7-7.7,41.9-11.9,62.7    c-4,19.5-8.8,38.9-13.2,58.4c-0.5,2.9-2.7,5.3-5.5,6.1c-6.1-3.3-11-8.8-15-14.9c-8.3-12.9-17-25.4-23.8-39.2    c-13.9-28-28.6-55.7-40.6-84.6c-1.7-4.2-2.7-9.1-7.3-11.6c-4-1.7-7.8-0.1-11.5,1.2c-21.6,7.2-44,10.7-66.5,13.1    c-20.1,2.2-40-0.9-59.7-3.9c-68.9-10.4-132.6-35.3-189.3-75.7c-49.4-35.2-97.1-72.6-139.6-116.1c-8.8-9.1-17.6-18.3-23.2-29.9    c-8.4-17.3-4.8-30.8,11.2-41.3c22.8-15,48.7-11.7,66.3,9c10.4,12.2,18,26.4,25.8,40.3c15.4,27.5,33.6,52.9,57.5,73.7    c28.9,25.1,61.2,44.8,96.4,59.9c31.3,13.5,63.8,23.8,97.6,28c33.8,4.3,67.9,4,101.6-0.7c73.5-10.4,136.2-44.2,193-90.2    c31.6-25.6,62.5-52,93.6-78c12.7-10.8,27.2-19.3,42.9-25.1c10-3.8,20.6-5.7,31.3-5.6c11.3,0.2,22.7,0.3,34,0    c20-0.7,38.1,5.4,55,15.4c13.3,7.8,24.9,17.8,36.7,27.6c35.4,29.3,69,60.8,106.8,87.1c42.9,29.8,89,53.9,140.7,64.4    c61.7,12.6,122.9,11.3,183.4-8.2c44.2-14.2,85.1-34.3,121.9-62.7c26.8-20.6,48.3-45.8,65.6-74.6c6.9-11.4,13.4-23.1,20.4-34.3    c4.3-6.7,9-13.2,14-19.5c18.2-22.8,55.1-18.2,71.3-0.7c8.1,8.8,10.6,18.5,6.4,29.4c-2.8,6.7-6.4,13.1-10.8,19    c-10,14.2-22.4,26.4-35.4,38c-34.9,31-71.2,60.2-108.6,88c-59.4,44.1-126.2,71.1-199,83c-41.9,6.8-83.6,5-124.2-8.8    C2344.8,2296.9,2340.5,2295.1,2333.5,2296.4z"
   id="path16" />
		<path
   class="st0"
   d="M1990.2,1983.8c-28.2,1.1-53.9-5.1-78.7-15.6c-40.6-17.2-75.5-42.2-102.2-77.7    c-10.9-14.5-19.5-30.2-23.2-48.2c-3.7-17.6,2-31.5,16.2-42c7.8-5.8,16-6.2,24.1-0.8c3.9,2.6,7.4,5.6,11.1,8.5    c4.7,3.8,10.2,6.3,16.2,7.5c12.3,2.2,22.8-9.7,18.1-21.2c-3.8-9.2-8.7-18-14.4-26.2c-5.8-8.2-18.8-10.6-29.2-6    c-6.1,2.8-11.8,6.2-17.1,10.2c-12.3,9-26.2,9.7-40.2,7.2c-16.1-2.8-26.6-13.7-24.9-37.3c0.8-10.6,2.6-21.1,2.6-31.8    c-0.1-35.3-0.2-70.6-0.5-105.9c-0.1-6.6-1.3-13.2-1.8-19.8c-0.7-8-1.3-16,2.2-23.6c2.8-6.1,8.2-9.5,14.2-8.9    c6.7,0.7,11.1,4.6,13.1,10.7c1.2,3.7,1,7.9,1.2,11.8c1.2,39.3,2.3,78.6,3.4,117.8c0.1,4.6,0.1,9.5,1.3,13.9    c2.7,9.7,9,17,19.4,17.7c14.6,1,28.9,4,43.7,4c96-0.3,191.9-0.3,287.8,0c14.1,0,27.8-2.8,41.7-3.6s21.9-8.8,23.2-22.8    c1.4-15.2,2.1-30.6,2.6-45.9c0.7-26,0.8-52,1.2-78c0.1-4.6,0-9.4,1-13.9c1.5-6.7,7.4-11.6,14.3-11.9c6.9-0.1,13,4.6,14.7,11.3    c1.1,5.2,1.6,10.5,1.2,15.8c-0.7,15.3-2.4,30.6-2.6,45.9c-0.5,27.3-0.4,54.6-0.2,82c0,7.3,1.4,14.5,1.9,21.8    c0.5,8,1.4,16,0.7,23.9c-1.2,13.2-8.5,22.7-21.4,25.9c-14.5,3.5-29.1,3.4-42.2-5.6c-4.4-3-8.5-6.5-13.1-9    c-15.9-8.7-29.8-4.4-38.6,11.4c-2.9,5.2-5.7,10.5-8.9,15.6c-4.2,6.7-2.5,12.8,1.5,18.6s10.1,7.6,17.8,5.3    c7.8-2.1,14.8-6.3,20.4-12.1c9.5-9.9,23.7-9.4,35.3,2.6c6.6,6.7,10.3,15.7,10.4,25.1c0.3,12.4-3.7,23.6-8.7,34.5    c-11.2,24-28.3,43.6-48.2,60.5c-33,28-70.3,47.7-113.4,55.8C2012.1,1983.4,2001.2,1984.1,1990.2,1983.8z"
   id="path17" />
		<path
   class="st2"
   d="M2401.2,960c0.7,1,2.2,2.4,2,2.9c-4.4,8.6-11.7,12.2-21.2,11.9c-16.6-0.6-33.3-1-50.4-1.6    c-12-11.6-22.2-24.7-32.5-37.6c-77.5-97.6-155-195.2-232.3-292.9c-20.6-26.1-40.3-53-60.5-79.5c-2-2.6-4.1-5.1-5.9-7.4    c-7.3-2.2-15.1-2.4-22.4-0.4c-55.2,78.5-117.9,151.1-176.8,226.7c-40.2,51.5-80.8,102.6-121.4,153.8    c-8.3,10.4-17.2,20.4-25.5,30.8c-3.6,4.5-7.8,6.9-13.6,7c-14,0.3-28,0.6-42,1.2c-9.3,0.4-16.8-2.5-22.7-10    c-7.1-8.8-14.7-17.2-22-25.9c-36.8-43.9-73-88.4-110.5-131.7c-27.9-32.3-54.6-65.5-81.7-98.5c-41-50-82.4-99.6-123.7-149.3    c-6.8-8.1-12.2-17.5-20.9-24c-25.2-1.5-50.5,2.2-74.1-2.7c-4.5-6.4-3.4-11.9-3.4-17.1c0-24,0.3-48,0.3-72    c0-10.7-0.5-21.3-0.9-31.9c-0.2-4.7-0.4-9.3,2.8-13.3c3.8-3.7,8.6-2.6,13.2-2.6c23.3,0,46.7,0.2,70,0.2    c84.7-0.2,169.3-0.4,253.9-0.7c11.2,0,22.5,0.7,33.8,1.1c1.3,4.2,3.1,7.2,3.2,10.4c1.7,35.9,3.2,71.9,4.6,107.8    c0.3,3.1-1,6.2-3.4,8.1c-3.8,2.7-9.3,1.3-14.4,1.4c-22,0.3-44,0.3-66,0.5c-4.7-0.1-9.4,0.1-14,0.7c-9.1,1.5-13,10.3-7.8,18.2    s11,15,16.6,22.5c47.8,64.1,95.5,128.3,143.3,192.4c3.9,5.4,8.2,10.5,12.7,15.5c5.4,5.8,11.3,6.5,17.9,2c3.8-2.7,7.3-5.8,10.5-9.1    c18.5-18.3,37-36.6,55.4-54.9c59.6-59.1,119.3-118.2,178.9-177.4c31.2-31,62.5-61.9,93.4-93.2c10.3-10.4,19.4-21.9,29.4-32.7    c10.6-11.4,22.5-11.8,32.7-0.5c69.5,77.5,146.6,147.4,219.4,221.6c45.3,46.1,91.7,91.2,137.6,136.6c3.7,3.8,7.8,7.2,12.2,10.2    c5.9,3.8,11.6,2.9,16.3-2.1c4.1-4.4,7.9-9,11.5-13.9c52.9-71.1,105.8-142.2,158.6-213.3c1.7-2.1,3-4.3,4.1-6.8    c2.3-5.5-0.2-11.9-5.8-14.2c-0.9-0.4-1.9-0.6-2.8-0.8c-4.6-0.6-9.3-0.8-13.9-0.7c-22-0.2-44-0.2-66-0.5c-5.2-0.1-10.7,1.3-15.4-2    c-3.8-4.7-3-10.2-2.6-15.3c2.9-36.3,0-73,6.7-110.4c11.6-0.4,22.1-1.2,32.6-1.2c107.3,0.1,214.6,0.2,321.9,0.4c5.3,0,10.6,0,14,0    c5.5,3.8,6.8,7.5,6.5,11.7c-2.6,36,0.2,71.9-0.5,107.9c-0.1,5.2,1,10.7-3,16.3c-11.2,5.5-24,3.1-36.5,3.5    c-12.6,0.5-25.3,0.1-40.9,0.1c-1.2,1.6-3.4,4.9-5.9,8c-29.2,35.5-58.6,70.8-87.8,106.4c-30,36.6-59.6,73.5-89.6,110    c-11.8,14.4-24.5,28.1-36.5,42.4c-38.6,45.9-77.1,91.9-115.6,137.9c-6,7.1-12.2,14-18.4,21c-1.7,1.9-3.3,0.8-4.7-0.7    c-2.9-4.2,1.2-7.2,1.8-10.8c1.4-8.2-2.3-16.2-9.4-19.8c-6.7-3.3-14.7-2.1-20.1,3.1c-5.7,5.8-7,14.7-3,21.8c4,6.7,12.3,10,20.4,8    C2394.1,961.8,2396.8,957.3,2401.2,960z M1988.7,453.2c12.8-0.2,20-5.9,21.1-15.5c1.2-11.2-6.9-19.8-19.2-20.3    c-12.5-0.5-21.6,7-21.8,17.9c-0.3,8.2,5.4,15.5,13.5,17.2C1984.4,453,1986.5,453.2,1988.7,453.2z M1191.3,423.3    c-0.2-9-9-17.7-18.2-17.6c-9.5,0-17.3,8.2-17.3,18.1c-0.2,9.3,7.2,17.1,16.5,17.3c0.4,0,0.8,0,1.2,0    C1183.4,440.9,1191.5,432.8,1191.3,423.3z M1485.7,405.7c-9.4-0.3-17.6,7.7-17.8,17.6c-0.2,10.2,7.1,17.7,17.2,17.8    c9.7,0.2,17.8-7.5,18.2-17.2C1503.5,414.8,1495,406,1485.7,405.7z M2511.4,423.2c-0.2-9-9.2-17.6-18.3-17.5    c-9.6,0.1-17.3,8.3-17.1,18.2c0.1,10.1,7.7,17.4,17.8,17.2C2503.5,440.8,2511.6,432.6,2511.4,423.2z M2823.4,423.7    c0.1-9-8.6-17.8-17.8-18c-9.5-0.2-17.5,7.9-17.6,17.8c-0.1,10.2,7.3,17.7,17.4,17.6C2815.1,441,2823.3,433.2,2823.4,423.7    L2823.4,423.7z M2805.6,487.1c-10.2-0.2-17.6,7.1-17.7,17.3c-0.1,10,7.6,18,17.2,18.1c9.2,0.1,17.8-8.3,18.2-17.6    S2815.3,487.3,2805.6,487.1L2805.6,487.1z M1191.3,503.8c-0.4-9.5-8.9-17-18.7-16.7c-10,0.3-17.1,8.2-16.7,18.3    c0.4,9.8,8.8,17.6,18.3,17.1C1183.4,522,1191.7,512.9,1191.3,503.8z M2493.2,477.7c-9.6,0-17.3,8.2-17.3,18.1    c0.1,10.2,7.5,17.5,17.7,17.3c9.8-0.2,17.9-8.3,17.8-17.7C2511.2,486.3,2502.3,477.7,2493.2,477.7L2493.2,477.7z M1503.3,495.2    c-0.2-9-9.2-17.7-18.3-17.5c-9.6,0.1-17.3,8.3-17.2,18.2c0.1,10.1,7.7,17.4,17.8,17.2C1495.5,512.8,1503.6,504.7,1503.3,495.2z     M1653,944.9c-0.4-9.8-8.7-17.3-18.5-16.9c-9.4,0.4-17.8,9.3-17.2,18.4c0.5,9.1,9.7,17.5,18.8,17.1    C1645.8,962.8,1653.3,954.6,1653,944.9z M2343,928c-9.6,0.2-17.9,8.6-17.6,18c0.2,9.2,9.1,17.8,18.2,17.6    c9.4-0.2,17.6-8.7,17.5-18.2C2360.8,935.6,2352.8,927.9,2343,928L2343,928z M1611.5,945.8c0.2-9.1-8.4-17.7-17.9-17.8    c-9.5-0.2-17.4,7.3-17.6,16.8c0,0.2,0,0.5,0,0.7c-0.1,9.8,7.8,18.1,17.3,18C1602.4,963.5,1611.3,954.8,1611.5,945.8z"
   id="path18"
   style="fill:#dfa623;fill-opacity:1" />
		<path
   class="st2"
   d="M1725.1,975.9c-14.2-0.2-27.2,2-39.7-2.6c0.7-3.6,0.6-5.2,1.3-6.1c96.5-123.2,193-246.3,289.6-369.3    c3.6,0.5,3.5,3.2,3.5,5.8c0,13.3,1.7,27-0.6,39.9c-2.3,13.4-14.9,21.5-22.9,32c-70.5,92-141.3,183.9-212.3,275.6    C1738,959.1,1732,967,1725.1,975.9z"
   id="path19"
   style="fill:#dfa623;fill-opacity:1" />
		<path
   class="st2"
   d="M1999.8,598.7c13,13.5,286.8,359.9,292.4,369.5c0.5,0.9-0.1,2.5-0.2,4.3c-0.7,0.6-1.5,2-2.6,2.2    c-11.2,2.7-22.5,0.6-32,1.5c-5-1.7-7.1-4.2-9.1-6.9c-75.2-97.7-150.4-195.3-225.6-292.9c-6.5-8.4-12.6-17.1-19.1-25.5    c-2.5-3.1-3.9-7-4.1-11C1999.2,627.3,1999,614.8,1999.8,598.7z"
   id="path20"
   style="fill:#dfa623;fill-opacity:1" />
		<path
   class="st2"
   d="M2386.5,539.2c-1.7-15.2,2.8-94.1,6.8-117l40.1-25.7c3.8,1.9,5,4.3,5.4,6.9c0.6,3.3,0.8,6.6,0.8,9.9    c-1,33.1-2.1,66.2-3.2,100.9c-13.1,10.5-27.3,19.5-42.5,26.8C2391.4,542.3,2388.2,541.6,2386.5,539.2z"
   id="path21"
   style="fill:#dfa623;fill-opacity:1" />
		<path
   class="st2"
   d="M1542.1,397c10.3,0.3,14.6,8.4,21.4,11.8c7.1,3.6,13.7,8.2,22.1,13.4c4.7,18.1,2.4,38.3,4.8,57.9    s2.6,39.7,2.8,58.5c-5.1,4.2-8.9,2.7-12.4,0.8c-13.3-7.6-26.5-15.3-38-25C1539.8,492.5,1539.2,411.3,1542.1,397z"
   id="path22"
   style="fill:#dfa623;fill-opacity:1" />
		<path
   class="st2"
   d="M2499.9,550.3c0.9,3.3-0.6,5.6-2.3,7.7c-2.1,2.5-4.5,4.9-6.9,7c-20.7,17.8-20.8,17.9-48.3,15.2    c-11.2-1.1-22.4-2.4-33.7-3.7c-2-0.2-4-0.5-5.9-0.9c-2.8-0.6-5-2.3-5.6-5c-0.7-2.7,0.3-5.5,2.6-7c3.9-2.5,7.8-5.1,11.8-7.4    c23.7-13.2,23.7-13.2,50.8-12.3c9.3,0.3,18.6,0.7,27.9,1.3C2494.4,545.5,2498.3,546.2,2499.9,550.3z"
   id="path23"
   style="fill:#dfa623;fill-opacity:1" />
		<path
   class="st2"
   d="M1479.2,549.7c3.4-3.8,8.1-4.2,12.7-4.5c7.9-0.5,16.1,0.2,23.8-1.3c23.7-4.5,42.3,6.9,60.9,18.5    c1.6,1.1,2.9,2.6,3.8,4.4c1.3,2.4,0.6,5.4-1.7,7c-1.6,1.2-3.5,1.9-5.4,2.2c-17.8,1.9-35.6,3.4-53.3,5.3c-6,0.8-12-0.9-16.6-4.9    c-6.1-5.1-12.7-9.6-18.7-14.8C1481.1,558.7,1478.1,555,1479.2,549.7z"
   id="path24"
   style="fill:#dfa623;fill-opacity:1" />
		<path
   class="st2"
   d="M2382,724.2c-1.6-0.7-3.7-1.1-5.2-2.2s-2.5-3-3.5-4.2c-1.1-5,1.7-8,4.2-11.1c24.3-29.1,48.8-58,72.9-87.2    c7.6-9.3,16.4-12.4,27.6-9.2c1,3.5-0.8,5.6-2.5,7.7C2446.4,654.7,2393.8,714.4,2382,724.2z"
   id="path25"
   style="fill:#dfa623;fill-opacity:1" />
		<path
   class="st2"
   d="M1596.7,724.4c-9.2-7.5-83-91.4-94.9-108c-1-1.4-0.9-3.6-1.5-5.9c11.1-3.6,19.5-1.1,26.8,7.6    c24.7,29.7,49.6,59.3,74.4,88.9c2.6,3.1,5.2,6.4,3.9,10.7C1604.3,720.8,1602,723.4,1596.7,724.4z"
   id="path26"
   style="fill:#dfa623;fill-opacity:1" />
		<path
   class="st2"
   d="M2775.4,564.7c15.9-1.1,31.6-1,46.1-0.9c3.2,5.1,1.9,7.9-0.5,10.5c-1.8,1.9-3.6,3.8-5.4,5.8    c-24.3,26.9-29.2,28.3-68.6,19.3C2754.6,586,2765.2,575.6,2775.4,564.7z"
   id="path27"
   style="fill:#dfa623;fill-opacity:1" />
		<path
   class="st2"
   d="M1186.3,603.1c-22.9-20.3-27.1-25.3-31.2-36.3c0.9-0.9,1.8-2.5,2.8-2.5c15.2-0.2,30.4-0.1,45.3-0.1    c10.9,11.3,21,22.3,29.8,35.4c-3,1.1-4.8,2.4-6.5,2.4C1213.2,602.5,1200.1,604.8,1186.3,603.1z"
   id="path28"
   style="fill:#dfa623;fill-opacity:1" />
		<path
   class="st0"
   d="M1988.7,453.2c-2.2-0.1-4.3-0.3-6.4-0.7c-8.1-1.7-13.7-9-13.5-17.2c0.2-10.9,9.3-18.5,21.8-17.9    c12.3,0.5,20.4,9.1,19.2,20.3C2008.7,447.3,2001.5,453,1988.7,453.2z"
   id="path29" />
		<path
   class="st0"
   d="M1191.3,423.3c0.2,9.5-7.9,17.6-17.7,17.7c-9.3,0.4-17.3-6.8-17.7-16.1c0-0.4,0-0.8,0-1.2    c-0.1-9.9,7.7-18,17.3-18.1C1182.3,405.7,1191.2,414.3,1191.3,423.3z"
   id="path30" />
		<path
   class="st0"
   d="M1485.7,405.7c9.3,0.3,17.8,9.1,17.6,18.2c-0.4,9.7-8.5,17.4-18.2,17.2c-10.1-0.1-17.4-7.6-17.2-17.8    C1468.1,413.4,1476.2,405.4,1485.7,405.7z"
   id="path31" />
		<path
   class="st0"
   d="M2511.4,423.2c0.2,9.4-7.9,17.6-17.6,17.8c-10.1,0.2-17.7-7.1-17.8-17.2c-0.1-9.9,7.6-18.1,17.1-18.2    C2502.2,405.6,2511.1,414.2,2511.4,423.2z"
   id="path32" />
		<path
   class="st0"
   d="M2823.3,423.7c-0.1,9.5-8.2,17.4-18.1,17.4c-10.1,0-17.5-7.4-17.4-17.6c0.1-9.9,8.1-17.9,17.6-17.8    C2814.7,405.9,2823.4,414.7,2823.3,423.7z"
   id="path33" />
		<path
   class="st0"
   d="M2805.6,487.1c9.7,0.2,18,8.5,17.7,17.7s-9,17.7-18.2,17.6c-9.6,0-17.3-8.1-17.2-18.1    C2788,494.2,2795.4,486.9,2805.6,487.1z"
   id="path34" />
		<path
   class="st0"
   d="M1191.3,503.8c0.4,9.1-7.9,18.1-17.1,18.7c-9.4,0.6-17.8-7.3-18.3-17.1c-0.4-10.1,6.7-18,16.7-18.3    C1182.4,486.8,1190.8,494.4,1191.3,503.8z"
   id="path35" />
		<path
   class="st0"
   d="M2493.2,477.7c9.1,0,18,8.6,18.2,17.6c0.2,9.4-8,17.5-17.8,17.7c-10.2,0.2-17.6-7.1-17.7-17.3    C2475.8,485.9,2483.6,477.8,2493.2,477.7z"
   id="path36" />
		<path
   class="st0"
   d="M1503.3,495.2c0.2,9.4-7.8,17.6-17.6,17.8c-10.2,0.2-17.7-7-17.8-17.2c-0.1-9.9,7.6-18,17.2-18.2    C1494.1,477.6,1503.1,486.2,1503.3,495.2z"
   id="path37" />
		<path
   class="st0"
   d="M1653,944.9c0.3,9.7-7.2,18-16.9,18.6c-9.1,0.5-18.2-7.8-18.8-17.1c-0.5-9.2,7.8-18,17.2-18.4    C1644.3,927.6,1652.5,935.1,1653,944.9z"
   id="path38" />
		<path
   class="st0"
   d="M2343,927.9c9.7-0.1,17.8,7.7,18,17.4c0.1,9.5-8.1,18-17.5,18.1c-9.1,0.2-17.9-8.4-18.2-17.6    C2325.2,936.5,2333.5,928.1,2343,927.9z"
   id="path39" />
		<path
   class="st0"
   d="M2401.2,960c-4.4-2.6-7.1,1.8-10.6,2.7c-8.2,2-16.4-1.2-20.4-8c-4-7.1-2.7-16,3-21.8    c5.4-5.2,13.4-6.4,20.1-3.1c7.1,3.6,10.9,11.5,9.4,19.8c-0.6,3.6-4.7,6.6-1.8,10.8L2401.2,960z"
   id="path40" />
		<path
   class="st0"
   d="M1611.5,945.8c-0.2,9-9.1,17.6-18.2,17.7c-9.4,0-17.3-8.2-17.3-18c-0.1-9.5,7.4-17.3,17-17.5    c0.2,0,0.5,0,0.7,0C1603.1,928.1,1611.6,936.7,1611.5,945.8z"
   id="path41" />
		<path
   class="st2"
   d="M2398.1,970.7l16.9-19.9l-11.6-0.5c-0.6,2.3-1.6,4.5-3,6.4c-1.5,2-3.3,3.7-5.4,5l5.5,6.3"
   id="path42" />
		<line
   class="st3"
   x1="2405"
   y1="963.4"
   x2="2464.8"
   y2="892.4"
   id="line42" />
		<circle
   class="st4"
   cx="2385.8"
   cy="946.2"
   r="18.2"
   id="circle42" />
		<path
   class="st5"
   d="M3359.5,267.8c4.3-5.6,9.1-11.3,14.3-17.1c10.8-11.9,22.5-23,35.1-33c-8.7,11.2-16.7,23-24.1,35.1    c-4.5,7.4-8.6,14.6-12.2,21.6"
   id="path43" />
		<line
   class="st6"
   x1="3395.8"
   y1="238.2"
   x2="3405.2"
   y2="224.4"
   id="line43" />
	</g>
</g>
<g
   id="Layer_2">
</g>
</svg>
