<svg id="Layer_1" data-name="Layer 1" xmlns="http://www.w3.org/2000/svg" viewBox="0 0 3977.69 2776.31"><defs><style>.cls-1{fill:#090203;}.cls-2,.cls-6{fill:#6e04aa;}.cls-3{fill:#f4fa04;}.cls-4,.cls-7{fill:none;}.cls-4{stroke:#100906;}.cls-4,.cls-6,.cls-7{stroke-miterlimit:10;}.cls-5{fill:#100906;}.cls-6,.cls-7{stroke:#090203;}.cls-7{stroke-width:2px;}</style></defs><title>Robocat V2</title><path class="cls-1" d="M594.79,983.15c-17.15,14.74-28.8,34.05-43,51-14.06,16.76-27.26,34.24-41.85,49.85-4.8.42-6.92-2.16-8.12-5.34-2.6-6.86-4.53-13.85-4.42-21.37.21-15.33.18-30.67,0-46-.12-10.17,2.74-19.75,5.48-29.31,12.12-42.19,24.46-84.32,36.69-126.48.73-2.54,1.52-5.16-.22-7.7-3.74-2.38-6.06.48-8.46,2.48-25.87,21.61-47.13,47-62.48,77.1-2.72,5.33-5.57,10.61-10.16,14.72s-10.89,2.43-12.46-3.64a32.2,32.2,0,0,1-1-7.87c-.07-17.33-.94-34.73.32-52,.91-12.47,4-24.91,7.39-37,4.24-15.37,9.65-30.41,14.65-45.56,1.3-3.92,1.81-7.75.54-11.45-2.44-3.27-5.81-3.14-9.11-3.49-63.77-6.75-127.75-2.51-191.62-3.63-24.8,5.23-50.31,2.77-75.28,7.4-16.87,3.12-34.31,3.15-51.49,4.5-3.32.26-6.89-.52-9.95.43-14.34,4.44-29.08,3.45-43.66,3.29-27.32-.29-54.51,2.56-81.46,5.56-22.67,2.53-45.17,1.87-67.74,2.81a48.66,48.66,0,0,1-23.18-4.88c-15.67-7.4-18.73-22.76-7-35.94a55,55,0,0,1,36.38-18.78c9.25-1,18.63-.81,28-.91,12.66-.14,25.33,0,38-.05,9.31,0,18.7.82,27.69-2.66a6.79,6.79,0,0,1,2-.36c21.18-1.56,42.33-3.75,63.54-4.47,18.62-.64,36.91-4.69,55.67-3.95a405.8,405.8,0,0,0,47.95-.66c26.55-2.13,53.29-1.71,79.63-4.45,20.4-2.12,41-2.23,61.4-5.51,19.52-3.13,39.88-.94,59.87-1.16,5.19-.06,10.65,1.38,15.16-2.19,3.2-4.3,2.28-9.06,2.3-13.63.07-14,.14-28,.06-42-.06-8.77,1-17.4,4.52-25.4,7.26-16.43,11.36-34.12,20-50,.86-1.57.61-3.74.87-5.65-6.73-2.86-13.44-1.26-20-1.63-9.26-.53-18.69,1-27.75-2.34a11.84,11.84,0,0,0-5.89-.75c-20.66,3.7-40.72-1-61-3.82-7.21-1-14.79.47-21.93-.77-25.74-4.47-52-1.74-77.52-5.17-21.77-2.92-43.94-.22-65.36-6.09-4.37-1.2-9.28-.41-13.94-.49-16.62-.28-33.16.2-49.74-3.06-10.28-2-21.25-.58-31.92-.64-8.66,0-17.33-.11-26,0-15.94.23-31.92-1.09-47.74,2.75-5.71,1.38-11.94.79-17.94.8-35.33.06-70.78,1.8-105.95-.54-25.71-1.72-51.95-1-77.18-7.82a253.25,253.25,0,0,1-32.15-10.65c-12.78-5.4-15.82-20.6-7-31.43,4.26-5.22,9.13-9.69,16.26-10.82,3.92-.61,7.73-2.2,11.66-2.53,44.45-3.73,89-7.8,133.53-3.37,16.39,1.63,33.22,1.13,49.33,5.71a13.62,13.62,0,0,0,3.91.72c20.67-.53,41.12,2.87,61.66,3.69,35.94,1.42,72,.94,108,1.31,15.94.17,32-1.27,47.67,3.09a17.34,17.34,0,0,0,6,.43c22.06-1.92,43.9,2.06,65.52,4.56,27.6,3.18,55.5,4,82.94,9.87,14.69,3.14,29.91,6.07,45.37,5.43,19.38-.8,38.36,2.74,57.29,6.41a54.82,54.82,0,0,0,11.87.83,12,12,0,0,0,11.08-7.22c4.6-9.62,9.45-19.12,13.9-28.81,11.36-24.75,20.4-50.52,34-75-5.92-6.78-14.12-8.22-20.76-12.07a179.87,179.87,0,0,0-19.7-9.7c-32.48-13.91-65.42-26.31-100.89-30.28-19.19-8.24-40.48-7-60.18-13.62-11.14-3.72-23.4-4.81-35.25-5.54-31.19-1.89-61.91-7.1-92.71-11.84-3.93-.6-8-.4-12-.62-19.22-1.09-38.13-4.81-57.19-6.85-15.81-1.69-31.41-5-47.47-5.29-19.22-.36-38.39-2.88-57.6-4.35A19,19,0,0,1,6.6,316.81C.14,311.58-4,306.19-10.35,293.93c4-14.59,13.6-22.64,29.31-24.78,27.11-3.67,54.29-3.74,81.56-3.77,20.07,0,39.58,2.95,59.22,6.36,14.35,2.49,29,2.57,43.4,5.68,21.35,4.6,42.9,8.46,64.5,11.64,8.09,1.18,15.28,3.88,22.8,6.57,13.75,4.9,27.72,9.71,42,12.46C352.8,312,372.12,319.18,392,324.63a1157.27,1157.27,0,0,1,148.66,52c1.1.47,2.57.06,3.52.06,4.13-1.41,4.09-5.14,5.54-8,4.77-9.52,9.06-19.4,14.89-28.25,11-16.73,17.19-35.89,27.73-52.83,4.9-7.87,8.41-16.6,13.11-24.61,7.23-12.33,11.5-25.41,11.79-39.71.18-9.33.13-18.67.24-28,.13-12-.82-24,2.73-35.71,1.13-3.73.91-8,.82-11.93-.46-20.71,3.44-40.89,6.48-61.24,1.85-12.45,1.68-25.24,1.83-37.89.2-16.66-.28-33.33-.28-50,0-23-9.49-42.35-21.83-61-11-16.55-27.15-27.19-41.76-39.71-34.47-29.55-67.73-60.34-91.82-99.38-24.29-39.37-41.45-81.8-52.54-126.73-5.73-23.23-8.81-46.9-12.79-70.44-5.34-31.59-6.28-63.34-8.42-95.15a744.75,744.75,0,0,0-9.45-80.9,569.65,569.65,0,0,0-25.5-96.16c-12.16-33.17-27.73-64.78-45.1-95.61C306.73-789.81,292.07-812,277.11-834c-15.73-23.16-33.7-44.56-51.55-66.07-12.78-15.39-26.12-30.21-40.25-44.38-6.39-6.42-5.84-11.16,1.41-16.42,6.45-4.67,13.12-8.89,20.95-11.33,28.58-8.9,56.9-18.65,85.42-27.76,24.74-7.9,49.84-14.19,75-19.71,27.8-6.1,55.42-13.39,84.07-15.78,21.06-1.75,41.83-6.82,62.86-9.31a240,240,0,0,1,61.7.22c3.94.55,7.87,1.81,11.81,1.81,30.18,0,59.08,8,88.29,14,1.95.4,3.84,1.58,5.75,1.56,31.61-.23,58.69,15.8,87.85,24.34a32.88,32.88,0,0,1,7.22,3.29c29.24,17.22,58.17,35,87.72,51.62,27.83,15.7,53.56,34.86,82.33,49,11.29,5.56,21.7,13,32.4,19.66,10.13,6.35,19.66,5.74,30-.23,49.12-28.33,100.7-51.58,153.2-72.86,24.66-10,49-20.81,73.86-30.28,16.08-6.13,32.81-10.57,49.29-15.63,10.8-3.31,21.72-6.26,32.51-9.59,35.53-10.94,71.26-21,107.92-27.55,9.13-1.62,17.94-5.08,27.07-6.57,31.41-5.11,62.4-12.39,93.9-17.13,23.66-3.56,47.71-3.48,71.07-7.78,29.22-5.38,58.39-2.91,87.58-3.36,38-.6,76-.29,114-.08a427.47,427.47,0,0,1,47.61,2.82c17,2,34.1,4.8,51.47,4.9,13.14.08,26.36,3.09,39.38,5.6,38.43,7.41,76.85,14.84,115.12,23,20.74,4.43,41.19,10.28,61.71,15.71,32.1,8.49,63.58,18.87,95,29.61,53.61,18.31,98.14,35.93,144.67,56.76,35.92,16.08,71,33.69,105.81,52,11.4,6,20.79,6,31.62-.64q38.29-23.46,77.32-45.74c29.42-16.85,57.33-36.24,87.59-51.67,5.34-2.72,10.88-5.33,15.57-9,19.4-15,42.1-22.29,65.19-28.87a109.38,109.38,0,0,0,15-5.51,53.23,53.23,0,0,1,23.17-5c5.25.08,10.57-1,15.76-2.1,21.45-4.35,42.83-9,64.29-13.26,4.52-.89,9.29-.6,13.95-.69a267.59,267.59,0,0,0,27.79-2.4,215.44,215.44,0,0,1,59.63.64c22.26,3.44,44.63,6.2,66.92,9.39,8.55,1.22,17.1,2.53,25.54,4.31,25.95,5.49,52.17,9.68,77.73,17.07,18.49,5.34,37.18,10,55.88,14.58a163.21,163.21,0,0,1,31.81,11.6c18,8.6,36.3,16.71,54.4,25.16,6,2.8,11.77,6.06,17.09,8.82,1.81,6.73-3,9.15-6,12.35-34.5,36.22-65.64,75.23-94.42,116A682,682,0,0,0,3148-723c-22.51,47.68-39.13,97.24-47.73,149.62-4.65,28.34-6,56.68-8.29,85.12-1.65,20.4-1.67,41.05-5.69,61.39-2.16,10.94-3.26,22.3-4.46,33.48-3.64,33.85-11.6,66.57-21.86,99-8.9,28.13-21,54.69-35.27,80.29-20.63,37-47.73,68.7-80.09,96.11-17.25,14.61-35.86,27.71-51.13,44.6C2878-56.28,2867.57-37,2864.15-13.57c-4.08,27.92-5,55.52-.14,83.36,1.13,6.5-.09,13.39.91,19.93,3.89,25.62,3.33,51.62,7.28,77.27,1.81,11.73,1.06,24,.57,35.93-.94,23.25,4.35,44.6,15.5,65.13,18.39,33.86,35.68,68.31,53.52,102.47,1.17,2.26,3,4.18,4.91,6.79,9.12-3.44,17.82-6.42,26.29-10,57.81-24.27,118.05-41,178.29-57.75,19.18-5.34,38.63-9.57,57.18-17.33a87.52,87.52,0,0,1,31-6.34c19.55-.5,37.89-6.5,56.78-9.94,2.6-.47,5.11-1.55,7.72-1.87,14.49-1.74,29.26-2.13,43.43-5.25,21.15-4.64,42.42-2.44,63.61-3.63,21.36-1.2,42.41,2.28,63.53,4.38,10.58,1.06,18.41,7.45,24.3,16a12.88,12.88,0,0,1,0,15.1A69.51,69.51,0,0,1,3480.6,319c-2,1.41-4.93,2-7.5,2.21-20.49,1.93-40.91,4.4-61.54,5.07-15.18.49-30.31,3-45.43,4.85-15.77,1.9-31.47,4.49-47.27,5.95-19.16,1.78-38.17,4.25-57.14,7.49a345.59,345.59,0,0,1-45.48,4.84c-12.1.45-23.74,3.17-35.41,5.34-22.8,4.25-45.27,10.22-67.9,15.43-7.12,1.63-14.24,3.29-21.43,4.59-31,5.62-59.81,17.64-88.47,30.1-10.92,4.75-22.52,8.08-32.21,14.35,0,2-.46,3.59.07,4.6,16,30,27.86,61.87,42,92.69,7.07,15.37,12,17.53,28,15.1,17.67-2.68,35.23-6.28,53.29-6.24,25.32.06,50-5.92,75-9.16,7.23-.93,14.46-1.68,21.7-2.54,22.39-2.66,45-3.57,67.24-7.48,5.84-1,12-.48,17.95-.59,10.64-.19,21.27.38,31.76-2.69,4.35-1.28,9.24-.93,13.88-1q61-.58,122-1c10-.09,20,.63,29.73-2.53a26.79,26.79,0,0,1,9.92-.8c21.39,1.51,42.63-1.88,63.5-4.65,43.25-5.73,86.4-3.39,129.61-2.81,11.19.15,22.42,2.25,33.49,4.27,8.9,1.63,15.74,7.39,20.76,14.65s2.87,15.25,1.86,22.81c-7,7.69-16,10.65-24.74,13.42a199.44,199.44,0,0,1-42.84,8.53,1181.57,1181.57,0,0,1-165.6,3c-33.26-1.74-66.45-2.51-99.71-2.73-8.63-.05-17.31-.63-25.75,2.29a21.43,21.43,0,0,1-7.9.94c-28-1.48-55.66,4.2-83.6,4.09-2.66,0-5.44-.29-8,.33-21.63,5.27-43.73,3.45-65.62,4.09-9.46.27-18.33,3.6-27.64,3.63-22.65.07-44.94,3.28-67.24,6.74-3.15.48-6.54-.44-9.8-.85-2.63-.32-5.51-1.81-7.79-1.14-16.95,5-34.49,1.29-51.55,4a6.53,6.53,0,0,0-1.73.8c-2.43,3.17-1.31,6.22,0,9.35,4.43,10.42,8.59,20.95,13.22,31.27,10,22.37,12.62,46,12.16,70.12-.09,4.6-1.28,9.18-2,13.76-.66,4-1.27,7.89,1.11,11.59,3.11,3.32,7.27,2.75,11.19,2.77,14.66.08,29.33,0,44,.07,10.63,0,21.36-.9,31.64,3a11.1,11.1,0,0,0,4,.5c29.29-.14,58.42,3.29,87.58,5.05,36.58,2.22,73.18,1.92,109.67,4,16.54.95,33.43.68,49.61,3.49,18.4,3.19,37.21,1.16,55.35,6.15,5,1.38,10.59.74,15.91.76,20,.09,40,.28,60,0,14.56-.19,27.2,5,39.58,12,10.69,6,14.28,15,13.79,26.62-.34,8.34-4.57,14-11.82,17s-15,5.35-23.23,5c-21.9-1-43.72-.41-65.73-2.7-33-3.44-66.17-6.39-99.47-5.71-8,.16-16,.47-23.72-2.4a18,18,0,0,0-7.88-1.07c-18.11,1.85-35.54-5.26-53.59-3.86-23.32-6.4-47.63-2.94-71.29-7.33-13.55-2.52-27.9-1-41.89-1-42.66.09-85.32,0-128,.73-13.1.22-26.17,2.74-38.55,4.13-3.9,5.05-3.51,9.72-1.42,14,11.24,23,13.85,48.51,20.83,72.74a37.32,37.32,0,0,1,1.26,9.89c.17,16.66.29,33.32.13,50-.06,5.93-.38,12.13-7.53,15.26-9-1.67-12.28-9.25-15.64-16.33-8.05-17-18.52-32.34-30-47.11-10.69-13.81-24.48-24.07-38.76-33.75-.37-.25-1.22.22-2.05.4-2.55,5.54,1.1,10.37,2.74,15,12.68,35.78,20.61,72.94,31.75,109.09,9.56,31,5.74,62,6.58,93.07A23.44,23.44,0,0,1,2984,1084c-7.23-1.94-10.72-8.1-14.8-13-19.08-23.07-37.68-46.53-56.57-69.76-3.58-4.4-6.13-10.4-13.85-10.48-2.26,6.86,2.67,11.48,5.25,16.37,12.49,23.64,11.28,22.85-6.57,40.69q-27.59,27.55-55,55.25c-18.75,19-39.54,35.61-60.16,52.44-19.07,15.55-38.09,31.17-57.6,46.16-35.92,27.6-73.88,52.25-112.14,76.43q-90.33,57.09-180.87,113.85c-36.7,22.93-73.76,45.27-110.67,67.86-1.7,1-3.54,1.87-5.25,2.91-111,67.5-147.86,88.1-259.41,140.94-45.67,21.64-91.14,44-138.64,61.46A999.44,999.44,0,0,1,1782,1704.6c-4.49,1-9.28.71-13.93.74-12,.1-24-.53-36,.18-15.52.92-30.6-1.75-45.22-5.8-44.86-12.42-89.83-24.72-133-42.39q-37.86-15.51-74.89-33c-45.71-21.69-91.15-44-136.58-66.25-38.88-19.08-76.07-41.25-113.51-63-50.07-29-98.94-60-148.38-90.09-39.81-24.22-78.73-49.9-118.35-74.44-53.18-32.94-106.45-65.76-157.75-101.57-32.73-22.84-65-46.37-95.23-72.62-28.66-24.87-57.83-49.11-84.55-76.14-9.81-9.93-20.62-18.87-30.83-28.41a57.62,57.62,0,0,1-7.91-9c-6.7-9.56-7.57-19.59-1.77-30,3.88-7,7.75-14,11.38-21.09C596.6,989.47,597.63,986.79,594.79,983.15ZM3154.47-837.07a4.91,4.91,0,0,0,3-5c1.76-.55,3.92-.94,1.37-3.29-.73.84-1.45,1.68-2.17,2.53-2.4,0-3.76,1.4-4.51,3.54-1.82,1.28-4.22,2.5-1.39,4.87C3151.09-834.17,3153.21-836.13,3154.47-837.07ZM485,849.42c1.11-.71,2.5-1.2,3.28-2.18a476,476,0,0,1,65.49-66.9c1.38-1.16,2.88-3,.31-6.77a238.38,238.38,0,0,0-44.19,1.12c-10.53,19.58-17.65,40.31-24.36,61.15-1.36,4.2-.28,9.18-.33,13.8l-1.09,1ZM347-955.87c16.39,3.44,30.74,6.22,45,9.48,55.74,12.75,105.19,37.2,146.31,77.73,13.25,13.07,27.69,25,42.08,36.82a641.53,641.53,0,0,1,90.38,90.27C733.59-664.35,775.59-576.84,801.49-481c15.16,56.12,23.25,113.41,30.74,170.8,7.76,59.43,17,118.57,28.66,177.34,1.72,8.65,4.26,16.75,8.67,24.3C899.67-56.91,942.39-20.62,999.84-2.89c20.34,6.27,41.08,11.28,61.76,16.35,45.94,11.27,91.72,22.94,135.45,41.49,22.07,9.37,44.57,17.71,66.62,27.11,17.76,7.57,35.65,14.8,52.68,24.09,25.9,14.12,49.27,31.56,71.78,50.51,58.13,48.94,92.39,111,103.59,185.93.48,3.22.06,6.57.06,10a67.93,67.93,0,0,1-20.35,16.32c-28.28,14.94-56.08,30.75-85.18,44.13a624.14,624.14,0,0,1-209.43,55.44c-60.15,5.09-119.79.47-178.3-15.42-66.15-17.95-124.89-49.47-175.43-95.89-44.36-40.74-68.37-92.79-82.19-150.23-8.62-35.82-9.47-72.55-10.66-109.12-.42-13.24,2-26.55,2.48-39.85.63-16.72,3.42-33.1,6.85-49.39,7.84-37.17,24.58-70.36,47.24-100.46,7.29-9.69,10.47-19.26,10.23-31.21-.66-32.65-.24-65.32-.74-98-.16-9.93-1.55-19.9-3-29.74-1.68-11-8.25-14.39-18.82-9.93-8.58,3.62-16.68,8.72-26.06,9.91-27,3.43-53.28,1.48-77.3-13-10.84-6.54-21.46-13.44-30.9-22-8.41-7.6-16.7-15.34-25.46-22.51C590-328.62,571.49-353.54,557.53-382c-19-38.69-29-80.2-35.87-122.27-6.08-37.21-17.47-72.37-32.84-106.5-29.93-66.5-67.13-128.72-110.43-187.35-12.72-17.23-27.54-32.53-43.09-47.14-1.92-1.8-4.68-5-8.71-.92,5.06,6.18,10.14,12.29,15.13,18.48a199,199,0,0,1,22,33.1c19.12,36.7,33.43,75.51,51.09,112.84a263.92,263.92,0,0,1,25.78,112c.14,16.72,3.12,33.06,6.56,49.4,6.45,30.59,15.21,60.65,18.86,91.89,6.49,55.47,28.21,104.93,60.52,150.31,35.89,50.42,80.39,92.34,127,132.34,12.07,10.36,24.34,20.48,35.79,30.09.91,9.62-.78,17.38-2.44,25.21A960.83,960.83,0,0,0,669.81,24c-3.72,42.46-6,85.07-5.41,127.77.35,26.79-3.85,53-9.84,79.06-5.72,24.93-17.5,47.44-28.23,70.31-12.16,25.94-25.25,51.44-37.88,77.17-2,4.08-5.06,8-3,13.43,4.88,5.78,12.61,6.6,19.33,9,43.28,15.46,86.95,29.8,129.58,47C814.69,480.2,893.13,517,973.78,548.6c15.56,6.1,29.79,14.84,43.11,25,8.18,6.24,14.41,13.87,17.79,23.6,7,20.3-6.48,38.06-27.79,36.87a36.72,36.72,0,0,1-18.7-6.23c-6.66-4.41-13.19-9.08-20.14-13-40.12-22.46-80.58-44.23-122.22-63.82-88.76-41.76-179.91-77.22-274-105.13-5.57-1.65-11-5.25-17.22-3.43-9.07,12.51-25.23,46-37.14,77.06-1.15,3-2.73,6.17-2.08,7.26,3.84,6.13,8.07,6.18,11.88,7.11,43.32,10.62,86.53,21.66,130,31.73C702,576,747.13,584.78,791.79,595.44c60.91,14.54,120.69,33.18,180.35,52.1,38.71,12.28,77.24,25.16,115.69,38.26a446.68,446.68,0,0,1,73.15,32,121.2,121.2,0,0,1,27.25,20.1c8.34,8.34,12.2,17.73,7.52,28.87-4.94,11.77-15.82,13.57-26.84,13-26.33-1.45-51.1-8.27-73.78-22.29a260.86,260.86,0,0,0-29.92-16c-79.19-35.6-161.16-63.2-245.41-83.94-61.41-15.12-123.38-27.7-185.4-40C609,612.4,583.62,607.4,558,602.33c-11.92,12.64-16.46,28.24-19.6,43.58-3.65,17.87-9,36.23-2.62,54.94,10.23,4.75,20.2,8,31,9.14,19.84,2.1,39.61,4.82,59.45,6.93,43.68,4.65,87.4,9,131.08,13.64q72.48,7.66,144.93,15.61a119.55,119.55,0,0,1,21.58,3.93c9.44,2.88,16.28,8.9,17.72,19.49s-3,18.16-11.6,23.6c-7.41,4.69-15.5,7.84-24.42,7.84-8,0-16,.11-24-.8q-60.5-7-120.92-14.46c-39-4.8-77.86-10-116.85-14.58-15.07-1.76-30.33-2.68-44.41,1.28-4.32,5.35-5.31,10.69-6,15.89-2.93,22.56-9.65,44.15-16.28,65.78-2.54,8.27-5.33,16.49-7.41,24.89-7.85,31.62-14.79,63.48-26.58,94a41.46,41.46,0,0,0-2.25,9.67c-.2,1.66.7,3.46,1,4.64,3,1.12,4.53-.52,5.82-1.91,11.37-12.18,22.8-24.29,33.9-36.71,18.2-20.37,36.16-41,54.26-61.43,2.15-2.42,4.32-5.28,8.93-2.7.26,3.51.73,7.42.81,11.34.37,19.44-2.83,38.47-6.85,57.39-4.68,22.06-9.34,44.12-13.93,65.81,11,13.31,23.93,22.6,36.39,32.56,32.29,25.82,65.61,50.19,99.77,73.44Q917.94,1232,1079.68,1331.58c105.44,65.09,210.35,131.1,318.71,191.32a1817.88,1817.88,0,0,0,189,91,412,412,0,0,0,153.7,31.5c56,.65,109.85-10.71,161.78-31.18,19.19-7.57,38-16.24,56.67-25,71.86-33.57,143.12-68.32,210.53-110.39,15.83-9.88,31.67-19.74,47.72-29.25q227.1-134.51,447.05-280.41c61.18-40.36,121.67-81.77,178.67-128,7.64-6.2,16.06-11.94,22.07-21.22-.57-4.78-.82-10.09-1.9-15.24-4.21-20.19-8.76-40.32-13-60.5-3.75-17.63-6.15-35.42-5.47-53.51.12-3.19-.3-6.82,4.21-7.89,4.71,1.26,7.56,5.19,10.58,8.6,11.05,12.46,21.73,25.25,32.72,37.76q21.76,24.78,43.87,49.26c2.95,3.25,5.64,7.8,11.76,6.45,2.51-6-.12-11.43-2-17.06-6.09-18.29-12.79-36.37-16.85-55.3a668.15,668.15,0,0,0-18.78-69.37A348.15,348.15,0,0,1,2897,785c-.58-3.89-.36-8.08-4.49-11.8-3.67-2.95-9.07-2.63-14.39-2.89-23.42-1.12-46.48,2.49-69.57,5.37-35.66,4.44-71.26,9.39-106.92,13.81-30.38,3.77-60.8,7.22-91.22,10.6-13.26,1.47-26.52,2.46-39.55-2.15-7.12-2.53-13.31-6-17.69-12.33-7.48-10.74-4.95-24.28,6.06-31.42a33.34,33.34,0,0,1,14.86-5.45c11.91-1.23,23.78-2.88,35.68-4.2q49.61-5.49,99.22-10.85c29.79-3.22,59.58-6.33,89.37-9.52,33.74-3.61,67.52-6.94,101.21-11,19-2.3,38.63-2.66,57-13.59,3.59-34.41-3.67-66.56-21.79-97.14-23.81,4.5-46.68,8.51-69.41,13.17-48.25,9.89-96.5,19.76-144.6,30.28-97.18,21.24-191.85,50.53-283.21,90.09-15.29,6.62-30.36,13.67-44.41,22.79a126.17,126.17,0,0,1-40.48,16.72c-13.54,3.12-27.31,5.84-41.46,3-15.09-3-22.06-15.79-16-29.87,3.29-7.63,9.27-13,15.46-18,10.92-8.89,23.21-15.65,36-21.41,23.08-10.39,46.45-20,70.42-28.29,64.25-22.11,129.13-42.21,194.25-61.56,36.36-10.8,72.82-21.45,110.05-29,82.23-16.64,163.82-36,245.08-56.87,3.94-1,7.83-1.8,10.21-7.36-12.69-27.36-24.22-56.32-39-84.38-12.51,1.71-23.76,5.74-35.09,9.3-76.32,24-151.35,51.38-224,85.05C2619.15,563.46,2560,591,2505,626.72c-6.22,4-12.81,6.87-20.43,7.37-20.06,1.31-32.78-12.82-29.15-32.74a35,35,0,0,1,8.72-17.68,101.29,101.29,0,0,1,22.9-19.18A265.21,265.21,0,0,1,2520.75,547c49.78-20.77,99.65-41.37,149.23-62.65,41-17.6,81.84-35.65,123.8-50.93,33.17-12.07,66.5-23.67,99.77-35.48,4.94-1.75,10.42-2.54,14.12-8.59-2.45-5.4-5-11.45-7.9-17.36-15.74-32.36-31.7-64.6-47.28-97a234.27,234.27,0,0,1-20.34-64.53,489,489,0,0,1-5.89-63.55c-1.14-37.93-.72-75.87-4.35-113.78A1213.37,1213.37,0,0,0,2803.1-95.26c-1.33-6.49-3.53-12.89-1-20.54,6.46-5.52,13.4-11.71,20.61-17.56a1071.93,1071.93,0,0,0,88.4-81,492.07,492.07,0,0,0,64.86-81c23.07-36.29,40.3-74.85,46.35-118.1,3.58-25.65,7.37-51.44,14.62-76.43,9.15-31.53,13.77-63.87,15.08-96.45,1.28-31.94,9.55-61.66,22.07-90.61,11.1-25.67,21.51-51.67,33.47-76.93,10.79-22.8,19.9-46.61,35.78-66.74,1.81-2.29,1.72-4.85-.61-7.14-7.24,1-11.42,6.42-15.45,11.6-10.63,13.66-21.29,27.32-31.3,41.45-43.29,61.16-79.5,126.22-107.14,196a309.84,309.84,0,0,0-16.23,57.54c-4.77,25.5-9.68,51-16.16,76.16-9.37,36.33-23.76,70.58-46.24,101.16-13.19,17.95-30.06,32.07-46.37,46.74-15.33,13.79-31,27.34-49.92,36.34-30.59,14.54-61.42,15.9-92.64,2.14a74.88,74.88,0,0,0-9.25-3.69c-5.42-1.54-11.25,1.07-13,6.4a52.68,52.68,0,0,0-2.26,13.65c-1.94,37.91-3.25,75.84-3.32,113.83,0,15.39,3.58,28.27,13.28,40.51,16.63,21,28.62,44.87,37.51,70.15,11.64,33.06,14.44,67.62,16.08,102.24,1.1,23.3-.76,46.55-2.44,69.84-2.51,34.91-9.7,68.58-22.58,101-13.38,33.66-30.71,65.05-56.56,91.1-48.45,48.79-105.87,82.71-171.53,102.43-69.85,21-141,26-213.51,17.33a645.29,645.29,0,0,1-165.73-43c-38.42-15.51-74.3-36-110.64-55.66-6.25-3.37-12.7-7.41-17.41-15.82.42-6.35-.08-14.52,1.7-22.16,4.06-17.49,7.93-35.21,14.21-52C2031,237,2054.9,201.87,2086,171.83c38.3-37,82-65.84,131.47-85.71,24.73-9.92,49.45-19.85,74-30.17,34.47-14.49,70-25.61,106.23-34.67,30.35-7.59,60.82-14.78,90.85-23.47,57.86-16.72,100.57-53.19,131.74-104a75.06,75.06,0,0,0,9.18-24c15.68-73,25.14-146.93,35-220.8,5.14-38.31,11.44-76.37,20.85-113.86,23.28-92.73,60.18-179.17,118.63-255.6,23.11-30.21,47.54-59.2,76.16-84.45s56.58-50.67,85.32-75.49c24.35-21,51.08-38.52,81.41-49.89a448,448,0,0,1,73-20.5c7.37-1.42,14.64-3.31,23.63-5.36-7.14-4.25-13-5.2-18.87-6.33-24.85-4.83-50-7.23-75.15-9.78-35.54-3.59-70.55.94-105.66,3.36-25.83,1.77-51.5,6.45-77.11,10.59-30.9,5-61.72,10.7-91,22.22a1032.57,1032.57,0,0,0-136.88,65.49c-37.54,21.59-74.9,43.52-111.11,67.31-7.49,4.92-14,5.75-22.29,1.92-29.61-13.73-59.78-26.26-89.21-40.36-75.2-36-152.07-67.77-231.74-92.56-84.73-26.37-171-45.67-259.08-56.73-50.9-6.39-101.86-11.79-153.23-11.93-14,0-28,.24-42-.15-36.73-1-73.26,2.29-109.72,5.57-43.74,3.94-87.15,10.6-130.46,18.23-63.08,11.1-124.91,26.91-186,45.7-81.69,25.11-160,58.55-237,95.5-27,13-54.66,24.6-81.91,37.09-6.63,3-12.58,3.51-18.81-.76-3.83-2.63-8.23-4.44-12.08-7.05-24.85-16.83-51-31.52-76.69-47A1103.39,1103.39,0,0,0,759-918C721.17-935,682.43-948.7,641.34-955.51c-20.38-3.38-41-5.33-61.26-8.82-31.6-5.43-63.51-7.63-95.35-9a441.43,441.43,0,0,0-111.16,9.67C365.19-961.84,356.33-962,347-955.87Zm482.3,883c-10.42,9-15.76,19.59-20.08,30.75A343.4,343.4,0,0,0,785.71,70.68c-.86,24.69-.31,49.33,3.81,73.73,3.88,22.94,6.71,46.24,14.89,68.14,20.42,54.64,51.14,102.34,97.14,139.23,33.76,27.08,71.07,46.31,114.09,54.61,62.53,12.07,124.62,10,186.5-3.37,51.53-11.13,101.36-27.87,150.26-47.45a552.18,552.18,0,0,0,80.22-40.33c2.78-1.68,6.2-2.71,7.75-8.33-1.82-3.89-4.12-9.3-6.82-14.5Q1374,177.77,1258,120.87c-24.61-12.08-50.86-19.45-76.65-28.18-2.37-.8-5.22-.43-8.66,2.88,0,3.27.06,7.85,0,12.44-.44,28-1.75,56-7.88,83.42-8.75,39.27-22.45,76.61-44.25,110.66-2,3.18-3.63,7.43-8.73,6.92a15.7,15.7,0,0,1-3.08-2.44c-2.45-3.15-4.87-6.35-7-9.7-21-32.66-37.94-67.23-49.22-104.46-12.41-41-18.59-83.09-22.24-125.64-.57-6.6-.15-13.36-3-19.92-2.18-1.16-4.45-2.54-6.87-3.62C995.51,32,970.32,21.46,945.75,9.59c-41-19.84-79-44.24-110.11-78.25C834.34-70.08,832.36-70.89,829.28-72.92ZM2051.35,308.77c1.42,4.27,5.5,5.62,8.82,7.61a554.57,554.57,0,0,0,71.13,36.28,1005.78,1005.78,0,0,0,128.53,43.51c72.43,19.32,145.58,24.81,219.58,9.4a219.26,219.26,0,0,0,47.45-15.11c80.36-37,131.8-100,161-181.8,10.51-29.42,14.51-60.92,16.71-92.17,3.36-47.58-.77-94.57-15.83-140.1-5.81-17.6-11.65-35.46-25.79-48.44-4.9.35-7.5,3.44-10.28,6.32-23.32,24.14-49.85,44-79.11,60.44-31.41,17.64-64.24,32.22-97.33,46.28-4.82,2-10.21,3.15-14,8.57-.32,2.56-1,5.84-1.11,9.13-1.1,31.39-6.27,62.26-12.25,93-10.32,53-31.13,101.68-60.63,146.73-2.72,4.15-4.65,9.68-11.53,10.92-5.64-4.49-8.86-11.1-12.39-17.39-27.57-49-43.17-101.45-44.67-157.87-.36-13.76-.93-27.52-2.92-41.22C2208.12,113.11,2094,199.72,2051.35,308.77ZM291.84-925.25c1.92,6.46,7.68,7.75,11.75,10.69,5.37,3.89,11.66,6.65,16.6,11,42.83,37.53,81.19,79.1,111.08,127.8,30.69,50,58,101.86,83.47,154.71,10.15,21.08,18.13,42.93,22.58,66,4,20.92,7.9,41.87,11.92,62.79,8.27,43,22.84,83.54,47.47,119.94,25.2,37.23,57.5,66.18,99.86,83.1a101.58,101.58,0,0,0,50.91,6.8c15.2-1.85,29.67-6.06,42.34-14.2,0-5.45.23-9.43,0-13.38-2.06-30.63-7-60.87-12.85-91a817.73,817.73,0,0,0-81.24-228.82A443.66,443.66,0,0,0,614.53-738.2c-50.12-49.3-104.84-92.58-164.93-129.09-17.66-10.73-35.09-21.89-54.62-29-23.77-8.64-47.56-17.21-71.52-25.31A72.16,72.16,0,0,0,291.84-925.25Zm2907.94-1.26c-9.12,1-15.85,1.17-22.26,2.68-9.69,2.28-19.24,5.26-28.7,8.4-30.34,10.06-60.67,20.19-88.4,36.57a986.65,986.65,0,0,0-153.35,111.44C2853-719.49,2809.83-663.93,2779-598.2c-41.74,89-67,182.19-77.36,279.68-.76,7.19-2.15,14.53.1,21.64,30.06,17,59.47,19.83,90.19,8.59,30-11,55.12-29.37,77-52.31,35-36.66,55.56-81,67.76-129.53,5.19-20.62,8.51-41.73,12.26-62.7,5.65-31.62,14.35-62.22,28.56-91.18,21.42-43.66,44.37-86.5,68.31-128.82,31.5-55.69,72.2-103.77,119.76-146.27,6-5.32,12-10.43,19.27-14.1C3190-915.79,3195.69-918.1,3199.78-926.51ZM451.37,692.07c6.7-7.4,8.95-15.06,12.87-21.63,4.08-6.86,7.59-14.07,11.91-20.76s9.2-13,14.06-19.36,10.17-12.32,15-18.66c4.71-6.15,11.18-11.14,14.55-20.21-13.34-2.66-25-7.49-37.51-5.12-10.52,16.27-18.58,37-26.64,70.94C453.11,667.83,448.47,678.34,451.37,692.07ZM3010.48,586.48c-17.95-.51-26.87,1.37-37.09,7.48,1.26,7,6.68,11.3,11,16.16,20.87,23.59,38.4,49.33,51.56,78,.38.84,2.15,1,3.87,1.79,1.1-6.73.27-13-1.14-19.48C3032.43,641.73,3023.94,613.84,3010.48,586.48Zm-2.2,267.77c-4.58-29.86-17.65-63.91-30.31-80.93-6.36,0-13.63-.35-20.84.1-7.37.46-15.25-2.64-24.65,2.64C2959.89,799.61,2984.14,823.63,3008.28,854.25Zm-1.62-143.31c-4.68-14.32-8.18-20.23-17.15-28.79.52,10-1.11,19.79,2.09,29C2997.09,713.47,3001.93,714.38,3006.66,710.94ZM499.06,681.79c-5.17,9.29-12.79,17.28-13.39,28.41,4.81,3.58,8.91,3.74,13.94-.27A78.55,78.55,0,0,0,499.06,681.79ZM2950.72,992l.77-1.19-1.07-.2Z" transform="translate(243.83 1070.61)"/><path class="cls-2" d="M347-955.87c9.35-6.1,18.21-6,26.59-7.77a441.43,441.43,0,0,1,111.16-9.67c31.84,1.35,63.75,3.55,95.35,9,20.31,3.49,40.88,5.44,61.26,8.82C682.43-948.7,721.17-935,759-918a1103.39,1103.39,0,0,1,118.5,62.22c25.69,15.46,51.84,30.15,76.69,47,3.85,2.61,8.25,4.42,12.08,7.05,6.23,4.27,12.18,3.8,18.81.76,27.25-12.49,54.9-24.12,81.91-37.09,77-37,155.32-70.39,237-95.5,61.13-18.79,123-34.6,186-45.7,43.31-7.63,86.72-14.29,130.46-18.23,36.46-3.28,73-6.57,109.72-5.57,14,.39,28,.11,42,.15,51.37.14,102.33,5.54,153.23,11.93,88.09,11.06,174.35,30.36,259.08,56.73,79.67,24.79,156.54,56.52,231.74,92.56,29.43,14.1,59.6,26.63,89.21,40.36,8.27,3.83,14.8,3,22.29-1.92,36.21-23.79,73.57-45.72,111.11-67.31a1032.57,1032.57,0,0,1,136.88-65.49c29.3-11.52,60.12-17.24,91-22.22,25.61-4.14,51.28-8.82,77.11-10.59,35.11-2.42,70.12-7,105.66-3.36,25.19,2.55,50.3,4.95,75.15,9.78,5.86,1.13,11.73,2.08,18.87,6.33-9,2-16.26,3.94-23.63,5.36a448,448,0,0,0-73,20.5c-30.33,11.37-57.06,28.86-81.41,49.89-28.74,24.82-56.84,50.36-85.32,75.49s-53,54.24-76.16,84.45c-58.45,76.43-95.35,162.87-118.63,255.6C2676-427.4,2669.7-389.34,2664.56-351c-9.9,73.87-19.36,147.82-35,220.8a75.06,75.06,0,0,1-9.18,24c-31.17,50.8-73.88,87.27-131.74,104-30,8.69-60.5,15.88-90.85,23.47C2361.52,30.34,2326,41.46,2291.52,56c-24.56,10.32-49.28,20.25-74,30.17C2168,106,2124.34,134.88,2086,171.83c-31.14,30-55,65.21-70.24,105.72-6.28,16.75-10.15,34.47-14.21,52-1.78,7.64-1.28,15.81-1.7,22.16,4.71,8.41,11.16,12.45,17.41,15.82,36.34,19.61,72.22,40.15,110.64,55.66a645.29,645.29,0,0,0,165.73,43c72.47,8.66,143.66,3.65,213.51-17.33,65.66-19.72,123.08-53.64,171.53-102.43,25.85-26,43.18-57.44,56.56-91.1,12.88-32.37,20.07-66,22.58-101,1.68-23.29,3.54-46.54,2.44-69.84-1.64-34.62-4.44-69.18-16.08-102.24-8.89-25.28-20.88-49.13-37.51-70.15-9.7-12.24-13.31-25.12-13.28-40.51.07-38,1.38-75.92,3.32-113.83a52.68,52.68,0,0,1,2.26-13.65c1.75-5.33,7.58-7.94,13-6.4a74.88,74.88,0,0,1,9.25,3.69c31.22,13.76,62.05,12.4,92.64-2.14,18.93-9,34.59-22.55,49.92-36.34,16.31-14.67,33.18-28.79,46.37-46.74,22.48-30.58,36.87-64.83,46.24-101.16,6.48-25.11,11.39-50.66,16.16-76.16a309.84,309.84,0,0,1,16.23-57.54c27.64-69.75,63.85-134.81,107.14-196,10-14.13,20.67-27.79,31.3-41.45,4-5.18,8.21-10.62,15.45-11.6,2.33,2.29,2.42,4.85.61,7.14-15.88,20.13-25,43.94-35.78,66.74-12,25.26-22.37,51.26-33.47,76.93-12.52,28.95-20.79,58.67-22.07,90.61-1.31,32.58-5.93,64.92-15.08,96.45-7.25,25-11,50.78-14.62,76.43-6.05,43.25-23.28,81.81-46.35,118.1a492.07,492.07,0,0,1-64.86,81,1071.93,1071.93,0,0,1-88.4,81c-7.21,5.85-14.15,12-20.61,17.56-2.5,7.65-.3,14,1,20.54a1213.37,1213.37,0,0,1,18.81,128.35c3.63,37.91,3.21,75.85,4.35,113.78a489,489,0,0,0,5.89,63.55A234.27,234.27,0,0,0,2852.49,275c15.58,32.44,31.54,64.68,47.28,97,2.87,5.91,5.45,12,7.9,17.36-3.7,6-9.18,6.84-14.12,8.59-33.27,11.81-66.6,23.41-99.77,35.48-42,15.28-82.79,33.33-123.8,50.93-49.58,21.28-99.45,41.88-149.23,62.65a265.21,265.21,0,0,0-33.67,17.49,101.29,101.29,0,0,0-22.9,19.18,35,35,0,0,0-8.72,17.68c-3.63,19.92,9.09,34,29.15,32.74,7.62-.5,14.21-3.33,20.43-7.37C2560,591,2619.15,563.46,2678.42,536c72.67-33.67,147.7-61,224-85.05,11.33-3.56,22.58-7.59,35.09-9.3,14.83,28.06,26.36,57,39,84.38-2.38,5.56-6.27,6.36-10.21,7.36-81.26,20.82-162.85,40.23-245.08,56.87-37.23,7.53-73.69,18.18-110.05,29-65.12,19.35-130,39.45-194.25,61.56-24,8.25-47.34,17.9-70.42,28.29-12.78,5.76-25.07,12.52-36,21.41-6.19,5-12.17,10.42-15.46,18-6.06,14.08.91,26.82,16,29.87,14.15,2.86,27.92.14,41.46-3a126.17,126.17,0,0,0,40.48-16.72c14.05-9.12,29.12-16.17,44.41-22.79,91.36-39.56,186-68.85,283.21-90.09,48.1-10.52,96.35-20.39,144.6-30.28,22.73-4.66,45.6-8.67,69.41-13.17,18.12,30.58,25.38,62.73,21.79,97.14-18.33,10.93-37.95,11.29-57,13.59-33.69,4.07-67.47,7.4-101.21,11-29.79,3.19-59.58,6.3-89.37,9.52q-49.61,5.36-99.22,10.85c-11.9,1.32-23.77,3-35.68,4.2a33.34,33.34,0,0,0-14.86,5.45c-11,7.14-13.54,20.68-6.06,31.42,4.38,6.28,10.57,9.8,17.69,12.33,13,4.61,26.29,3.62,39.55,2.15,30.42-3.38,60.84-6.83,91.22-10.6,35.66-4.42,71.26-9.37,106.92-13.81,23.09-2.88,46.15-6.49,69.57-5.37,5.32.26,10.72-.06,14.39,2.89,4.13,3.72,3.91,7.91,4.49,11.8a348.15,348.15,0,0,0,13.69,58.25,668.15,668.15,0,0,1,18.78,69.37c4.06,18.93,10.76,37,16.85,55.3,1.87,5.63,4.5,11.09,2,17.06-6.12,1.35-8.81-3.2-11.76-6.45q-22.15-24.43-43.87-49.26c-11-12.51-21.67-25.3-32.72-37.76-3-3.41-5.87-7.34-10.58-8.6-4.51,1.07-4.09,4.7-4.21,7.89-.68,18.09,1.72,35.88,5.47,53.51,4.29,20.18,8.84,40.31,13,60.5,1.08,5.15,1.33,10.46,1.9,15.24-6,9.28-14.43,15-22.07,21.22-57,46.21-117.49,87.62-178.67,128q-220.31,145.33-447.05,280.41c-16.05,9.51-31.89,19.37-47.72,29.25-67.41,42.07-138.67,76.82-210.53,110.39-18.7,8.74-37.48,17.41-56.67,25-51.93,20.47-105.75,31.83-161.78,31.18a412,412,0,0,1-153.7-31.5,1817.88,1817.88,0,0,1-189-91c-108.36-60.22-213.27-126.23-318.71-191.32q-161.61-99.76-318.79-206.46c-34.16-23.25-67.48-47.62-99.77-73.44-12.46-10-25.39-19.25-36.39-32.56,4.59-21.69,9.25-43.75,13.93-65.81,4-18.92,7.22-37.95,6.85-57.39-.08-3.92-.55-7.83-.81-11.34-4.61-2.58-6.78.28-8.93,2.7-18.1,20.47-36.06,41.06-54.26,61.43-11.1,12.42-22.53,24.53-33.9,36.71-1.29,1.39-2.79,3-5.82,1.91-.27-1.18-1.17-3-1-4.64a41.46,41.46,0,0,1,2.25-9.67c11.79-30.51,18.73-62.37,26.58-94,2.08-8.4,4.87-16.62,7.41-24.89,6.63-21.63,13.35-43.22,16.28-65.78.67-5.2,1.66-10.54,6-15.89,14.08-4,29.34-3,44.41-1.28,39,4.54,77.89,9.78,116.85,14.58Q821,793.2,881.5,800.23c7.91.91,16,.8,24,.8,8.92,0,17-3.15,24.42-7.84,8.59-5.44,13-13.09,11.6-23.6S933.19,753,923.75,750.1a119.55,119.55,0,0,0-21.58-3.93q-72.43-8-144.93-15.61c-43.68-4.62-87.4-9-131.08-13.64-19.84-2.11-39.61-4.83-59.45-6.93-10.76-1.14-20.73-4.39-31-9.14-6.33-18.71-1-37.07,2.62-54.94,3.14-15.34,7.68-30.94,19.6-43.58,25.65,5.07,51,10.07,76.43,15.13,62,12.35,124,24.93,185.4,40,84.25,20.74,166.22,48.34,245.41,83.94a260.86,260.86,0,0,1,29.92,16c22.68,14,47.45,20.84,73.78,22.29,11,.61,21.9-1.19,26.84-13,4.68-11.14.82-20.53-7.52-28.87a121.2,121.2,0,0,0-27.25-20.1,446.68,446.68,0,0,0-73.15-32c-38.45-13.1-77-26-115.69-38.26C912.48,628.62,852.7,610,791.79,595.44,747.13,584.78,702,576,657.29,565.67c-43.45-10.07-86.66-21.11-130-31.73-3.81-.93-8-1-11.88-7.11-.65-1.09.93-4.25,2.08-7.26,11.91-31.09,28.07-64.55,37.14-77.06,6.25-1.82,11.65,1.78,17.22,3.43,94,27.91,185.2,63.37,274,105.13,41.64,19.59,82.1,41.36,122.22,63.82,7,3.89,13.48,8.56,20.14,13a36.72,36.72,0,0,0,18.7,6.23c21.31,1.19,34.84-16.57,27.79-36.87-3.38-9.73-9.61-17.36-17.79-23.6-13.32-10.18-27.55-18.92-43.11-25C893.13,517,814.69,480.2,734.41,447.74c-42.63-17.24-86.3-31.58-129.58-47-6.72-2.4-14.45-3.22-19.33-9-2.11-5.43.94-9.35,3-13.43,12.63-25.73,25.72-51.23,37.88-77.17,10.73-22.87,22.51-45.38,28.23-70.31,6-26,10.19-52.27,9.84-79.06-.55-42.7,1.69-85.31,5.41-127.77A960.83,960.83,0,0,1,686.87-90.51c1.66-7.83,3.35-15.59,2.44-25.21-11.45-9.61-23.72-19.73-35.79-30.09-46.61-40-91.11-81.92-127-132.34-32.31-45.38-54-94.84-60.52-150.31-3.65-31.24-12.41-61.3-18.86-91.89-3.44-16.34-6.42-32.68-6.56-49.4a263.92,263.92,0,0,0-25.78-112c-17.66-37.33-32-76.14-51.09-112.84a199,199,0,0,0-22-33.1c-5-6.19-10.07-12.3-15.13-18.48,4-4.09,6.79-.88,8.71.92,15.55,14.61,30.37,29.91,43.09,47.14,43.3,58.63,80.5,120.85,110.43,187.35,15.37,34.13,26.76,69.29,32.84,106.5,6.88,42.07,16.9,83.58,35.87,122.27,14,28.48,32.5,53.4,57.18,73.63,8.76,7.17,17,14.91,25.46,22.51,9.44,8.55,20.06,15.45,30.9,22,24,14.49,50.28,16.44,77.3,13,9.38-1.19,17.48-6.29,26.06-9.91,10.57-4.46,17.14-1,18.82,9.93,1.5,9.84,2.89,19.81,3,29.74.5,32.66.08,65.33.74,98,.24,12-2.94,21.52-10.23,31.21-22.66,30.1-39.4,63.29-47.24,100.46-3.43,16.29-6.22,32.67-6.85,49.39-.5,13.3-2.9,26.61-2.48,39.85,1.19,36.57,2,73.3,10.66,109.12,13.82,57.44,37.83,109.49,82.19,150.23,50.54,46.42,109.28,77.94,175.43,95.89,58.51,15.89,118.15,20.51,178.3,15.42A624.14,624.14,0,0,0,1386.25,413c29.1-13.38,56.9-29.19,85.18-44.13a67.93,67.93,0,0,0,20.35-16.32c0-3.38.42-6.73-.06-10-11.2-75-45.46-137-103.59-185.93-22.51-18.95-45.88-36.39-71.78-50.51-17-9.29-34.92-16.52-52.68-24.09-22.05-9.4-44.55-17.74-66.62-27.11-43.73-18.55-89.51-30.22-135.45-41.49-20.68-5.07-41.42-10.08-61.76-16.35-57.45-17.73-100.17-54-130.28-105.65-4.41-7.55-6.95-15.65-8.67-24.3-11.7-58.77-20.9-117.91-28.66-177.34-7.49-57.39-15.58-114.68-30.74-170.8-25.9-95.86-67.9-183.37-130.75-260.59a641.53,641.53,0,0,0-90.38-90.27c-14.39-11.84-28.83-23.75-42.08-36.82-41.12-40.53-90.57-65-146.31-77.73C377.72-949.65,363.37-952.43,347-955.87Zm2217.1,509.11c19.43-20,34.47-42.13,51.9-62.24,7.39-8.54,10.14-18,10-29.24-.82-50-1-100-1.61-150-.25-19.86-1.94-21.15-22-21.56-85.26-1.75-170.56.34-255.82-3.22-46.59-1.95-93.32-.15-139.94-1.55-20.31-.61-38.09,2.82-53.56,16.37a62.83,62.83,0,0,1-11.75,7.56c-11.08,6-16,15.45-16.59,27.69-1,21.28-2.24,42.56-3,63.85-.77,22-.92,44-1.6,66-.4,12.63-1.33,25.25-2,37.87a39.71,39.71,0,0,0,3.8,19.42c2.78,5.84,7,9.38,13.84,9.77,12,.7,23.89,1.7,35.82,2.68,3.24.27,6.76.39,8.23,6-6.42,11.3-16.22,21.23-25.32,31.69-8.75,10-16.9,20.71-26.37,30-9.83,9.68-16,23-28.07,29.64-9.16-1-13.21-7.75-18.27-12.78Q1979-481,1876.51-583.53q-58-57.91-115.9-115.87c-4.68-4.67-9.2-9.76-16.34-10-5.58,1.87-9.07,6-12.83,9.74Q1701.71-670,1672-640.29l-260.27,260c-3.3,3.3-6.49,6.73-10,9.76-7.36,6.31-12.21,6-18.69-1.44q-24.33-27.84-48.42-55.88c-6.53-7.57-13-15.17-19.3-22.94-2.58-3.17-4.22-6.84-.11-11.93,12.14-1.05,25.31-2.57,38.53-3.21,9.53-.46,15-5.47,17.12-13.92a65.81,65.81,0,0,0,1.58-17.79c-1-34.61-2.34-69.2-3.45-103.81-.47-14.65-.45-29.32-1-44-.29-7.3-1.43-14.57-2.12-21.86-1-10.1-6.35-17.29-14.69-22.57-6.76-4.27-14-8-20.17-12.93-11.56-9.31-24.32-11.92-39-11.67-64,1.09-127.89,1-191.84,2.9-69.27,2-138.62,1.21-207.94,1.82-7.16.06-14.7-1.67-21,2.27-4.22,4.67-4.85,9.89-4.93,15.32-.11,8.66-.38,17.33-.46,26-.37,42.65-.45,85.31-1.19,128-.2,11.33,2.78,20.45,10.31,29,12.31,14,23.68,28.82,35.52,43.22,5.46,6.63,9.91,14.21,17.12,19,26.75,3,53.61-1.46,80,4.21,31.35,37.55,62.55,74.81,93.62,112.18q44.1,53,88,106.18c24.2,29.24,48.29,58.58,72.56,87.77,17,20.48,34.42,40.68,51.37,61.23,8.77,10.63,19.36,14.51,33.23,13.8,45.89-2.34,91.84-3.79,137.76-5.44,12.11-.43,21.45-4.77,28.68-15.08,15.31-21.81,31.35-43.1,47.16-64.56q83-112.62,166-225.21c2.78-3.77,5.39-7.66,11.31-9.53l22.13,3.23c2.46,3.1,4.6,5.63,6.56,8.29q55.77,75.58,111.51,151.2c33.64,45.54,67.61,90.85,100.88,136.67,7,9.63,15.66,13.9,26.74,14.82,4.64.39,9.33.2,14,.32,14,.39,28.08-.13,42,1.39,28.56,3.13,57.28,1.54,85.81,3.91,13.4,1.12,23.18-3.74,31.39-13.5,8.58-10.19,17.31-20.26,25.78-30.56,26.64-32.41,53.09-65,79.8-97.34q47.07-57,94.47-113.81c34.94-41.94,70-83.8,105.23-126C2509.81-447.83,2536.61-444.4,2564.08-446.76ZM2089.65,1225.83c7-1.37,11.3.45,15.7,1.94,40.65,13.79,82.32,15.61,124.25,8.76,72.82-11.9,139.67-38.88,199-83,37.41-27.82,73.74-57.07,108.62-88,13-11.51,25.34-23.72,35.37-38a93,93,0,0,0,10.77-19c4.3-10.84,1.77-20.54-6.35-29.36-16.16-17.53-53-22.14-71.29.69a210.12,210.12,0,0,0-14,19.46c-7.07,11.28-13.55,22.93-20.43,34.34-17.37,28.81-38.88,53.92-65.63,74.56-36.84,28.41-77.77,48.53-121.94,62.74-60.48,19.46-121.71,20.79-183.42,8.19-51.77-10.58-97.82-34.62-140.73-64.44-37.76-26.24-71.39-57.8-106.8-87.08-11.81-9.78-23.43-19.78-36.69-27.59-17-10-35-16-55-15.36-11.32.38-22.66.24-34,0a86.41,86.41,0,0,0-31.3,5.59,142.06,142.06,0,0,0-42.9,25.06c-31.15,26.08-62,52.49-93.62,78-56.81,46-119.47,79.77-193,90.21a386,386,0,0,1-101.63.67c-33.84-4.16-66.27-14.5-97.6-28-35.12-15.11-67.51-34.79-96.37-59.88-23.9-20.77-42.07-46.22-57.5-73.69-7.84-13.94-15.43-28.1-25.85-40.31-17.67-20.67-43.55-24-66.32-9-16,10.5-19.61,24-11.17,41.34,5.64,11.59,14.35,20.79,23.2,29.86,42.52,43.53,90.27,81,139.63,116.13,56.73,40.4,120.45,65.22,189.34,75.66,19.63,3,39.62,6,59.68,3.87,22.51-2.42,44.87-5.86,66.46-13.11,3.75-1.26,7.48-2.89,11.51-1.2,4.6,2.53,5.55,7.42,7.29,11.6,12.07,28.93,26.72,56.6,40.64,84.64,6.85,13.79,15.58,26.37,23.85,39.24,3.92,6.11,8.82,11.59,15,14.93a7.8,7.8,0,0,0,5.52-6.09c4.47-19.44,9.22-38.83,13.24-58.37,4.28-20.84,7.08-42,11.93-62.72,6.09-26,14.75-51.25,31.49-72.79,9.4-12.09,19-23.95,30.07-34.69,9.58-9.33,19.28-18.3,31.45-24.16,16.16-17.68,37.31-27.76,58.5-37.4,17.57-8,35.76-14.95,55.43-15.64,14-.49,28-.46,42,0a94.6,94.6,0,0,1,19.69,3c30.1,7.49,57.45,21,82.71,38.81,5.37,3.78,9.16,10.28,14.88,13,19.33,9.3,31.92,25.91,45.9,40.87a160.09,160.09,0,0,1,33,52,285,285,0,0,1,15.53,55.64c5.22,31.51,10.84,63,19.26,93.83,1.39,5.1,1.92,10.46,6,14.68,7.4-1.09,11-6.94,14.67-12.36,7-10.53,14.25-21,20.14-32.15,16.47-31.21,32.63-62.6,46.57-95.07C2085.93,1233.14,2087.79,1229.67,2089.65,1225.83ZM1746.38,913.21a160.51,160.51,0,0,0,32.74-2.41c43-8.17,80.34-27.78,113.38-55.82,19.94-16.92,37.08-36.42,48.25-60.47,5.08-10.92,9-22.17,8.74-34.54a36.05,36.05,0,0,0-10.41-25.19c-11.59-12-25.82-12.51-35.28-2.58a45.45,45.45,0,0,1-20.43,12.09c-7.7,2.25-13.8.45-17.78-5.33s-5.73-11.91-1.48-18.6c3.21-5.05,6-10.36,8.92-15.59,8.8-15.82,22.6-20,38.55-11.38,4.64,2.52,8.76,6,13.14,9,13.12,9.05,27.72,9.13,42.24,5.61,13-3.16,20.26-12.74,21.45-25.9.72-7.89-.24-15.95-.73-23.91-.46-7.29-1.85-14.56-1.9-21.84-.2-27.32-.32-54.64.15-81.95.27-15.3,2-30.56,2.63-45.86a57.84,57.84,0,0,0-1.25-15.82,14.86,14.86,0,0,0-14.68-11.31,15.35,15.35,0,0,0-14.27,11.89c-.93,4.5-.88,9.25-1,13.89-.45,26-.58,52-1.25,77.95-.4,15.3-1.13,30.63-2.55,45.86-1.31,14-9.36,22-23.18,22.8s-27.62,3.65-41.72,3.6q-143.92-.53-287.85,0c-14.78.05-29.1-3-43.7-4-10.35-.7-16.64-8-19.36-17.66-1.24-4.4-1.16-9.23-1.3-13.88q-1.74-58.9-3.37-117.83c-.12-4,0-8.14-1.16-11.84-1.94-6.1-6.4-10-13.08-10.72-6-.62-11.35,2.82-14.19,8.93-3.53,7.6-2.9,15.6-2.22,23.58.55,6.62,1.78,13.22,1.85,19.83.33,35.31.4,70.63.54,105.94,0,10.68-1.82,21.21-2.57,31.79-1.68,23.62,8.83,34.45,24.89,37.29,14,2.48,27.86,1.81,40.15-7.24a91.42,91.42,0,0,1,17.09-10.21c10.37-4.58,23.43-2.19,29.19,6a137.25,137.25,0,0,1,14.4,26.15c4.75,11.55-5.78,23.42-18.08,21.24a36.68,36.68,0,0,1-16.16-7.46c-3.69-2.85-7.26-5.89-11.12-8.48-8.15-5.47-16.36-5-24.14.78-14.23,10.55-19.85,24.44-16.18,42,3.77,18,12.34,33.7,23.23,48.2,26.69,35.54,61.56,60.45,102.16,77.7C1692.5,908.13,1718.21,914.35,1746.38,913.21Z" transform="translate(243.83 1070.61)"/><path class="cls-3" d="M829.28-72.92c3.08,2,5.06,2.84,6.36,4.26,31.07,34,69.06,58.41,110.11,78.25,24.57,11.87,49.76,22.44,74.64,33.64,2.42,1.08,4.69,2.46,6.87,3.62,2.83,6.56,2.41,13.32,3,19.92,3.65,42.55,9.83,84.64,22.24,125.64,11.28,37.23,28.22,71.8,49.22,104.46,2.16,3.35,4.58,6.55,7,9.7a15.7,15.7,0,0,0,3.08,2.44c5.1.51,6.69-3.74,8.73-6.92,21.8-34,35.5-71.39,44.25-110.66,6.13-27.46,7.44-55.41,7.88-83.42.07-4.59,0-9.17,0-12.44,3.44-3.31,6.29-3.68,8.66-2.88,25.79,8.73,52,16.1,76.65,28.18q116.05,57,175.56,171.54c2.7,5.2,5,10.61,6.82,14.5-1.55,5.62-5,6.65-7.75,8.33a552.18,552.18,0,0,1-80.22,40.33c-48.9,19.58-98.73,36.32-150.26,47.45-61.88,13.36-124,15.44-186.5,3.37-43-8.3-80.33-27.53-114.09-54.61-46-36.89-76.72-84.59-97.14-139.23-8.18-21.9-11-45.2-14.89-68.14-4.12-24.4-4.67-49-3.81-73.73A343.4,343.4,0,0,1,809.2-42.17C813.52-53.33,818.86-64,829.28-72.92Z" transform="translate(243.83 1070.61)"/><path class="cls-3" d="M2051.35,308.77c42.65-109,156.77-195.66,265.36-215.92,2,13.7,2.56,27.46,2.92,41.22,1.5,56.42,17.1,108.84,44.67,157.87,3.53,6.29,6.75,12.9,12.39,17.39,6.88-1.24,8.81-6.77,11.53-10.92,29.5-45.05,50.31-93.77,60.63-146.73,6-30.73,11.15-61.6,12.25-93,.11-3.29.79-6.57,1.11-9.13,3.81-5.42,9.2-6.52,14-8.57,33.09-14.06,65.92-28.64,97.33-46.28,29.26-16.44,55.79-36.3,79.11-60.44,2.78-2.88,5.38-6,10.28-6.32,14.14,13,20,30.84,25.79,48.44,15.06,45.53,19.19,92.52,15.83,140.1-2.2,31.25-6.2,62.75-16.71,92.17-29.2,81.78-80.64,144.83-161,181.8a219.26,219.26,0,0,1-47.45,15.11c-74,15.41-147.15,9.92-219.58-9.4a1005.78,1005.78,0,0,1-128.53-43.51,554.57,554.57,0,0,1-71.13-36.28C2056.85,314.39,2052.77,313,2051.35,308.77Z" transform="translate(243.83 1070.61)"/><path class="cls-3" d="M291.84-925.25a72.16,72.16,0,0,1,31.62,3.65c24,8.1,47.75,16.67,71.52,25.31,19.53,7.11,37,18.27,54.62,29,60.09,36.51,114.81,79.79,164.93,129.09a443.66,443.66,0,0,1,81.16,108.36A817.73,817.73,0,0,1,776.93-401c5.88,30.09,10.79,60.33,12.85,91,.27,3.95,0,7.93,0,13.38-12.67,8.14-27.14,12.35-42.34,14.2a101.58,101.58,0,0,1-50.91-6.8c-42.36-16.92-74.66-45.87-99.86-83.1-24.63-36.4-39.2-77-47.47-119.94-4-20.92-7.88-41.87-11.92-62.79-4.45-23-12.43-44.89-22.58-66C489.29-673.93,462-725.79,431.27-775.79c-29.89-48.7-68.25-90.27-111.08-127.8-4.94-4.32-11.23-7.08-16.6-11C299.52-917.5,293.76-918.79,291.84-925.25Z" transform="translate(243.83 1070.61)"/><path class="cls-3" d="M3199.78-926.51c-4.09,8.41-9.79,10.72-14.91,13.31-7.25,3.67-13.3,8.78-19.27,14.1-47.56,42.5-88.26,90.58-119.76,146.27C3021.9-710.51,2999-667.67,2977.53-624c-14.21,29-22.91,59.56-28.56,91.18-3.75,21-7.07,42.08-12.26,62.7-12.2,48.48-32.78,92.87-67.76,129.53-21.89,22.94-47,41.31-77,52.31-30.72,11.24-60.13,8.4-90.19-8.59-2.25-7.11-.86-14.45-.1-21.64C2712-416,2737.27-509.21,2779-598.2c30.82-65.73,74-121.29,128.06-169.22a986.65,986.65,0,0,1,153.35-111.44c27.73-16.38,58.06-26.51,88.4-36.57,9.46-3.14,19-6.12,28.7-8.4C3183.93-925.34,3190.66-925.47,3199.78-926.51Z" transform="translate(243.83 1070.61)"/><path class="cls-2" d="M451.37,692.07c-2.9-13.73,1.74-24.24,4.25-34.8,8.06-33.91,16.12-54.67,26.64-70.94,12.55-2.37,24.17,2.46,37.51,5.12-3.37,9.07-9.84,14.06-14.55,20.21-4.84,6.34-10.14,12.34-15,18.66s-9.74,12.66-14.06,19.36-7.83,13.9-11.91,20.76C460.32,677,458.07,684.67,451.37,692.07Z" transform="translate(243.83 1070.61)"/><path class="cls-2" d="M3010.48,586.48c13.46,27.36,21.95,55.25,28.18,84,1.41,6.49,2.24,12.75,1.14,19.48-1.72-.76-3.49-.95-3.87-1.79-13.16-28.68-30.69-54.42-51.56-78-4.3-4.86-9.72-9.18-11-16.16C2983.61,587.85,2992.53,586,3010.48,586.48Z" transform="translate(243.83 1070.61)"/><path class="cls-2" d="M3008.28,854.25c-24.14-30.62-48.39-54.64-75.8-78.19,9.4-5.28,17.28-2.18,24.65-2.64,7.21-.45,14.48-.1,20.84-.1C2990.63,790.34,3003.7,824.39,3008.28,854.25Z" transform="translate(243.83 1070.61)"/><path class="cls-2" d="M485.24,849.64c0-4.62-1-9.6.32-13.8,6.71-20.84,13.83-41.57,24.36-61.15a238.38,238.38,0,0,1,44.19-1.12c2.57,3.8,1.07,5.61-.31,6.77a476,476,0,0,0-65.49,66.9c-.78,1-2.17,1.47-3.28,2.18Z" transform="translate(243.83 1070.61)"/><path class="cls-2" d="M3156.7-842.82l2.18-2.53c2.55,2.35.39,2.74-1.38,3.28Z" transform="translate(243.83 1070.61)"/><path class="cls-2" d="M3152.2-839.28c.75-2.14,2.11-3.5,4.51-3.54l.79.75a4.89,4.89,0,0,1-3,5Z" transform="translate(243.83 1070.61)"/><path class="cls-2" d="M3154.47-837.07c-1.26.94-3.38,2.9-3.66,2.66-2.83-2.37-.43-3.59,1.39-4.87Z" transform="translate(243.83 1070.61)"/><path class="cls-2" d="M485,849.42l-.89,1.2,1.1-1Z" transform="translate(243.83 1070.61)"/><polygon class="cls-2" points="3194.55 2062.6 3194.26 2061.21 3195.33 2061.41 3194.55 2062.6"/><path class="cls-1" d="M2564.08-446.76c-27.47,2.36-54.27-1.07-80.57,4-35.25,42.19-70.29,84.05-105.23,126q-47.34,56.82-94.47,113.81c-26.71,32.36-53.16,64.93-79.8,97.34-8.47,10.3-17.2,20.37-25.78,30.56-8.21,9.76-18,14.62-31.39,13.5-28.53-2.37-57.25-.78-85.81-3.91-13.87-1.52-28-1-42-1.39-4.66-.12-9.35.07-14-.32-11.08-.92-19.74-5.19-26.74-14.82-33.27-45.82-67.24-91.13-100.88-136.67q-55.82-75.56-111.51-151.2c-2-2.66-4.1-5.19-6.56-8.29l-22.13-3.23c-5.92,1.87-8.53,5.76-11.31,9.53q-83,112.62-166,225.21c-15.81,21.46-31.85,42.75-47.16,64.56-7.23,10.31-16.57,14.65-28.68,15.08-45.92,1.65-91.87,3.1-137.76,5.44-13.87.71-24.46-3.17-33.23-13.8-17-20.55-34.34-40.75-51.37-61.23-24.27-29.19-48.36-58.53-72.56-87.77q-43.95-53.13-88-106.18c-31.07-37.37-62.27-74.63-93.62-112.18-26.38-5.67-53.24-1.22-80-4.21-7.21-4.8-11.66-12.38-17.12-19-11.84-14.4-23.21-29.22-35.52-43.22-7.53-8.57-10.51-17.69-10.31-29,.74-42.65.82-85.31,1.19-128,.08-8.66.35-17.33.46-26,.08-5.43.71-10.65,4.93-15.32,6.3-3.94,13.84-2.21,21-2.27,69.32-.61,138.67.21,207.94-1.82,64-1.87,127.89-1.81,191.84-2.9,14.65-.25,27.41,2.36,39,11.67,6.18,5,13.41,8.66,20.17,12.93,8.34,5.28,13.73,12.47,14.69,22.57.69,7.29,1.83,14.56,2.12,21.86.57,14.65.55,29.32,1,44,1.11,34.61,2.45,69.2,3.45,103.81a65.81,65.81,0,0,1-1.58,17.79c-2.14,8.45-7.59,13.46-17.12,13.92-13.22.64-26.39,2.16-38.53,3.21-4.11,5.09-2.47,8.76.11,11.93,6.29,7.77,12.77,15.37,19.3,22.94q24.13,28,48.42,55.88c6.48,7.42,11.33,7.75,18.69,1.44,3.53-3,6.72-6.46,10-9.76l260.27-260q29.7-29.67,59.41-59.35c3.76-3.75,7.25-7.87,12.83-9.74,7.14.22,11.66,5.31,16.34,10q58,57.9,115.9,115.87,102.57,102.43,205.25,204.77c5.06,5,9.11,11.77,18.27,12.78,12.09-6.64,18.24-20,28.07-29.64,9.47-9.32,17.62-20,26.37-30,9.1-10.46,18.9-20.39,25.32-31.69-1.47-5.63-5-5.75-8.23-6-11.93-1-23.87-2-35.82-2.68-6.81-.39-11.06-3.93-13.84-9.77a39.71,39.71,0,0,1-3.8-19.42c.66-12.62,1.59-25.24,2-37.87.68-22,.83-44,1.6-66,.74-21.29,2-42.57,3-63.85.56-12.24,5.51-21.71,16.59-27.69a62.83,62.83,0,0,0,11.75-7.56c15.47-13.55,33.25-17,53.56-16.37,46.62,1.4,93.35-.4,139.94,1.55,85.26,3.56,170.56,1.47,255.82,3.22,20.06.41,21.75,1.7,22,21.56.64,50,.79,100,1.61,150,.18,11.27-2.57,20.7-10,29.24C2598.55-488.89,2583.51-466.79,2564.08-446.76ZM2157-110.32c1.37,1.54,3,2.64,4.68.73,6.22-6.94,12.46-13.86,18.45-21Q2238-199.49,2295.7-268.46c12-14.28,24.7-28,36.54-42.39,30-36.55,59.63-73.43,89.6-110,29.15-35.56,58.55-70.91,87.8-106.39,2.54-3.08,4.74-6.43,5.9-8,15.58,0,28.24.36,40.87-.11,12.44-.46,25.3,2,36.48-3.55,4-5.57,2.86-11.05,3-16.3.75-36-2.15-71.94.5-107.9.3-4.15-1-7.89-6.49-11.7-3.42,0-8.7,0-14,0q-160.95-.24-321.91-.43c-10.51,0-21,.73-32.61,1.16-6.67,37.34-3.76,74.07-6.7,110.38-.42,5.15-1.17,10.67,2.62,15.35,4.76,3.32,10.26,1.92,15.44,2,22,.3,44,.31,66,.51a92.5,92.5,0,0,1,13.94.74,10.86,10.86,0,0,1,8.61,15,29.4,29.4,0,0,1-4.06,6.76q-79.26,106.68-158.62,213.3a153.38,153.38,0,0,1-11.46,13.85c-4.73,5-10.37,5.88-16.28,2.1a75.87,75.87,0,0,1-12.22-10.16c-45.95-45.46-92.33-90.51-137.6-136.64-72.81-74.19-149.87-144.16-219.38-221.61-10.17-11.33-22.14-11-32.71.46-9.94,10.77-19.1,22.3-29.39,32.71-30.92,31.28-62.17,62.24-93.38,93.22q-89.4,88.74-178.89,177.37-27.69,27.45-55.36,54.91a75.86,75.86,0,0,1-10.52,9.13c-6.65,4.47-12.57,3.81-17.93-2a191.62,191.62,0,0,1-12.65-15.47q-71.7-96.13-143.28-192.35C1182-512,1176.09-519.26,1171-527s-1.29-16.74,7.81-18.2a93.81,93.81,0,0,1,14-.65c22-.19,44-.2,66-.5,5.16-.07,10.67,1.33,14.44-1.41a9.09,9.09,0,0,0,3.44-8.09c-1.46-36-2.94-71.9-4.64-107.84-.15-3.17-1.9-6.26-3.23-10.41-11.29-.4-22.52-1.15-33.75-1.13Q1108-675,981-674.6c-23.32.05-46.65-.21-70-.19-4.53,0-9.41-1-13.17,2.64-3.26,4-3,8.63-2.82,13.34.44,10.63.91,21.28.92,31.93,0,24-.24,48-.27,72,0,5.24-1.06,10.71,3.43,17.12,23.58,4.95,48.9,1.21,74.06,2.71,8.7,6.51,14.13,15.85,20.9,24,41.31,49.69,82.72,99.3,123.7,149.27,27,33,53.76,66.19,81.68,98.46C1237-220,1273.17-175.59,1310-131.66c7.27,8.69,15,17,22,25.9,6,7.47,13.39,10.39,22.72,10,14-.59,28-.88,42-1.17,5.77-.12,10-2.54,13.6-7,8.35-10.38,17.26-20.32,25.54-30.76,40.54-51.19,81.2-102.29,121.36-153.79,58.91-75.58,121.67-148.16,176.82-226.65a41,41,0,0,1,22.43.4c1.8,2.25,3.93,4.77,5.92,7.39,20.14,26.5,39.83,53.36,60.46,79.48Q1938.66-281.22,2055.07-135c10.3,13,20.5,26.06,32.54,37.61,17.18.53,33.81,1,50.44,1.56,9.56.33,16.84-3.28,21.24-11.92.27-.51-1.26-1.93-2-2.93ZM1481.29-94.68c6.86-8.95,12.91-16.87,19-24.76Q1606.51-257.15,1712.55-395c8-10.43,20.53-18.6,22.86-32,2.26-12.94.55-26.57.59-39.9,0-2.63.13-5.31-3.47-5.79Q1587.74-288.1,1442.92-103.38c-.72.92-.57,2.52-1.28,6.12C1454.07-92.7,1467.1-94.87,1481.29-94.68ZM1756-471.89c-.89,16.08-.62,28.62-.32,41.14a18.35,18.35,0,0,0,4.06,11c6.5,8.41,12.61,17.13,19.1,25.55q112.76,146.48,225.55,292.91c2,2.66,4.12,5.19,9.13,6.9,9.56-.88,20.88,1.22,32-1.5,1.1-.26,1.94-1.6,2.63-2.21.13-1.75.76-3.36.23-4.29C2042.88-112,1769.05-458.44,1756-471.89Zm386.67-59.54a5.7,5.7,0,0,0,7.38,1.78,219.69,219.69,0,0,0,42.48-26.75c1.12-34.72,2.22-67.82,3.22-100.93a52.62,52.62,0,0,0-.75-9.87c-.43-2.6-1.65-5-5.41-6.9l-40.1,25.68C2145.48-625.57,2141-546.61,2142.7-531.43ZM1298.26-673.66c-2.85,14.39-2.22,95.52.61,117.39,11.54,9.71,24.75,17.43,38,25,3.46,2,7.3,3.49,12.38-.76-.17-18.8-.43-38.67-2.75-58.47s-.08-39.8-4.75-57.94c-8.44-5.18-15-9.81-22.09-13.39C1312.85-665.27,1308.55-673.35,1298.26-673.66ZM2256.11-520.3c-1.6-4.06-5.54-4.84-9.52-5.09-9.28-.58-18.57-1-27.86-1.3-27.11-.92-27.12-.91-50.81,12.32-4,2.26-7.91,4.83-11.79,7.37a6.32,6.32,0,0,0-2.65,7c.6,2.7,2.8,4.41,5.55,5a50.53,50.53,0,0,0,5.89.95c11.21,1.25,22.42,2.6,33.66,3.67,27.55,2.62,27.57,2.58,48.3-15.23a63.39,63.39,0,0,0,6.95-7C2255.54-514.66,2257-517,2256.11-520.3Zm-1020.76-.6c-1.12,5.32,1.92,9,5.46,12,6.06,5.13,12.6,9.69,18.71,14.75a21.09,21.09,0,0,0,16.58,4.85c17.77-1.88,35.57-3.46,53.34-5.31a11.25,11.25,0,0,0,5.44-2.16,5.41,5.41,0,0,0,1.69-7,11.1,11.1,0,0,0-3.76-4.4c-18.65-11.54-37.24-22.95-60.94-18.47-7.74,1.46-15.85.85-23.79,1.3C1243.44-525.13,1238.77-524.74,1235.35-520.9Zm902.77,174.5c11.9-9.8,64.48-69.52,93.59-106.24,1.62-2.05,3.46-4.12,2.46-7.67-11.14-3.2-19.91-.13-27.56,9.17-24.08,29.26-48.6,58.16-72.9,87.24-2.55,3-5.28,6.11-4.23,11.06,1,1.24,2,3.09,3.48,4.24S2136.48-347.06,2138.12-346.4Zm-785.26.16c5.35-1,7.65-3.54,8.67-6.73,1.36-4.28-1.26-7.6-3.88-10.72-24.83-29.61-49.74-59.17-74.43-88.9-7.22-8.69-15.7-11.2-26.76-7.59.53,2.27.45,4.47,1.46,5.89C1269.82-437.63,1343.61-353.77,1352.86-346.24ZM2531.57-505.89c-10.24,10.91-20.84,21.29-28.4,34.75,39.38,9,44.32,7.54,68.61-19.31q2.66-2.94,5.39-5.8c2.45-2.59,3.75-5.37.52-10.5C2563.15-506.94,2547.49-507,2531.57-505.89ZM942.44-467.5c13.79,1.7,27-.65,40.21-1,1.78,0,3.54-1.26,6.54-2.41-8.84-13.1-18.92-24.14-29.84-35.42-15,0-30.14-.05-45.32.11-.92,0-1.83,1.62-2.75,2.48C915.38-492.76,919.58-487.83,942.44-467.5Z" transform="translate(243.83 1070.61)"/><path class="cls-1" d="M2089.65,1225.83c-1.86,3.84-3.72,7.31-5.27,10.92-13.94,32.47-30.1,63.86-46.57,95.07-5.89,11.16-13.13,21.62-20.14,32.15-3.62,5.42-7.27,11.27-14.67,12.36-4.08-4.22-4.61-9.58-6-14.68-8.42-30.86-14-62.32-19.26-93.83a285,285,0,0,0-15.53-55.64,160.09,160.09,0,0,0-33-52c-14-15-26.57-31.57-45.9-40.87-5.72-2.75-9.51-9.25-14.88-13-25.26-17.78-52.61-31.32-82.71-38.81a94.6,94.6,0,0,0-19.69-3c-14-.43-28-.46-42,0-19.67.69-37.86,7.65-55.43,15.64-21.19,9.64-42.34,19.72-58.5,37.4-12.17,5.86-21.87,14.83-31.45,24.16-11,10.74-20.67,22.6-30.07,34.69-16.74,21.54-25.4,46.76-31.49,72.79-4.85,20.7-7.65,41.88-11.93,62.72-4,19.54-8.77,38.93-13.24,58.37a7.8,7.8,0,0,1-5.52,6.09c-6.13-3.34-11-8.82-15-14.93-8.27-12.87-17-25.45-23.85-39.24-13.92-28-28.57-55.71-40.64-84.64-1.74-4.18-2.69-9.07-7.29-11.6-4-1.69-7.76-.06-11.51,1.2-21.59,7.25-44,10.69-66.46,13.11-20.06,2.15-40-.89-59.68-3.87-68.89-10.44-132.61-35.26-189.34-75.66-49.36-35.16-97.11-72.6-139.63-116.13-8.85-9.07-17.56-18.27-23.2-29.86-8.44-17.34-4.8-30.84,11.17-41.34,22.77-15,48.65-11.65,66.32,9,10.42,12.21,18,26.37,25.85,40.31,15.43,27.47,33.6,52.92,57.5,73.69,28.86,25.09,61.25,44.77,96.37,59.88,31.33,13.47,63.76,23.81,97.6,28a386,386,0,0,0,101.63-.67c73.49-10.44,136.15-44.24,193-90.21,31.58-25.55,62.47-52,93.62-78a142.06,142.06,0,0,1,42.9-25.06,86.41,86.41,0,0,1,31.3-5.59c11.32.2,22.66.34,34,0,20-.67,38.06,5.37,55,15.36,13.26,7.81,24.88,17.81,36.69,27.59,35.41,29.28,69,60.84,106.8,87.08,42.91,29.82,89,53.86,140.73,64.44,61.71,12.6,122.94,11.27,183.42-8.19,44.17-14.21,85.1-34.33,121.94-62.74,26.75-20.64,48.26-45.75,65.63-74.56,6.88-11.41,13.36-23.06,20.43-34.34a210.12,210.12,0,0,1,14-19.46c18.25-22.83,55.13-18.22,71.29-.69,8.12,8.82,10.65,18.52,6.35,29.36a93,93,0,0,1-10.77,19c-10,14.23-22.4,26.44-35.37,38-34.88,31-71.21,60.21-108.62,88-59.37,44.15-126.22,71.13-199,83-41.93,6.85-83.6,5-124.25-8.76C2101,1226.28,2096.63,1224.46,2089.65,1225.83Z" transform="translate(243.83 1070.61)"/><path class="cls-1" d="M1746.38,913.21c-28.17,1.14-53.88-5.08-78.66-15.6-40.6-17.25-75.47-42.16-102.16-77.7-10.89-14.5-19.46-30.18-23.23-48.2-3.67-17.57,2-31.46,16.18-42,7.78-5.76,16-6.25,24.14-.78,3.86,2.59,7.43,5.63,11.12,8.48a36.68,36.68,0,0,0,16.16,7.46c12.3,2.18,22.83-9.69,18.08-21.24a137.25,137.25,0,0,0-14.4-26.15c-5.76-8.23-18.82-10.62-29.19-6a91.42,91.42,0,0,0-17.09,10.21c-12.29,9.05-26.17,9.72-40.15,7.24-16.06-2.84-26.57-13.67-24.89-37.29.75-10.58,2.61-21.11,2.57-31.79-.14-35.31-.21-70.63-.54-105.94-.07-6.61-1.3-13.21-1.85-19.83-.68-8-1.31-16,2.22-23.58,2.84-6.11,8.15-9.55,14.19-8.93,6.68.68,11.14,4.62,13.08,10.72,1.17,3.7,1,7.87,1.16,11.84q1.73,58.92,3.37,117.83c.14,4.65.06,9.48,1.3,13.88,2.72,9.69,9,17,19.36,17.66,14.6,1,28.92,4,43.7,4q143.93-.49,287.85,0c14.1,0,27.77-2.79,41.72-3.6s21.87-8.84,23.18-22.8c1.42-15.23,2.15-30.56,2.55-45.86.67-26,.8-52,1.25-77.95.08-4.64,0-9.39,1-13.89a15.35,15.35,0,0,1,14.27-11.89,14.86,14.86,0,0,1,14.68,11.31,57.84,57.84,0,0,1,1.25,15.82c-.67,15.3-2.36,30.56-2.63,45.86-.47,27.31-.35,54.63-.15,81.95,0,7.28,1.44,14.55,1.9,21.84.49,8,1.45,16,.73,23.91-1.19,13.16-8.46,22.74-21.45,25.9-14.52,3.52-29.12,3.44-42.24-5.61-4.38-3-8.5-6.52-13.14-9-15.95-8.66-29.75-4.44-38.55,11.38-2.91,5.23-5.71,10.54-8.92,15.59-4.25,6.69-2.53,12.77,1.48,18.6s10.08,7.58,17.78,5.33a45.45,45.45,0,0,0,20.43-12.09c9.46-9.93,23.69-9.38,35.28,2.58A36.05,36.05,0,0,1,1949.49,760c.29,12.37-3.66,23.62-8.74,34.54-11.17,24-28.31,43.55-48.25,60.47-33,28-70.34,47.65-113.38,55.82A160.51,160.51,0,0,1,1746.38,913.21Z" transform="translate(243.83 1070.61)"/><path class="cls-3" d="M2157.33-110.65c.7,1,2.23,2.42,2,2.93-4.4,8.64-11.68,12.25-21.24,11.92-16.63-.58-33.26-1-50.44-1.56-12-11.55-22.24-24.66-32.54-37.61q-116.31-146.34-232.29-292.92c-20.63-26.12-40.32-53-60.46-79.48-2-2.62-4.12-5.14-5.92-7.39a41,41,0,0,0-22.43-.4c-55.15,78.49-117.91,151.07-176.82,226.65-40.16,51.5-80.82,102.6-121.36,153.79-8.28,10.44-17.19,20.38-25.54,30.76-3.61,4.49-7.83,6.91-13.6,7-14,.29-28,.58-42,1.17-9.33.39-16.77-2.53-22.72-10-7.06-8.85-14.74-17.21-22-25.9-36.79-43.93-73-88.36-110.48-131.69-27.92-32.27-54.64-65.48-81.68-98.46-41-50-82.39-99.58-123.7-149.27-6.77-8.14-12.2-17.48-20.9-24-25.16-1.5-50.48,2.24-74.06-2.71-4.49-6.41-3.43-11.88-3.43-17.12,0-24,.31-48,.27-72,0-10.65-.48-21.3-.92-31.93-.2-4.71-.44-9.31,2.82-13.34,3.76-3.67,8.64-2.64,13.17-2.64,23.33,0,46.66.24,70,.19q127-.28,253.93-.65c11.23,0,22.46.73,33.75,1.13,1.33,4.15,3.08,7.24,3.23,10.41,1.7,35.94,3.18,71.89,4.64,107.84a9.09,9.09,0,0,1-3.44,8.09c-3.77,2.74-9.28,1.34-14.44,1.41-22,.3-44,.31-66,.5a93.81,93.81,0,0,0-14,.65c-9.1,1.46-13,10.34-7.81,18.2s11,15,16.57,22.5q71.63,96.2,143.28,192.35a191.62,191.62,0,0,0,12.65,15.47c5.36,5.79,11.28,6.45,17.93,2a75.86,75.86,0,0,0,10.52-9.13q27.75-27.39,55.36-54.91,89.45-88.68,178.89-177.37c31.21-31,62.46-61.94,93.38-93.22,10.29-10.41,19.45-21.94,29.39-32.71,10.57-11.43,22.54-11.79,32.71-.46,69.51,77.45,146.57,147.42,219.38,221.61,45.27,46.13,91.65,91.18,137.6,136.64a75.87,75.87,0,0,0,12.22,10.16c5.91,3.78,11.55,2.93,16.28-2.1a153.38,153.38,0,0,0,11.46-13.85q79.38-106.6,158.62-213.3a29.4,29.4,0,0,0,4.06-6.76,10.86,10.86,0,0,0-8.61-15,92.5,92.5,0,0,0-13.94-.74c-22-.2-44-.21-66-.51-5.18-.07-10.68,1.33-15.44-2-3.79-4.68-3-10.2-2.62-15.35,2.94-36.31,0-73,6.7-110.38,11.58-.43,22.1-1.17,32.61-1.16q161,.11,321.91.43c5.28,0,10.56,0,14,0,5.5,3.81,6.79,7.55,6.49,11.7-2.65,36,.25,71.94-.5,107.9-.11,5.25,1,10.73-3,16.3-11.18,5.53-24,3.09-36.48,3.55-12.63.47-25.29.11-40.87.11-1.16,1.58-3.36,4.93-5.9,8-29.25,35.48-58.65,70.83-87.8,106.39-30,36.58-59.58,73.46-89.6,110-11.84,14.41-24.54,28.11-36.54,42.39q-57.88,68.85-115.57,137.88c-6,7.13-12.23,14.05-18.45,21-1.71,1.91-3.31.81-4.68-.73-2.91-4.17,1.19-7.18,1.81-10.76,1.42-8.23-2.31-16.15-9.43-19.77a17.64,17.64,0,0,0-20.09,3.12,18.31,18.31,0,0,0-3,21.79c4,6.74,12.27,10,20.43,8C2150.25-108.86,2152.92-113.26,2157.33-110.65ZM1744.86-617.38c12.81-.19,20-5.88,21.08-15.48,1.2-11.19-6.92-19.76-19.23-20.3-12.46-.54-21.59,7-21.78,17.92A17.08,17.08,0,0,0,1738.41-618,48.67,48.67,0,0,0,1744.86-617.38ZM947.5-647.27c-.16-9.05-9-17.67-18.17-17.63-9.54,0-17.34,8.21-17.28,18.07a16.93,16.93,0,0,0,17.73,17.3C939.56-629.71,947.66-637.81,947.5-647.27Zm294.35-17.63c-9.44-.33-17.6,7.73-17.79,17.56-.2,10.17,7.11,17.73,17.21,17.81a17.89,17.89,0,0,0,18.2-17.22C1259.68-655.78,1251.13-664.59,1241.85-664.9Zm1025.68,17.53c-.24-9-9.21-17.63-18.29-17.53-9.57.11-17.27,8.28-17.15,18.18.12,10.11,7.7,17.44,17.79,17.19C2259.63-629.77,2267.78-638,2267.53-647.37Zm312,.43c.08-9-8.64-17.78-17.84-18-9.5-.19-17.5,7.88-17.59,17.75-.09,10.18,7.28,17.66,17.37,17.62C2571.27-629.57,2579.43-637.44,2579.51-646.94Zm-17.72,63.46c-10.22-.19-17.64,7.06-17.7,17.27-.05,10,7.63,18,17.24,18.06,9.17.06,17.84-8.34,18.17-17.61S2571.5-583.3,2561.79-583.48ZM947.48-566.77c-.44-9.46-8.89-17-18.7-16.71-10,.32-17.14,8.15-16.7,18.28.44,9.78,8.84,17.64,18.26,17.08C939.59-548.66,947.89-557.7,947.48-566.77Zm1301.88-26.12c-9.57,0-17.34,8.17-17.27,18.06.07,10.17,7.52,17.46,17.68,17.28,9.77-.19,17.92-8.31,17.75-17.7C2267.36-584.27,2258.44-592.94,2249.36-592.89ZM1259.5-575.38c-.22-9-9.21-17.65-18.28-17.51-9.59.14-17.28,8.3-17.16,18.19.12,10.12,7.69,17.4,17.84,17.15C1251.68-557.79,1259.74-565.95,1259.5-575.38Zm149.65,449.64a17.71,17.71,0,0,0-18.46-16.88c-9.42.41-17.75,9.33-17.21,18.43s9.7,17.54,18.77,17.06A18.11,18.11,0,0,0,1409.15-125.74Zm690.06-16.92c-9.56.16-17.85,8.6-17.63,18,.22,9.19,9.06,17.76,18.17,17.61,9.4-.16,17.56-8.65,17.47-18.15A17.87,17.87,0,0,0,2099.21-142.66ZM1367.64-124.8c.18-9.13-8.37-17.66-17.88-17.82a17.22,17.22,0,0,0-17.64,17.48c-.06,9.83,7.83,18.06,17.27,18C1358.55-107.15,1367.47-115.79,1367.64-124.8Z" transform="translate(243.83 1070.61)"/><path class="cls-3" d="M1481.29-94.68c-14.19-.19-27.22,2-39.65-2.58.71-3.6.56-5.2,1.28-6.12q144.75-184.73,289.61-369.31c3.6.48,3.48,3.16,3.47,5.79,0,13.33,1.67,27-.59,39.9-2.33,13.38-14.88,21.55-22.86,32q-105.77,138.07-212.27,275.58C1494.2-111.55,1488.15-103.63,1481.29-94.68Z" transform="translate(243.83 1070.61)"/><path class="cls-3" d="M1756-471.89c13,13.45,286.85,359.88,292.42,369.52.53.93-.1,2.54-.23,4.29-.69.61-1.53,2-2.63,2.21-11.16,2.72-22.48.62-32,1.5-5-1.71-7.08-4.24-9.13-6.9q-112.76-146.48-225.55-292.91c-6.49-8.42-12.6-17.14-19.1-25.55a18.35,18.35,0,0,1-4.06-11C1755.41-443.27,1755.14-455.81,1756-471.89Z" transform="translate(243.83 1070.61)"/><path class="cls-3" d="M2142.7-531.43c-1.7-15.18,2.78-94.14,6.82-117l40.1-25.68c3.76,1.94,5,4.3,5.41,6.9a52.62,52.62,0,0,1,.75,9.87c-1,33.11-2.1,66.21-3.22,100.93a219.69,219.69,0,0,1-42.48,26.75A5.7,5.7,0,0,1,2142.7-531.43Z" transform="translate(243.83 1070.61)"/><path class="cls-3" d="M1298.26-673.66c10.29.31,14.59,8.39,21.43,11.84,7.09,3.58,13.65,8.21,22.09,13.39,4.67,18.14,2.45,38.28,4.75,57.94s2.58,39.67,2.75,58.47c-5.08,4.25-8.92,2.73-12.38.76-13.28-7.58-26.49-15.3-38-25C1296-578.14,1295.41-659.27,1298.26-673.66Z" transform="translate(243.83 1070.61)"/><path class="cls-3" d="M2256.11-520.3c.85,3.32-.57,5.64-2.28,7.65a63.39,63.39,0,0,1-6.95,7c-20.73,17.81-20.75,17.85-48.3,15.23-11.24-1.07-22.45-2.42-33.66-3.67A50.53,50.53,0,0,1,2159-495c-2.75-.62-5-2.33-5.55-5a6.32,6.32,0,0,1,2.65-7c3.88-2.54,7.75-5.11,11.79-7.37,23.69-13.23,23.7-13.24,50.81-12.32,9.29.31,18.58.72,27.86,1.3C2250.57-525.14,2254.51-524.36,2256.11-520.3Z" transform="translate(243.83 1070.61)"/><path class="cls-3" d="M1235.35-520.9c3.42-3.84,8.09-4.23,12.73-4.49,7.94-.45,16.05.16,23.79-1.3,23.7-4.48,42.29,6.93,60.94,18.47a11.1,11.1,0,0,1,3.76,4.4,5.41,5.41,0,0,1-1.69,7,11.25,11.25,0,0,1-5.44,2.16c-17.77,1.85-35.57,3.43-53.34,5.31a21.09,21.09,0,0,1-16.58-4.85c-6.11-5.06-12.65-9.62-18.71-14.75C1237.27-511.93,1234.23-515.58,1235.35-520.9Z" transform="translate(243.83 1070.61)"/><path class="cls-3" d="M2138.12-346.4c-1.64-.66-3.67-1.07-5.16-2.2s-2.5-3-3.48-4.24c-1.05-5,1.68-8,4.23-11.06,24.3-29.08,48.82-58,72.9-87.24,7.65-9.3,16.42-12.37,27.56-9.17,1,3.55-.84,5.62-2.46,7.67C2202.6-415.92,2150-356.2,2138.12-346.4Z" transform="translate(243.83 1070.61)"/><path class="cls-3" d="M1352.86-346.24c-9.25-7.53-83-91.39-94.94-108-1-1.42-.93-3.62-1.46-5.89,11.06-3.61,19.54-1.1,26.76,7.59,24.69,29.73,49.6,59.29,74.43,88.9,2.62,3.12,5.24,6.44,3.88,10.72C1360.51-349.78,1358.21-347.24,1352.86-346.24Z" transform="translate(243.83 1070.61)"/><path class="cls-3" d="M2531.57-505.89c15.92-1.07,31.58-1.05,46.12-.86,3.23,5.13,1.93,7.91-.52,10.5q-2.73,2.87-5.39,5.8c-24.29,26.85-29.23,28.29-68.61,19.31C2510.73-484.6,2521.33-495,2531.57-505.89Z" transform="translate(243.83 1070.61)"/><path class="cls-3" d="M942.44-467.5c-22.86-20.33-27.06-25.26-31.16-36.28.92-.86,1.83-2.47,2.75-2.48,15.18-.16,30.36-.11,45.32-.11,10.92,11.28,21,22.32,29.84,35.42-3,1.15-4.76,2.36-6.54,2.41C969.42-468.15,956.23-465.8,942.44-467.5Z" transform="translate(243.83 1070.61)"/><path class="cls-1" d="M1744.86-617.38a48.67,48.67,0,0,1-6.45-.65,17.08,17.08,0,0,1-13.48-17.21c.19-10.94,9.32-18.46,21.78-17.92,12.31.54,20.43,9.11,19.23,20.3C1764.9-623.26,1757.67-617.57,1744.86-617.38Z" transform="translate(243.83 1070.61)"/><path class="cls-1" d="M947.5-647.27c.16,9.46-7.94,17.56-17.72,17.74a16.93,16.93,0,0,1-17.73-17.3c-.06-9.86,7.74-18,17.28-18.07C938.46-664.94,947.34-656.32,947.5-647.27Z" transform="translate(243.83 1070.61)"/><path class="cls-1" d="M1241.85-664.9c9.28.31,17.83,9.12,17.62,18.15a17.89,17.89,0,0,1-18.2,17.22c-10.1-.08-17.41-7.64-17.21-17.81C1224.25-657.17,1232.41-665.23,1241.85-664.9Z" transform="translate(243.83 1070.61)"/><path class="cls-1" d="M2267.53-647.37c.25,9.36-7.9,17.6-17.65,17.84-10.09.25-17.67-7.08-17.79-17.19-.12-9.9,7.58-18.07,17.15-18.18C2258.32-665,2267.29-656.41,2267.53-647.37Z" transform="translate(243.83 1070.61)"/><path class="cls-1" d="M2579.51-646.94c-.08,9.5-8.24,17.37-18.06,17.41-10.09,0-17.46-7.44-17.37-17.62.09-9.87,8.09-17.94,17.59-17.75C2570.87-664.72,2579.59-655.94,2579.51-646.94Z" transform="translate(243.83 1070.61)"/><path class="cls-1" d="M2561.79-583.48c9.71.18,18,8.51,17.71,17.72s-9,17.67-18.17,17.61c-9.61-.05-17.29-8.1-17.24-18.06C2544.15-576.42,2551.57-583.67,2561.79-583.48Z" transform="translate(243.83 1070.61)"/><path class="cls-1" d="M947.48-566.77c.41,9.07-7.89,18.11-17.14,18.65-9.42.56-17.82-7.3-18.26-17.08-.44-10.13,6.71-18,16.7-18.28C938.59-583.79,947-576.23,947.48-566.77Z" transform="translate(243.83 1070.61)"/><path class="cls-1" d="M2249.36-592.89c9.08-.05,18,8.62,18.16,17.64.17,9.39-8,17.51-17.75,17.7-10.16.18-17.61-7.11-17.68-17.28C2232-584.72,2239.79-592.85,2249.36-592.89Z" transform="translate(243.83 1070.61)"/><path class="cls-1" d="M1259.5-575.38c.24,9.43-7.82,17.59-17.6,17.83-10.15.25-17.72-7-17.84-17.15-.12-9.89,7.57-18,17.16-18.19C1250.29-593,1259.28-584.42,1259.5-575.38Z" transform="translate(243.83 1070.61)"/><path class="cls-1" d="M1409.15-125.74a18.11,18.11,0,0,1-16.9,18.61c-9.07.48-18.23-7.84-18.77-17.06s7.79-18,17.21-18.43A17.71,17.71,0,0,1,1409.15-125.74Z" transform="translate(243.83 1070.61)"/><path class="cls-1" d="M2099.21-142.66a17.87,17.87,0,0,1,18,17.42c.09,9.5-8.07,18-17.47,18.15-9.11.15-17.95-8.42-18.17-17.61C2081.36-134.06,2089.65-142.5,2099.21-142.66Z" transform="translate(243.83 1070.61)"/><path class="cls-1" d="M2157.33-110.65c-4.41-2.61-7.08,1.79-10.63,2.66-8.16,2-16.45-1.21-20.43-8a18.31,18.31,0,0,1,3-21.79,17.64,17.64,0,0,1,20.09-3.12c7.12,3.62,10.85,11.54,9.43,19.77-.62,3.58-4.72,6.59-1.81,10.76Z" transform="translate(243.83 1070.61)"/><path class="cls-1" d="M1367.64-124.8c-.17,9-9.09,17.65-18.25,17.69-9.44,0-17.33-8.2-17.27-18a17.22,17.22,0,0,1,17.64-17.48C1359.27-142.46,1367.82-133.93,1367.64-124.8Z" transform="translate(243.83 1070.61)"/><path class="cls-3" d="M2154.27-99.87l16.88-19.93-11.57-.45a18.91,18.91,0,0,1-3,6.42,19,19,0,0,1-5.45,5l5.53,6.28" transform="translate(243.83 1070.61)"/><line class="cls-4" x1="2405" y1="963.43" x2="2464.82" y2="892.43"/><circle class="cls-5" cx="2385.75" cy="946.18" r="18.25"/><path class="cls-6" d="M3115.63-802.85c4.31-5.58,9.06-11.32,14.3-17.12A291,291,0,0,1,3165-852.92a386,386,0,0,0-24.1,35.08c-4.5,7.38-8.55,14.59-12.21,21.56" transform="translate(243.83 1070.61)"/><line class="cls-7" x1="3395.81" y1="238.2" x2="3405.19" y2="224.4"/></svg>